<?xml version="1.0" encoding="UTF-8" standalone="no"?>
<!-- Created with Inkscape (http://www.inkscape.org/) -->

<svg
   xmlns:dc="http://purl.org/dc/elements/1.1/"
   xmlns:cc="http://creativecommons.org/ns#"
   xmlns:rdf="http://www.w3.org/1999/02/22-rdf-syntax-ns#"
   xmlns:svg="http://www.w3.org/2000/svg"
   xmlns="http://www.w3.org/2000/svg"
   xmlns:sodipodi="http://sodipodi.sourceforge.net/DTD/sodipodi-0.dtd"
   xmlns:inkscape="http://www.inkscape.org/namespaces/inkscape"
   id="svg2"
   version="1.1"
   inkscape:version="0.48.5 r10040"
   width="540.00037"
   height="605.47766"
   sodipodi:docname="acorn roundel.png">
  <metadata
     id="metadata8">
    <rdf:RDF>
      <cc:Work
         rdf:about="">
        <dc:format>image/svg+xml</dc:format>
        <dc:type
           rdf:resource="http://purl.org/dc/dcmitype/StillImage" />
        <dc:title></dc:title>
      </cc:Work>
    </rdf:RDF>
  </metadata>
  <defs
     id="defs6" />
  <sodipodi:namedview
     pagecolor="#ffffff"
     bordercolor="#666666"
     borderopacity="1"
     objecttolerance="10"
     gridtolerance="10"
     guidetolerance="10"
     inkscape:pageopacity="0"
     inkscape:pageshadow="2"
     inkscape:window-width="1920"
     inkscape:window-height="1178"
     id="namedview4"
     showgrid="false"
     fit-margin-top="0"
     fit-margin-left="0"
     fit-margin-right="0"
     fit-margin-bottom="0"
     inkscape:zoom="0.78666667"
     inkscape:cx="785.30197"
     inkscape:cy="63.162412"
     inkscape:window-x="-8"
     inkscape:window-y="-8"
     inkscape:window-maximized="1"
     inkscape:current-layer="svg2" />
  <path
     style="fill:none;stroke:#0000ff;stroke-width:1.17464304;stroke-linecap:round;stroke-linejoin:bevel;stroke-miterlimit:4;stroke-opacity:1;stroke-dasharray:none"
     d="m 259.08552,603.70992 c -5.8032,-1.8519 -11.8854,-5.3069 -14.4142,-8.1878 -5.8889,-6.7093 -8.3676,-14.4121 -6.9267,-21.5264 1.2643,-6.2427 1.3645,-6.0275 -4.9266,-10.586 -13.1281,-9.5127 -19.4454,-21.8688 -16.7292,-32.7213 1.4077,-5.6242 3.6714,-9.2506 8.6489,-13.8548 7.5563,-6.9898 15.453,-8.6116 22.6048,-4.6426 l 2.6628,1.4778 0.1034,-2.9607 c 0.076,-2.1797 -0.3256,-3.4962 -1.5227,-4.9907 -0.8944,-1.1166 -1.6158,-2.3374 -1.6031,-2.7129 0.046,-1.407 -7.6138,-9.1942 -10.6997,-10.8757 -2.6217,-1.4286 -4.2835,-1.7929 -9.0987,-1.9946 -7.9805,-0.3343 -12.9395,1.6978 -19.8352,8.1281 -5.8233,5.4303 -17.8534,11.7738 -24.1408,12.7295 -5.3123,0.8075 -12.5389,0.2196 -17.2443,-1.4029 -2.014,-0.6944 -6.5721,-3.3181 -10.1291,-5.8304 -3.557,-2.5123 -9.7007,-6.3647 -13.6527,-8.5611 -9.8304,-5.4633 -15.8321,-12.4211 -18.2717,-21.1828 -1.5734,-5.6502 -0.8212,-21.7598 1.3063,-27.978 1.6306,-4.7659 1.8587,-13.2657 0.3843,-14.3207 -0.5125,-0.3667 -0.4804,-0.5189 0.1066,-0.5056 1.0468,0.024 -1.7499,-7.2235 -3.6049,-9.3416 -0.7001,-0.7993 -1.2602,-1.8152 -1.2448,-2.2575 0.015,-0.4423 -0.3063,-0.8159 -0.7151,-0.8301 -0.4087,-0.014 -1.5826,-0.669 -2.6086,-1.4549 -1.0259,-0.786 -2.8002,-1.6501 -3.9428,-1.9205 -1.1425,-0.2703 -2.0703,-0.6931 -2.0617,-0.9396 0.01,-0.2465 -0.5169,-0.5139 -1.1678,-0.5943 -12.130301,-1.4983 -12.704301,-1.5044 -15.476201,-0.1646 -1.502,0.7259 -2.2653,1.3497 -1.696,1.3861 0.5692,0.036 2.4084,1.413 4.0869,3.0591 3.412701,3.3465 5.662001,8.9543 5.496201,13.7021 -0.1222,3.5009 -2.0795,10.1389 -4.021001,13.6374 -2.5286,4.5562 -8.966903,9.9813 -13.215703,11.1359 -7.1055,1.9308 -17.3096,1.3851 -21.7799,-1.165 -0.6359,-0.3627 -1.5943,-0.6748 -2.1297,-0.6935 -0.5355,-0.019 -3.5794,-1.5151 -6.7643,-3.3254 -6.407,-3.6416 -5.4372,-3.6638 -10.14086,0.2317 -0.785,0.6501 -3.33364,2.0127 -5.66365,3.0281 -10.06045,4.3841 -22.35339,0.3998 -31.6464499,-10.2568 -3.95069,-4.5304 -4.42278,-5.6312 -6.46831987,-15.0824 -0.90089,-4.1624 -0.009,-12.7006 1.74721987,-16.7224 0.72288,-1.6556 1.48372,-3.1571 1.69074,-3.3366 0.20702,-0.1796 0.96291,-1.3756 1.67974,-2.6579 0.71683,-1.2823 1.68585,-2.7765 2.15336,-3.3205 1.72622,-2.0084 7.2861299,-5.1037 11.1627599,-6.2144 l 3.99178,-1.1437 0.52574,-6.0552 c 0.73631,-8.4805 4.64572,-18.5676 9.31356,-24.031 5.08918,-5.9565 8.57418,-7.9093 15.68798,-8.7906 8.5047,-1.0536 17.1652,2.0772 22.6123,8.1746 3.6617,4.0988 5.0675,8.0629 4.4704,12.6056 -0.5016,3.8157 -0.059,3.98 3.448,1.2805 6.0194,-4.6331 11.7856,-21.3085 9.1669,-26.5101 -0.3323,-0.6602 -1.0849,-2.3932 -1.6723,-3.8511 -0.5874,-1.4579 -2.4189,-4.134 -4.0699,-5.9469 -3.1384,-3.4463 -6.1566,-5.2694 -13.2508,-8.0036 -4.6726,-1.8009 -11.4932,-5.6011 -16.0876,-8.9634 -3.1293,-2.29 -9.15986,-8.7927 -9.15543,-9.8721 10e-4,-0.3494 -0.53752,-1.285 -1.19767,-2.0792 -1.30991,-1.5759 -2.86282,-6.8506 -3.74835,-12.7319 -1.06341,-7.0627 2.80372,-21.0291 7.10945,-25.6762 5.2267,-5.6411 6.7866,-6.8884 13.531,-10.8191 4.6833,-2.7296 12.2406,-5.828 14.0598,-5.7645 2.2639,0.079 9.555,-3.7715 12.7069,-6.7107 3.8143,-3.5569 7.656903,-10.6163 7.785603,-14.3034 0.1059,-3.0302 -0.9426,-8.0594 -2.9242,-14.0271 -0.983403,-2.9616 -2.356103,-5.1611 -4.874403,-7.8105 -1.9281,-2.0283 -3.9071,-3.7019 -4.3978,-3.719 -0.6478,-0.023 -0.9402,1.223 -1.0674,4.5469 -0.2089,5.4611 -1.2168,7.4433 -5.8781,11.5602 -4.3232,3.8183 -5.9666,4.7273 -10.7217,5.9303 -4.9527,1.253 -9.9679,1.068 -15.112,-0.5575 -8.13678,-2.5713 -14.99449,-12.6159 -17.72352,-25.96 -0.65399,-3.1979 -1.12622,-7.2517 -1.04939,-9.0085 0.0768,-1.7569 -0.0547,-3.5349 -0.29228,-3.9511 -0.23756,-0.4162 -2.88063,-2.0343 -5.87347,-3.5958 -7.01824,-3.6617 -8.73475,-5.4716 -11.60507,-12.2371 -3.7649199,-8.874 -3.6689799,-15.3254 0.40449,-27.2003 1.85532,-5.4086 4.84122,-9.5206 10.27303,-14.1477 5.99701,-5.1084 13.78276,-7.7643 21.92313,-7.4785 3.74898,0.1317 10.33548,3.6436 14.30978,7.6301 1.7708,1.7762 3.3351,2.9726 3.4761,2.6586 0.5032,-1.1199 7.9567,-4.5707 13.3561,-6.1834 7.1025,-2.1215 17.549103,-1.9129 23.413904,0.4675 4.3479,1.7647 10.2103,7.984 12.4439,13.2013 2.7962,6.5317 2.5982,16.3244 -0.4391,21.7102 -1.1856,2.1024 -5.1486,6.1245 -6.005,6.0946 -0.3338,-0.012 -1.628,0.5672 -2.8761,1.2864 -2.093,1.2062 -2.1294,1.2798 -0.4682,0.9486 0.9906,-0.1975 3.1183,0.1345 4.7282,0.7376 6.5405,2.4506 21.9845,-1.3756 24.9167,-6.1731 3.0671,-5.0181 4.1792,-7.2812 5.0644,-10.3057 1.2125,-4.143 1.6391,-8.9717 0.8878,-10.0488 -1.3104,-1.8787 -2.1349,-10.8048 -1.7721,-19.1849 0.4456,-10.2916 1.7195,-14.1916 6.8322,-20.9157 3.6863,-4.8482 7.0909,-7.4774 12.965,-10.0123 2.3941,-1.03318 6.2297,-3.112099 8.5235,-4.619859 4.9426,-3.2489 10.0777,-4.88637 16.1394,-5.14658 6.0171,-0.25829 10.777,0.93069 17.5408,4.3815 5.1666,2.636 15.7457,10.298539 16.8222,12.184539 0.5803,1.0167 5.635,3.6475 7.1068,3.6989 0.6449,0.023 1.2673,0.3618 1.3829,0.7539 0.208,0.7048 9.3189,1.3604 12.7768,0.9193 6.5119,-0.8306 18.0961,-13.33991 18.3211,-19.784229 0.048,-1.36624 -0.095,-2.49042 -0.3172,-2.49818 -0.2222,-0.008 -1.3803,0.63094 -2.5735,1.41932 -3.9446,2.6062 -16.1495,1.07299 -19.7302,-2.47854 -7.2976,-7.238096 -8.1284,-8.324186 -9.6967,-12.676066 -2.8942,-8.03106 -2.6234,-11.97291 1.4025,-20.41897 1.9577,-4.10702 8.5229,-11.88913 12.1852,-14.44373 1.419,-0.9898 2.7385,-1.96392 2.9323,-2.16471 0.1938,-0.20079 1.6241,-1.16372 3.1785,-2.13984 l 2.8262,-1.77476 -1.1533,-5.5971 c -0.9884,-4.79662 -1.0232,-6.12495 -0.2437,-9.28781 1.3377,-5.42693 4.9337,-10.5529 10.9862,-15.6600604 2.2087,-1.863721 8.1254,-4.190851 13.7388,-5.403621 5.0229,-1.08519997 6.1103,-1.10742997 10.6215,-0.21714 10.6075,2.09339 17.7694,5.895111 22.4586,11.9216314 5.159,6.63027 6.4542,10.71073 5.9251,18.66601 -0.2594,3.89894 -0.1483,4.24434 2.1954,6.87788 1.3576,1.52504 3.5113,3.53869 4.7859,4.47478 1.2747,0.93609 4.4267,3.97504 7.0045,6.75322 8.4193,9.07386 11.4892,18.94147 8.444,27.14136 -4.066,10.9485 -12.5797,17.811396 -22.4471,18.094486 -3.7162,0.10663 -4.695,-0.14805 -7.9741,-2.0751 l -3.738,-2.19664 0.02,3.62803 c 0.024,4.24232 1.6938,7.149299 7.9585,13.850279 5.359,5.7322 8.6223,7.4573 14.637,7.7379 2.6104,0.1218 5.6698,0.028 6.7986,-0.2083 4.2464,-0.889 9.8026,-4.0616 14.4616,-8.2577 7.756,-6.98525 17.7795,-12.659429 24.3651,-13.792739 6.8832,-1.18452 8.6437,-1.21087 13.7374,-0.20563 7.3878,1.45796 14.0199,4.99838 18.6916,9.977969 4.7816,5.0969 5.9727,7.0322 8.0271,13.043 2.3934,7.0028 2.769,19.452 0.8525,28.2581 -1.674,7.692 0.4935,16.7505 5.4962,22.9695 3.3334,4.1439 10.6049,6.7317 19.8568,7.0665 5.2827,0.1913 6.8035,0 9.0391,-1.1596 1.4782,-0.7642 2.6946,-1.5864 2.703,-1.827 0.01,-0.2406 -1.4733,-1.199 -3.2926,-2.1299 -4.1504,-2.1236 -6.0449,-4.3321 -7.7494,-9.0336 -2.885,-7.9579 -0.607,-18.1376 5.7508,-25.6983 3.9696,-4.7206 7.6993,-6.537 15.5596,-7.5776 6.2929,-0.8331 16.0586,0.725 21.3859,3.4121 2.1172,1.0679 7.8337,3.7045 8.0481,3.712 0.1072,0 1.561,-1.1679 3.2305,-2.6035 1.6696,-1.4357 5.0296,-3.6519 7.4665,-4.925 l 4.4308,-2.3146 6.8723,0.5918 c 5.0712,0.4367 7.6383,0.9954 9.7952,2.132 1.6076,0.8472 3.3235,1.5543 3.813,1.5714 0.4895,0.017 0.8817,0.2705 0.8715,0.5631 -0.01,0.2926 0.8624,1.0949 1.9392,1.7827 3.7285,2.3818 9.3407,8.4953 10.914,11.8888 2.4132,5.2052 3.964,13.2331 3.4007,17.6037 -1.0403,8.0705 -4.4185,14.531 -9.3736,17.9257 -3.4176,2.3414 -9.3833,5.1891 -10.7695,5.1407 -0.3704,-0.013 -0.7387,2.9502 -0.8613,6.931 -0.3326,10.8035 -1.926,15.9735 -7.8173,25.3644 -0.5732,0.9138 -2.4291,2.8802 -4.1242,4.3696 -4.9598,4.3584 -12.5839,5.9618 -20.8316,4.3812 -5.7485,-1.1017 -9.6589,-3.1453 -13.1196,-6.8565 -3.3116,-3.5512 -4.4352,-5.8332 -4.8418,-9.8331 -0.1721,-1.6933 -0.5008,-3.0751 -0.7303,-3.0707 -1.8103,0.035 -6.3465,6.2151 -7.5171,10.2415 -0.3225,1.1094 -0.768,2.6219 -0.9901,3.3612 -0.222,0.7392 -0.6283,3.5254 -0.9028,6.1915 -0.4633,4.4978 -0.3492,5.1541 1.5811,9.1019 2.1611,4.4197 6.5207,9.1375 10.2597,11.1025 1.192,0.6266 2.1587,1.3879 2.1481,1.6918 -0.011,0.304 0.5868,0.5739 1.3276,0.5998 1.3059,0.046 6.7223,1.4102 8.7614,2.2073 17.6241,6.8898 25.5736,14.6975 28.5576,28.0482 0.5598,2.5045 0.7843,7.2175 0.61,12.8088 -0.1517,4.8654 -0.022,12.217 0.2877,16.3368 0.322,4.2808 0.2922,8.9995 -0.069,11.0118 -0.793,4.4119 -5.0528,12.9449 -7.8533,15.7312 -1.1658,1.1598 -2.1286,2.3271 -2.1397,2.594 -0.022,0.524 -11.3773,7.606 -12.1525,7.5789 -0.258,-0.01 -1.2987,0.5125 -2.3128,1.1589 -1.014,0.6465 -2.9256,1.5274 -4.248,1.9577 -1.3224,0.4302 -3.0225,0.9825 -3.7781,1.2272 -6.2926,2.038 -13.3889,7.0197 -15.7335,11.045 -3.7019,6.3555 -4.2555,11.156 -2.1346,18.5078 0.8859,3.0708 2.2779,6.7465 3.0932,8.1683 0.8154,1.4218 1.4781,2.8202 1.4727,3.1076 -0.01,0.5049 4.237,3.7269 4.9446,3.7516 0.1917,0.01 0.3977,-1.3934 0.4577,-3.1113 0.1382,-3.9583 2.6014,-8.551 6.5327,-12.1805 6.4241,-5.9308 17.2372,-7.8974 26.5598,-4.8306 6.1709,2.0301 12.8137,9.588 15.6136,17.7644 1.9796,5.7812 2.5797,8.9621 2.7918,14.7981 l 0.2259,6.2192 4.7721,1.6141 c 2.6247,0.8878 5.5144,2.2362 6.4217,2.9964 0.9072,0.7602 1.9701,1.4002 2.362,1.4222 0.9181,0.052 6.3835,10.0123 7.2712,13.252 1.7671,6.4489 -0.3347,19.1306 -3.9236,23.674 -7.6207,9.6479 -16.7089,14.2104 -27.5856,13.849 -3.9987,-0.133 -5.4085,-0.5169 -8.7456,-2.3825 -2.1882,-1.2232 -5.0774,-3.1607 -6.4206,-4.3054 l -2.4421,-2.0813 -2.6257,1.3453 c -1.4441,0.74 -2.9386,1.5538 -3.321,1.8086 -0.3824,0.2549 -2.7088,1.2377 -5.1698,2.1842 -8.8713,3.4118 -17.5992,3.7644 -25.8437,1.0438 -5.2187,-1.7221 -11.7164,-8.7062 -13.5696,-14.5855 -2.5025,-7.9394 -2.6639,-9.4658 -1.468,-13.8882 1.5992,-5.9141 3.3722,-8.8057 6.9181,-11.2829 1.7228,-1.2035 3.2313,-2.4222 3.3521,-2.7081 0.3409,-0.8065 -5.321,-2.7336 -7.5928,-2.5843 -8.1828,0.5378 -14.9189,2.0649 -17.1469,3.8874 -0.7938,0.6494 -1.8051,1.168 -2.2474,1.1526 -0.4423,-0.016 -0.8123,0.2039 -0.8222,0.4875 -0.01,0.2837 -0.7618,1.2638 -1.671,2.1781 -0.9092,0.9144 -2.5501,3.6958 -3.6465,6.1811 -2.4049,5.4516 -2.6817,11.4128 -0.9008,19.4093 1.4049,6.3086 1.2355,24.5425 -0.2407,25.9213 -0.4827,0.4507 -0.8957,1.34 -0.918,1.9764 -0.037,1.07 -2.8036,6.5269 -3.6854,7.2701 -0.2128,0.1793 -1.3276,1.5156 -2.4773,2.9696 -3.0993,3.9194 -5.8218,6.0702 -10.4427,8.2498 -4.7015,2.2176 -16.4292,8.72 -16.9673,9.4075 -1.3406,1.7129 -7.7093,4.0729 -13.0737,4.8446 -5.2799,0.7596 -6.7957,0.7352 -11.0189,-0.1768 -2.6932,-0.5817 -6.6959,-2.0472 -8.8948,-3.2568 -2.1989,-1.2095 -4.9737,-2.7019 -6.1662,-3.3163 -1.1925,-0.6145 -2.1597,-1.3588 -2.1494,-1.6542 0.01,-0.2953 -0.3627,-0.5551 -0.8288,-0.5774 -0.4661,-0.022 -1.7942,-0.9091 -2.9512,-1.9707 -1.157,-1.0616 -3.4776,-3.2006 -5.1569,-4.7534 -6.6868,-6.183 -14.828,-9.1762 -21.5378,-7.9188 -2.0876,0.3912 -4.9309,1.3126 -6.3185,2.0475 -2.4998,1.3238 -10.5932,8.7861 -10.6286,9.7997 -0.01,0.2897 -0.7966,1.669 -1.7477,3.0652 -1.7118,2.5129 -3.5013,9.2424 -2.3195,8.7227 0.3348,-0.1472 2.3889,-1.0516 4.5645,-2.0098 2.1756,-0.9581 4.8004,-1.7331 5.8328,-1.7222 2.4821,0.026 10.2475,2.3434 11.5343,3.4419 5.0281,4.2922 8.455,8.0068 9.5823,10.3868 5.4446,11.4951 2.8947,22.7021 -7.5503,33.1844 -3.4571,3.4694 -12.7576,10.1986 -14.034,10.154 -0.4457,-0.015 -0.6051,0.5283 -0.3855,1.3145 1.6171,5.7886 1.145,14.7993 -0.9252,17.6556 -0.6602,0.9107 -1.618,2.6069 -2.1286,3.7691 -0.5106,1.1623 -1.8178,2.8516 -2.9048,3.7541 -1.087,0.9025 -2.2471,2.0367 -2.5779,2.5205 -0.8762,1.2813 -7.3233,4.7877 -10.3845,5.6479 -1.4486,0.4071 -3.3041,0.9652 -4.1234,1.2403 -3.4377,1.1544 -9.4263,0.9709 -13.7937,-0.4228 z m 16.7398,-13.7546 c 6.7184,-4.439 6.3804,-15.1638 -0.6,-19.0377 -2.9041,-1.6117 -6.0945,-2.0472 -6.1367,-0.8377 -0.018,0.5219 -0.3413,0.4811 -1.0269,-0.1296 -0.8188,-0.7292 -1.2529,-0.678 -2.3915,0.2824 -0.7651,0.6453 -2.063,1.4826 -2.884,1.8606 -4.1882,1.9284 -5.8682,10.608 -2.8715,14.8352 2.3839,3.3625 5.3304,4.7545 9.8261,4.642 2.6158,-0.065 4.4931,-0.5638 6.0845,-1.6152 z m -25.1771,-41.3948 c 3.4688,-2.4592 5.1099,-5.3072 5.2454,-9.1034 0.2425,-6.7911 -3.921,-11.4854 -10.3869,-11.7112 -4.5412,-0.1586 -7.6559,1.0602 -9.7782,3.8263 -1.3866,1.8073 -1.7356,3.0616 -1.8607,6.6887 -0.1298,3.7939 0.1061,4.8313 1.5786,6.9083 3.5355,4.9871 10.6972,6.5847 15.2018,3.3913 z m 43.8314,1.8892 c 6.2096,-1.4929 9.8783,-8.8087 7.4286,-14.8136 -1.4708,-3.6052 -3.1304,-5.1356 -7.0893,-6.5372 -3.552,-1.2576 -3.8875,-1.27 -6.7324,-0.2506 -5.4474,1.9521 -7.5392,4.7756 -7.7329,10.4375 -0.2808,8.214 5.9412,13.1315 14.126,11.1638 z m -19.5547,-57.7607 c 6.0337,-4.3631 7.3932,-5.6639 6.8727,-6.5757 -0.19,-0.3329 0.6833,-0.994 1.9407,-1.4689 2.8802,-1.0879 8.3792,-5.8033 10.3261,-8.8546 0.9778,-1.5324 1.5259,-3.511 1.6077,-5.8032 0.078,-2.1567 0.4965,-3.7657 1.1045,-4.2356 0.5394,-0.4167 3.8501,-1.1427 7.3571,-1.6133 9.2732,-1.2444 13.0437,-4.1172 15.667,-11.9367 2.2589,-6.7335 0.4576,-15.6371 -4.9182,-24.31 -2.4514,-3.9549 -3.6661,-5.1818 -6.9655,-7.0365 -3.8094,-2.1411 -4.0093,-2.3865 -4.271,-5.2426 -0.4512,-4.9239 -4.7822,-13.7625 -9.744,-19.8853 -5.4933,-6.7788 -15.2189,-12.385 -22.0169,-12.6914 -4.9744,-0.2242 -12.8008,2.7161 -17.6559,6.6331 -6.9532,5.6098 -14.4778,16.6314 -16.4078,24.0329 -0.9494,3.6409 -1.217,3.9905 -3.8695,5.0548 -4.2339,1.6988 -6.2203,3.3886 -9.0482,7.6975 -6.576,10.0196 -8.1351,18.8394 -4.7183,26.6925 2.6977,6.2005 5.2305,7.8877 14.7469,9.8233 4.1412,0.8423 7.6319,1.6415 7.7573,1.7759 0.1253,0.1344 0.4503,1.9943 0.7222,4.133 0.7973,6.2727 4.9211,12.2515 10.1719,14.7474 1.4942,0.7103 2.5739,1.6281 2.3992,2.0397 -0.5274,1.2428 10.5919,10.8969 12.6328,10.9682 0.4482,0.016 3.2873,-1.7594 6.3092,-3.9445 z m -95.2936,-5.2951 c 7.8534,-0.6769 10.4642,-1.7397 15.5234,-6.3196 7.365,-6.6672 10.057,-15.2941 7.7289,-24.7679 -0.5092,-2.0722 -1.2296,-4.9556 -1.6009,-6.4076 -0.9804,-3.8344 -4.6547,-10.813 -7.1334,-13.5486 -5.1664,-5.702 -14.0004,-7.0471 -27.1003,-4.1263 -7.2098,1.6075 -10.7939,3.2744 -13.5267,6.2907 -0.9447,1.0427 -2.0598,2.2322 -2.4781,2.6434 -2.9506,2.9003 -5.9861,12.3277 -5.5866,17.35 0.302,3.7955 3.1491,11.6394 5.5672,15.3377 1.0618,1.6239 3.5594,3.9583 5.668,5.2976 2.0734,1.3169 5.2424,3.3881 7.0422,4.6027 2.8245,1.9061 7.1163,3.7513 9.4303,4.0545 0.3816,0.05 3.2913,-0.133 6.466,-0.4066 z m 185.9993,3.6157 c 3.0825,-0.7125 5.9953,-2.1883 16.2107,-8.2134 3.9899,-2.3533 5.587,-3.7818 7.3078,-6.5361 2.6004,-4.1627 5.0624,-10.8336 5.3255,-14.43 0.3268,-4.4671 -1.9294,-12.1843 -4.6225,-15.8107 -4.6508,-6.2628 -7.5777,-8.0669 -16.6591,-10.2684 -21.3149,-5.1672 -32.4891,1.9181 -38.4832,24.4014 -1.3504,5.0649 -0.8472,11.5207 1.2716,16.3139 1.9209,4.3455 7.0921,10.082 10.668,11.8342 5.9446,2.9127 13.4599,3.9854 18.9812,2.7091 z M 79.171516,441.80292 c 3.5112,-1.9761 5.0834,-4.9077 5.2573,-9.8029 0.1441,-4.0477 0.041,-4.3287 -2.7597,-7.5084 -2.639,-2.9966 -3.249,-3.3436 -6.5672,-3.7358 -4.9052,-0.5797 -8.2222,0.8838 -10.9117,4.8143 -3.7571,5.4909 -2.6238,11.6194 2.8886,15.6209 2.9568,2.1463 8.8376,2.4439 12.0927,0.6119 z m 394.223004,8.7267 c 3.413,-3.4323 4.9959,-9.8326 3.3138,-13.3992 -3.4806,-7.3799 -12.2155,-9.1017 -18.598,-3.666 -1.4482,1.2335 -1.8567,2.2247 -2.7524,6.679 -0.5717,2.8432 0.6354,6.7878 2.8322,9.2545 2.3694,2.6605 3.4459,3.0036 9.1589,2.9192 3.6501,-0.054 4.6014,-0.3352 6.0455,-1.7875 z m 44.6812,2.7775 c 6.2153,-2.6877 8.3439,-11.6681 4.0968,-17.2838 -0.9561,-1.264 -2.676,-2.3035 -4.9282,-2.9785 -3.023,-0.9061 -4.0941,-0.9139 -8.487,-0.062 -4.2184,0.8177 -5.0147,1.1868 -4.9483,2.2941 0.043,0.7257 -0.4386,2.737 -1.0714,4.4695 -1.0447,2.8598 -1.059,3.4618 -0.1557,6.5362 0.5472,1.8625 1.5007,3.8773 2.1188,4.4772 3.46,3.3582 9.042,4.4214 13.375,2.5476 z M 27.035616,434.26732 c 0.22019,-0.5189 1.20605,-1.1161 2.19079,-1.327 4.21699,-0.9032 7.82086,-5.3917 7.97962,-9.9383 0.0593,-1.6984 -0.25759,-2.1161 -5.05177,-6.658 -4.69856,-4.4513 -10.0608,-5.1197 -14.9829,-1.8676 -6.32713,4.1804 -6.01329,14.8343 0.55846,18.9581 2.87363,1.8031 8.67376,2.3222 9.3058,0.8328 z m 142.139504,-20.3902 c 4.4149,-2.3699 9.0331,-6.8423 12.2377,-11.8511 1.4777,-2.3097 2.6966,-4.4829 2.7087,-4.8292 0.012,-0.3463 0.3272,-0.619 0.7003,-0.606 0.3973,0.014 0.7592,-2.2913 0.8735,-5.5646 l 0.1951,-5.5882 3.0393,-2.6182 c 6.4419,-5.5496 11.9335,-15.3027 14.8704,-26.4101 0.8545,-3.2317 0.104,-13.7448 -1.2688,-17.7735 -1.5316,-4.4947 -10.0497,-11.7354 -16.8824,-14.3508 -4.493,-1.7198 -6.7334,-2.1358 -13.8326,-2.5687 -4.6591,-0.2841 -9.7031,-0.2432 -11.2089,0.091 -5.8157,1.2899 -6.0654,1.2561 -9.5924,-1.3006 -3.8176,-2.7675 -7.2098,-3.6174 -14.5101,-3.6356 -10.2051,-0.025 -18.0802,3.9208 -22.5273,11.2881 -2.163,3.5834 -2.0845,9.1026 0.2316,16.2839 1.9174,5.9453 1.9579,6.7479 0.3636,7.1982 -2.1868,0.6175 -6.2444,4.5407 -7.8461,7.5863 -1.004,1.9089 -1.798,4.9704 -2.1819,8.413 -0.332,2.9766 -0.8967,5.5897 -1.2549,5.8069 -0.8997,0.5455 -2.8853,9.5965 -3.0342,13.8307 -0.115,3.2707 0.01,3.5505 2.0467,4.5738 6.8302,3.4323 10.4095,4.9627 12.2119,5.2215 1.115,0.1602 3.0753,0.9087 4.3563,1.6634 5.5805,3.2882 13.103,4.3971 17.8008,2.6242 1.3588,-0.5129 2.92,-0.9168 3.4692,-0.8976 0.5493,0.019 2.6881,2.5024 4.7529,5.5183 3.5037,5.1176 7.2367,8.5289 10.405,9.5082 3.1994,0.989 10.6409,0.124 13.8766,-1.613 z m 220.1172,5.2128 c 1.4996,-0.5922 3.7596,-2.4562 5.4279,-4.4767 7.1828,-8.6988 6.9453,-8.5479 10.3976,-6.6071 1.0493,0.5899 3.548,1.3236 5.5527,1.6305 2.93,0.4485 4.2355,0.2977 6.655,-0.7688 1.6556,-0.7297 3.1358,-1.192 3.2894,-1.0272 0.1536,0.1648 1.5046,-0.5244 3.0021,-1.5314 1.6427,-1.1046 3.2388,-1.6766 4.0236,-1.4418 1.218,0.3644 4.8344,-0.8513 11.3498,-3.8152 2.5636,-1.1663 2.7763,-1.4664 2.8183,-3.9764 0.078,-4.631 -1.2247,-12.2298 -2.2375,-13.0566 -0.5805,-0.4739 -0.9331,-1.9742 -0.8851,-3.7662 0.2096,-7.8211 -2.7809,-14.3836 -8.0202,-17.5998 -1.1885,-0.7295 -2.1491,-1.6639 -2.1347,-2.0764 0.014,-0.4124 1.0703,-3.5914 2.3464,-7.0643 1.2761,-3.4729 2.3702,-6.7711 2.4314,-7.3292 0.1993,-1.8165 -0.7457,-6.8193 -1.6508,-8.7398 -1.5806,-3.3537 -6.3227,-7.6126 -10.4797,-9.4119 -3.5053,-1.5172 -5.1133,-1.7693 -12.6853,-1.989 -8.0019,-0.2322 -11.1726,0.2345 -12.7785,1.8811 -0.1937,0.1985 -1.3734,1.0226 -2.6216,1.8311 -2.2609,1.4646 -2.2861,1.4652 -6.7968,0.1555 -10.3981,-3.0192 -27.2062,-0.4928 -34.9919,5.2597 -6.968,5.1482 -8.1221,7.0363 -9.9056,16.2038 -1.4199,7.2988 1.6092,18.2779 7.8764,28.5483 1.7735,2.9064 6.7851,8.352 7.7391,8.4093 0.2317,0.014 0.4873,2.3961 0.568,5.2938 0.1221,4.3865 0.5207,6.0075 2.3815,9.6838 7.0476,13.9237 18.4696,20.0695 29.3285,15.7809 z m -165.9084,-5.1679 c 2.4199,-0.6024 6.3195,-5.1307 6.9102,-8.0241 0.6454,-3.1617 -1.0073,-9.556 -3.9399,-15.2429 -3.6163,-7.0129 -3.5973,-7.0013 -11.9525,-7.2931 -9.673,-0.3378 -13.4211,0.3713 -16.2259,3.07 -2.7565,2.6521 -4.399,7.7639 -3.5536,11.0591 0.5032,1.9611 1.2789,2.6261 5.6049,4.8047 8.9876,4.5261 9.6999,4.9951 9.4464,6.2195 -0.1538,0.7427 0.2016,1.1749 0.9888,1.2024 0.6759,0.024 2.3374,0.8541 3.6922,1.8456 1.3548,0.9914 3.1443,2.1013 3.9765,2.4664 1.4842,0.6511 2.0541,0.639 5.0529,-0.1076 z m 101.2131,2.4805 c 1.3687,0.042 2.1404,-0.1625 1.7149,-0.4545 -1.1386,-0.7815 7.0769,-7.4998 8.4556,-6.9147 0.5841,0.2479 1.8292,-0.015 2.7668,-0.5832 0.9377,-0.5686 2.0613,-1.0214 2.497,-1.0062 0.4357,0.015 1.3048,-0.4971 1.9313,-1.1385 0.6265,-0.6415 1.9825,-1.6614 3.0134,-2.2666 2.5148,-1.4764 3.2079,-4.7514 1.9277,-9.1084 -1.9408,-6.6054 -7.094,-9.2266 -18.9538,-9.6407 l -6.7989,-0.2375 -2.1878,2.4704 c -2.5098,2.8341 -6.5825,11.85 -7.2126,15.9668 -0.5354,3.4985 0.5794,7.441 2.6614,9.4124 2.3612,2.2358 5.7369,4.0968 6.781,3.7384 0.5035,-0.1728 2.0353,-0.2798 3.404,-0.2377 z M 52.629016,394.65492 c 5.4748,-1.3164 9.8594,-8.6307 7.8599,-13.1115 -2.703,-6.0574 -4.2863,-7.6594 -8.4783,-8.5782 -4.0606,-0.89 -6.58014,-0.3505 -9.5979,2.0553 -6.43762,5.1322 -5.36459,14.9439 2.071,18.9373 2.5577,1.3736 4.6038,1.5487 8.1453,0.6971 z m 444.571004,14.8814 c 0.7444,-0.4296 2.0283,-1.8698 2.853,-3.2006 3.4868,-5.6266 3.0132,-11.0951 -1.321,-15.252 -2.5509,-2.4466 -3.0654,-2.6538 -6.9229,-2.7885 -3.6806,-0.1285 -4.4812,0.095 -6.8554,1.917 -9.3154,7.1475 -4.5355,20.8175 7.0915,20.2806 2.0907,-0.096 4.4104,-0.527 5.1548,-0.9565 z m 18.5658,0.6483 c -1.2855,-0.8958 -2.0053,-0.9209 -2.035,-0.071 -0.013,0.373 0.6633,0.6976 1.5029,0.7212 1.2345,0.034 1.3363,-0.09 0.5321,-0.6502 z m -251.35,-43.7195 c 2.337,-1.2839 4.8077,-2.9097 5.4903,-3.613 0.6826,-0.7034 1.4643,-1.271 1.737,-1.2615 0.2728,0.01 2.2446,1.2591 4.382,2.7768 2.1373,1.5177 5.311,3.3485 7.0526,4.0686 2.9737,1.2294 3.2749,1.2434 4.9466,0.2296 3.4961,-2.1201 3.6658,-3.7459 1.0114,-9.6875 -1.3152,-2.9441 -3.3947,-7.2216 -4.621,-9.5056 -1.2263,-2.2839 -2.767,-5.1805 -3.4237,-6.4369 l -1.194,-2.2843 2.1966,-2.9655 c 1.2081,-1.631 3.0191,-4.608 4.0243,-6.6154 l 1.8277,-3.65 5.8883,0.1253 c 3.2385,0.069 6.8109,-0.04 7.9385,-0.2432 2.0132,-0.3617 2.1743,-0.166 8.9046,10.8239 3.7698,6.1558 7.2555,11.3575 7.7459,11.5593 1.6214,0.6671 6.3239,-0.9331 7.1356,-2.4282 0.8115,-1.4947 1.119,-10.0844 0.4848,-13.5436 -0.341,-1.8598 -0.09,-2.1058 4.7205,-4.6247 8.5335,-4.4684 10.0953,-6.5705 8.2294,-11.0763 -1.1844,-2.8601 -3.7034,-3.2094 -20.2163,-2.8029 l -7.1936,0.1771 -1.1706,-2.858 c -0.6438,-1.5719 -2.3777,-4.7287 -3.8533,-7.0152 l -2.6827,-4.1572 2.4557,-3.7524 c 1.3506,-2.0639 2.836,-4.9828 3.3008,-6.4865 l 0.8452,-2.7342 12.5861,-0.4278 c 6.9224,-0.2353 12.9694,-0.5597 13.4377,-0.721 1.9936,-0.6861 3.256,-5.9802 2.0242,-8.4887 -0.9142,-1.8616 -7.5265,-5.5135 -13.0185,-7.1898 l -2.9098,-0.8882 -0.01,-8.7471 c -0.01,-6.356 -0.2673,-9.0227 -0.95,-9.7548 -1.2724,-1.3644 -7.3099,-2.4117 -7.3496,-1.2748 -0.016,0.4595 -0.6713,1.6736 -1.4561,2.6981 -1.9048,2.4866 -11.4952,18.1161 -11.5181,18.771 -0.01,0.2839 -2.2302,0.4162 -4.934,0.2941 l -4.916,-0.2219 -2.6493,-3.6351 -2.6492,-3.635 2.4961,-4.979 c 3.6006,-7.182 8.269,-17.882 8.3096,-19.0456 0.035,-1.0055 -3.6564,-5.2135 -4.6024,-5.2465 -1.2142,-0.042 -8.6516,3.9923 -12.3768,6.7142 l -4.0602,2.9667 -3.1633,-2.2995 c -4.7493,-3.4525 -11.7316,-7.1128 -13.704,-7.1841 -1.9391,-0.07 -4.324,1.9618 -5.4472,4.6407 -0.838,1.9988 0.8827,6.8856 3.7245,10.5776 0.8864,1.1516 2.7473,3.9157 4.1355,6.1426 1.3882,2.2268 2.8043,4.4783 3.1471,5.0031 0.4408,0.6753 0.1814,1.3945 -0.8875,2.4601 -0.8308,0.8282 -2.4376,3.3071 -3.5706,5.5087 l -2.0601,4.0029 -6.241,-0.5575 -6.241,-0.5575 -3.0806,-6.5594 c -1.6943,-3.6077 -3.6968,-7.7362 -4.4498,-9.1746 -0.7531,-1.4384 -1.355,-3.0245 -1.3375,-3.5247 0.049,-1.3953 -6.0235,-2.2 -8.7586,-1.1608 l -2.2406,0.8514 -0.5879,8.0842 c -0.3426,4.7113 -0.3228,8.8619 0.047,9.9482 0.5197,1.525 0.4459,1.8573 -0.4056,1.8275 -0.5723,-0.02 -0.8788,0.2473 -0.681,0.5938 0.1978,0.3466 -1.1141,1.2366 -2.9153,1.9778 -6.324,2.6023 -7.5048,3.2401 -10.4244,5.6308 l -2.9443,2.411 0.8349,2.6452 c 0.4592,1.4549 1.2124,2.8972 1.6738,3.2052 0.4614,0.3079 6.2827,1.1463 12.9362,1.8631 7.5604,0.8145 12.0957,1.5757 12.0932,2.0296 0,0.3995 0.6749,2.2445 1.5048,4.1002 l 1.5091,3.3739 -1.4055,2.4024 c -0.773,1.3213 -1.6168,3.4646 -1.8753,4.7629 l -0.4698,2.3606 -7.9169,-0.058 c -7.7514,-0.057 -16.6913,0.5596 -17.8698,1.2323 -0.3263,0.1862 -1.0131,1.5806 -1.5263,3.0985 -0.9318,2.7564 -0.9297,2.763 1.6669,5.2111 1.43,1.3483 4.4544,3.4118 6.721,4.5857 2.2665,1.174 4.446,2.5552 4.8434,3.0695 0.5039,0.6523 0.4827,3.1549 -0.07,8.2759 -0.4979,4.6118 -0.5613,7.9224 -0.1706,8.9049 0.8629,2.17 6.7533,3.9528 8.7863,2.6592 0.8492,-0.5404 10.0757,-14.8308 12.6298,-19.5619 1.5836,-2.9332 1.8344,-3.1111 3.7178,-2.6382 1.1109,0.279 4.6671,0.5826 7.9029,0.6747 5.7221,0.1629 5.8931,0.2143 6.2493,1.8771 0.2014,0.9403 1.8082,4.0164 3.5707,6.8357 1.7625,2.8194 2.9415,5.1169 2.6201,5.1057 -0.3214,-0.011 -1.0468,0.8039 -1.612,1.8113 -0.5652,1.0075 -1.8728,3.0247 -2.9057,4.4827 -1.0329,1.458 -3.5655,5.6306 -5.6279,9.2723 -4.1479,7.324 -4.3082,8.821 -1.2536,11.7083 2.2898,2.1643 4.5663,1.9078 10.1132,-1.1394 l 0,0 z M 98.067319,319.58162 c 5.706101,-2.2381 15.510001,-12.1178 18.068401,-18.2081 1.225,-2.9161 1.2402,-3.2735 0.2647,-6.2555 -1.8673,-5.7084 -7.4957,-13.3483 -12.9905,-17.6332 -8.249801,-6.4332 -23.283704,-5.7531 -30.976104,1.4013 -2.5064,2.3311 -6.1733,7.6272 -7.522,10.8641 -3.2015,7.6835 -0.9953,16.0161 6.2924,23.7661 5.3292,5.6673 10.1224,7.5919 18.3287,7.3598 3.191903,-0.09 6.897203,-0.6523 8.534403,-1.2945 z m 369.212701,9.2815 c 4.0132,-1.1397 5.4808,-2.0045 9.0351,-5.324 3.801,-3.55 5.0449,-5.3084 8.2755,-11.6987 0.6625,-1.3105 0.9165,-4.6774 0.9264,-12.2818 0.013,-9.9079 -0.085,-10.6774 -1.8104,-14.1816 -1.0034,-2.0379 -3.8831,-6.0095 -6.3994,-8.8258 -4.4226,-4.9497 -4.7518,-5.1709 -9.8717,-6.6308 -7.0238,-2.0027 -10.6069,-2.0418 -16.3798,-0.1786 -3.8955,1.2573 -5.5246,2.261 -8.6054,5.3024 -5.7183,5.6452 -8.748,9.3938 -11.1117,13.7485 -1.8185,3.3503 -2.1548,4.6911 -2.263,9.024 -0.15,6.0067 0.2917,7.8983 3.0572,13.0922 2.3078,4.3344 12.0198,14.6532 15.3843,16.3455 6.062,3.049 12.7688,3.595 19.7629,1.6087 z m -73.2865,-11.2639 c 4.9286,-1.9193 6.0755,-5.4456 4.2964,-13.209 -0.5727,-2.4991 -0.6363,-5.6423 -0.2098,-10.3709 0.5431,-6.0216 0.473,-6.9525 -0.6237,-8.2734 -2.7591,-3.3236 -8.9289,-4.5611 -13.2892,-2.6656 -3.0564,1.3286 -10.2808,11.1676 -11.933,16.2516 -0.5409,1.6644 -0.1917,2.6235 2.5323,6.9549 7.4279,11.8116 11.6166,14.276 19.227,11.3124 z m -229.4111,-10.0456 c 1.0195,-0.8748 3.0828,-3.0236 4.5853,-4.7753 2.2251,-2.5944 2.6115,-3.4297 2.0835,-4.5047 -0.8645,-1.7604 -5.1852,-6.4504 -7.3532,-7.9816 -2.3238,-1.6414 -8.2769,-1.8767 -11.3758,-0.4497 -3.9544,1.8209 -4.8045,3.3132 -5.013,8.8004 -0.1585,4.1693 0.039,5.1598 1.3581,6.8061 2.0978,2.6184 5.309,3.829 9.9637,3.7562 3.0118,-0.047 4.3192,-0.4225 5.7514,-1.6514 z m -11.9276,-29.8776 4.1828,-2.6857 2.9535,1.4126 c 6.1663,2.9491 19.4375,2.8137 29.0455,-0.2963 4.8172,-1.5593 5.2468,-1.8455 12.7949,-8.5235 4.8311,-4.2743 4.8121,-4.2392 7.1121,-13.1152 1.1548,-4.4565 1.5148,-12.6501 0.6346,-14.4425 -0.3863,-0.7866 -0.6827,-1.9925 -0.6587,-2.6798 0.024,-0.6872 -1.4897,-4.6619 -3.3636,-8.8326 -2.7019,-6.0131 -4.1957,-8.3816 -7.2152,-11.4398 l -3.8078,-3.8567 0.3438,-4.3316 c 0.3137,-3.952 0.1048,-4.8486 -2.3849,-10.2326 -2.8901,-6.2501 -6.5547,-10.7943 -11.9634,-14.8351 -3.2144,-2.4016 -3.3876,-2.4467 -9.9113,-2.5828 -6.0239,-0.1257 -6.8901,0.022 -9.3401,1.5965 -1.4852,0.9543 -3.581,2.9784 -4.6574,4.498 -1.0763,1.5196 -3.0471,4.0104 -4.3795,5.5351 l -2.4225,2.7722 -2.3849,-1.3875 c -3.343,-1.9449 -7.5679,-2.5821 -11.7969,-1.779 -4.0579,0.7705 -7.8162,2.1612 -8.4641,3.1321 -0.237,0.3552 -1.288,0.616 -2.3355,0.5794 -2.137,-0.075 -7.1841,1.6058 -13.63,4.5382 l -4.3214,1.9658 0.2404,5.102 c 0.1323,2.806 0.7236,7.8549 1.3142,11.2198 0.5906,3.3649 1.0437,6.9774 1.0071,8.0278 -0.127,3.6349 2.8863,11.6735 5.4181,14.4541 1.3255,1.4558 2.7685,2.6594 3.2067,2.6747 0.4382,0.015 1.1424,0.4752 1.5649,1.022 0.6046,0.7826 0.2564,2.324 -1.6365,7.2436 -2.8447,7.3934 -3.0068,10.8442 -0.7473,15.9119 3.7383,8.3844 12.642,12.4941 26.3216,12.1491 4.638,-0.117 5.4754,-0.3709 9.2808,-2.8142 z m 260.5715,-3.917 c 1.6873,-0.1845 5.1866,-1.3678 7.7763,-2.6293 4.6943,-2.2868 5.8509,-3.5547 10.4202,-11.4232 1.4252,-2.4541 0.9171,-6.9302 -1.3613,-11.9934 -1.2305,-2.7346 -2.6192,-6.1882 -3.086,-7.6747 -0.7901,-2.5159 -0.7576,-2.7281 0.47,-3.0711 1.6271,-0.4546 5.902,-5.2308 7.0836,-7.9143 0.4808,-1.0918 1.0296,-4.4245 1.2196,-7.4061 0.19,-2.9816 0.719,-6.2551 1.1754,-7.2745 0.4565,-1.0195 1.1483,-5.175 1.5375,-9.2344 l 0.7075,-7.3809 -2.9346,-1.454 c -4.7179,-2.3376 -10.7816,-4.5104 -13.6881,-4.9048 -1.4828,-0.2012 -4.1984,-1.1008 -6.0346,-1.9992 -2.513,-1.2294 -4.7048,-1.6957 -8.8628,-1.8855 -4.921,-0.2246 -5.8334,-0.063 -8.3567,1.4834 -1.5579,0.9545 -3.1203,1.7254 -3.472,1.7131 -0.3517,-0.012 -2.4841,-2.2223 -4.7386,-4.9111 -4.7945,-5.7183 -8.2563,-7.7716 -13.3798,-7.9358 -9.0968,-0.2916 -17.0128,5.4945 -22.961,16.7831 -2.8831,5.4717 -2.9477,5.7293 -2.6736,10.666 l 0.2809,5.0589 -3.1466,3.137 c -6.0485,6.03 -11.8756,19.1875 -12.2333,27.6226 -0.1404,3.3099 1.4207,11.1969 3.0875,15.599 0.7842,2.0713 2.5535,4.0709 7.2974,8.2474 6.0776,5.3506 11.1709,6.8813 24.4953,7.3619 10.0435,0.3622 10.6953,0.3024 14.5832,-1.3383 3.5964,-1.5176 4.1931,-1.5977 5.1298,-0.6886 2.8236,2.7405 6.895,3.9713 12.821,3.8757 3.1768,-0.051 7.1564,-0.2443 8.8438,-0.4289 z m -350.676204,-57.106 c 8.2325,-4.9388 7.6494,-16.3377 -1.0413,-20.3549 -3.0614,-1.4151 -4.9784,-1.3868 -8.8762,0.131 -2.7524,1.0719 -3.6296,1.871 -5.2156,4.7514 -2.06258,3.7461 -2.32227,5.6828 -1.1968,8.9254 2.5469,7.3376 10.0186,10.3332 16.3299,6.5471 z m 219.200104,5.7982 c 8.2818,-2.6275 11.0507,-4.0764 15.3092,-8.0106 5.3581,-4.9501 8.5886,-9.6067 12.1991,-17.5849 1.0169,-2.2471 2.3032,-6.7862 2.3567,-8.3159 0.032,-0.9215 0.4821,-1.4372 1.238,-1.419 2.4486,0.059 7.4223,-3.6189 9.7364,-7.1995 6.0809,-9.4091 7.9677,-19.8038 4.9123,-27.0624 -0.8424,-2.0011 -1.914,-4.1325 -2.3814,-4.7366 -1.681,-2.1724 -6.9247,-4.9459 -9.5224,-5.0366 -1.4165,-0.05 -4.5059,-0.5158 -6.8653,-1.0363 l -4.2899,-0.9463 0.1153,-3.3013 c 0.068,-1.9393 -0.3952,-4.3947 -1.1221,-5.9513 -1.4081,-3.0158 -6.3516,-7.9481 -10.0003,-9.9777 -1.3544,-0.7534 -2.6941,-1.7729 -2.9771,-2.2656 -0.791,-1.3771 -5.9863,-5.5725 -10.6985,-8.6394 l -4.2457,-2.7633 -2.3216,1.1476 c -3.2709,1.6169 -12.3516,9.0387 -13.5203,11.0503 -0.537,0.9242 -1.3585,1.6671 -1.8256,1.6508 -1.2043,-0.042 -6.9518,5.4626 -8.3886,8.0342 -0.6629,1.1865 -1.4307,4.0048 -1.7061,6.2628 l -0.5007,4.1055 -4.1868,0.7287 c -10.5189,1.8307 -11.9773,2.222 -14.2253,3.8157 -1.4174,1.0048 -3.5345,3.7381 -5.1965,6.7092 l -2.8046,5.0135 0.6291,4.8586 c 0.9612,7.4235 1.8037,9.8105 5.6391,15.9767 3.2196,5.1762 3.939,5.8975 8.0239,8.0435 3.6058,1.8942 4.55,2.7277 4.8065,4.2426 0.8384,4.9521 1.6762,7.0849 4.8036,12.229 3.2185,5.2939 6.8093,9.6458 11.3598,13.7676 3.553,3.2182 5.5928,4.1435 15.9377,7.2292 3.3718,1.0057 4.8982,0.9085 9.7121,-0.6188 z m -58.6821,-11.2847 c 0.7198,-0.7204 2.4997,-3.4936 3.9553,-6.1627 2.6015,-4.7701 2.6334,-4.9108 1.8693,-8.2568 -0.9324,-4.0833 -3.7668,-7.5435 -7.0147,-8.5636 -2.6333,-0.827 -3.4616,-0.56 -7.6126,2.4541 -1.4317,1.0395 -4.3934,2.7133 -6.5817,3.7196 -2.5345,1.1655 -4.3099,2.4905 -4.8912,3.6505 -1.1006,2.1962 -1.2316,4.0258 -0.3314,4.6265 0.365,0.2436 0.6391,1.1469 0.6091,2.0072 -0.03,0.8604 0.5166,2.3452 1.2149,3.2996 2.1838,2.985 5.095,4.0708 11.5661,4.3137 5.043,0.1893 6.0999,0.03 7.2169,-1.0881 z m 104.6189,3.3339 c 10.2874,-2.2306 12.4461,-3.5768 14.2208,-8.8687 1.4538,-4.3348 1.4823,-5.4698 0.2114,-8.4087 -0.6568,-1.5189 -2.0204,-2.9219 -3.7696,-3.8788 -1.5073,-0.8246 -3.185,-1.899 -3.7282,-2.3875 -0.5432,-0.4885 -2.1373,-1.3022 -3.5422,-1.8082 -4.1844,-1.507 -7.7878,0.3713 -11.5644,6.0279 -1.446,2.1659 -1.803,3.5338 -1.939,7.4292 -0.1484,4.2482 0.077,5.2108 2.0458,8.7305 1.2169,2.1757 2.6826,3.9614 3.2571,3.9681 0.5745,0.01 2.7383,-0.3549 4.8083,-0.8038 z m 164.0108,-6.1085 c 4.0903,-1.4181 7.5553,-6.2036 7.7145,-10.6546 0.1234,-3.4571 -2.8646,-8.9968 -5.5844,-10.3526 -2.0655,-1.0295 -8.6553,-1.2258 -10.5543,-0.3143 -4.5669,2.1921 -7.7735,8.6697 -6.3102,12.7469 2.4703,6.8836 8.87,10.6078 14.7344,8.5746 z M 38.962186,174.82922 c 1.26687,-0.713 2.96566,-1.8715 3.77509,-2.5744 0.80945,-0.703 1.98771,-1.4223 2.61838,-1.5985 2.89836,-0.8097 3.72116,-6.5774 1.53636,-10.7694 -2.18512,-4.1926 -4.96737,-5.5978 -11.59156,-5.8545 -6.03045,-0.2336 -7.83093,0.4737 -10.88105,4.2747 -2.08485,2.5981 -2.31907,9.6382 -0.41281,12.4081 3.49386,5.0766 10.04359,6.8783 14.9556,4.114 l 0,0 z m 50.89583,-4.9932 c 5.733903,-1.9538 8.320003,-9.2801 5.597303,-15.8561 -3.2102,-7.7531 -15.679803,-7.9168 -19.983103,-0.2624 -1.6647,2.9612 -1.5944,8.1371 0.1485,10.929 2.8476,4.5613 9.2415,6.8919 14.2373,5.1895 z m 110.485404,-5.6298 c 3.2833,-5.6738 4.9036,-10.2681 6.13,-17.3815 1.6648,-9.6568 0.017,-16.4839 -5.2645,-21.8157 -1.6831,-1.6989 -3.8432,-3.8823 -4.8003,-4.852 -3.4989,-3.5448 -18.8507,-5.3153 -24.9238,-2.8745 -2.6085,1.0484 -5.5433,3.1561 -5.5728,4.0023 -0.01,0.2892 -0.6457,1.1485 -1.4124,1.9096 -1.783,1.7699 -5.9767,11.8223 -6.5049,15.5924 -0.2225,1.5886 -0.1268,3.2728 0.2127,3.7427 0.3395,0.4698 0.9528,2.8292 1.3627,5.2431 0.6705,3.9477 1.1449,4.8275 4.7198,8.7529 2.5923,2.8465 5.7805,5.3931 9.1683,7.3231 2.8567,1.6275 5.0213,2.6564 4.8102,2.2865 -0.3773,-0.6609 1.2054,-0.4348 6.4194,0.9171 1.2957,0.3359 4.8303,0.7278 7.8549,0.871 l 5.4991,0.2602 2.3016,-3.9772 z m 165.4659,0.2764 c 10.0766,-2.2623 14.1621,-4.8173 18.1037,-11.3218 3.3558,-5.5377 4.7389,-11.3747 3.8955,-16.4396 -1.4313,-8.5953 -7.477,-17.6778 -12.919,-19.4084 -4.2757,-1.3597 -13.8765,-1.0296 -18.8002,0.6464 -4.8736,1.6589 -9.6053,6.2162 -12.6619,12.1952 -3.0268,5.9206 -3.5941,10.9107 -1.9116,16.8156 1.9544,6.8592 4.6467,12.8476 7.0904,15.7712 2.1367,2.5562 2.3054,2.6237 6.9795,2.7905 2.6786,0.096 7.185,-0.3668 10.2236,-1.0491 z m 100.7021,-0.9684 c 2.5159,-1.7327 5.0799,-5.9914 5.1852,-8.6125 0.2204,-5.4856 -3.8197,-10.8839 -8.8445,-11.8178 -8.8811,-1.6506 -15.5061,5.4376 -13.2419,14.1678 0.9276,3.5764 2.0698,4.9556 5.5043,6.6467 3.1001,1.5263 8.9072,1.3306 11.3969,-0.3842 z m 46.0626,-0.9612 c 4.304,-1.6244 6.5755,-4.8508 6.7405,-9.5741 0.1511,-4.3269 -1.6798,-7.7651 -5.3861,-10.1146 -3.4022,-2.1568 -6.1611,-2.3404 -10.0347,-0.6676 -5.1238,2.2127 -7.7409,7.7489 -6.3427,13.4168 0.4098,1.6613 0.6606,3.5253 0.5573,4.1423 -0.2467,1.4731 0.8771,2.1683 4.5715,2.828 5.1576,0.9208 7.391,0.9139 9.8942,-0.031 z M 250.81062,76.614905 c 2.7876,-1.26968 3.7683,-2.16009 4.6966,-4.26412 3.5847,-8.12463 -1.0372,-16.65765 -9.1226,-16.84232 -6.6889,-0.15277 -11.1291,3.82708 -11.8425,10.61453 -0.5037,4.79213 1.2081,7.9321 5.6104,10.29149 3.9262,2.1042 6.3772,2.15029 10.6581,0.20042 z m 57.4258,0.57965 c 7.0447,-3.31216 8.9791,-11.50761 4.1468,-17.56904 -4.3682,-5.4794 -11.5835,-5.76863 -16.7866,-0.6729 -2.9173,2.85701 -3.7513,6.53663 -2.6603,11.73737 1.1347,5.40913 9.7972,9.09184 15.3001,6.50457 z m -29.9499,-39.2933 c 2.2271,-0.89355 3.7201,-2.17442 5.5149,-4.73116 2.1116,-3.00797 2.4813,-4.08392 2.6032,-7.57576 0.111,-3.17788 -0.1879,-4.56849 -1.3636,-6.34501 -3.4862,-5.26727 -10.8877,-6.73286 -15.9342,-3.15515 -3.3084,2.34536 -4.5037,4.6845 -5.2108,10.19683 -0.589,4.59139 -0.5767,4.64388 1.8187,7.75609 3.8662,5.02314 7.1496,6.02973 12.5718,3.85416 z"
     id="path3757"
     inkscape:connector-curvature="0"
     sodipodi:nodetypes="ssssssscsscsssssssssscssscsscccsssscssssssscscscssssssssssscssssssssssssssssssssscssssssssssssssssssssscsssssssscscssssssscssssscsscsssssssscsssssssssscsssssssssscssssssscscsssscssscssscssscsssssscsccsscsscscssssccsssscsscsccscssssscsccssscsssssscccsssssssscscssscssccscccsscccccccscsssssssssssssscsccscccsssssscsssscccssssssssssscssssscsscsscccssscssccccssssscccsssscssssscsssssssccscssssscccscsssssssscssscssscssssscsscccsssssscscsccccssssssscsscccccssssccssssssscsccccssccssscsscssssscsssccscsscscsscssscsscccsssscscssscsscccsssscscsssscscscscsscscsssssscssssssccssccccssssssscccsssssssssssscccssscsscccsssssssccccsssssssscssssssscssssscssssssssscccssssccscscsssssssssscscsssssscccsssscccssscsscsscscssscscscscssscssssssscccsssssssssscccscscsssssccccscscccsssssscccssssscssssssssssssssccccsssssssccccsssscccssssssccsssssscssscccsssssscc" />
</svg>
