<?xml version="1.0" encoding="UTF-8" standalone="no"?>
<!-- Created with Inkscape (http://www.inkscape.org/) -->

<svg
   xmlns:dc="http://purl.org/dc/elements/1.1/"
   xmlns:cc="http://creativecommons.org/ns#"
   xmlns:rdf="http://www.w3.org/1999/02/22-rdf-syntax-ns#"
   xmlns:svg="http://www.w3.org/2000/svg"
   xmlns="http://www.w3.org/2000/svg"
   xmlns:sodipodi="http://sodipodi.sourceforge.net/DTD/sodipodi-0.dtd"
   xmlns:inkscape="http://www.inkscape.org/namespaces/inkscape"
   id="svg2"
   version="1.1"
   inkscape:version="0.48.5 r10040"
   width="539.9292"
   height="594.44971"
   sodipodi:docname="anchors.svg">
  <metadata
     id="metadata8">
    <rdf:RDF>
      <cc:Work
         rdf:about="">
        <dc:format>image/svg+xml</dc:format>
        <dc:type
           rdf:resource="http://purl.org/dc/dcmitype/StillImage" />
      </cc:Work>
    </rdf:RDF>
  </metadata>
  <defs
     id="defs6" />
  <sodipodi:namedview
     pagecolor="#ffffff"
     bordercolor="#666666"
     borderopacity="1"
     objecttolerance="10"
     gridtolerance="10"
     guidetolerance="10"
     inkscape:pageopacity="0"
     inkscape:pageshadow="2"
     inkscape:window-width="1920"
     inkscape:window-height="1178"
     id="namedview4"
     showgrid="false"
     fit-margin-top="0"
     fit-margin-left="0"
     fit-margin-right="0"
     fit-margin-bottom="0"
     inkscape:zoom="1.4439771"
     inkscape:cx="60.391537"
     inkscape:cy="349.00457"
     inkscape:window-x="-8"
     inkscape:window-y="-8"
     inkscape:window-maximized="1"
     inkscape:current-layer="svg2" />
  <path
     style="fill:none;stroke:#0000ff;stroke-width:0.71475345;stroke-linecap:square;stroke-linejoin:bevel;stroke-miterlimit:4;stroke-opacity:1;stroke-dasharray:none"
     d="m 521.47888,438.08732 c -3.80497,1.86768 -10.5826,5.886 -15.06138,8.92953 -7.77085,5.28075 -8.41849,5.94842 -14.16139,14.60023 -3.30998,4.98652 -6.82811,9.90252 -7.81805,10.92445 l -1.79991,1.85805 -1.87816,-4.20251 c -2.86911,-6.41982 -8.24227,-11.55701 -16.1941,-15.48282 -3.69025,-1.82186 -8.47116,-3.52354 -10.62426,-3.78152 -3.69708,-0.44294 -3.83961,-0.52987 -2.56351,-1.56348 4.65159,-3.76765 7.16831,-7.51318 8.23646,-12.25807 3.22335,-14.31868 -0.35552,-23.67132 -11.50284,-30.06036 -12.93084,-7.41121 -26.55223,-4.02454 -34.0773,8.47262 -2.96934,4.93129 -4.8785,10.74248 -5.32817,16.21842 -0.11167,1.35975 0.86161,4.91593 2.16284,7.9026 2.32786,5.34304 2.32595,5.51663 -0.1187,10.80283 -1.36653,2.95489 -2.64401,5.41521 -2.83885,5.46741 -0.99758,0.26732 -10.58555,-9.30139 -12.22043,-12.19586 -3.15054,-5.57796 -3.62747,-17.29522 -0.90009,-22.11457 1.04974,-1.8549 0.87965,-2.19715 -1.63128,-3.28236 -1.61641,-0.69862 -5.56178,-4.25092 -9.31898,-8.39061 -5.316,-5.85707 -6.83685,-8.23489 -8.25936,-12.91335 -0.95898,-3.15395 -1.69432,-7.3988 -1.63409,-9.43306 l 0.10962,-3.69863 -6.35599,-3.06444 c -7.05543,-3.40165 -21.98225,-7.75076 -27.68264,-8.06568 -2.02938,-0.1121 -4.99787,-0.62441 -6.59665,-1.13846 -7.2142,-2.31945 -18.96456,5.21794 -27.23554,17.47055 -6.20237,9.18818 -8.91581,18.25631 -9.73439,32.53134 l -0.54708,9.54043 4.58696,2.73505 c 2.52279,1.50427 5.72465,4.04434 7.11525,5.64458 3.48321,4.00846 8.66105,15.70249 9.89569,22.34927 l 1.02419,5.5136 4.103,0.5907 c 9.56454,1.37702 17.12192,8.58452 20.15495,19.22182 l 1.97746,6.93527 -5.58608,-0.0261 c -6.65707,-0.0312 -7.40421,-0.39378 -9.89384,-4.80157 -2.94652,-5.2167 -8.30836,-7.27812 -21.34537,-8.20642 -16.30019,-1.16064 -29.42618,16.31058 -24.9118,33.15853 1.49555,5.58149 3.98656,8.90288 9.71857,12.95822 6.62753,4.68893 13.31841,6.28292 20.84081,4.96494 l 5.72353,-1.00278 -1.40933,5.46408 c -2.0369,7.89724 0.13966,20.70243 4.6398,27.29717 1.84294,2.70075 3.21496,5.15452 3.0489,5.45279 -0.16592,0.29836 -3.08709,0.95634 -6.49122,1.46231 -12.89146,1.91621 -17.47777,3.46531 -31.79946,10.74096 -7.00539,3.55887 -16.25258,9.48573 -17.106,10.96389 -1.27603,2.21016 -4.0821,1.97329 -5.98382,-0.5051 -2.76831,-3.60774 -18.25671,-12.08512 -27.58029,-15.09571 -4.49658,-1.45197 -12.93182,-3.14248 -18.74494,-3.75674 -5.81311,-0.61424 -10.63767,-1.37188 -10.7212,-1.68365 -0.0835,-0.31173 1.05277,-1.64141 2.52508,-2.95486 6.48963,-5.78932 9.71415,-20.85458 6.75449,-31.55775 -1.03026,-3.7258 -1.76376,-6.96377 -1.62996,-7.19552 0.1338,-0.23177 2.77354,0.44625 5.86609,1.50665 3.20372,1.09856 6.63113,1.62307 7.9665,1.21916 1.28904,-0.3899 3.5464,-0.77684 5.01636,-0.8599 1.46996,-0.083 5.4225,-2.04162 8.78344,-4.35237 6.91886,-4.75697 9.28238,-8.57826 10.02589,-16.20946 0.23177,-2.37897 0.56911,-4.60916 0.74961,-4.95596 0.43629,-0.83824 -0.46688,-5.93951 -1.11814,-6.31552 -0.28156,-0.16255 -0.96768,-1.77961 -1.52468,-3.59344 -1.93375,-6.29691 -11.13715,-12.90576 -19.05088,-13.68022 -5.37165,-0.52565 -13.63596,0.76 -19.29007,3.00092 -3.36163,1.33235 -4.69709,2.47519 -6.52327,5.58239 l -2.29628,3.90708 -6.17999,-0.12946 -6.17999,-0.12947 0.5921,-3.17343 c 0.32565,-1.74538 1.671,-5.53517 2.98966,-8.42175 2.01493,-4.41075 3.05895,-5.69726 6.54171,-8.06137 2.27929,-1.54718 6.57886,-3.42837 9.55462,-4.18043 l 5.41047,-1.36739 0.47107,-3.6654 c 0.48737,-3.79198 2.53242,-10.25124 5.29656,-16.72883 1.9478,-4.56454 7.59357,-11.03508 11.81216,-13.53777 l 3.13046,-1.85714 -0.36207,-4.73331 c -0.19914,-2.60332 -0.29074,-6.15527 -0.20359,-7.89319 0.23801,-4.74627 -4.65143,-22.10723 -7.04278,-25.00675 -1.1523,-1.39717 -3.18892,-4.09784 -4.52584,-6.00147 -1.68951,-2.40565 -4.22255,-4.49563 -8.30619,-6.85334 -5.97767,-3.45121 -7.0897,-3.63674 -19.12086,-3.19021 -7.97572,0.29603 -18.84703,3.71612 -27.0073,8.49642 l -6.72102,3.93722 -0.79736,6.33474 c -0.43853,3.48409 -1.79919,8.50104 -3.02366,11.14879 -2.48074,5.36418 -9.15733,13.66273 -13.42017,16.68037 l -2.78659,1.9726 1.70315,5.48502 c 2.4087,7.75722 1.91638,13.10148 -1.78046,19.32765 -1.64863,2.77655 -4.1969,6.14033 -5.66288,7.47501 l -2.66543,2.42671 -2.24804,-3.35306 c -1.23641,-1.84418 -2.65161,-3.34094 -3.14489,-3.32617 -1.34935,0.0404 -0.95454,-3.79396 0.68261,-6.6296 2.38119,-4.12432 2.39773,-8.61076 0.0561,-15.21043 -3.34562,-9.42929 -7.2154,-14.8253 -13.04625,-18.19174 -4.51598,-2.6073 -12.45416,-4.66272 -13.17641,-3.41176 -0.17346,0.30046 -1.77169,0.5608 -3.55162,0.57852 -4.401391,0.0439 -14.978875,7.24932 -17.788397,12.11758 -3.746156,6.49043 -3.458363,22.46215 0.447969,24.89005 0.545281,0.33891 0.814962,0.92184 0.599283,1.29542 -0.215682,0.37357 1.432928,2.34822 3.663574,4.38815 6.24602,5.71198 6.366285,5.89257 3.963696,5.95249 -3.175321,0.0792 -8.462869,1.45431 -11.13375,2.89557 -8.484684,4.57842 -18.220295,16.55681 -18.384052,22.61915 -0.03681,1.36323 -0.277634,2.53504 -0.535141,2.60404 -0.257502,0.069 -3.824129,-4.19789 -7.925827,-9.48199 -6.1121,-7.87403 -9.046673,-10.82537 -16.264822,-16.35768 -8.710906,-6.67644 -20.480453,-13.17031 -24.209784,-13.35781 -2.608685,-0.13114 -3.129383,-2.63894 -2.694265,-12.97635 0.359773,-8.5475 0.0028,-14.42253 -1.6777815,-27.61093 -0.30332,-2.38032 -2.3230274,-8.999 -4.4882467,-14.70822 L 0.33755556,385.77494 3.10806,386.26672 c 9.341594,1.6582 23.0682,-2.73334 29.711977,-9.5057 1.577775,-1.60831 3.025446,-2.83369 3.217024,-2.72309 0.651941,0.37639 4.007048,5.80149 4.64401,7.50918 1.58803,4.25754 10.689172,10.84969 18.117306,13.12275 8.370683,2.56149 19.823578,-2.16253 26.333855,-10.86204 3.712944,-4.9615 4.819118,-9.12742 4.354056,-16.3977 -0.385176,-6.0214 -2.724457,-10.74632 -8.695395,-17.56309 -5.152024,-5.88185 -8.624956,-7.76244 -15.043821,-8.14617 -3.672725,-0.21957 -3.789887,-0.29733 -6.721784,-4.46261 -1.641148,-2.33155 -2.998844,-4.73741 -3.01711,-5.34638 -0.04814,-1.60552 10.520008,-4.34994 15.712761,-4.08043 6.072686,0.31516 12.709741,3.40799 16.424527,7.6537 l 2.961409,3.38467 4.827171,-1.28141 c 9.286784,-2.46526 19.846054,-3.83301 23.948474,-3.1021 2.27541,0.40543 6.33403,1.83536 9.01917,3.17765 l 4.88207,2.44055 6.25677,-4.23952 c 11.76241,-7.97009 18.71322,-15.06814 24.39855,-24.9154 3.39288,-5.87665 3.89668,-7.47029 4.376,-13.84236 0.29793,-3.96064 0.14135,-9.89531 -0.34795,-13.1882 -0.75641,-5.09046 -1.62828,-6.90574 -5.8217,-12.12115 -7.57981,-9.4271 -13.70779,-15.71805 -19.86886,-20.39728 -7.36166,-5.59109 -8.31763,-6.12741 -8.95477,-5.02386 -0.88646,1.53541 -9.58365,4.43259 -14.53379,4.84148 -4.62549,0.38208 -19.505872,-3.09767 -23.767087,-5.55787 -1.941077,-1.12069 -2.554214,-0.88058 -5.537517,2.16851 -7.308223,7.46941 -18.63391,9.15099 -29.346749,4.35723 l -4.728947,-2.1161 2.76939,-3.56967 c 1.523164,-1.96333 3.239618,-4.38413 3.814339,-5.37959 0.729749,-1.26397 1.98656,-1.68593 4.166587,-1.39894 4.180273,0.55036 11.601025,-1.64398 12.844769,-3.7982 0.550968,-0.95431 1.689537,-1.9194 2.530151,-2.14466 0.956843,-0.25638 3.158296,-3.19683 5.887203,-7.86353 4.623742,-7.907 5.646695,-12.86499 4.068136,-19.71699 -1.529823,-6.64055 -9.815102,-14.67482 -18.762669,-18.19421 -3.425208,-1.34727 -5.260507,-1.31772 -10.721216,0.17255 -9.151181,2.49746 -11.07833,3.50294 -15.107412,7.88233 -2.728136,2.96533 -3.771907,4.75797 -4.628651,7.94951 -1.615588,6.01847 -1.723099,6.05464 -5.157468,1.73511 C 31.558854,198.11184 16.79008,191.74117 8.2254086,193.04793 l -4.2463193,0.64789 4.912996,-10.79963 c 2.7021467,-5.93979 4.8182007,-11.35475 4.7023347,-12.03324 -0.115855,-0.67851 0.376596,-3.29976 1.094342,-5.82501 0.717744,-2.52526 1.355968,-5.78775 1.418281,-7.24999 0.06229,-1.46221 0.424499,-3.2064 0.804857,-3.87592 0.380406,-0.66953 0.527934,-3.49429 0.32792,-6.27722 -0.554323,-7.71248 -0.173859,-12.66035 1.149828,-14.95305 0.779787,-1.35062 3.885014,-3.03847 8.876459,-4.82481 11.198907,-4.00784 24.589641,-13.47599 33.377552,-23.60021 3.770305,-4.343616 7.288317,-8.281278 7.817806,-8.750364 0.614426,-0.544344 1.560722,1.366702 2.615614,5.282254 1.194985,4.43552 2.587646,7.07037 5.027064,9.51109 1.8558,1.85677 4.015425,4.19485 4.799171,5.19575 1.89911,2.42528 11.089743,7.67493 14.36303,8.20411 3.979686,0.64338 3.928488,1.94224 -0.179138,4.54338 -9.040442,5.72485 -12.908252,22.26064 -7.400974,31.64092 1.119997,1.90765 4.386296,5.41068 7.258426,7.78454 4.773547,3.94539 5.691962,4.39461 10.693172,5.23033 7.25225,1.2119 9.96851,0.98101 14.69015,-1.24868 4.29905,-2.03014 10.61979,-7.88798 11.61617,-10.7655 0.34348,-0.99195 1.52465,-3.54853 2.6248,-5.68125 2.76684,-5.36375 3.24289,-10.04094 1.57377,-15.46237 -1.37664,-4.47132 -1.32905,-4.7446 1.53465,-8.81372 1.62544,-2.30962 3.45751,-4.35458 4.07127,-4.54431 1.74816,-0.54047 6.22386,4.76861 8.39471,9.95777 2.33213,5.57471 2.3677,12.0805 0.10286,18.82081 l -1.67105,4.97319 3.64518,3.95333 c 6.34354,6.87984 11.57383,15.86471 13.12884,22.55345 0.80599,3.46691 1.25182,6.67345 0.99075,7.12565 -0.26108,0.4522 0.27807,1.99673 1.19811,3.43228 2.19681,3.42774 16.73949,11.89565 22.2226,12.93978 2.13701,0.40696 6.49583,1.67753 9.68622,2.82356 7.59381,2.72769 12.20088,3.00198 16.33797,0.97267 14.45632,-7.09104 23.84796,-25.37434 24.27479,-47.25719 0.14693,-7.53332 0.088,-7.71522 -3.36156,-10.37948 -6.69324,-5.16948 -9.63297,-9.31286 -13.15141,-18.53617 -1.90511,-4.99402 -3.34043,-9.31245 -3.18957,-9.59655 0.15086,-0.28407 0.11334,-1.6892 -0.0833,-3.12248 -0.34826,-2.53814 -0.47138,-2.62734 -4.73287,-3.42794 -5.71913,-1.07447 -12.28592,-5.10014 -15.50056,-9.50239 -2.54762,-3.48879 -6.11339,-12.796271 -5.38542,-14.057142 0.20798,-0.360233 3.06307,-0.644431 6.34465,-0.63158 5.56177,0.02178 6.09969,0.19813 7.92948,2.599562 1.07963,1.4169 4.32468,3.94574 7.21122,5.61963 6.73763,3.90703 14.42914,4.92017 21.72072,2.86083 2.96492,-0.83739 5.47739,-1.19905 5.58334,-0.80371 0.10591,0.39533 0.60559,0.003 1.1104,-0.87088 0.50476,-0.87433 1.57801,-1.7666 2.38489,-1.98281 0.80689,-0.21619 3.20774,-3.17074 5.33516,-6.56562 3.39365,-5.415485 3.8707,-6.765847 3.88923,-11.010179 0.0117,-2.660696 -0.16279,-5.792612 -0.38768,-6.959776 -0.22488,-1.167166 -0.0845,-1.934878 0.31185,-1.706019 0.39643,0.228867 -0.43467,-1.948442 -1.84685,-4.838414 -1.53494,-3.141277 -3.55566,-5.825019 -5.02441,-6.673 -1.35124,-0.780151 -2.26003,-1.759313 -2.01951,-2.175938 0.47845,-0.828647 -3.4017,-2.627339 -10.8953,-5.050686 -4.00955,-1.296646 -5.80201,-1.24339 -10.58485,0.31451 -6.06481,1.975462 -8.0282,1.80222 -6.77515,-0.597834 2.94974,-5.649864 3.30323,-12.521842 1.12504,-21.870228 -1.88683,-8.097816 -4.16484,-12.486836 -7.47205,-14.396255 -3.71182,-2.143021 -2.12847,-3.101205 6.87817,-4.162426 15.44432,-1.819746 29.45282,-6.920078 42.33706,-15.4144162 2.88994,-1.9052868 6.39976,-3.42724375 7.7996,-3.38216401 1.86296,0.0600214 5.40216,1.87011641 13.20398,6.75307401 5.86233,3.6691122 12.67408,7.3623212 15.13714,8.2071792 2.46311,0.844834 5.63566,2.05165 7.05014,2.6818 2.1495,0.957636 14.05979,3.485217 20.99331,4.455163 1.62249,0.226977 1.62763,0.456628 0.0401,1.797334 -3.34991,2.828989 -6.90302,10.281992 -8.40593,17.63214 -1.14354,5.592684 -1.11626,8.754696 0.1227,14.213132 l 1.59347,7.020216 -5.50122,-1.880259 c -4.52055,-1.545066 -6.56284,-1.633438 -11.45628,-0.495808 -12.46895,2.898807 -19.57079,10.704407 -20.44576,22.47182 -1.02182,13.741938 7.04325,24.933604 19.46345,27.009074 11.09857,1.85464 21.13278,-1.19711 27.57631,-8.3869 2.18712,-2.440485 3.3769,-2.849343 8.52307,-2.929052 l 5.98118,-0.09264 -0.40467,3.305262 c -0.22255,1.81789 -1.85455,6.22212 -3.62666,9.78715 -3.0844,6.205 -3.4514,6.60975 -8.59029,9.47431 -2.9525,1.64581 -7.27678,3.2013 -9.60943,3.45663 -4.16987,0.45644 -4.24339,0.51566 -4.37088,3.5199 -0.0713,1.6806 -1.735,6.91667 -3.69714,11.6357 -3.9771,9.56513 -6.12627,12.37393 -13.60121,17.77567 l -4.68535,3.38589 0.0621,7.4168 c 0.0342,4.07922 0.45001,9.10685 0.92397,11.17248 0.47404,2.06562 1.22844,5.65361 1.6765,7.9733 0.75918,3.93054 1.60521,6.12683 4.90983,12.74627 3.60867,7.2284 4.24816,7.86029 12.02163,11.87894 5.99201,3.0977 8.52036,3.9217 12.32089,4.0154 10.26241,0.25302 21.98768,-3.37591 33.24085,-10.28793 3.51914,-2.16157 6.89899,-4.07392 7.5107,-4.24968 0.63015,-0.18103 0.91286,-1.88642 0.65217,-3.93448 -0.25303,-1.9882 -0.0999,-6.07443 0.34022,-9.08047 0.7072,-4.8289 1.39086,-6.34666 5.86979,-13.03061 2.78816,-4.16078 6.37144,-8.55784 7.96283,-9.77119 l 2.89352,-2.20611 -1.81412,-5.37665 c -2.3391,-6.9326 -2.34704,-13.57712 -0.0226,-18.98833 1.80716,-4.20717 7.75383,-11.4071 9.46386,-11.45838 0.47088,-0.0141 2.328,2.14202 4.12694,4.79143 3.04966,4.49152 3.18973,5.14705 2.07238,9.69939 -0.65913,2.68528 -1.41198,5.2523 -1.67305,5.70449 -0.90252,1.56324 2.69667,12.63483 5.58127,17.16878 5.72093,8.99194 18.71649,14.11396 28.11006,11.07919 12.73541,-4.11443 19.00856,-13.1736 19.065,-27.53218 0.025,-6.36477 -2.8796,-11.72808 -9.04485,-16.70113 l -5.06128,-4.08255 6.5296,-2.43126 c 9.57029,-3.56345 19.95246,-14.23211 21.60874,-22.20505 0.40695,-1.95907 0.98033,-3.626338 1.27417,-3.705078 0.29381,-0.07873 2.95855,2.980128 5.92163,6.797468 6.79678,8.75617 15.6349,15.34374 31.97161,23.83021 l 11.84468,6.15299 -0.58154,3.74372 c -2.1892,14.09284 -0.24788,24.37278 7.12995,37.75607 9.55623,17.33478 10.40862,20.09829 5.2871,17.14139 -1.69911,-0.981 -10.64251,-0.10268 -14.98635,1.4718 -8.92234,3.23406 -12.37808,5.54125 -17.27902,11.53632 l -2.30701,2.82199 -0.90655,-4.86198 c -1.3211,-7.08493 -4.78587,-10.93415 -14.03688,-15.59434 -10.11514,-5.0955 -19.51003,-5.45765 -25.2722,-0.97419 -3.00733,2.33991 -11.03058,13.51085 -10.71511,14.91876 0.14495,0.64681 -0.19377,1.96806 -0.75271,2.93615 -0.55891,0.96809 -0.74327,2.49755 -0.40974,3.39884 0.33358,0.90126 0.0361,2.12263 -0.66096,2.71415 -0.69714,0.59152 -0.90166,1.00083 -0.45456,0.90961 0.44708,-0.0912 1.4988,2.16002 2.33708,5.00282 2.15641,7.31244 5.9625,12.36125 13.55742,17.98407 2.99622,2.21816 4.58631,2.76457 8.30077,2.85234 l 4.59469,0.10855 3.1985,4.76445 c 1.75915,2.62043 2.95022,5.19447 2.64673,5.7201 -0.84295,1.46003 -11.30623,3.7485 -16.02017,3.50384 -4.82733,-0.25054 -10.65078,-3.17224 -14.95062,-7.50091 -2.98371,-3.00373 -2.98395,-3.0038 -7.21064,-1.42333 -14.97969,5.60116 -25.04594,5.99325 -34.32049,1.3367 -3.8559,-1.936 -4.27591,-1.93245 -6.05186,0.0511 -1.04962,1.17232 -3.98535,3.47852 -6.52389,5.1249 -2.5385,1.64637 -4.45499,3.08612 -4.25888,3.19936 0.19615,0.11324 -1.59612,1.86715 -3.98275,3.89762 -2.89568,2.46354 -6.09685,6.44191 -9.62197,11.95823 -4.48507,7.01845 -5.44761,9.14575 -6.37543,14.09032 -1.36711,7.28548 -0.40538,10.72632 5.7105,20.43146 6.37353,10.11393 12.9074,16.49296 23.06945,22.52265 7.95664,4.72108 10.00638,5.09209 14.40367,2.60706 2.14278,-1.21098 5.4949,-2.58615 7.44913,-3.05595 3.20958,-0.77165 20.95345,0.45346 22.90742,1.5816 0.44112,0.25465 1.56989,0.17888 2.50836,-0.16844 0.93845,-0.34735 2.3892,-0.23723 3.22392,0.24468 0.92932,0.53654 1.84728,0.30535 2.36788,-0.59641 1.73068,-2.99763 7.75672,-7.44433 12.22548,-9.02133 4.28899,-1.51359 10.96794,-1.42772 16.72289,0.21492 2.40084,0.68528 2.40293,0.79498 0.1166,6.08356 l -2.32835,5.38566 -4.94374,0.84637 c -6.53983,1.11963 -8.02203,2.13049 -13.53138,9.22858 -5.48895,7.0718 -7.5567,12.62071 -7.2476,19.44933 0.2641,5.83574 1.07378,8.07993 4.69031,13.00124 6.14531,8.36226 19.78621,13.04147 28.20114,9.67381 9.42339,-3.7713 14.83038,-9.91239 16.63167,-18.88998 0.63566,-3.16815 1.42205,-5.8316 1.74758,-5.91883 0.32552,-0.0872 1.36689,0.77706 2.31413,1.92059 0.94724,1.14351 5.06686,4.13971 9.15466,6.65817 6.72819,4.14512 7.98336,4.61659 13.24617,4.97833 3.19754,0.21964 8.18285,-0.27177 11.07841,-1.09207 l 5.26469,-1.49141 -4.08837,10.46199 c -2.24859,5.75408 -4.86385,13.2791 -5.81166,16.72221 -2.41396,8.76893 -3.53941,24.82272 -2.22114,31.68371 0.61047,3.17736 1.068,5.84971 1.01668,5.93855 -0.0513,0.0888 -3.2064,1.68965 -7.01142,3.55735 l 0,0 z m -6.81952,-16.46925 c -1.73268,-9.4499 -7.11668,-28.62605 -8.20846,-29.23613 -0.72674,-0.4061 -5.89691,2.50013 -13.11883,7.37437 -6.55567,4.42447 -12.06322,8.29369 -12.23898,8.59815 -0.17578,0.30446 0.0231,6.25621 0.44174,13.22608 0.4187,6.96992 0.64904,13.38109 0.51179,14.24706 -0.5364,3.38403 3.13276,3.57873 10.35041,0.54924 6.11127,-2.56505 22.30015,-10.14797 22.8061,-10.68239 0.0939,-0.0991 -0.15084,-1.9335 -0.54377,-4.07638 z m -77.2094,-40.12924 c -3.09908,-4.07867 -4.47238,-13.51994 -3.52283,-24.21925 l 0.74677,-8.4147 -3.18132,-0.60871 c -5.66883,-1.08457 -15.16035,-0.57542 -20.31455,1.08974 l -5.03187,1.62563 -7.23557,13.54644 -7.23559,13.54644 1.25475,5.01251 c 0.69012,2.7569 2.15224,6.39805 3.24922,8.09156 2.50669,3.8698 8.96663,10.61095 11.65663,12.16403 1.87356,1.08171 2.30253,0.83152 5.24906,-3.06143 4.60787,-6.08786 15.57524,-13.10789 21.3048,-13.63678 2.46218,-0.22727 4.69078,-0.77463 4.95243,-1.21634 0.26143,-0.44182 -0.58972,-2.20533 -1.89193,-3.91914 z M 281.65593,544.94542 c -15.05964,-8.69469 -13.73963,-8.44008 -21.02382,-4.05497 -2.51308,1.51292 -7.90151,4.41554 -11.97429,6.45032 -4.13061,2.06366 -7.27519,4.18424 -7.11137,4.79561 0.66281,2.47369 24.58111,23.93319 25.98889,23.31726 1.13183,-0.49516 18.68051,-13.62525 22.07034,-16.51326 7.0196,-5.98036 7.55035,-5.04597 -7.94975,-13.99496 z m 219.2785,-390.04307 c 0.47109,-5.43561 0.55691,-10.05134 0.19072,-10.25717 -1.67076,-0.93931 -18.44257,-6.19326 -23.5638,-7.38181 -6.87791,-1.59621 -8.50178,-0.28098 -7.72675,6.25814 0.2844,2.39946 0.71988,4.64138 0.96776,4.98207 0.24787,0.3407 0.28211,0.91144 0.0761,1.26829 -0.20604,0.35688 -0.17235,3.74799 0.0748,7.53583 l 0.44949,6.88698 11.72486,6.59758 c 9.4701,5.32883 11.98944,6.44006 13.10069,5.77848 1.84178,-1.09648 3.64136,-9.38236 4.70613,-21.66839 l 0,0 z m -118.1101,195.25576 c 0.85158,-3.58739 0.63325,-4.63341 -1.49817,-7.17707 -3.40692,-4.06593 -13.85199,-12.44508 -20.19014,-16.19679 -2.87162,-1.69974 -7.121,-4.83993 -9.44309,-6.97817 -9.00358,-8.29064 -11.27178,-13.8174 -11.52199,-28.07482 -0.20742,-11.81985 0.3985,-15.19475 3.77657,-21.03443 3.67345,-6.34975 6.66369,-9.46577 14.08841,-14.67894 6.03838,-4.23975 11.55284,-9.73954 16.92984,-16.88465 3.32148,-4.41374 3.47191,-4.86985 2.59727,-7.87508 -0.5329,-1.83098 -2.26515,-4.27577 -4.06599,-5.73854 l -3.13761,-2.54848 -9.51212,2.6982 c -5.23169,1.48402 -11.90801,4.11965 -14.83626,5.85695 -13.33032,7.90884 -23.76003,10.24311 -32.65089,7.30754 -2.89823,-0.95696 -6.14512,-2.50935 -7.21529,-3.44987 -1.07018,-0.9405 -2.60316,-1.53386 -3.40671,-1.31853 -0.8035,0.21528 -1.26404,0.0444 -1.02346,-0.37985 0.24054,-0.42423 -2.21171,-2.34079 -5.44963,-4.25907 -4.44203,-2.63163 -6.59113,-4.51934 -8.75483,-7.69007 -3.50758,-5.14013 -6.29981,-15.85374 -6.23763,-23.93343 0.0525,-6.82456 -3.34921,-21.92675 -5.80492,-25.77117 -1.01354,-1.58677 -2.69214,-2.91744 -4.41581,-3.50053 -3.34229,-1.13065 -10.69029,0.52283 -11.93963,2.68673 -1.65839,2.87245 -5.65365,19.52556 -5.94765,24.79123 -0.80691,14.45155 -4.54209,24.20409 -11.49779,30.02057 -8.02532,6.71086 -23.02616,13.12361 -27.94431,11.946 -1.11802,-0.2677 -3.68797,-0.49063 -5.71098,-0.49537 -2.9523,-0.007 -6.2477,-1.2989 -16.69775,-6.54638 -12.32157,-6.18728 -17.26583,-8.15461 -24.33909,-9.68454 -2.50681,-0.54221 -3.70195,-0.086 -6.65963,2.54242 -4.54447,4.0385 -6.98074,9.77106 -5.54136,13.03882 1.93441,4.3917 10.4181,13.80322 17.13288,19.0067 7.58986,5.88158 12.28292,11.02407 14.79512,16.21191 0.93299,1.92667 1.96286,3.65687 2.2886,3.84495 0.56163,0.32426 0.70527,3.11449 0.94346,18.32766 0.17261,11.02443 -0.28579,14.7092 -2.39047,19.21493 -2.6571,5.68848 -10.18015,13.72922 -16.17225,17.28517 -5.13044,3.04459 -14.24638,11.54346 -16.4203,15.3088 -1.78907,3.09874 -0.21342,12.26677 2.84313,16.5429 1.31162,1.83499 3.8966,4.21983 5.74438,5.29966 3.15035,1.84106 3.90396,1.79093 12.09888,-0.80474 4.80658,-1.5225 10.6347,-3.85622 12.95136,-5.18616 9.60808,-5.51561 25.35558,-9.07148 29.52178,-6.66612 0.82182,0.47447 4.1205,1.61184 7.33039,2.52746 5.34666,1.52521 6.25774,2.05537 10.8622,6.32121 8.54435,7.91596 11.85533,15.84746 12.91255,30.93234 0.49801,7.10572 3.80558,20.62504 6.09887,24.92852 1.62542,3.05012 1.76458,3.13482 6.72866,4.09478 2.7879,0.53916 7.28558,0.45532 9.99481,-0.18624 l 4.92589,-1.1665 2.33183,-5.35129 c 2.75147,-6.3143 5.40039,-18.13292 5.24269,-23.39124 -0.17554,-5.85492 2.34728,-15.04127 5.75689,-20.96243 3.24763,-5.63983 4.88012,-7.17689 11.91873,-11.2218 16.32945,-9.38402 17.91267,-10.09839 22.44581,-10.12784 7.40051,-0.048 14.59919,1.56457 22.9458,5.14013 8.08967,3.46558 13.26549,4.79242 21.12301,5.41511 2.55074,0.20214 4.86559,0.58803 5.14411,0.85759 0.27851,0.26958 1.30278,-0.38097 2.2761,-1.44566 0.97336,-1.06465 2.10107,-2.22944 2.50605,-2.58836 1.61067,-1.42765 3.22175,-4.84098 4.16968,-8.83412 l 0,0 z m -86.17496,113.43152 c -2.37932,-6.57883 -4.34032,-10.49913 -6.05842,-12.11155 -0.70839,-0.66479 -2.48475,-2.35682 -3.94747,-3.76003 -2.97142,-2.85051 -6.40776,-3.62709 -14.3359,-3.23993 -2.51812,0.12296 -5.63295,0.19434 -6.92186,0.15863 -12.01837,-0.33293 -14.05244,0.0712 -17.8427,3.5448 -4.19785,3.84713 -10.60211,14.29182 -11.26056,18.36475 -0.39893,2.46771 -0.16685,2.7575 3.28815,4.10505 14.31806,5.58441 22.1285,11.08561 24.79101,17.46116 0.80512,1.92793 1.62301,3.59723 1.81754,3.70955 0.19454,0.11231 1.88133,-1.86372 3.74846,-4.39114 1.86712,-2.52744 4.37774,-5.32158 5.57915,-6.20925 3.38421,-2.50028 12.21244,-6.17123 17.86872,-7.4301 6.00076,-1.33554 6.22631,-2.03848 3.27388,-10.20194 z M 428.51008,219.62809 c -1.74571,-5.87781 -2.36621,-19.49594 -1.0702,-23.48643 0.94977,-2.92435 0.94055,-2.93769 -2.12822,-3.08003 -4.73867,-0.21977 -15.40141,-5.69962 -20.02794,-10.29279 l -3.89541,-3.86734 -3.08823,2.42954 c -4.05961,3.19379 -9.40933,12.70513 -10.89921,19.37789 l -1.16185,5.20346 7.19568,10.9335 7.19566,10.93347 6.38449,0.97433 c 5.69537,0.86914 9.26628,0.56913 18.91126,-1.5888 3.83644,-0.85833 4.2281,-2.00083 2.58397,-7.5368 l 0,0 z M 145.40831,390.84014 c 0.93493,-5.97019 1.58551,-4.55639 -11.54405,-25.08689 l -5.38085,-8.41394 -4.89981,-1.30223 c -4.68409,-1.24489 -16.78114,-0.76033 -21.35271,0.85527 -4.335284,1.53213 -4.814079,2.74504 -2.945094,7.4607 3.838204,9.68414 3.603804,19.55594 -0.709233,29.8703 l -1.715961,4.10362 5.653348,-0.44722 c 7.82995,-0.61943 15.29798,2.43352 26.64077,10.89084 l 5.40542,4.03035 1.67503,-2.09794 c 3.83709,-4.80593 8.34322,-14.56311 9.17314,-19.86286 l 0,0 z m 150.98646,-266.69575 0.27668,-3.51161 -5.27135,-1.37112 c -7.03911,-1.83091 -17.49469,-7.94862 -20.54109,-12.01887 -1.29573,-1.73122 -2.49332,-3.22702 -2.66131,-3.32401 -0.16802,-0.097 -1.0535,1.11926 -1.96774,2.7028 -2.28116,3.95108 -9.54784,8.77355 -18.43368,12.23333 l -7.43923,2.89654 0.44839,3.3314 c 0.61936,4.60202 5.52431,13.43495 9.83644,17.71376 3.29482,3.26935 3.98248,3.61323 8.29099,4.14626 2.584,0.31967 8.91074,0.51025 14.05942,0.4235 8.51814,-0.14351 9.60386,-0.40997 12.0552,-2.95841 4.58435,-4.76601 11.03362,-16.28287 11.34728,-20.26357 l 0,0 z M 60.218566,440.43629 c -0.274427,-4.99191 -0.472833,-11.88745 -0.440886,-15.32341 l 0.05808,-6.24723 -3.995931,-1.72587 c -2.197757,-0.94919 -8.767843,-4.17097 -14.600176,-7.15945 -8.17859,-4.19074 -10.75085,-5.1797 -11.245133,-4.32356 -1.040273,1.80177 -4.71458,31.70867 -4.233208,34.45607 0.142257,0.81189 22.340727,8.41667 26.516431,9.08401 2.442105,0.39031 5.20837,0.84913 6.147256,1.01967 0.938888,0.17052 1.838801,0.0819 1.999802,-0.19701 0.161,-0.27885 0.06819,-4.59131 -0.206238,-9.58322 l 0,0 z M 290.71417,34.346115 c -3.54632,-3.722727 -16.11733,-14.031032 -19.47088,-15.966301 -2.18026,-1.258762 -2.79578,-0.978862 -9.66418,4.38961 -6.51644,5.093314 -14.76767,13.05391 -16.4232,15.84461 -0.45056,0.759456 2.40238,2.734022 11.73182,8.119851 l 12.3268,7.116877 8.65876,-4.969371 c 4.76231,-2.733146 9.85588,-5.49067 11.31903,-6.127813 1.46317,-0.637164 3.08354,-2.076149 3.60078,-3.197728 0.74964,-1.625407 0.32765,-2.682651 -2.07924,-5.209197 l 0,0 z M 146.56719,193.37407 c -1.01094,-2.99626 -3.114,-7.37454 -4.67344,-9.72952 -3.90668,-5.89967 -6.56132,-6.51919 -11.40229,-2.66092 -5.91222,4.71205 -17.72549,9.50573 -22.37244,9.07846 -4.57505,-0.42068 -5.20646,0.0163 -3.64824,2.52509 2.6439,4.25668 1.65401,17.21981 -2.08564,27.31266 -1.53133,4.13287 -1.48362,4.46293 0.82908,5.73509 1.34968,0.74237 3.12089,1.45467 3.93607,1.5828 0.81518,0.12809 3.36136,0.75812 5.6582,1.40004 5.54499,1.5497 8.53034,1.62473 14.24908,0.35811 4.71608,-1.04456 4.83353,-1.14513 10.02971,-8.58691 12.21542,-17.49451 12.45845,-18.18709 9.47991,-27.0149 z M 64.234983,153.21249 c 0.245079,-3.71146 0.822524,-9.31918 1.283211,-12.46161 0.586474,-4.00049 0.401167,-5.96545 -0.618076,-6.55392 -1.600488,-0.92404 -18.377743,2.73315 -27.02433,5.89092 l -5.476441,2.00001 0.19265,9.14696 c 0.105943,5.03084 0.450833,9.45769 0.766401,9.83747 0.315564,0.3798 0.357904,1.0644 0.09407,1.52138 -0.823146,1.42573 1.533658,12.65103 2.730244,13.00386 0.624701,0.18421 6.872297,-2.41546 13.88354,-5.77708 9.028553,-4.32882 12.890006,-6.65873 13.235423,-7.98594 0.268237,-1.03066 0.688224,-4.91057 0.933311,-8.62205 l 0,0 z"
     id="path3755"
     inkscape:connector-curvature="0" />
</svg>
