<?xml version="1.0" encoding="UTF-8" standalone="no"?>
<!-- Created with Inkscape (http://www.inkscape.org/) -->

<svg
   xmlns:dc="http://purl.org/dc/elements/1.1/"
   xmlns:cc="http://creativecommons.org/ns#"
   xmlns:rdf="http://www.w3.org/1999/02/22-rdf-syntax-ns#"
   xmlns:svg="http://www.w3.org/2000/svg"
   xmlns="http://www.w3.org/2000/svg"
   xmlns:sodipodi="http://sodipodi.sourceforge.net/DTD/sodipodi-0.dtd"
   xmlns:inkscape="http://www.inkscape.org/namespaces/inkscape"
   id="svg3759"
   version="1.1"
   inkscape:version="0.48.5 r10040"
   width="539.98822"
   height="602.427"
   sodipodi:docname="blood roses.png">
  <metadata
     id="metadata3765">
    <rdf:RDF>
      <cc:Work
         rdf:about="">
        <dc:format>image/svg+xml</dc:format>
        <dc:type
           rdf:resource="http://purl.org/dc/dcmitype/StillImage" />
        <dc:title></dc:title>
      </cc:Work>
    </rdf:RDF>
  </metadata>
  <defs
     id="defs3763" />
  <sodipodi:namedview
     pagecolor="#ffffff"
     bordercolor="#666666"
     borderopacity="1"
     objecttolerance="10"
     gridtolerance="10"
     guidetolerance="10"
     inkscape:pageopacity="0"
     inkscape:pageshadow="2"
     inkscape:window-width="1233"
     inkscape:window-height="856"
     id="namedview3761"
     showgrid="false"
     fit-margin-top="0"
     fit-margin-left="0"
     fit-margin-right="0"
     fit-margin-bottom="0"
     inkscape:zoom="0.74068262"
     inkscape:cx="262.2158"
     inkscape:cy="249.09428"
     inkscape:window-x="99"
     inkscape:window-y="180"
     inkscape:window-maximized="0"
     inkscape:current-layer="svg3759" />
  <g
     id="g4281"
     style="stroke-width:2.5;stroke-miterlimit:4;stroke-dasharray:none"
     transform="matrix(0.25171083,0,0,0.25171083,-62.245658,-16.471189)">
    <path
       inkscape:connector-curvature="0"
       id="path3769"
       d="m 1247.5108,2451.4444 c -36.828,-7.3521 -75.1228,-45.3047 -82.3496,-81.6139 -1.9535,-9.8142 -19.2098,-33.7917 -43.2693,-60.122 -36.7926,-40.2655 -38.7225,-43.5117 -23.9324,-40.2556 82.4752,18.157 120.943,20.9516 113.6986,8.2599 -3.0407,-5.3275 15.8495,-22.8232 33.7498,-31.2579 10.2917,-4.8495 11.6519,-9.3345 10.9888,-36.2292 -0.4161,-16.882 -2.6377,-32.4969 -4.9368,-34.6998 -6.0078,-5.7564 -99.3318,-34.3393 -141.9475,-43.4752 -19.9122,-4.2686 -36.1429,-9.5118 -36.0682,-11.6515 0.075,-2.1397 16.758,-9.8556 37.0739,-17.1467 112.618,-40.4163 116.3028,-42.2085 116.8126,-56.8083 0.3224,-9.2303 -6.542,-20.7728 -20.6743,-34.7641 -34.0141,-33.6752 -41.138,-32.8238 -90.7883,10.8492 -23.6664,20.8172 -43.8727,36.9496 -44.9029,35.8497 -1.0303,-1.0998 11.2541,-31.4683 27.2987,-67.4851 36.8355,-82.6887 38.5905,-89.4213 29.5539,-113.3659 -8.5134,-22.5582 -8.5283,-52.5414 -0.039,-78.6646 5.5534,-17.0891 4.7205,-19.3145 -13.5921,-36.3142 -18.4494,-17.1265 -19.4121,-19.7588 -17.7403,-48.4988 1.3555,-23.3017 5.2559,-35.0651 16.7237,-50.4379 20.0832,-26.9223 44.6108,-48.2937 57.0081,-49.672 7.5989,-0.8448 11.2715,-7.3752 14.6011,-25.9622 4.9225,-27.4796 25.5894,-71.631 52.4534,-112.0582 17.2678,-25.9858 17.4633,-26.9338 11.6781,-56.6376 -3.236,-16.6149 -7.6174,-35.6628 -9.7364,-42.3284 l -3.8528,-12.1192 -41.3773,18.6001 c -22.7573,10.2301 -41.4672,21.1775 -41.5772,24.3279 -0.4528,12.9675 -46.9437,93.1797 -64.8157,111.8285 -14.4964,15.1266 -20.3021,26.7248 -23.5061,46.9582 -6.7562,42.6686 -15.4606,63.7533 -35.0314,84.8574 -15.0288,16.2062 -22.7717,20.0297 -43.87252,21.6648 -18.40358,1.426 -29.30049,-0.6121 -38.67513,-7.2333 -12.79765,-9.0392 -13.46075,-8.7635 -34.00435,14.1391 -21.97288,24.496 -51.93939,38.8745 -79.04634,37.9279 -8.8452,-0.309 -16.16787,1.8932 -16.27264,4.8934 -0.10478,3.0004 -8.12199,16.7025 -17.81602,30.4493 -9.69403,13.7468 -31.66639,45.173 -48.82741,69.8361 -18.00984,25.8828 -29.69004,38.9084 -27.62598,30.8079 1.96678,-7.7186 5.9902,-38.0118 8.94091,-67.3182 6.09816,-60.5668 5.71346,-61.3894 -33.91374,-72.5264 -20.04868,-5.6344 -29.38874,-5.548 -49.25554,0.4562 l -24.51557,7.409 10.67189,58.2084 c 5.86954,32.0146 11.97581,67.9354 13.56948,79.8239 3.44492,25.6985 8.79905,28.7124 -74.39903,-41.8821 l -55.05013,-46.7108 -24.81578,11.4995 -24.81578,11.4995 1.9769,27.0876 c 1.08728,14.8981 -0.63751,33.0755 -3.83287,40.394 -5.2155,11.9453 -2.80162,16.6483 23.5992,45.9783 18.40699,20.4494 25.41199,31.3522 18.72476,29.1439 -28.87574,-9.5354 -89.78786,-17.0647 -99.49366,-12.2985 -13.27348,6.5184 -30.85311,5.7851 -64.60128,-2.6948 -39.00261,-9.7996 -79.24745,-50.054 -90.45425,-90.4754 -14.10674,-50.881 -5.90999,-93.7505 24.75964,-129.4944 16.78145,-19.558 43.28986,-72.4738 43.81317,-87.4595 0.50502,-14.4618 7.75764,-0.5528 17.67059,33.8883 8.12496,28.2292 11.89779,34.0906 23.13081,35.9357 7.38227,1.2128 22.44118,7.21 33.46425,13.327 25.54171,14.1742 32.63596,14.2334 52.72328,0.4398 19.94112,-13.6931 20.09725,-16.4579 5.86261,-103.8101 -6.23009,-38.2316 -10.53497,-71.6327 -9.56637,-74.2248 1.53827,-4.1166 40.20492,27.4651 98.28176,80.2736 9.82601,8.9344 19.36158,16.2969 21.19018,16.3608 10.8428,0.3787 39.38264,-32.8729 45.60409,-53.1329 12.31883,-40.1159 6.75621,-47.1654 -58.46646,-74.0938 -38.28525,-15.8068 -54.00073,-24.5978 -47.60763,-26.6313 5.2489,-1.6692 43.64964,-4.8339 85.33502,-7.0323 l 75.79161,-3.9972 24.16979,-25.606 c 17.51692,-18.5577 30.45457,-26.9969 47.00223,-30.659 12.55782,-2.7791 26.85905,-6.0635 31.78043,-7.2985 5.70172,-1.4309 10.5109,-10.6547 13.25579,-25.4238 10.48755,-56.429 80.73302,-74.8546 145.87461,-38.2635 12.22824,6.8688 19.56753,6.9548 53.00525,0.6212 32.89703,-6.2311 46.20323,-6.1401 87.31393,0.5979 l 48.502,7.9496 20.4206,-17.0378 c 11.231,-9.3706 26.6138,-20.9362 34.1836,-25.7012 l 13.7632,-8.6633 -29.8517,-31.5355 c -28.8402,-30.4671 -30.6367,-31.4588 -53.0151,-29.2694 -41.1966,4.0305 -103.5882,1.0082 -126.74013,-6.1394 -20.37954,-6.2916 -25.24958,-5.7267 -50.15145,5.8183 -35.66415,16.5343 -81.59912,17.0305 -111.24682,1.2016 -20.99246,-11.208 -30.99561,-26.2066 -35.53355,-53.2783 -1.99369,-11.8938 -6.30731,-15.5446 -22.53379,-19.0711 -28.17681,-6.124 -45.69487,-16.8109 -62.2383,-37.969 -15.3563,-19.6398 -8.93168,-18.0163 -159.24124,-40.2401 -17.00147,-2.5137 -30.84817,-6.0542 -30.77046,-7.8677 0.0779,-1.8135 25.92533,-10.8354 57.43914,-20.0485 l 57.29781,-16.7511 0.96722,-27.6977 c 0.94139,-26.95782 -13.24131,-61.15747 -27.5336,-66.39341 -3.00599,-1.10126 -35.3561,21.12559 -71.8891,49.39286 -36.53301,28.26745 -67.21022,50.55175 -68.17157,49.52085 -0.96135,-1.0309 3.97033,-18.3234 10.95933,-38.42797 6.989,-20.10443 17.9751,-57.03875 24.41359,-82.07629 6.43849,-25.03753 13.19855,-49.11818 15.02236,-53.51256 2.22671,-5.36514 -5.24704,-14.23846 -22.75136,-27.01181 l -26.06739,-19.02199 -20.39573,11.64175 c -11.21765,6.40301 -28.90529,12.72165 -39.30587,14.04156 -18.41873,2.33744 -19.36785,3.6475 -36.52248,50.4139 -9.68679,26.4078 -19.37683,49.7759 -21.53341,51.92919 -2.15658,2.15323 -10.8139,-21.77673 -19.23846,-53.17779 -10.60183,-39.5164 -18.55594,-58.97429 -25.83707,-63.20433 -13.59978,-7.90097 -24.48075,-31.24884 -30.62111,-65.70525 -4.41906,-24.79749 -3.36249,-31.14064 10.74762,-64.52294 17.96349,-42.49877 52.76743,-86.13856 74.85061,-93.85318 33.82934,-11.81815 55.63324,-14.18123 76.02744,-8.23982 16.59316,4.83411 31.02529,3.72503 74.58999,-5.73206 29.70884,-6.44923 54.67248,-11.02194 55.47478,-10.16159 0.80229,0.86036 -13.77383,19.07225 -32.39137,40.47088 -27.5493,31.66462 -33.31278,41.43996 -30.96353,52.51674 1.58761,7.48554 3.56457,27.36752 4.39326,44.18217 l 1.50672,30.5721 27.50149,11.90885 27.50151,11.90879 50.59427,-47.80673 c 27.82685,-26.29369 58.69399,-57.19664 68.59364,-68.67325 l 17.99936,-20.86662 -0.56686,16.23302 c -0.75298,21.56247 -20.98852,147.98835 -24.53813,153.30722 -1.53189,2.29544 7.8757,6.15491 20.90577,8.57661 23.62805,4.39136 45.82014,-1.57085 70.48414,-18.93659 9.50333,-6.69118 9.40019,-9.23843 -2.32032,-57.3034 -6.74613,-27.66555 -11.42075,-53.62747 -10.38803,-57.69316 1.07306,-4.22459 12.24054,6.29044 26.06116,24.53853 13.30093,17.56189 38.55084,48.16207 56.1109,68.00041 26.33248,29.74891 36.69396,37.46843 59.12816,44.05198 14.96038,4.39036 38.73396,16.89452 52.83008,27.78708 20.57615,15.89995 27.69413,18.79067 36.10223,14.66156 13.7714,-6.76294 36.03305,-5.74059 50.45515,2.31712 33.8116,18.89075 52.884,56.20568 55.5231,108.63133 0.8922,17.722 5.0056,27.33094 16.4379,38.40004 22.5988,21.8808 50.3833,60.6695 68.5155,95.6516 15.7361,30.3596 16.6707,31.101 48.5932,38.5473 17.9017,4.1757 33.3503,6.8435 34.3302,5.9283 0.9799,-0.9152 2.9317,-15.804 4.3373,-33.0862 2.5219,-31.0079 2.1213,-32.0547 -30.3939,-79.4152 -18.1221,-26.3963 -36.6132,-60.27939 -41.091,-75.29599 -6.2217,-20.86383 -12.6129,-30.09167 -27.0993,-39.12774 -29.2323,-18.23375 -45.5325,-36.67441 -57.8175,-65.40948 -13.8633,-32.42694 -9.0208,-57.62973 15.4588,-80.45753 l 16.5439,-15.42739 -10.258,-27.33917 c -9.3583,-24.941 -9.5587,-29.98501 -2.2852,-57.50039 11.1455,-42.16332 10.9727,-43.20622 -14.7774,-89.16843 -28.625,-51.09398 -54.1475,-104.40619 -51.2685,-107.09102 3.1331,-2.92166 27.3774,12.40381 65.749,41.56171 18.4196,13.99669 36.9551,25.56951 41.19,25.71739 4.2348,0.1479 17.6554,-8.50221 29.8235,-19.22246 19.3985,-17.09061 22.401,-22.80931 24.3778,-46.42924 l 2.2543,-26.93786 -76.1625,-21.57465 c -41.8896,-11.86605 -76.1439,-23.23388 -76.1208,-25.26183 0.022,-2.02798 5.5639,-5.14451 12.3132,-6.92572 14.467,-3.81796 33.1953,-10.87173 78.0292,-29.38867 18.0932,-7.47271 41.9143,-16.83772 52.9358,-20.81116 19.2125,-6.92641 20.1567,-8.43141 22.8889,-36.48436 2.821,-28.96238 2.6689,-29.3267 -14.9465,-35.82232 -9.788,-3.6093 -25.8115,-14.11107 -35.6077,-23.33726 l -17.8113,-16.77486 -33.7658,10.10457 c -18.571,5.5575 -34.7928,9.003 -36.0482,7.65666 -1.2556,-1.34634 6.5334,-12.6079 17.3087,-25.02569 23.5542,-27.14435 29.7507,-38.06952 35.1697,-62.00747 2.2972,-10.14775 15.2289,-30.331 29.1989,-45.57232 22.7252,-24.793109 29.408,-28.544055 71.2931,-40.015611 45.0561,-12.340002 47.2998,-12.431104 89.2859,-3.625466 37.4012,7.84411 46.5253,12.138711 69.3428,32.638667 18.003,16.17454 27.7378,29.90887 30.9227,43.62687 2.9145,12.55304 15.8661,32.27364 34.7229,52.87005 l 30.0744,32.84921 -32.7148,-4.41364 c -17.9933,-2.42749 -36.7102,-6.10897 -41.5932,-8.18102 -5.8614,-2.48727 -8.9744,-1.01034 -9.1614,4.34666 -0.273,7.81827 -27.0196,32.08126 -47.2658,42.87703 -8.2482,4.39811 -9.3484,9.57421 -6.9748,32.81663 l 2.8183,27.59491 46.3351,15.41612 c 36.7103,12.21387 94.4592,28.70729 130.6452,37.31308 2.1923,0.52139 -20.008,9.55394 -49.3343,20.07235 -29.3262,10.51843 -66.04,24.71052 -81.5863,31.53798 l -28.2659,12.41358 7.1338,23.60481 c 8.2445,27.27942 26.4333,48.82229 48.433,57.36365 14.5996,5.66827 17.9852,3.69855 65.863,-38.31847 27.7598,-24.36164 50.427,-42.99607 50.3716,-41.40983 -0.1712,4.9022 -30.1384,79.81824 -39.3454,98.3612 -4.7915,9.65 -13.7958,30.79986 -20.0098,46.99968 -9.8823,25.76314 -10.3975,30.95725 -4.1115,41.44766 13.7827,23.00111 18.4339,60.02185 10.7038,85.19476 -7.038,22.91958 -6.9194,23.33511 11.5352,40.41112 26.4411,24.46587 30.8244,41.68814 19.4274,76.33265 -6.3461,19.29088 -17.1137,35.79953 -34.1895,52.41889 -13.7092,13.34277 -26.9095,24.19031 -29.3341,24.10565 -2.4244,-0.0847 -7.9407,13.70482 -12.2585,30.6433 -7.5521,29.62751 -13.9294,42.8986 -49.328,102.65261 -12.7726,21.5602 -15.6282,31.5099 -13.5405,47.1778 4.2601,31.9725 7.2636,34.5109 31.9425,26.9986 19.4562,-5.9226 24.5421,-11.7214 53.8235,-61.3699 17.7854,-30.1561 40.1913,-63.20333 49.7912,-73.43831 11.343,-12.09339 17.6762,-24.40691 18.0884,-35.16817 1.0437,-27.25367 18.9813,-73.26095 36.6758,-94.06668 19.1162,-22.47758 46.3623,-29.55838 72.1963,-18.76268 15.086,6.30431 17.5568,5.4209 38.6268,-13.81146 23.4757,-21.4279 54.4857,-36.03411 75.5477,-35.58418 10.9694,0.23445 44.6027,-33.10214 54.7551,-54.27187 8.6426,-18.02137 64.5445,-92.17198 67.8334,-89.97713 2.1264,1.41914 -0.1587,20.14837 -5.0781,41.62052 -4.9194,21.47219 -11.3209,49.40429 -14.2255,62.07129 -2.9046,12.66706 -4.1227,21.95073 -2.707,20.63051 1.4157,-1.32025 11.0112,3.76584 21.3232,11.30246 19.443,14.21012 31.0339,16.48739 59.8631,11.76131 21.4628,-3.51851 21.8831,-10.02569 6.5847,-101.95545 -6.302,-37.86839 -10.6045,-69.64745 -9.5615,-70.62014 1.0431,-0.97267 18.2697,15.11716 38.2813,35.75515 20.0116,20.63799 49.8414,49.59953 66.2884,64.3589 l 29.9037,26.83527 26.3258,-12.24257 c 25.8902,-12.04001 26.3458,-12.676 27.5455,-38.43582 0.6706,-14.40629 3.1525,-33.42077 5.5147,-42.25441 3.9014,-14.58926 0.9697,-19.76769 -31.9912,-56.50524 -19.9574,-22.24425 -35.3367,-40.41094 -34.1762,-40.37041 1.1606,0.0406 21.0192,4.3811 44.13,9.64572 49.2705,11.22367 76.1718,12.87925 96.5333,5.94096 20.9963,-7.1546 75.6132,9.68539 95.1574,29.33983 29.8958,30.06448 54.1342,67.97 69.3566,108.46389 l 15.5061,41.2494 -9.7711,36.94691 c -6.5692,24.83994 -14.2678,40.88498 -23.4936,48.96493 -12.6195,11.0521 -23.4479,37.13174 -44.0467,106.08361 l -7.153,23.94333 -17.6247,-51.82716 c -18.4413,-54.22777 -22.0874,-59.8705 -39.1591,-60.60203 -5.7402,-0.24369 -20.8361,-5.9374 -33.5464,-12.64767 l -23.1098,-12.20046 -22.1333,14.22131 c -12.1732,7.82174 -23.079,15.63855 -24.235,17.37064 -3.0062,4.50488 22.5715,117.99375 34.4641,152.9178 5.5064,16.1694 9.2374,30.1206 8.2914,31.0026 -0.946,0.8821 -31.7297,-22.7917 -68.4083,-52.60872 -56.6346,-46.03981 -67.98,-53.21475 -75.256,-47.59315 -16.562,12.79606 -25.6658,36.58616 -25.4997,66.63587 0.1493,27.0053 1.3772,29.9186 13.9702,33.1473 7.5938,1.9471 31.2801,8.7948 52.6362,15.217 21.3562,6.4223 45.4753,12.0804 53.5981,12.5735 14.0647,0.8537 13.8434,1.201 -4.6422,7.288 -16.7876,5.5277 -38.17,8.3052 -102.8627,13.3616 -71.3824,5.5792 -74.7723,6.3793 -82.3593,19.4386 -11.2591,19.3801 -43.3965,40.5989 -72.6494,47.967 -23.157,5.8329 -25.9528,8.1648 -26.4377,22.0523 -0.6947,19.8905 -15.8055,43.5323 -33.3036,52.1047 -21.5788,10.5718 -80.5625,5.864 -110.1373,-8.7906 -23.3888,-11.5895 -26.9901,-12.014 -47.4381,-5.5929 -12.1942,3.8295 -51.4441,7.0629 -87.4315,7.2026 -65.1552,0.2532 -65.3469,0.2927 -84.4105,17.4322 l -19.1069,17.1784 20.006,18.6989 20.0062,18.699 64.8881,-1.2431 c 49.1538,-0.942 70.8557,0.8368 89.4991,7.3342 22.5222,7.8492 25.7349,7.7848 37.8525,-0.7587 18.8458,-13.2871 61.3184,-20.745 88.9236,-15.6145 31.7941,5.9091 49.1264,21.859 56.8693,52.3333 6.5626,25.829 9.256,27.9841 47.2234,37.7844 8.2785,2.1369 25.6779,15.2802 38.6653,29.2075 26.8535,28.7969 46.2399,34.8182 123.3872,38.3226 24.4391,1.1101 52.02,5.427 61.2909,9.5929 l 16.8559,7.5745 -60.252,21.2166 c -52.2603,18.4024 -60.1405,22.7616 -59.4104,32.8644 0.463,6.4064 0.8661,19.8379 0.8959,29.8478 0.04,13.4749 5.4145,23.9479 20.7021,40.3418 24.489,26.2615 18.7358,28.5495 93.3358,-37.1179 28.4893,-25.0781 52.948,-44.3641 54.3526,-42.8578 1.4047,1.5064 -2.0954,22.7165 -7.7779,47.1337 -5.6824,24.4172 -14.3386,62.0641 -19.2359,83.6598 l -8.9043,39.2651 24.1835,18.8728 24.1836,18.8728 15.6504,-12.2621 c 8.6075,-6.7441 24.0473,-13.5358 34.3104,-15.0926 23.5032,-3.5651 26.5445,-7.2072 40.9135,-48.9961 13.0629,-37.99 13.0516,-37.9944 25.2554,9.7782 4.7881,18.7425 10.8929,34.1537 13.5665,34.247 2.6737,0.093 3.5277,2.1682 1.8975,4.6107 -1.63,2.4424 3.8539,9.8592 12.1864,16.4816 10.3183,8.2007 17.5418,21.4868 22.6496,41.6589 9.6597,38.1473 9.1661,45.9863 -5.6137,89.1655 -8.9993,26.2912 -18.9722,42.6875 -37.2636,61.2655 -13.7366,13.9517 -25.0435,27.3048 -25.1262,29.6735 -0.083,2.3688 -17.6146,8.9523 -38.9598,14.6302 -31.0192,8.2511 -42.3757,9.0909 -56.5772,4.1837 -16.9407,-5.8536 -58.5153,-2.0324 -99.9197,9.1895 -11.4014,3.0895 -8.8631,-1.2566 15.8052,-27.0615 30.4214,-31.8227 33.7057,-38.4347 24.1702,-48.6601 -3.0981,-3.3223 -5.0317,-21.1775 -4.297,-39.6786 0.7351,-18.5008 0,-32.3964 -1.6232,-30.8788 -1.6274,1.5176 -12.8295,-2.0803 -24.8935,-7.9954 l -21.9347,-10.7544 -25.2709,21.1392 c -13.899,11.6266 -46.4111,40.1181 -72.2491,63.3146 -34.5383,31.0075 -45.9852,38.8037 -43.2282,29.4418 8.5033,-28.8735 33.1719,-155.8277 30.7778,-158.3951 -1.4236,-1.5265 -13.7642,-6.187 -27.4238,-10.3561 -21.7798,-6.6479 -27.5893,-6.4527 -47.2192,1.5868 -12.3111,5.0422 -24.8331,11.9176 -27.8267,15.2788 -3.5468,3.9821 -3.1553,24.5686 1.1235,59.0915 3.6118,29.1392 5.4583,54.014 4.1037,55.2773 -5.7567,5.3683 -18.4429,-6.3348 -35.2176,-32.4881 -57.9532,-90.3547 -61.3936,-93.9587 -100.2447,-105.009 -27.9186,-7.9409 -40.3895,-14.9406 -55.5134,-31.159 -14.7036,-15.7677 -22.2292,-20.0993 -30.5669,-17.594 -6.0835,1.828 -22.5185,4.0534 -36.5223,4.945 -24.1741,1.5395 -26.51,0.4387 -46.1981,-21.7598 -21.5903,-24.3438 -36.2599,-61.6698 -35.2788,-89.7658 0.4181,-11.9727 -5.3118,-22.8044 -21.3138,-40.2903 -12.0373,-13.1533 -33.3655,-46.506 -47.3961,-74.1171 -24.0682,-47.3638 -27.0054,-50.8234 -51.9562,-61.1934 -14.5451,-6.0453 -28.0564,-9.2604 -30.0252,-7.1448 -1.9688,2.1156 -7.0951,15.3073 -11.392,29.3148 -7.6638,24.9831 -7.4719,26.0702 10.0734,57.0908 26.6785,47.168 43.0976,84.9522 49.1508,113.1077 3.2635,15.1792 8.4614,25.2746 13.097,25.4364 13.9304,0.4864 58.66,50.837 67.1258,75.5612 11.0993,32.4144 5.0255,56.8081 -19.0474,76.5001 -10.3915,8.5003 -17.3875,17.0704 -15.5463,19.0447 1.841,1.9743 5.7686,14.7442 8.7279,28.3775 5.3774,24.7737 -0.1741,62.1078 -11.0514,74.3204 -5.9756,6.7091 5.2129,44.8196 29.6935,101.1444 9.8375,22.6338 19.3822,46.676 21.2103,53.4269 4.877,18.01 -8.4506,15.2834 -26.8444,-5.4919 -8.3978,-9.4852 -24.1418,-24.8447 -34.9863,-34.1323 l -19.7173,-16.8862 -23.5653,12.7268 c -22.3541,12.0727 -28.1091,19.0568 -42.2281,51.247 -4.3809,9.988 -4.3301,13.848 0.1853,14.1114 5.8808,0.3432 63.136,23.6313 124.69,50.7171 15.367,6.7621 27.8882,13.782 27.8247,15.6 -0.063,1.818 -16.8613,5.5786 -37.3284,8.3569 -20.4671,2.7785 -61.9273,11.9203 -92.1338,20.3156 l -54.921,15.2638 -2.9112,32.12 -2.9113,32.1201 22.6799,11.6337 c 12.4739,6.3984 27.172,17.7738 32.6622,25.2785 9.6593,13.2032 11.0008,13.4792 41.4605,8.5308 17.313,-2.8126 40.9071,-7.2179 52.4314,-9.7895 11.5244,-2.5718 21.7229,-3.8507 22.6635,-2.8419 0.9405,1.0085 -15.6479,20.5149 -36.8631,43.3473 -27.1601,29.2305 -39.7629,47.315 -42.5942,61.1207 -2.8882,14.0831 -12.201,27.1401 -33.0552,46.3446 -24.1919,22.2784 -33.9039,27.4861 -58.2333,31.2256 -31.8998,4.9033 -66.6289,3.8581 -101.2125,-3.0459 l 0,-10e-5 z m 98.0943,-62.5228 c 23.8361,-7.0317 37.8196,-23.1979 38.7245,-44.7689 1.0329,-24.6263 -2.9721,-32.7151 -22.7272,-45.8986 -25.7219,-17.1658 -79.6963,-19.1068 -111.3863,-4.0054 -29.2271,13.9275 -31.97,17.695 -33.041,45.385 -0.904,23.3653 12.2062,42.3177 33.3575,48.223 20.8923,5.833 76.7868,6.4591 95.0724,1.065 l 10e-5,-10e-5 z m 16.3252,-432.667 c 9.7132,-8.0036 24.3363,-17.8251 32.496,-21.8258 9.2761,-4.5479 21.2888,-19.7068 32.0555,-40.4509 14.8603,-28.6309 16.7321,-36.4498 13.6594,-57.059 -3.8665,-25.9342 -20.3097,-46.1897 -55.3735,-68.2117 -17.2016,-10.8036 -28.554,-13.0814 -74.2676,-14.9014 -61.674,-2.4553 -79.2087,4.0997 -114.8847,42.9484 -16.0624,17.4907 -19.9114,25.9248 -20.581,45.0979 -1.3279,38.0285 19.638,74.6633 57.5923,100.6337 25.1504,17.2094 51.9155,45.37 64.5564,67.9223 l 8.1338,14.5114 19.4765,-27.0565 c 10.7121,-14.8811 27.4237,-33.6049 37.1369,-41.6084 l 0,0 z m -946.79107,-98.3231 c 13.57902,-16.5702 14.23324,-19.5632 9.63291,-44.0703 -10.01003,-53.3256 -44.59418,-89.1592 -80.75645,-83.6739 -24.14059,3.6617 -35.7675,19.6863 -36.85376,50.7927 -1.43483,41.088 6.66519,57.8387 37.10952,76.7416 36.40586,22.6045 52.47668,22.6521 70.86778,0.2099 z m 1843.65707,26.5895 c 39.5484,-27.0987 56.8114,-56.5476 58.3798,-99.5896 0.3978,-10.9378 -1.2956,-25.8151 -3.7645,-33.0607 -5.2951,-15.5392 -31.8871,-29.1467 -49.561,-25.3612 -32.4543,6.9512 -82.4278,78.1918 -83.8725,119.5662 -1.533,43.8958 40.758,64.5242 78.8182,38.4453 z M 1229.3391,1731.7314 c 4.9339,0.1723 9.0555,-2.1155 9.1592,-5.0839 0.1036,-2.9684 -2.3385,-5.4855 -5.4272,-5.5933 -10.0271,-0.3501 -37.1513,-25.0141 -47.556,-43.2426 l -10.148,-17.7788 -19.2521,18.4873 c -26.484,25.4318 -26.8077,44.8192 -1.0632,63.6591 l 19.2739,14.1047 23.0213,-12.4328 c 12.6616,-6.8381 27.0581,-12.292 31.9921,-12.1197 z m 241.7201,2.569 c 14.0123,-13.0667 11.613,-33.3038 -5.7973,-48.9009 -17.1895,-15.3992 -27.1011,-13.4068 -42.3397,8.5112 -7.5649,10.8811 -22.4033,23.7332 -32.974,28.5607 l -19.2195,8.7769 18.8708,1.206 c 10.379,0.6634 24.8749,3.3627 32.2128,5.9984 23.0395,8.2755 37.1999,7.0816 49.2469,-4.1523 l 0,0 z m -105.8423,-38.497 c 16.8073,-3.6 37.7709,-36.9527 38.5835,-61.386 2.4343,-73.1911 -55.0012,-120.8012 -122.5318,-101.5701 -21.6367,6.1617 -31.4946,12.8842 -44.8567,30.5899 -14.5561,19.2879 -17.3092,27.7047 -18.3484,56.0982 -1.4431,39.4306 14.8682,72.4184 37.7223,76.2891 19.6608,3.3297 93.8531,3.3154 109.4311,-0.021 l 0,0 z m -527.77313,-34.4981 c 9.54076,-4.1258 24.2156,-13.4385 32.61071,-20.6948 14.34667,-12.4005 15.36077,-15.9697 16.87754,-59.4043 1.40741,-40.3027 -0.14865,-49.6195 -12.1705,-72.87 -25.84772,-49.9901 -98.17994,-73.4549 -138.44277,-44.9111 -25.14453,17.8257 -45.14045,52.0738 -49.9732,85.5915 -4.504,31.238 -15.22605,53.1372 -40.91367,83.5642 -17.2724,20.459 -17.29939,20.5775 -3.91208,17.1728 34.55071,-8.787 73.31727,-6.9689 105.05171,4.9267 38.76434,14.5308 67.71076,16.6411 90.87226,6.625 l 0,0 z m 1010.71573,15.4255 c 45.042,-20.7535 74.0708,-20.9027 159.4382,-0.8193 l 18.7588,4.4131 -29.3572,-34.0985 c -34.0406,-39.5382 -53.9245,-80.8839 -57.465,-119.4895 -2.7095,-29.5455 -20.6964,-62.9677 -43.8098,-81.4052 -34.8792,-27.823 -106.4642,-7.228 -139.9873,40.2747 -10.0626,14.2586 -23.474,36.9286 -29.8034,50.3777 -20.68,43.9425 -14.6638,101.0366 13.3274,126.477 24.4781,22.2476 76.7252,29.094 108.8983,14.27 l 0,0 z M 995.69179,1618.322 c 6.24381,-4.3945 11.71171,-16.5251 13.80021,-30.615 l 3.4589,-23.3365 -21.94463,1.322 c -13.22798,0.797 -28.71871,-2.358 -38.99864,-7.9425 -19.30947,-10.4899 -25.73115,-8.5508 -15.50683,4.6827 3.80113,4.9198 7.91148,18.9974 9.13409,31.2834 1.78745,17.9622 4.8406,23.1648 15.58492,26.5566 19.73395,6.2297 23.12164,6.0379 34.47198,-1.9507 l 0,0 z m 658.25621,10.4939 c 5.6964,-4.611 9.9969,-15.4746 10.3714,-26.1991 0.3519,-10.0767 4.72,-25.5791 9.7071,-34.4499 4.987,-8.8705 7.7224,-17.5702 6.0788,-19.3329 -1.6437,-1.7625 -3.0777,-0.6505 -3.1867,2.4713 -0.3627,10.3894 -29.2378,23.4667 -57.165,25.8901 -24.6659,2.1402 -27.8049,3.8758 -29.7072,16.4243 -1.3739,9.0639 2.7071,20.2015 11.5279,31.4595 11.1141,14.1851 16.3518,16.8871 28.1485,14.5211 7.9715,-1.5989 18.8729,-6.4519 24.2252,-10.7844 z m -617.9136,-122.9355 c 21.7109,-19.0362 33.3551,-43.0822 34.3261,-70.8857 0.9084,-26.0124 -2.9837,-38.5458 -12.0687,-38.8631 -3.7715,-0.1317 -9.7535,-3.9881 -13.2935,-8.5698 -10.4237,-13.4917 -67.75352,-13.1028 -97.18628,0.659 -19.19518,8.9751 -26.05479,16.0057 -33.18843,34.0158 -9.82713,24.8104 -10.41748,22.7106 22.40296,79.6866 l 12.26582,21.2932 34.61787,-0.9931 c 29.26216,-0.8396 37.32636,-3.3679 52.12416,-16.3429 z m 624.1648,27.1057 c 19.857,-12.8994 53.6513,-65.9231 58.7435,-92.1692 3.4328,-17.6924 2.5383,-28.5643 -3.3438,-40.6446 -4.4166,-9.0704 -7.5359,-18.1112 -6.9318,-20.091 0.6042,-1.9795 -9.8496,-9.3792 -23.2303,-16.4434 -72.5412,-38.2971 -147.8428,4.2854 -150.813,85.2838 -0.3467,9.4716 1.7448,18.807 4.6491,20.7452 2.9044,1.9382 5.159,7.0053 5.0105,11.2602 -0.3636,10.41 19.4023,34.6804 38.8616,47.7179 19.5117,13.0728 60.0934,15.3591 77.0542,4.3411 l 0,0 z M 891.59937,1386.0068 c 8.88776,-12.5833 8.87937,-13.8272 -0.1402,-20.9186 -14.9501,-11.754 -49.15489,-10.9746 -56.27567,1.2822 -10.33057,17.7818 -7.2214,28.105 15.56702,51.6866 l 22.16484,22.9365 4.61716,-20.8039 c 2.5395,-11.4421 8.86954,-26.8244 14.06685,-34.1828 z m 899.88033,7.5028 c 19.2193,-11.4859 24.6636,-27.5779 14.8212,-43.808 -11.6147,-19.1524 -32.2951,-23.0412 -54.6559,-10.278 l -18.7281,10.69 9.9327,20.1949 c 5.463,11.107 9.7113,28.7339 9.4409,39.1707 l -0.4919,18.9758 12.4794,-13.0736 c 6.8639,-7.1903 19.1046,-17.0327 27.2017,-21.8718 l 0,0 z M 894.37062,1177.3217 c 1.52162,-1.4189 -1.26238,-11.8965 -6.18664,-23.2835 -4.92421,-11.387 -8.81088,-31.0626 -8.63705,-43.7232 0.1741,-12.6608 -0.44779,-23.0469 -1.38155,-23.0803 -0.93375,-0.034 -7.80694,6.7055 -15.27375,14.9756 -7.46687,8.2699 -21.27416,17.9143 -30.68285,21.4321 -15.725,5.8793 -16.90786,7.9665 -14.64443,25.8394 3.41226,26.9446 15.20394,34.9961 47.56735,32.4788 14.55983,-1.1325 27.71735,-3.2202 29.23892,-4.6389 l 0,0 z m 153.90048,-7.409 c 38.6941,-20.7664 55.6832,-75.4868 36.315,-116.9675 -12.2183,-26.1677 -38.1971,-51.3416 -54.8315,-53.13238 -43.60725,-4.69494 -54.80267,-3.32692 -67.1723,8.20738 -7.0521,6.5759 -12.89618,14.0811 -12.98687,16.6783 -0.0907,2.5971 -9.40169,21.4326 -20.69111,41.8566 l -20.52621,37.1345 9.86418,21.0134 c 12.81648,27.3025 29.8698,43.8261 53.08337,51.4338 22.5854,7.4022 56.69714,4.6426 76.94544,-6.2241 l 0,0 z m 751.7878,19.1697 c 2.9036,-2.5285 5.8516,-17.3117 6.5509,-32.8514 1.0855,-24.1239 -0.2961,-28.5957 -9.4542,-30.5909 -5.8992,-1.285 -17.1851,-8.8599 -25.0797,-16.8326 l -14.3541,-14.4961 -0.9399,26.916 c -0.517,14.8037 -3.1762,29.1479 -5.9095,31.876 -2.7333,2.7279 -6.7884,10.3023 -9.0114,16.8319 -3.3499,9.8396 -1.0312,13.3044 13.5461,20.24 17.3731,8.266 34.3824,7.8496 44.6518,-1.0929 z m -126.3608,-16.2835 c 21.7259,-6.66 49.8265,-40.6798 50.8301,-61.5368 0.3604,-7.4853 -6.815,-26.0159 -15.9447,-41.1788 -9.1297,-15.1631 -19.8735,-34.9363 -23.8752,-43.9404 -13.9213,-31.32307 -31.3602,-46.93243 -53.2887,-47.69819 -11.1251,-0.3885 -26.2582,1.34865 -33.6293,3.86033 -20.9815,7.1496 -47.3174,36.74726 -57.8516,65.01656 -8.8781,23.8257 -9.0067,28.005 -1.677,54.5059 7.6329,27.5975 27.932,54.4791 51.9807,68.8371 13.8705,8.2813 59.5896,9.4505 83.4559,2.1343 l -2e-4,0 z m -872.40783,-80.6306 c 52.05266,-13.5002 63.56878,-23.2751 92.29845,-78.3433 22.21634,-42.58355 25.18744,-65.2804 14.12755,-107.92389 -9.77948,-37.70637 -30.81793,-51.99036 -82.19215,-55.8042 -20.48755,-1.52092 -37.31547,-0.89295 -37.39536,1.39493 -0.26977,7.72503 -65.02436,30.66484 -94.72539,33.55718 l -29.48043,2.87093 12.03059,28.91677 c 12.91578,31.04439 23.07081,85.28928 17.52303,93.60228 -6.86699,10.2898 31.50026,64.3656 55.92785,78.8261 20.51286,12.143 17.0145,11.9473 51.88586,2.9032 l 0,0 z m 1081.96473,7.1978 c 38.3791,-19.7258 56.5357,-47.9708 63.4096,-98.6411 5.4609,-40.25572 25.7407,-83.67508 54.1896,-116.02136 11.0945,-12.61429 18.9671,-24.22695 17.4947,-25.8059 -1.4724,-1.57899 -16.8096,-0.7653 -34.0824,1.80781 -46.5485,6.93473 -82.5366,3.88976 -115.3754,-9.76191 -39.5158,-16.42726 -63.0913,-19.87038 -91.2663,-13.32905 -33.1428,7.69467 -52.5552,27.51268 -59.0239,60.25709 -2.9004,14.68187 -4.906,33.94006 -4.4571,42.79594 1.7867,35.23172 54.3473,126.09618 81.8293,141.46308 12.7182,7.1114 54.0106,20.8483 68.1787,22.681 3.7386,0.4835 12.3349,-1.9669 19.1032,-5.4456 l 0,0 z M 1384.4982,965.80572 c 16.7802,-16.77524 21.7321,-26.45935 25.4453,-49.7603 5.0412,-31.63472 1.0964,-47.94936 -17.3468,-71.74126 -13.181,-17.0037 -20.8144,-18.39997 -82.2331,-15.0421 -68.0188,3.71872 -71.3956,4.68592 -83.7034,23.97471 -21.2789,33.34805 -17.5629,71.76919 10.5169,108.73882 13.6167,17.92757 23.273,23.74954 56.5538,34.09796 28.798,8.95445 62.9131,-2.42187 90.7673,-30.26783 l 0,0 z m -385.10404,-9.23028 25.60274,-2.07256 -0.515,-21.60123 c -0.826,-34.64046 -27.68143,-50.62482 -61.51511,-36.6136 -11.90306,4.92932 -13.44698,8.71636 -13.5755,33.29915 -0.0799,15.25552 -2.41018,33.38294 -5.17871,40.28305 l -5.03381,12.54574 17.30642,-11.884 c 9.6472,-6.62462 28.63713,-12.80123 42.90897,-13.95655 z m 679.74484,-6.73173 c -4.1867,-8.76152 -7.3616,-23.54714 -7.0547,-32.85693 0.4594,-13.93083 -2.6375,-18.58209 -17.4944,-26.27855 -34.8273,-18.0418 -48.4841,-11.10563 -53.6475,27.24699 l -2.5322,18.80892 28.0129,3.809 c 16.5055,2.24431 34.0383,8.70274 42.6807,15.7219 8.0672,6.55207 15.3384,11.36515 16.1579,10.69577 0.8194,-0.66937 -1.9357,-8.38558 -6.1227,-17.1471 l 0,0 z m -496.5316,-95.41199 c 6.9296,-15.20551 28.8939,-36.42994 47.4218,-45.82402 9.3093,-4.72019 7.0978,-5.74011 -14.3745,-6.62897 -13.9573,-0.57765 -31.574,-4.13969 -39.1484,-7.91541 -12.1667,-6.0649 -15.4514,-5.29842 -28.1858,6.57644 -21.1607,19.73281 -22.412,40.05264 -3.1953,51.89129 8.4829,5.22593 15.3893,10.91903 15.3477,12.65124 -0.2325,9.65946 16.5472,1.50966 22.1345,-10.75057 l 0,0 z m 285.6558,-12.92346 c 21.0858,-20.93047 19.8558,-48.26884 -2.7435,-60.97397 -15.6578,-8.80262 -17.0583,-8.70055 -29.4423,2.14526 -7.1513,6.26314 -21.114,12.81238 -31.0283,14.55389 l -18.0256,3.16631 16.8005,9.60837 c 9.2404,5.28456 21.759,17.11321 27.8196,26.28582 13.2048,19.98567 20.6679,21.04836 36.6196,5.21432 l 0,0 z M 389.04801,797.74782 c 51.45972,-24.63736 80.72421,-101.10319 50.92385,-133.06017 -30.23474,-32.42277 -74.71164,-13.54059 -104.24556,44.25625 -20.8601,40.82257 -16.78374,72.55087 11.30847,88.01913 16.94299,9.32925 23.89529,9.45909 42.01324,0.78479 l 0,0 z m 1910.51309,8.61672 c 13.9711,-17.38118 20.4587,-30.46155 20.864,-42.06604 0.709,-20.30575 -28.7281,-79.80039 -51.9317,-104.95766 -16.0318,-17.38173 -23.5933,-21.52186 -40.378,-22.108 -31.4081,-1.0968 -49.6699,14.79179 -50.6937,44.10551 -1.0221,29.27167 12.7642,65.60443 35.3873,93.26086 25.9712,31.74908 43.3211,41.48333 66.2194,37.15267 10.5089,-1.98752 19.7486,-4.41179 20.5327,-5.38734 l 0,0 z m -972.8522,-32.76101 c 18.9093,-2.33945 43.0241,-8.06302 53.5889,-12.71901 27.1826,-11.97963 61.2657,-52.25408 61.9992,-73.26161 1.2446,-35.63771 -22.8455,-82.86677 -50.1379,-98.2965 -35.4136,-20.02106 -78.579,-88.24047 -90.2184,-142.58274 -4.4753,-20.89485 -11.5841,-18.77484 -16.4836,4.91587 -14.0745,68.05467 -45.3744,127.03277 -78.2928,147.52656 -8.4813,5.28016 -18.478,15.65397 -22.2149,23.05291 -9.8733,19.54948 -22.5259,57.89141 -19.9984,60.60193 1.1931,1.27943 2.9054,10.39618 3.8053,20.25945 1.8416,20.18602 17.4785,36.24257 55.6779,57.17251 28.8625,15.81408 54.837,19.19958 102.2747,13.33063 z m 20.9781,-548.91535 c 23.258,-11.46347 30.4932,-21.61892 31.1258,-43.68905 1.0628,-37.07404 -29.2089,-57.35665 -87.1503,-58.39202 -36.1924,-0.64676 -64.8973,9.07918 -88.7118,30.05773 -21.0918,18.58018 -16.6125,56.77614 8.4232,71.82448 27.9206,16.7824 102.4463,16.89113 136.3131,0.19886 z"
       style="fill:none;stroke:#0000ff;stroke-width:2.5;stroke-linecap:square;stroke-linejoin:bevel;stroke-miterlimit:4;stroke-opacity:1;stroke-dasharray:none" />
    <path
       sodipodi:nodetypes="aaaaa"
       inkscape:connector-curvature="0"
       id="path4279"
       d="m 1318.8911,1195.8066 c 30.7369,-0.9596 65.2345,34.4829 65.2345,65.2348 0,31.7439 -35.595,67.339 -67.339,67.339 -28.7678,0 -60.1282,-32.2719 -61.0259,-61.0259 -0.9925,-31.7904 31.3401,-70.5555 63.1304,-71.5479 z"
       style="fill:none;stroke:#0000ff;stroke-width:2.5;stroke-linecap:butt;stroke-linejoin:miter;stroke-miterlimit:4;stroke-opacity:1;stroke-dasharray:none" />
  </g>
</svg>
