<?xml version="1.0" encoding="UTF-8" standalone="no"?>
<!-- Created with Inkscape (http://www.inkscape.org/) -->

<svg
   xmlns:dc="http://purl.org/dc/elements/1.1/"
   xmlns:cc="http://creativecommons.org/ns#"
   xmlns:rdf="http://www.w3.org/1999/02/22-rdf-syntax-ns#"
   xmlns:svg="http://www.w3.org/2000/svg"
   xmlns="http://www.w3.org/2000/svg"
   xmlns:sodipodi="http://sodipodi.sourceforge.net/DTD/sodipodi-0.dtd"
   xmlns:inkscape="http://www.inkscape.org/namespaces/inkscape"
   id="svg2"
   version="1.1"
   inkscape:version="0.48.5 r10040"
   width="540.03241"
   height="623.4292"
   sodipodi:docname="fleur.png">
  <metadata
     id="metadata8">
    <rdf:RDF>
      <cc:Work
         rdf:about="">
        <dc:format>image/svg+xml</dc:format>
        <dc:type
           rdf:resource="http://purl.org/dc/dcmitype/StillImage" />
        <dc:title></dc:title>
      </cc:Work>
    </rdf:RDF>
  </metadata>
  <defs
     id="defs6" />
  <sodipodi:namedview
     pagecolor="#ffffff"
     bordercolor="#666666"
     borderopacity="1"
     objecttolerance="10"
     gridtolerance="10"
     guidetolerance="10"
     inkscape:pageopacity="0"
     inkscape:pageshadow="2"
     inkscape:window-width="1920"
     inkscape:window-height="1178"
     id="namedview4"
     showgrid="false"
     fit-margin-top="0"
     fit-margin-left="0"
     fit-margin-right="0"
     fit-margin-bottom="0"
     inkscape:zoom="0.32880529"
     inkscape:cx="1248.2"
     inkscape:cy="-832.74491"
     inkscape:window-x="-8"
     inkscape:window-y="-8"
     inkscape:window-maximized="1"
     inkscape:current-layer="svg2" />
  <path
     style="fill:none;stroke:#0000ff;stroke-width:1.57682991;stroke-linecap:butt;stroke-linejoin:miter;stroke-miterlimit:4;stroke-opacity:1;stroke-dasharray:none"
     d="m 267.65932,619.85931 c -5.0398,-4.2786 -11.8845,-11.7425 -16.0291,-17.4791 -5.2055,-7.2048 -8.547,-15.2955 -9.9691,-24.1376 l -1.1612,-7.2193 -4.1686,0.2197 c -8.2104,0.4326 -19.8085,-3.0366 -23.8753,-7.1416 -1.0857,-1.096 -2.6592,-2.3912 -3.4967,-2.8782 -4.4236,-2.5729 -7.9301,-16.236 -4.6307,-18.0437 0.3643,-0.1995 1.7716,0.4362 3.1275,1.4129 5.2534,3.7843 13.4787,6.4499 18.5946,6.0261 6.2663,-0.5191 8.8384,-2.8263 14.2144,-12.7505 1.1041,-2.038 2.2828,-4.2001 2.6194,-4.8047 1.0785,-1.9368 3.3226,-11.3647 3.941,-16.5569 0.5813,-4.8799 0.5402,-5.0939 -1.3663,-7.1223 -1.0812,-1.1502 -1.9473,-2.4436 -1.9247,-2.8741 0.052,-0.9972 -10.5308,-1.3073 -13.3787,-0.3921 -2.1934,0.705 -9.3174,5.4459 -11.5553,7.69 l -1.4156,1.4195 -2.5089,-2.7532 c -4.8072,-5.2753 -11.4705,-12.9429 -13.8876,-15.9808 l -2.4338,-3.0589 2.2265,-2.4947 c 1.2246,-1.3721 4.6832,-4.6774 7.6859,-7.3452 l 5.4594,-4.8506 5.0596,1.4749 c 6.821,1.9884 16.9855,2.5979 19.4425,1.1659 1.0058,-0.5862 1.8508,-1.4869 1.8777,-2.0016 0.027,-0.5147 0.5016,-1.2731 1.0546,-1.6852 0.5531,-0.4121 1.2553,-1.8944 1.5604,-3.294 2.0326,-9.3243 2.1871,-13.0199 0.7023,-16.7959 -1.5308,-3.8929 -5.5897,-8.8668 -7.4046,-9.074 -0.7199,-0.082 -2.0339,-0.5878 -2.9201,-1.1235 -1.186,-0.717 -1.8649,-0.7852 -2.572,-0.2583 -0.5284,0.3937 -2.193,0.7208 -3.6992,0.727 -1.5061,0.01 -3.2263,0.396 -3.8225,0.8664 -4.6081,3.6353 -5.9001,4.2893 -6.5008,3.2906 -0.3346,-0.5565 -0.4106,-2.6028 -0.1688,-4.5474 0.5816,-4.6772 3.8013,-9.1208 9.9977,-13.7977 5.1915,-3.9186 7.6397,-4.6033 14.2987,-3.9994 l 3.7927,0.344 3.4846,-3.6957 c 1.9166,-2.0327 3.4977,-3.9436 3.5136,-4.2465 0.016,-0.3029 -3.0208,-4.1025 -6.7482,-8.4436 l -6.7771,-7.893 -3.8102,1.6917 c -2.0957,0.9305 -5.7299,2.6265 -8.0762,3.7689 -12.2915,5.9848 -16.803,8.0621 -16.9963,7.8257 -0.1936,-0.2366 -1.5749,-9.3571 -3.6065,-23.8119 -0.4174,-2.9691 -0.5544,-5.8577 -0.3046,-6.419 0.6283,-1.4115 0.5864,-1.4218 -17.9458,-4.4077 l -3.508,-0.5652 -0.6746,4.2752 c -0.371,2.3514 -0.9824,4.5524 -1.3585,4.891 -0.4271,0.3846 0.1223,1.7256 1.463,3.5712 3.5117,4.8344 4.3991,7.4726 4.0574,12.0626 -0.8767,11.7779 -3.4892,17.013 -10.383,20.8062 -1.0652,0.5861 -2.1032,1.0569 -2.3065,1.0463 -0.2034,-0.011 -0.2568,-2.1754 -0.1187,-4.8105 0.3376,-6.443 -1.869,-12.6052 -5.3598,-14.9676 -3.3992,-2.3004 -7.8298,-3.1686 -12.3283,-2.4159 -3.0812,0.5156 -4.5327,1.3119 -8.2843,4.5443 -9.9246,8.5512 -10.6885,11.4959 -5.0803,19.5826 2.0163,2.9074 4.4086,5.9486 5.3162,6.7583 0.9077,0.8097 2.543,2.3924 3.6341,3.5172 l 1.9839,2.045 -1.9919,9.9654 c -1.0956,5.481 -2.1818,10.1364 -2.4139,10.3454 -0.2321,0.209 -5.282,-0.5886 -11.222,-1.7726 -5.9401,-1.1838 -12.5982,-2.4028 -14.7958,-2.7086 -3.021,-0.4206 -3.8945,-0.7838 -3.5806,-1.4889 1.0401,-2.337 1.2913,-14.7452 0.3665,-18.1086 -1.1838,-4.3055 -4.7355,-8.0777 -8.825,-9.3731 -2.941,-0.9316 -3.0409,-0.9056 -7.084,1.8476 -3.8769,2.64 -6.921504,5.4117 -10.806104,9.8375 -0.9378,1.0685 -3.0891,4.5204 -4.780601,7.6708 -1.6915,3.1504 -3.393,6.2527 -3.781,6.8941 -1.2847,2.123 -1.0346,6.7156 0.5798,10.6486 0.8693,2.1178 1.8172,3.863 2.1062,3.8781 0.2891,0.015 1.3841,0.9992 2.4333,2.1868 1.049201,1.1876 2.161101,2.1812 2.470901,2.208 0.3099,0.027 1.5153,0.8216 2.6789,1.7661 1.1635,0.9445 3.407,2.3566 4.985604,3.1379 1.5786,0.7813 2.8585,1.6423 2.8443,1.9134 -0.073,1.4026 -3.3499,3.9606 -6.655704,5.1963 -6.856201,2.5628 -14.396101,0.9962 -22.048701,-4.5812 -4.9132,-3.5808 -11.0889,-10.6674 -12.9181,-14.8235 -0.7138,-1.6219 -1.3702,-3.0423 -1.4586,-3.1564 -0.088,-0.1141 -2.383,0.7657 -5.0992,1.9552 -12.3512,5.4091 -29.2174,5.7881 -50.061,1.1249 l -4.36540004,-0.9766 0.55060004,-3.176 c 0.8846,-5.1039 5.9131,-17.2959 10.4799,-25.4094 4.7074,-8.3636 9.9331,-14.5867 15.881,-18.9124 2.1789,-1.5846 4.0792,-3.1406 4.2229,-3.4578 0.1437,-0.3171 -0.6534,-1.8648 -1.7715,-3.4392 -2.1989,-3.0965 -6.2461,-13.2378 -6.1343,-15.371 0.038,-0.7219 -0.2848,-1.7052 -0.7169,-2.1851 -0.5011,-0.5565 -0.519,-0.8586 -0.049,-0.834 0.4823,0.025 0.6123,-0.9213 0.3767,-2.7441 -0.3385,-2.6197 0.2565,-6.0226 2.0601,-11.7822 1.1042,-3.526 7.8185,-9.5485 11.1412,-9.9934 1.3913,-0.1862 2.8172,-0.1394 3.1687,0.1042 0.3525,0.2442 0.3908,2.2649 0.085,4.5066 -0.8622,6.3267 0.5878,14.0312 3.4465,18.3122 3.3523,5.02 4.8595,5.6855 13.9569,6.1623 8.9537,0.4692 14.9081,-0.5945 24.0075,-4.2889 4.4648,-1.8127 5.8574,-2.6975 5.9129,-3.7571 0.04,-0.7622 0.3599,-1.5433 0.7111,-1.7357 0.6845,-0.375 0.1381,-4.9397 -0.9884,-8.2558 -1.239,-3.6472 -6.4245,-7.9509 -12.5811,-10.4415 -3.1329,-1.2674 -5.9408,-2.5448 -6.2398,-2.8387 -0.2991,-0.294 1.1719,-5.394 3.2689,-11.3334 2.097,-5.9394 4.304,-12.2864 4.9046,-14.1044 0.6005,-1.818 1.2332,-3.4327 1.4058,-3.5882 0.298,-0.2683 15.131901,4.7445 18.966001,6.4091 1.875,0.8141 2.4973,2.2037 3.551104,7.9306 0.8746,4.7526 3.8306,11.2868 6.3369,14.0076 2.0143,2.1866 2.3165,2.2894 6.2832,2.1383 3.0196,-0.115 5.8436,-0.8968 10.2563,-2.8395 3.3491,-1.4745 6.1093,-3.0636 6.1338,-3.5313 0.024,-0.4677 0.7241,-1.2751 1.5546,-1.7943 1.9619,-1.2263 3.6468,-6.2947 3.4094,-10.2557 -0.2558,-4.2661 -4.3535,-10.1602 -8.9333,-12.8494 -1.8751,-1.101 -3.885,-2.0268 -4.4665,-2.0573 -1.6072,-0.084 0.1922,-1.7779 3.9629,-3.7301 4.4466,-2.3022 10.2725,-1.9933 15.675,0.8308 2.1864,1.143 4.1305,1.9383 4.3202,1.7674 0.6534,-0.5883 4.0123,1.8387 5.9603,4.3068 1.0735,1.3601 2.4735,3.7302 3.1112,5.2668 1.018,2.4533 1.6334,2.961 5.0479,4.1649 5.8155,2.0503 6.3418,1.9528 7.4797,-1.3854 0.5423,-1.5911 1.2911,-3.5005 1.6639,-4.2431 0.6822,-1.3587 4.0514,-10.7883 4.0852,-11.4335 0.01,-0.1904 -1.5531,-1.5972 -3.4736,-3.1262 -1.9204,-1.529 -3.5816,-3.0483 -3.6914,-3.3763 -0.1098,-0.3279 -0.6292,-0.6187 -1.1542,-0.6462 -0.525,-0.027 -1.2375,-0.6526 -1.5833,-1.389 -0.3459,-0.7364 -1.3825,-1.5707 -2.3038,-1.8539 -0.9212,-0.2832 -2.0948,-0.9812 -2.608,-1.5512 -0.5132,-0.57 -1.8102,-1.6508 -2.8821,-2.4018 -2.8219,-1.977 -8.1746,-6.4827 -8.1835,-6.8885 0,-0.1907 1.4191,-1.1469 3.1629,-2.1248 1.7437,-0.9778 6.995,-4.5148 11.6694,-7.8599 4.6744,-3.3451 9.3311,-6.4146 10.3482,-6.821 l 1.8492,-0.7389 -1.7169,-5.6788 c -0.9444,-3.1233 -2.4168,-7.3499 -3.272,-9.3924 -0.9755,-2.3296 -1.358,-4.2376 -1.0263,-5.1196 0.4911,-1.3059 0.3382,-1.3805 -2.1484,-1.0484 -1.4724,0.1966 -3.6996,0.7227 -4.9492,1.169 -1.2496,0.4463 -2.8263,0.785 -3.5037,0.7528 -0.8949,-0.043 -1.6315,1.0221 -2.6944,3.8942 -1.6479,4.4532 -5.9956,9.0539 -9.133,9.6645 -1.0537,0.2051 -2.4204,0.7816 -3.0371,1.2812 -3.411,2.763 -12.7153,3.3349 -16.9409,1.0411 -3.339,-1.8125 -3.3509,-2.8217 -0.048,-4.1075 1.7899,-0.6968 3.9287,-2.4115 5.7145,-4.5814 1.5697,-1.9072 3.1018,-3.6035 3.4048,-3.7695 1.0541,-0.5776 0.9791,-9.0113 -0.1027,-11.5538 -2.9804,-7.0041 -10.9254,-11.8774 -20.0503,-12.2984 -5.2343,-0.2414 -7.8096,0.736 -8.7535,3.3224 -0.3107,0.8512 -0.9281,1.9546 -1.372,2.4519 -1.3167,1.4753 -2.8009,5.4786 -4.179504,11.2733 -0.7121,2.9934 -1.7057,5.7817 -2.2079,6.1961 -0.9003,0.7429 -14.728701,5.2408 -18.185001,5.9149 -2.0952,0.4087 -2.2698,0.065 -6.5082,-12.8106 -1.5289,-4.6447 -3.1892,-9.501 -3.6896,-10.7919 -0.9372,-2.4176 -0.6697,-3.6249 0.7862,-3.5486 0.4582,0.024 2.0271,-0.5173 3.4864,-1.203 1.4592,-0.6856 3.7568,-1.7651 5.1056,-2.3988 2.5838,-1.2139 7.632,-6.185 7.7055,-7.5879 0.024,-0.4538 0.7015,-1.9645 1.5061,-3.3573 l 1.4629,-2.5324 -1.4728,-3.7199 -1.4727,-3.7199 -6.2992,-2.2624 c -3.4645,-1.2443 -6.7264,-2.4169 -7.2486,-2.6059 -5.5177,-1.9968 -20.9011,-2.1493 -26.0522,-0.2583 -5.3165,1.9517 -9.0547,10.9566 -8.8665,21.3586 l 0.1053,5.816 -2.533,-0.5329 c -2.4238,-0.5098 -6.4322,-3.7814 -8.8321,-7.2084 -1.6008,-2.2861 -3.5078,-11.1127 -3.2917,-15.2362 0.3531,-6.7365 6.3159,-21.0097 8.7245,-20.8834 1.5393,0.081 0.5498,-1.2532 -2.6516,-3.5742 -4.7267,-3.4268 -13.5163,-12.9291 -15.5173,-16.7755 -3.7779,-7.2619 -7.1213,-15.6426 -8.6649,-21.7199 -1.4658,-5.7707 -1.5178,-6.4945 -0.4917,-6.8422 11.5557,-3.9156 23.7205,-5.9795 32.5949,-5.5299 4.5703,0.2316 13.194,2.5753 18.6802,5.077 1.9459,0.8873 4.382,1.6471 5.4137,1.6885 l 1.8757,0.075 -1.5533,-1.4384 c -1.3568,-1.2564 -1.4485,-1.6949 -0.7245,-3.4672 1.1669,-2.8569 9.1583,-12.1152 12.5145,-14.4985 1.5447,-1.0969 5.1375,-2.6992 7.9839,-3.5605 7.2371,-2.1899 12.957701,-1.3029 17.637301,2.7347 l 1.474404,1.2722 -4.434104,2.426 c -5.2345,2.8639 -12.777401,9.4157 -12.876101,11.1842 -0.038,0.6836 -0.5789,2.1063 -1.2016,3.1615 -1.8941,3.21 -1.0151,6.913 3.4382,14.4842 3.4186,5.812 10.921901,15.1221 12.243201,15.1913 0.3566,0.019 5.123704,3.7695 7.478804,5.8845 0.9469,0.8504 3.0273,1.2258 4.3815,0.7906 0.5814,-0.1868 1.901,-0.478 2.9324,-0.6472 1.0314,-0.1692 2.1055,-0.9201 2.387,-1.6686 0.2815,-0.7486 1.3022,-2.2062 2.2682,-3.2393 2.8436,-3.041 3.6181,-7.1283 2.9061,-15.3373 -0.3404,-3.9254 -0.4546,-7.2851 -0.2538,-7.466 0.681,-0.6131 24.1126,-5.6871 25.8442,-5.5963 1.2307,0.064 1.6515,1.2198 4.2234,11.5974 1.0448,4.2157 1.6854,8.1464 1.4235,8.7349 -0.262,0.5885 -1.7457,2.2507 -3.2972,3.6938 -5.7876,5.3831 -11.427,14.4743 -10.7158,17.2748 1.0244,4.0338 5.8092,9.5911 11.4937,13.3494 2.7681,1.8301 4.7017,2.5192 8.5626,3.0517 2.805,0.3869 5.0013,0.4162 5.0196,0.067 0.018,-0.3415 0.8421,-0.7796 1.8316,-0.9735 5.168,-1.0129 9.6846,-9.2225 9.2967,-16.8984 -0.2112,-4.1812 0.052,-4.3827 3.2695,-2.4994 4.2551,2.4909 7.2702,8.1975 8.0478,15.232 0.3177,2.8747 0.4695,6.3075 0.3372,7.6285 -0.3027,3.0219 -2.8419,7.5572 -5.5281,9.8737 -2.1772,1.8775 -2.8481,3.7734 -1.1389,3.2182 0.7196,-0.2337 1.1927,0.5049 1.6284,2.5424 0.8232,3.8496 2.9613,7.8241 4.2453,7.8913 0.6392,0.034 0.9102,-0.3513 0.701,-0.9954 -0.2351,-0.724 0.2483,-1.1506 1.5568,-1.3736 8.6066,-1.4671 19.075,-4.1876 19.1159,-4.9678 0.016,-0.3016 -0.4871,-0.5755 -1.1176,-0.6086 -1.0473,-0.055 -1.0372,-1.3827 0.1172,-15.3572 0.6951,-8.4134 1.3598,-15.3837 1.4774,-15.4895 0.4606,-0.4148 13.5673,4.0137 22.2556,7.5197 l 9.1597,3.6962 2.457,-2.5281 c 1.3513,-1.3905 3.7707,-4.2484 5.3763,-6.351 1.6057,-2.1025 3.5526,-4.3537 4.3266,-5.0024 1.3832,-1.1596 1.3609,-1.2228 -1.3132,-3.7143 -1.4962,-1.3941 -3.2789,-3.121 -3.9615,-3.8377 -1.042,-1.0939 -1.659,-1.2102 -3.8441,-0.7249 -1.4316,0.3179 -3.5085,0.5323 -4.6153,0.4765 -2.6389,-0.1335 -9.31,-2.6398 -8.8381,-3.3209 0.2021,-0.2917 -0.8453,-1.2313 -2.3275,-2.0881 -6.3533,-3.6723 -9.54,-8.3507 -10.171,-14.9318 -0.5006,-5.2209 0.2777,-5.4516 5.4518,-1.616 0.5501,0.4079 3.2803,1.3647 6.067,2.1262 l 5.0666,1.3846 3.4176,-1.5517 c 4.2133,-1.9132 7.2192,-5.3044 7.4719,-8.4299 0.1034,-1.2784 0.5126,-2.2498 0.9094,-2.1587 0.8262,0.1898 0.891,-3.3118 0.1383,-7.4862 -1.344,-7.4542 -1.8833,-9.4872 -2.7217,-10.2605 -0.4999,-0.4612 -0.8876,-1.2459 -0.8615,-1.7438 0.026,-0.4979 -0.6407,-1.1602 -1.4817,-1.4719 -0.8411,-0.3116 -1.7204,-0.9021 -1.954,-1.312 -0.7175,-1.2593 -13.1166,0.4814 -18.2446,2.5614 l -4.5523,1.8463 -7.5015,-6.2036 c -4.1258,-3.412 -7.7453,-6.2164 -8.0434,-6.2321 -0.298,-0.016 -0.8874,0.4992 -1.3096,1.1439 -0.6693,1.0221 -0.7584,0.9509 -0.6955,-0.5561 0.093,-2.2389 1.1797,-3.7677 11.1121,-15.6386 6.0842,-7.2717 8.0516,-10.0609 7.4151,-10.513 -0.6272,-0.4457 -0.4999,-0.5991 0.4618,-0.5564 0.7305,0.033 1.7974,0.4958 2.371,1.0296 2.2088,2.0557 11.1957,7.8481 13.5827,8.7546 2.5832,0.981 7.451,0.7682 7.5085,-0.3282 0.018,-0.3377 1.0835,-0.5589 2.3685,-0.4916 1.8494,0.097 2.7392,-0.3521 4.27,-2.155 2.3022,-2.7113 2.4118,-3.8538 1.03,-10.7313 -1.711,-8.515499 -2.2674,-10.471899 -3.9699,-13.958499 -1.8836,-3.857396 -6.6358,-10.846896 -7.4022,-10.887096 -0.2901,-0.015 -0.5043,-0.4683 -0.476,-1.0069 0.089,-1.7028 -5.4549,-3.6453 -9.8349,-3.4459 -4.6171,0.2103 -12.9366,3.4907 -16.6258,6.5555 -1.4154,1.176 -2.599,1.7341 -2.7232,1.2842 -0.1208,-0.4376 -0.6492,-0.8182 -1.1742,-0.8457 -1.3731,-0.072 -2.2677,-2.3874 -2.0993,-5.4341 0.4306,-7.7933 6.7515,-15.8201 15.322,-19.4574 5.8327,-2.4754 13.0338,-4.1502 18.8662,-4.388 l 4.2913,-0.175 0.8454,-6.9458 c 0.465,-3.8201 1.1137,-7.2525 1.4414,-7.6274 0.3278,-0.3749 0.8558,-1.7897 1.1734,-3.1439 1.5932,-6.7945 12.6477,-22.8826 21.932,-31.9186 l 3.7431,-3.64300004 2.7948,2.65790004 c 5.233,4.9768 13.3919,15.414 17.7163,22.6635 4.9565,8.3089 6.9751,13.7774 8.1816,22.164 l 0.8536,5.9339 7.62,0.4248 c 6.5236,0.3636 8.4149,0.7472 13.1449,2.666 3.177,1.2888 6.8076,3.3821 8.5433,4.9258 1.6602,1.4765 3.7242,3.2369 4.5866,3.912 1.0338,0.8093 2.0889,3.1399 3.0968,6.8405 1.3097,4.8089 1.4002,5.9647 0.6322,8.068 -0.4932,1.3503 -1.1953,2.4394 -1.5603,2.4203 -0.365,-0.019 -2.2084,-1.029 -4.0964,-2.2443 -1.888,-1.2152 -5.7492,-3.102 -8.5803,-4.1929 -5.6011,-2.1582 -9.6727,-2.1865 -14.143,-0.099 -2.14,0.9996 -5.6439,5.1663 -8.0382,9.5588 -0.7069,1.2967 -1.5895,2.8093 -1.9615,3.3614 -0.7552,1.120896 -1.6618,3.188196 -2.0791,4.740996 -1.9855,7.387199 -2.9196,12.001199 -3.1315,15.468499 -0.2306,3.7735 -0.061,4.394 1.7117,6.2805 1.0822,1.1513 2.5098,2.1705 3.1724,2.2649 0.6625,0.094 2.4369,0.4552 3.943,0.802 3.51,0.8083 7.5147,-0.3486 13.2833,-3.8373 2.4077,-1.4561 4.5428,-2.8245 4.7447,-3.0409 0.2019,-0.2163 1.0705,-0.9269 1.9302,-1.5789 1.5573,-1.1811 1.6,-1.1439 11.2639,9.8171 5.3354,6.0516 9.7695,11.227 9.8535,11.501 0.084,0.2741 -3.0457,3.3447 -6.9551,6.8237 -6.712,5.9731 -7.2806,6.324 -10.2089,6.3006 -1.7057,-0.014 -4.4797,-0.4903 -6.1647,-1.0595 -5.4966,-1.8567 -17.9364,-1.4804 -18.0426,0.5458 -0.014,0.2601 -0.5333,0.9308 -1.1548,1.4904 -1.2376,1.1144 -1.3179,1.358 -3.3589,10.1958 -1.0101,4.3733 -1.2248,6.5011 -0.7651,7.5812 0.3515,0.8258 0.8038,2.2321 1.0051,3.1251 0.599,2.6571 4.2196,6.6694 7.455,8.2616 4.9454,2.4337 11.4151,1.5177 17.2301,-2.4394 2.9533,-2.0097 3.6182,-1.8687 3.8999,0.8267 0.6275,6.0049 -3.2107,12.6091 -9.5299,16.3977 -1.8341,1.0996 -3.2057,2.1428 -3.0479,2.3181 0.1578,0.1752 -1.0921,0.9194 -2.7775,1.6536 -3.2499,1.4157 -9.9936,1.7099 -12.8693,0.5615 -1.2196,-0.4871 -1.5359,-0.4117 -1.3112,0.3124 0.1629,0.5249 -1.1923,2.3405 -3.0114,4.0348 l -3.3076,3.0805 1.7114,2.5056 c 0.9413,1.3781 1.703,2.6646 1.6929,2.8589 -0.026,0.4884 10.406,11.6609 11.1927,11.9876 0.35,0.1454 0.67,-0.3775 0.7112,-1.162 0.049,-0.928 0.6597,-1.541 1.7491,-1.7545 1.8495,-0.3625 7.8903,-2.9305 9.2145,-3.9171 0.9421,-0.702 11.7975,-4.7859 14.639,-5.5074 l 1.8308,-0.4648 0.7828,6.3731 c 0.7107,5.7856 1.3931,14.7008 1.6447,21.4859 0.053,1.4308 0.2202,2.7345 0.3714,2.8971 0.2991,0.3216 11.9733,2.8227 17.2642,3.6988 3.7113,0.6145 3.763,0.5589 5.6559,-6.0731 1.0155,-3.558 1.006,-3.6144 -1.05,-6.2194 -3.8442,-4.8705 -4.4822,-7.847 -3.3971,-15.8488 1.071,-7.897 3.176,-12.1824 7.3333,-14.929 4.4155,-2.9172 4.7519,-2.7502 4.4909,2.2294 -0.1666,3.1787 0.1272,5.1768 1.0292,7.0002 0.6943,1.4035 1.3217,3.1491 1.3943,3.8791 0.1751,1.7607 3.9504,4.5012 7.951,5.7716 4.7125,1.4965 9.9369,0.2793 15.0642,-3.5096 5.4546,-4.0307 9.6951,-9.2999 9.8491,-12.2383 0.1852,-3.5347 -4.6501,-10.9166 -11.7748,-17.9763 -2.4998,-2.477 -2.5183,-2.5398 -1.8674,-6.3335 1.0219,-5.9561 3.4226,-16.104 3.9324,-16.6221 0.2525,-0.2567 5.548,0.5432 11.7677,1.7775 18.3762,3.647 17.2994,3.3225 16.7671,5.0538 -0.9428,3.0664 -1.2746,14.0329 -0.5056,16.705 0.4297,1.4927 1.5495,3.5656 2.4885,4.6065 0.9391,1.0408 1.8553,2.3478 2.0361,2.9044 0.1894,0.5832 1.4414,1.1457 2.9549,1.3276 1.4444,0.1736 2.964,0.6272 3.3768,1.008 0.5015,0.4626 1.3166,0.15 2.4554,-0.9417 0.9376,-0.8987 2.0847,-1.6142 2.549,-1.5899 1.4023,0.073 11.754,-10.295 14.616,-14.6396 3.3975,-5.1578 4.9345,-8.6753 5.7881,-13.2468 1.362,-7.2945 -3.2293,-13.7264 -13.9811,-19.5862 -2.3155,-1.2619 -4.1875,-2.5275 -4.1599,-2.8123 0.1257,-1.2974 3.131,-3.6371 6.1488,-4.7872 6.6824,-2.5467 16.135,-0.5611 22.6354,4.7548 6.4061,5.2389 12.7436,13.6309 12.5847,16.6644 -0.053,1.0091 0.9856,0.7749 6.5428,-1.4757 10.2791,-4.1628 14.0929,-4.7948 24.9291,-4.1314 11.5912,0.7096 27.3895,4.6076 27.9741,6.9021 0.4618,1.8127 -1.4783,10.7171 -3.7002,16.9826 -3.9976,11.2726 -8.9576,19.6485 -14.8168,25.0211 -2.7417,2.514 -6.2024,5.4938 -7.6905,6.6217 -1.4881,1.128 -2.7142,2.2137 -2.7246,2.4127 -0.01,0.1989 0.8305,1.3957 1.8688,2.6594 1.9251,2.343 2.5662,3.8189 5.2935,12.1862 4.031,12.3672 -0.5235,25.8202 -9.9831,29.4881 -4.1238,1.5989 -4.2003,1.4763 -4.1646,-6.6647 0.036,-8.1456 -0.7108,-11.125 -3.894,-15.5409 -3.0844,-4.2789 -6.5346,-5.5178 -15.5251,-5.5749 -8.1392,-0.052 -14.526,1.3739 -23.7598,5.3036 -3.758,1.5993 -5.1566,2.5476 -5.2082,3.5314 -0.039,0.7398 -0.3954,1.8824 -0.7925,2.5393 -0.5174,0.856 -0.317,2.3746 0.7077,5.3611 1.6967,4.9447 5.2804,8.5812 10.871,11.0309 8.9413,3.9179 8.2465,3.3969 7.6479,5.7346 -0.2993,1.1689 -1.0392,3.3464 -1.6443,4.839 -0.6051,1.4925 -2.4342,6.5411 -4.0648,11.2189 -1.6305,4.6779 -3.1798,8.7101 -3.4427,8.9606 -0.4882,0.465 -17.869,-4.7694 -19.7271,-5.9411 -0.5633,-0.3551 -1.5909,-2.9757 -2.2835,-5.8236 -1.7853,-7.3404 -3.4538,-11.1629 -6.3481,-14.5433 -2.5155,-2.9382 -2.526,-2.9425 -6.3048,-2.6067 -2.0818,0.185 -4.5042,0.3215 -5.3832,0.3032 -0.8799,-0.018 -1.4224,0.2874 -1.2072,0.6802 0.2149,0.3923 -0.2411,0.6802 -1.0134,0.6397 -1.4928,-0.078 -7.6758,2.2465 -8.8952,3.3445 -1.9811,1.7838 -4.7323,6.2748 -5.2626,8.5907 -1.1904,5.1983 -0.2859,8.611 3.37,12.7149 2.0218,2.2695 4.6276,4.3225 6.5715,5.1773 1.7716,0.7791 3.022,1.7039 2.7786,2.0552 -1.3737,1.9827 -6.4269,3.846 -10.7781,3.9744 -3.9207,0.1157 -5.192,-0.1513 -8.3378,-1.751 -2.0415,-1.0382 -4.6096,-2.1628 -5.7069,-2.4991 -2.488,-0.7626 -6.4825,-5.3988 -8.2321,-9.5547 -0.7289,-1.7314 -1.5625,-3.0182 -1.8523,-2.8594 -0.2898,0.1587 -2.0048,-0.242 -3.8113,-0.8906 -5.4167,-1.9447 -5.5022,-1.9007 -7.7003,3.959 -1.0864,2.8963 -2.2135,6.1889 -2.5047,7.3168 -0.2911,1.1279 -0.8681,3.1856 -1.2823,4.5726 l -0.7529,2.5218 5.4304,3.8983 c 2.9867,2.144 7.7591,5.5689 10.6053,7.6108 2.8463,2.042 5.1551,4.0912 5.1309,4.554 -0.024,0.4628 0.5391,1.1534 1.2519,1.5348 1.1436,0.6119 0.6013,1.2428 -4.6115,5.3651 -3.249,2.5694 -7.3593,5.6049 -9.1339,6.7455 -1.7746,1.1405 -4.0471,2.8595 -5.0501,3.8199 -1.003,0.9604 -2.2728,1.8696 -2.8218,2.0206 -0.8383,0.2305 -0.8212,0.8878 0.1068,4.1038 0.6077,2.1061 1.4726,4.4636 1.9217,5.2388 0.4492,0.7752 0.7869,1.9786 0.7505,2.6742 -0.036,0.6957 0.629,2.413 1.4787,3.8163 0.8498,1.4034 1.3876,2.9053 1.1952,3.3377 -0.4602,1.0339 3.0295,1.503 4.2754,0.5746 0.5242,-0.3906 2.2988,-1.032 3.9435,-1.4253 2.435,-0.5824 3.0872,-1.0827 3.5115,-2.694 1.3891,-5.2758 4.5899,-8.3271 12.596,-12.0077 4.8821,-2.2443 6.1204,-2.5279 10.1222,-2.3182 3.2279,0.1692 5.4178,0.7112 7.4972,1.8559 3.2911,1.8117 3.3408,2.5873 0.2585,4.0381 -3.4778,1.6369 -5.5743,3.3867 -8.1074,6.7667 -1.8615,2.484 -2.4339,3.9269 -2.5579,6.448 -0.18,3.6597 0.9838,8.3755 2.3606,9.5651 0.5037,0.4352 1.4035,1.65 1.9994,2.6994 0.8136,1.4329 2.0429,2.1762 4.9354,2.9846 2.1186,0.5921 4.1878,1.4338 4.5982,1.8704 1.4268,1.5181 11.0503,2.1122 12.5366,0.7739 0.5792,-0.5215 1.3586,-1.0381 1.7319,-1.1478 0.7716,-0.2268 5.1733,-9.1176 6.2988,-12.7226 0.4097,-1.3122 0.819,-3.658 0.9095,-5.2128 0.1929,-3.3107 0.4488,-3.4642 12.1778,-7.305 4.071,-1.3331 7.7422,-2.5557 8.1582,-2.7168 0.6566,-0.2542 3.3014,6.4835 8.7735,22.3506 0.7361,2.1344 1.4767,4.2567 1.6458,4.7161 0.1691,0.4595 -0.6766,1.2805 -1.8791,1.8247 -1.2026,0.5441 -2.1791,0.8473 -2.1701,0.6738 0.051,-0.9693 -10.1848,5.3511 -12.0057,7.4135 -2.6439,2.9946 -4.693,9.75 -3.6384,11.9956 0.3785,0.8061 0.4929,1.9047 0.254,2.4413 -0.4619,1.0378 1.3816,1.9194 4.3778,2.0933 0.918,0.054 1.4443,0.2995 1.1694,0.547 -0.632,0.5691 5.6119,3.3638 6.4678,2.8949 0.3484,-0.1909 1.3845,0.2034 2.3025,0.8761 0.918,0.6727 2.2076,1.0886 2.8657,0.9241 0.6581,-0.1644 2.3558,0.033 3.7728,0.4383 1.5671,0.4485 4.6823,0.5568 7.9532,0.2766 2.9574,-0.2534 6.2885,-0.4013 7.4024,-0.3287 1.476,0.096 2.8766,-0.6234 5.1621,-2.652 1.7252,-1.5313 3.1533,-3.1002 3.1735,-3.4865 0.02,-0.3864 0.65,-0.5073 1.3994,-0.2688 1.2288,0.3911 1.3752,0.1034 1.4912,-2.9313 0.071,-1.8507 0.3164,-6.0897 0.546,-9.42 0.2295,-3.3302 0.2591,-7.0117 0.066,-8.181 l -0.3515,-2.1259 2.6311,0.6055 c 1.447,0.3331 3.28,1.0607 4.0731,1.6169 2.7567,1.9331 8.1322,8.5693 8.3996,10.3695 0.148,0.9962 0.5069,2.9511 0.7976,4.3443 0.6883,3.298 0.2968,9.9406 -0.789,13.3887 -0.4722,1.4995 -1.2262,3.9185 -1.6755,5.3755 -1.0447,3.3879 -4.645,9.8823 -5.455,9.8398 -1.1898,-0.062 0.1948,1.4231 4.0571,4.3527 11.7061,8.8789 20.2986,23.6571 25.4543,43.7786 l 1.0323,4.0288 -5.4149,1.4035 c -18.3675,4.7609 -33.5183,4.9214 -46.5153,0.493 -3.1822,-1.0843 -6.2424,-2.1842 -6.8003,-2.4442 -0.7374,-0.3437 -1.4936,0.4938 -2.7685,3.0658 -3.4976,7.0567 -13.7486,16.8743 -19.1232,18.3148 -1.3606,0.3646 -3.1093,1.053 -3.886,1.5297 -3.1251,1.9181 -14.8508,-0.5224 -16.917,-3.5211 -0.6374,-0.925 -1.1548,-1.8929 -1.1497,-2.1509 0.01,-0.2579 1.854,-1.4643 4.1089,-2.6807 2.2549,-1.2164 4.7542,-2.7449 5.5539,-3.3965 0.7998,-0.6517 2.751,-2.1885 4.3361,-3.4153 1.585,-1.2268 2.9765,-2.9297 3.0922,-3.7844 0.1156,-0.8547 0.5735,-2.1548 1.0174,-2.8892 0.444,-0.7344 0.8489,-2.1296 0.8998,-3.1006 0.1336,-2.5503 -2.0105,-8.7822 -3.5803,-10.4063 -0.7393,-0.7649 -1.3235,-1.7858 -1.2982,-2.2688 0.059,-1.1283 -5.8085,-8.7792 -6.5887,-8.591 -0.3244,0.078 -0.5846,-0.2471 -0.5781,-0.7231 0.017,-1.2211 -6.5488,-7.0393 -10.2046,-9.0434 -2.8497,-1.5622 -3.2714,-1.6212 -6.0483,-0.8456 -3.5675,0.9966 -7.2764,5.0995 -8.6564,9.5762 -0.8677,2.8145 -0.7692,9.5675 0.2365,16.2128 l 0.3239,2.1407 -13.5318,2.5702 c -7.4425,1.4136 -14.0831,2.6533 -14.7569,2.7548 -0.8549,0.1288 -1.32,-0.3767 -1.5393,-1.6731 -0.1729,-1.0218 -1.1699,-5.7998 -2.2157,-10.6179 l -1.9014,-8.7602 2.3563,-1.9247 c 4.7586,-3.8871 11.4757,-12.5741 12.2098,-15.7909 0.1436,-0.6292 -0.1515,-2.0477 -0.6559,-3.1521 -0.5044,-1.1045 -0.9061,-2.2546 -0.8927,-2.5557 0.044,-0.9836 -1.5116,-2.6262 -6.8974,-7.2836 l -5.3025,-4.5853 -5.5622,-0.2794 c -5.3229,-0.2674 -5.7189,-0.1766 -9.1981,2.1072 -4.4397,2.9142 -5.837,6.2145 -6.0043,14.1816 l -0.1116,5.3136 -1.9491,-0.6713 c -5.8304,-2.0078 -9.3863,-7.693 -10.6872,-17.0864 -1.0459,-7.5527 0.049,-11.3585 4.9305,-17.1345 0.7941,-0.9396 1.0881,-1.7945 0.7078,-2.058 -0.3579,-0.248 -0.9605,-2.0185 -1.3392,-3.9345 -0.74,-3.7431 -1.5478,-5.4329 -2.3797,-4.9771 -0.2859,0.1566 -2.2168,0.4931 -4.2909,0.7477 -2.0742,0.2547 -6.4485,0.9818 -9.7208,1.6159 l -5.9496,1.1529 -0.554,7.399 c -1.1568,15.4499 -2.1248,22.213 -3.1717,22.1581 -0.9476,-0.05 -5.5895,-2.0053 -17.9354,-7.5561 -9.4655,-4.2558 -8.5619,-4.3348 -13.5659,1.1857 -5.7814,6.3779 -8.5064,10.2262 -8.1087,11.4506 0.1782,0.5487 1.6532,2.062 3.2778,3.3628 1.6246,1.3007 2.9418,2.5933 2.9271,2.8722 -0.014,0.279 2.8553,0.5483 6.3775,0.5984 l 6.404,0.091 5.335,3.9648 c 6.3,4.6819 9.8644,9.8985 10.3099,15.0888 0.387,4.5089 -0.2041,5.0857 -3.1835,3.1062 -10.136,-6.7346 -20.2159,-4.4934 -24.3286,5.4095 -1.3151,3.1664 -1.3563,3.7638 -0.6183,8.9496 1.7732,12.459 4.8791,16.3288 12.7196,15.8481 2.1795,-0.1336 4.8999,-0.2784 6.0454,-0.3217 1.1454,-0.043 3.62,-0.6622 5.499,-1.3751 1.879,-0.713 4.1937,-1.2556 5.1437,-1.2058 1.1174,0.059 4.3412,2.3517 9.1289,6.4935 4.0708,3.5216 7.4967,6.4763 7.613,6.5658 0.1162,0.09 -2.6078,3.5536 -6.0534,7.6978 -13.5918,16.3478 -12.8363,15.7063 -15.1923,12.8994 -0.6417,-0.7645 -1.4518,-1.4049 -1.8003,-1.4231 -0.3485,-0.018 -2.1713,-1.052 -4.0508,-2.2972 -7.1002,-4.7038 -15.187,-4.9156 -19.8115,-0.5187 -2.2417,2.1314 -2.2885,2.2857 -1.9732,6.5077 0.1777,2.3785 0.7444,5.7496 1.2595,7.4914 0.515,1.7418 0.9195,3.5753 0.8989,4.0746 -0.1004,2.4297 5.7084,13.7775 8.8234,17.237 0.7115,0.7902 1.2744,1.8255 1.2509,2.3006 -0.055,1.1201 4.8057,3.3042 8.9697,4.0302 4.0986,0.7146 9.2923,-0.9902 17.3111,-5.682 l 4.0667,-2.3795 0.7601,1.5516 c 1.0557,2.1547 0.7499,6.4968 -0.7656,10.8725 -1.0402,3.0033 -2.1575,4.4619 -5.9606,7.7811 -2.5742,2.2468 -5.0401,4.0661 -5.4797,4.0431 -0.4396,-0.023 -1.3151,0.378 -1.9456,0.8912 -1.941,1.58 -13.219,3.8568 -17.8911,3.612 l -4.32,-0.2264 -0.6074,3.1827 c -0.334,1.7504 -0.6591,4.1689 -0.7222,5.3744 -0.2013,3.8412 -3.4511,12.8658 -6.2562,17.3734 -1.4927,2.3987 -3.4039,5.488 -4.247,6.8651 -0.8433,1.3771 -2.8195,3.9237 -4.3918,5.659 -3.6376,4.0149 -13.7083,13.3257 -14.3755,13.2907 -0.2783,-0.014 -1.9669,-1.2666 -3.7523,-2.7824 z m 16.1164,-54.5124 c 1.9201,-2.2614 2.3615,-3.5966 1.209,-3.657 -0.38,-0.02 -0.6588,-0.6483 -0.6196,-1.3964 0.052,-1.0003 0.3852,-1.2285 1.2576,-0.8624 1.0059,0.4221 0.9805,0.2329 -0.1671,-1.243 -0.7444,-0.9574 -1.7808,-2.8544 -2.303,-4.2155 -2.4391,-6.3576 -6.2512,-18.2086 -8.8384,-27.4771 -1.5642,-5.6035 -3.103,-10.2899 -3.4196,-10.4142 -0.3166,-0.1243 -1.0719,2.0154 -1.6784,4.7549 -0.6066,2.7395 -1.671,6.9776 -2.3656,9.4182 -0.6945,2.4405 -1.6769,6.1303 -2.1831,8.1997 -0.5062,2.0693 -1.259,4.68 -1.6729,5.8015 -0.4138,1.1215 -1.5288,4.3367 -2.4777,7.145 -0.9488,2.8083 -2.5237,6.0566 -3.4997,7.2184 -2.1875,2.6041 -2.211,2.8723 -0.2616,2.9878 1.1222,0.067 1.2878,0.2419 0.596,0.6312 -1.3328,0.75 -0.1918,2.6241 3.3157,5.4463 1.5154,1.2193 4.5148,3.6225 6.6654,5.3405 l 3.91,3.1236 5.3552,-4.3274 c 2.9453,-2.3801 6.1753,-5.2935 7.1778,-6.4741 l 0,0 z m -10.9146,-84.5453 c 0.8585,-4.6068 9.0103,-26.3593 11.668,-31.1353 2.9178,-5.2433 3.0475,-5.6829 2.2168,-7.5125 -0.6984,-1.5382 -14.9787,-14.8639 -16.0123,-14.9419 -0.288,-0.022 -4.0494,3.2809 -8.3585,7.3393 -8.6189,8.1174 -9.1335,9.1699 -6.5741,13.4449 3.8728,6.4687 8.2862,16.9026 11.9551,28.2638 0.8136,2.5196 1.7232,5.2953 2.0211,6.1683 0.9408,2.7564 2.4117,1.9805 3.0839,-1.6266 l 0,0 z m -207.011005,-35.363 c 0.9225,-2.2585 7.633,-10.7325 15.8185,-19.9756 3.1412,-3.5471 5.7281,-6.7691 5.7486,-7.16 0.04,-0.7631 -1.7856,-0.5746 -6.9661,0.7188 -2.8133,0.7025 -10.4563,2.0849 -19.5853,3.5426 -1.7293,0.2761 -4.5761,0.4277 -6.3261,0.3369 -4.6908,-0.243 -6.0359,1.7066 -8.0953,11.7353 -1.122,5.4639 -1.399,8.0056 -0.8967,8.2282 4.2245,1.872 13.0337,4.3129 15.9017,4.406 3.321,0.1078 3.6672,-0.036 4.4007,-1.8322 l 0,0 z m 422.225405,-0.2996 c 4.3433,-1.5187 8.0266,-2.878 8.185,-3.0206 0.1584,-0.1426 -0.5498,-4.1871 -1.5738,-8.9878 -1.4052,-6.5882 -2.1622,-8.8243 -3.0871,-9.1186 -0.674,-0.2145 -1.1984,-0.9046 -1.1654,-1.5335 0.05,-0.9505 -0.4394,-1.0985 -2.8987,-0.8772 -3.4557,0.3109 -23.8226,-3.0107 -34.1163,-5.5639 -2.0359,-0.505 -3.8125,-0.8183 -3.948,-0.6961 -0.1357,0.1221 2.5853,3.306 6.0466,7.0754 10.4199,11.3476 17.3498,19.3293 18.794,21.6467 0.8097,1.2991 1.9819,2.2286 2.879,2.2827 0.8323,0.05 1.6892,0.4123 1.9041,0.8046 0.5393,0.9842 0.1865,1.0632 8.9806,-2.0117 l 0,0 z m -207.5548,-39.1218 c 10.2211,-11.9594 10.2574,-12.0189 8.6104,-14.0625 -3.7337,-4.6331 -12.8521,-17.2617 -16.1203,-22.3262 -1.997,-3.0945 -2.4614,-3.1604 -3.9675,-0.5631 -0.7106,1.2255 -3.3832,5.0805 -5.9391,8.5667 -2.556,3.4862 -5.7452,8.0737 -7.0871,10.1945 -1.342,2.1208 -2.8767,3.8331 -3.4104,3.8051 -1.135,-0.06 -1.2491,0.6256 -0.4785,2.8744 0.6349,1.8528 2.6014,4.3104 11.9056,14.8788 5.0279,5.7111 6.779,7.289 7.4962,6.7546 0.5146,-0.3835 4.5604,-4.9385 8.9907,-10.1223 l 0,0 z m -141.6529,-12.4569 c 6.5938,-1.3957 14.9598,-2.7121 18.5911,-2.9252 4.2689,-0.2506 7.0314,-0.7569 7.8166,-1.4325 1.3348,-1.1486 4.7228,-17.7083 3.8085,-18.6153 -0.974,-0.9663 -16.6111,-6.281 -17.5668,-5.9706 -0.5327,0.1731 -2.9887,3.2202 -5.4577,6.7714 -2.4691,3.5512 -6.5648,8.5812 -9.1016,11.1778 -5.6326,5.7652 -12.3356,13.2757 -12.366,13.8557 -0.012,0.2346 0.4973,0.2578 1.1323,0.052 0.6351,-0.2063 6.5497,-1.517 13.1435,-2.9128 l 0,0 z m 280.7567,5.1379 c 0.01,-0.165 -5.068,-5.9652 -11.2815,-12.8893 -6.4262,-7.1611 -12.3557,-14.479 -13.752,-16.9723 -3.3226,-5.9326 -4.764,-6.2385 -13.9847,-2.9675 -3.7667,1.3362 -7.7498,2.71 -8.8516,3.0528 -1.8765,0.584 -1.9844,0.8047 -1.7073,3.493 0.6021,5.8429 3.367,16.2353 4.7168,17.729 1.2235,1.3539 2.4555,1.6268 10.9583,2.4273 9.2866,0.8743 27.0232,4.0889 30.4695,5.5223 1.9011,0.7907 3.4089,1.0564 3.4325,0.6047 l 0,0 z m -171.5667,-20.2957 c 5.1417,-12.1683 7.4821,-20.3622 7.3032,-25.569 -0.366,-10.6491 -0.5647,-12.4846 -1.3923,-12.853 -0.9413,-0.419 -11.2996,5.4058 -13.1807,7.4119 -7.2596,7.7422 -15.5615,19.3057 -15.6955,21.8618 -0.021,0.3991 -0.434,0.844 -0.9179,0.9888 -1.7233,0.5155 -0.038,1.205 5.2972,2.1675 5.1854,0.9354 5.5499,1.1248 8.7095,4.5233 6.1191,6.5821 7.6214,6.8055 9.8765,1.4687 l 0,0 z m 51.7813,2.2366 c 1.15,-0.8691 3.0206,-2.7821 4.1569,-4.2512 1.8068,-2.3358 2.5608,-2.7393 6.0081,-3.2147 2.1682,-0.299 4.4223,-0.7834 5.0093,-1.0764 1.0505,-0.5244 1.1932,-2.783 0.2218,-3.511 -0.2734,-0.2049 -1.6839,-2.3349 -3.1344,-4.7334 -4.2107,-6.9626 -12.6513,-15.4698 -18.7357,-18.8834 -2.8749,-1.6129 -5.4088,-2.7689 -5.631,-2.5689 -0.2222,0.2001 -0.5378,2.7978 -0.7013,5.7727 -0.3153,5.7391 0.7692,12.6433 2.7321,17.3916 0.6547,1.5836 1.1698,3.271 1.1447,3.7498 -0.025,0.4787 1.0407,3.0083 2.3685,5.6213 1.3277,2.613 2.5799,5.3052 2.7825,5.9827 0.4952,1.6557 1.2966,1.5964 3.7785,-0.2791 l 0,0 z m -89.8091,-14.6223 c 0.9155,-1.381 3.1777,-5.8612 5.0272,-9.956 1.8495,-4.0948 4.264,-9.1994 5.3656,-11.3437 1.1016,-2.1442 2.0169,-4.1661 2.034,-4.493 0.017,-0.3269 -0.9701,-0.8226 -2.194,-1.1016 -1.8676,-0.4258 -24.5648,-2.0389 -28.2573,-2.0083 -0.8624,0.01 -1.8317,1.8377 -3.6956,6.979 -1.3897,3.8331 -3.5542,9.7214 -4.8101,13.0852 -1.2559,3.3637 -2.1567,6.2657 -2.0017,6.4489 0.155,0.1832 6.0628,1.3168 13.1285,2.5191 7.0656,1.2024 13.0474,2.2301 13.2927,2.2837 0.2454,0.054 1.1952,-1.0323 2.1107,-2.4133 l 0,0 z m 137.3108,1.2099 c 6.8475,-1.3016 12.6031,-2.5045 12.7903,-2.673 0.6961,-0.6268 -9.8173,-28.0789 -10.7726,-28.129 -0.2606,-0.014 -0.3437,0.6056 -0.1848,1.3761 0.3492,1.6927 -1.3728,1.8335 -2.5817,0.2111 -0.4432,-0.5949 -1.4671,-1.1197 -2.2754,-1.1664 -1.8254,-0.1054 -27.1255,2.1264 -27.4912,2.4251 -0.8639,0.7053 11.0574,25.7452 12.7559,26.7926 1.8075,1.1148 2.3354,2.2265 1.3275,2.7955 -2.2081,1.2464 5.1163,0.519 16.432,-1.632 l 0,0 z m -133.9382,-45.1546 c 8.3239,-1.3357 13.8102,-2.9896 17.706,-5.3378 2.0504,-1.2357 3.9737,-2.2409 4.2742,-2.2336 0.3004,0.01 1.3465,-0.5376 2.3247,-1.2109 1.7372,-1.1956 1.7506,-1.2582 0.5786,-2.698 -1.5838,-1.9458 -11.8279,-7.7935 -16.5525,-9.4488 -9.7738,-3.4243 -11.2556,-3.7847 -19.6686,-4.783 -4.3872,-0.5205 -6.3815,-0.5218 -6.4086,0 -0.022,0.4135 0.2614,0.9602 0.6292,1.215 0.3677,0.2548 0.6244,1.305 0.5705,2.3338 -0.054,1.0288 0.6614,4.2064 1.5896,7.0612 l 1.6877,5.1907 -1.8411,4.3482 c -2.7749,6.553 -2.9076,6.3481 4.1161,6.3538 3.3341,0 8.2815,-0.3513 10.9942,-0.7865 l 0,0 z m 130.3602,0.4299 c 0.7135,-0.6053 0.5313,-1.7206 -0.8739,-5.3501 -1.5636,-4.0387 -1.6726,-4.8977 -0.914,-7.2038 0.4737,-1.44 1.1012,-4.4308 1.3945,-6.6461 l 0.5332,-4.0278 -3.0259,0.3082 c -1.6642,0.1695 -3.9736,0.5435 -5.1319,0.8312 -1.1582,0.2877 -3.2015,0.606 -4.5405,0.7075 -2.8314,0.2145 -14.2655,3.253 -16.8632,4.4813 -4.9419,2.3367 -10.6992,5.8504 -10.736,6.5522 -0.023,0.4359 2.2559,2.0986 5.0639,3.6949 4.7174,2.6818 7.8245,3.6821 19.0176,6.1224 5.0529,1.1016 15.015,1.4301 16.0762,0.5301 l 0,0 z m -137.8148,-37.4387 c 7.0911,-0.7897 12.9898,-1.4987 13.1081,-1.5755 0.1184,-0.077 -1.9073,-4.5554 -4.5015,-9.9524 -2.5943,-5.3971 -4.7058,-10.0229 -4.6923,-10.2796 0.013,-0.2567 -0.577,-1.3197 -1.3122,-2.3623 -0.7351,-1.0426 -1.0031,-1.8781 -0.5955,-1.8568 1.1157,0.059 0.9516,-1.1303 -0.2285,-1.6555 -1.7563,-0.7817 -26.1739,4.0318 -26.2336,5.1715 -0.1031,1.968 7.5939,23.2965 8.7066,24.1261 0.4066,0.3031 1.2155,0.3867 1.7976,0.1857 0.5822,-0.2009 6.8602,-1.0115 13.9513,-1.8012 l 0,0 z m 48.8647,-1.573 c -0.3354,-9.0399 -0.8878,-14.062 -1.5761,-14.3322 -0.3919,-0.1539 -0.673,-1.0354 -0.6246,-1.9589 0.048,-0.9236 -0.1839,-2.2348 -0.5163,-2.9139 -0.3323,-0.6792 -1.5948,-3.6251 -2.8055,-6.5465 -3.3922,-8.1853 -6.105,-12.7911 -7.5795,-12.8684 -0.4891,-0.026 -2.2895,1.7425 -4.0009,3.9291 -3.2601,4.1656 -3.0249,4.0517 -11.8004,5.7158 -4.0107,0.7606 -8.078,2.1031 -8.108,2.6763 -0.011,0.2148 1.7204,2.7645 3.8482,5.666 3.6583,4.9887 9.2162,10.8089 14.5072,15.1918 3.3516,2.7764 15.4296,9.5368 17.2746,9.669 1.4753,0.1058 1.5354,-0.078 1.3813,-4.2281 z m 95.6686,4.3023 c 1.7449,-1.8916 10.0982,-25.5866 9.311,-26.4116 -0.5552,-0.5817 -10.1945,-2.7424 -19.9055,-4.4618 -7.2111,-1.2767 -10.1367,-1.064 -9.5652,0.6954 0.2031,0.6253 -1.178,4.3438 -3.0816,8.2968 -5.9296,12.314 -9.0874,19.1899 -8.9038,19.3868 0.097,0.1043 6.8466,0.8304 14.9984,1.6136 8.1519,0.7832 15.1696,1.4916 15.5949,1.5743 0.4254,0.083 1.1237,-0.2294 1.5518,-0.6935 l 0,0 z m -60.1117,-4.4231 c 7.0478,-3.47 8.7351,-4.6023 13.4986,-9.0588 5.436,-5.0858 12.0773,-12.5417 12.1339,-13.6224 0.019,-0.3577 0.6993,-1.4104 1.5123,-2.3395 l 1.4781,-1.6891 -2.1782,-1.4773 c -1.1981,-0.8125 -4.1816,-1.9222 -6.63,-2.4659 -4.2314,-0.9396 -4.6289,-1.2053 -8.0328,-5.3683 -3.5613,-4.3554 -4.5805,-5.1406 -4.6617,-3.5912 -0.023,0.446 -1.4013,3.2578 -3.0621,6.2483 -5.5913,10.0682 -8.2503,19.6507 -8.0224,28.9113 0.077,3.1444 0.396,5.7305 0.7082,5.7469 0.3121,0.016 1.7773,-0.566 3.2561,-1.294 l 0,0 z m -131.4625,-25.7872 c 4.6802,-1.4272 8.6824,-2.7507 8.8937,-2.941 0.2113,-0.1902 -0.1521,-2.5043 -0.8077,-5.1422 -0.6556,-2.638 -1.7001,-7.0464 -2.3212,-9.7963 l -1.1292,-5.0001 -10.1914,-0.4432 c -5.6053,-0.2437 -13.5205,-0.8723 -17.5895,-1.3968 -4.0689,-0.5246 -7.4095,-0.6996 -7.4235,-0.3891 -0.014,0.3105 2.5372,3.6859 5.6693,7.5006 3.1321,3.8148 7.4202,9.7072 9.5291,13.0942 3.3951,5.4527 4.4239,6.5842 6.3675,7.0027 0.2713,0.058 4.3226,-1.0615 9.0029,-2.4888 l 0,0 z m 114.783,-2.9264 c 1.6336,-2.2788 4.8879,-6.9369 7.2316,-10.3513 2.3438,-3.4145 4.5794,-6.571 4.968,-7.0145 0.3887,-0.4436 0.6814,-1.5513 0.6504,-2.4617 -0.038,-1.1011 0.3758,-1.7443 1.2346,-1.9214 0.7099,-0.1464 1.2988,-0.4633 1.3087,-0.7041 0.01,-0.2409 -2.3653,-3.2129 -5.2783,-6.6047 -2.913,-3.3917 -7.1357,-8.3676 -9.3838,-11.0576 -2.248,-2.69 -4.3585,-4.9051 -4.6899,-4.9225 -0.3315,-0.017 -1.0655,0.6457 -1.6312,1.4734 -0.5657,0.8277 -4.546,5.9541 -8.8451,11.3919 -7.3697,9.3216 -7.7654,9.979 -6.9212,11.4977 1.3379,2.4071 17.6372,24.8416 18.0389,24.829 0.1908,-0.01 1.6836,-1.8753 3.3173,-4.1542 l 0,0 z m 122.7322,0.6688 c 2.1452,-3.2738 4.174,-6.2546 4.5085,-6.6239 0.3346,-0.3693 3.4838,-4.1015 6.9984,-8.2938 3.5146,-4.1923 7.2453,-8.451 8.2905,-9.4638 2.194,-2.1259 2.5205,-3.4422 0.7497,-3.0218 -9.1217,2.1656 -24.676,4.5026 -31.6,4.748 -7.2961,0.2584 -9.0361,0.554 -9.0879,1.5432 -0.027,0.5122 -0.4708,1.0683 -0.9866,1.2358 -1.1755,0.3818 -5.2123,18.726 -4.3561,19.7949 0.7662,0.9565 17.4336,6.1713 19.5055,6.1028 1.8215,-0.06 2.559,-0.8031 5.978,-6.0214 l 0,0 z M 79.668515,201.49431 c -2.862,-2.9504 -6.5395,-6.6468 -8.1722,-8.2143 -2.9736,-2.8549 -9.7882,-11.0452 -11.3701,-13.6654 -1.2584,-2.0846 -4.6029,-1.8807 -11.6771,0.7119 -5.8681,2.1504 -6.1624,2.3565 -5.8796,4.117 1.456,9.0653 2.7167,14.1145 3.638,14.5698 0.5818,0.2875 3.1793,0.7255 5.7722,0.9732 4.1305,0.3946 10.0113,1.7003 27.8481,6.1833 2.4447,0.6144 4.5799,1.0208 4.7447,0.903 0.1649,-0.1177 -2.0419,-2.628 -4.904,-5.5785 l 0,0 z m 380.648405,5.912 c 17.4518,-4.2955 25.2306,-5.8519 28.4654,-5.6955 1.6788,0.081 2.8585,-0.068 2.6215,-0.3309 -0.6506,-0.7226 1.0404,-2.261 2.4065,-2.1894 1.0126,0.053 1.4467,-1.2406 2.7666,-8.2444 0.8611,-4.5691 1.4273,-8.5598 1.2582,-8.8683 -0.2951,-0.5387 -10.8768,-4.7635 -14.759,-5.8926 -1.5732,-0.4576 -1.8885,-0.3202 -1.9498,0.8492 -0.081,1.541 -2.8288,1.9112 -2.8476,0.3836 -0.01,-0.4767 -0.5868,0.1981 -1.291,1.4995 -1.0828,2.001 -4.8092,6.8899 -6.0876,7.9868 -0.2092,0.1796 -2.6896,2.8556 -5.5119,5.9468 -2.8223,3.0911 -5.6474,6.0609 -6.278,6.5994 -2.2192,1.8953 -10.334,10.5439 -9.9138,10.566 0.234,0.012 5.2382,-1.1623 11.1205,-2.6102 l 0,0 z m -188.1396,-11.5551 c 4.2154,-2.9203 12.3468,-10.612 12.8094,-12.1166 0.358,-1.1646 -0.3259,-3.1239 -2.5073,-7.1836 -1.6497,-3.0702 -3.7891,-7.9587 -4.7542,-10.8633 -0.965,-2.9046 -2.7612,-8.1398 -3.9916,-11.6339 -1.2303,-3.494 -2.5272,-8.0049 -2.8819,-10.0241 -0.3547,-2.0191 -0.8608,-3.6825 -1.1247,-3.6963 -0.4425,-0.023 -2.6843,7.4584 -6.8472,22.8514 -1.7905,6.6206 -2.9684,9.6606 -6.5419,16.884 -1.2613,2.5495 -2.0456,4.8849 -1.743,5.1898 1.9283,1.9427 14.7064,11.7793 15.4363,11.8829 0.1295,0.018 1.0953,-0.5623 2.1461,-1.2903 l 0,0 z m 1.7015,-102.453299 c 4.5256,-13.737596 7.2987,-20.879096 9.1478,-23.557396 0.8251,-1.1952 1.1939,-2.1891 0.8195,-2.2088 -0.3744,-0.02 -0.6438,-0.7421 -0.5985,-1.6056 0.061,-1.1708 -1.7838,-3.2258 -7.2564,-8.0816 l -7.3386,-6.5116 -6.6774,6.1389 c -3.6726,3.3763 -7.4302,6.9707 -8.3501,7.9874 l -1.6727,1.8487 2.0491,2.2757 c 2.0287,2.2531 8.2135,16.2067 11.4067,25.734896 2.3048,6.877299 3.3162,8.963799 4.2234,8.713299 0.4303,-0.1188 2.3416,-4.949099 4.2472,-10.733899 l 0,0 z"
     id="path2987"
     inkscape:connector-curvature="0" />
</svg>
