<?xml version="1.0" encoding="UTF-8" standalone="no"?>
<!-- Created with Inkscape (http://www.inkscape.org/) -->

<svg
   xmlns:dc="http://purl.org/dc/elements/1.1/"
   xmlns:cc="http://creativecommons.org/ns#"
   xmlns:rdf="http://www.w3.org/1999/02/22-rdf-syntax-ns#"
   xmlns:svg="http://www.w3.org/2000/svg"
   xmlns="http://www.w3.org/2000/svg"
   xmlns:sodipodi="http://sodipodi.sourceforge.net/DTD/sodipodi-0.dtd"
   xmlns:inkscape="http://www.inkscape.org/namespaces/inkscape"
   id="svg2"
   version="1.1"
   inkscape:version="0.48.5 r10040"
   width="540.03125"
   height="619.9715"
   sodipodi:docname="knights.png">
  <metadata
     id="metadata8">
    <rdf:RDF>
      <cc:Work
         rdf:about="">
        <dc:format>image/svg+xml</dc:format>
        <dc:type
           rdf:resource="http://purl.org/dc/dcmitype/StillImage" />
        <dc:title></dc:title>
      </cc:Work>
    </rdf:RDF>
  </metadata>
  <defs
     id="defs6" />
  <sodipodi:namedview
     pagecolor="#ffffff"
     bordercolor="#666666"
     borderopacity="1"
     objecttolerance="10"
     gridtolerance="10"
     guidetolerance="10"
     inkscape:pageopacity="0"
     inkscape:pageshadow="2"
     inkscape:window-width="1920"
     inkscape:window-height="1178"
     id="namedview4"
     showgrid="false"
     fit-margin-top="0"
     fit-margin-left="0"
     fit-margin-right="0"
     fit-margin-bottom="0"
     inkscape:zoom="0.24370529"
     inkscape:cx="-520.00585"
     inkscape:cy="435.1976"
     inkscape:window-x="-8"
     inkscape:window-y="-8"
     inkscape:window-maximized="1"
     inkscape:current-layer="svg2" />
  <path
     style="fill:none;stroke:#0000ff;stroke-width:0.08755977;stroke-linecap:round;stroke-linejoin:miter;stroke-miterlimit:4;stroke-opacity:1;stroke-dasharray:none"
     d="m 283.18695,5.1267 c 23.8343,15.3274 34.9376,28.5428 39.5465,47.0693 0.5107,2.053 1.7431,4.2447 2.7387,4.8706 3.3053,2.0778 21.088,18.1225 21.0284,18.9734 -0.032,0.4599 -1.5124,1.2158 -3.2895,1.6796 -1.7772,0.4639 -7.038,2.4557 -11.6906,4.4263 l -8.4595,3.5829 -0.699,6.8902 c -0.8064,7.95 -4.1428,14.9332 -10.7704,22.543 -4.4969,5.1636 -11.731,15.2009 -13.7643,19.0982 -4.5304,8.6838 -3.1136,20.648 3.3951,28.67 2.1934,2.7033 4.5579,4.955 5.2546,5.0037 3.172,0.2218 1.9588,2.6335 -3.4146,6.7881 -3.2077,2.4801 -7.1637,6.6699 -8.7911,9.3109 -2.5665,4.1648 -3.0426,5.9611 -3.5889,13.5422 -0.5992,8.3136 -0.4872,8.9917 2.2936,13.8907 3.5749,6.2974 9.8062,11.1348 14.793,11.4835 5.0379,0.3522 11.4955,-2.6694 18.8916,-8.8399 3.4804,-2.9038 6.6188,-5.2592 6.974,-5.2344 0.3553,0.025 0.3205,5.1832 -0.077,11.4632 -0.9657,15.243 -0.1794,18.4037 5.6156,22.5706 3.9938,2.872 5.3545,3.3097 11.0889,3.5669 10.8464,0.4866 18.0529,-3.8252 24.4187,-14.6099 2.7443,-4.6494 3.3648,-6.7319 3.7815,-12.6917 0.2743,-3.9213 0.7193,-7.1142 0.989,-7.0953 0.2697,0.019 2.4952,1.1802 4.9455,2.5809 9.6286,5.504 23.092,3.0435 29.8606,-5.4571 3.723,-4.6757 6.5056,-9.7925 11.3034,-20.7852 4.7929,-10.9817 8.2529,-15.7707 15.2359,-21.0881 l 6.1722,-4.7001 -0.2717,-4.8992 c -0.1494,-2.6946 -0.7169,-8.3529 -1.261,-12.5739 -0.5441,-4.2212 -0.7702,-7.8653 -0.5024,-8.098 0.2678,-0.2328 2.365,0.3941 4.6604,1.3932 2.2954,0.9992 9.1892,3.6658 15.3195,5.9259 10.6661,3.9322 11.3469,4.0638 15.8083,3.0543 8.1122,-1.8355 21.571,-1.3973 28.612,0.9316 9.7838,3.2363 29.2946,11.9837 30.2951,13.5825 0.9332,1.4914 -2.799,24.824 -5.2613,32.892 -2.9006,9.5044 -9.2665,20.2029 -15.2767,25.6741 -2.0939,1.906 -4.4473,10.7108 -7.8369,29.3192 l -1.1825,6.4918 -7.8415,-6.5061 c -12.4879,-10.3614 -12.433,-10.3423 -20.0918,-6.9923 -7.1163,3.1126 -8.007,3.1208 -37.1889,0.335 -10.5506,-1.0071 -12.8892,-0.9456 -16.6234,0.4373 -9.5586,3.5399 -15.2792,11.4065 -16.0223,22.0326 -0.205,2.9325 -0.6088,5.3152 -0.8972,5.2951 -0.2883,-0.02 -2.0893,-0.9598 -4.0022,-2.088 -10.4206,-6.146 -22.91,-6.2977 -32.9879,-0.4007 -4.9891,2.9193 -8.9311,10.048 -9.6106,17.3795 -0.8247,8.8994 2.7213,12.7368 19.2154,20.7947 5.4295,2.6525 9.9951,5.3018 10.1458,5.8872 0.1506,0.5855 -2.1319,2.0766 -5.0725,3.3136 -8.2718,3.4798 -15.2779,7.5251 -20.0005,11.5473 -3.8801,3.3054 -4.3429,4.1411 -4.639,8.3759 -0.4142,5.9229 2.7899,14.0086 7.215,18.2075 4.2909,4.0718 10.2219,6.068 17.7966,5.99 6.205,-0.064 17.3154,-3.36 19.6844,-5.8398 2.1238,-2.2232 2.9091,-1.2337 2.5942,3.2689 -0.7934,11.3459 9.0276,22.56 20.4574,23.3592 5.1574,0.3607 20.3741,-0.9709 27.8582,-2.4377 7.644,-1.4982 14.1188,-0.796 21.5706,2.3391 7.6024,3.1986 6.9983,3.407 18.871,-6.5077 4.3529,-3.6351 8.4017,-6.5751 8.9973,-6.5335 0.919,0.064 1.1762,5.8481 0.3281,7.3789 -0.1535,0.2773 0.1409,0.847 0.6544,1.2659 0.5135,0.4189 2.0209,5.8755 3.3496,12.1258 2.1828,10.2667 2.7954,11.7821 6.3434,15.6917 5.2558,5.7915 12.273,17.5911 14.316,24.0726 1.734,5.5016 4.6854,24.2904 5.1877,33.0261 l 0.2927,5.0905 -4.9075,2.676 c -6.5233,3.5569 -24.0545,10.6314 -31.2111,12.5948 -7.206,1.9769 -22.8498,1.9319 -29.0037,-0.083 -3.8798,-1.2706 -4.9832,-1.245 -9.008,0.2089 -2.5226,0.9113 -4.9419,1.6321 -5.376,1.6017 -0.4343,-0.03 -5.1084,1.6193 -10.387,3.6659 -5.2785,2.0466 -10.034,3.6906 -10.5675,3.6533 -0.9099,-0.064 0.8399,-18.0423 2.0597,-21.1627 1.2057,-3.0844 -0.5021,-6.0735 -5.2684,-9.2209 -6.0497,-3.995 -9.81,-9.079 -13.0183,-17.6016 -6.3746,-16.9332 -12.4519,-27.5374 -17.6345,-30.7699 -5.9417,-3.7061 -16.7693,-4.2207 -23.3771,-1.1111 -2.7066,1.2737 -5.0434,2.3071 -5.1932,2.2967 -0.1496,-0.01 -0.4267,-2.3269 -0.6156,-5.1476 -1.0808,-16.141 -11.1372,-28.869 -23.4799,-29.7177 -6.7666,-0.4653 -11.7663,0.8397 -15.9406,4.1604 -3.5129,2.7946 -3.7254,3.278 -4.6549,10.5837 -0.5973,4.6956 -0.6085,11.2255 -0.029,16.8888 0.5199,5.0784 0.8174,9.3358 0.6614,9.4608 -0.1561,0.1251 -4.4815,-2.5551 -9.6119,-5.956 -12.1121,-8.0289 -17.2732,-10.1032 -22.8525,-9.1845 -7.4159,1.2211 -15.5588,12.3637 -15.3348,20.9839 0.2465,9.4882 6.4139,19.8703 15.2825,25.7267 2.7084,1.7886 4.9015,3.5378 4.8734,3.8872 -0.028,0.3494 -1.633,1.558 -3.5665,2.6858 -9.0104,5.2554 -13.7829,17.6876 -10.3925,27.0725 1.9837,5.4915 7.1004,13.3704 15.7698,24.2832 6.9559,8.756 9.6978,14.6072 10.3499,22.0877 0.2425,2.7811 0.8357,5.5107 1.3184,6.0658 0.4825,0.5551 5.7326,2.8797 11.6668,5.1657 5.9342,2.2859 10.9984,4.3966 11.2537,4.6903 0.2553,0.2938 -5.1068,5.378 -11.9158,11.2983 -11.7178,10.1883 -12.4695,11.0603 -14.0508,16.2993 -2.2733,7.532 -7.9262,17.7718 -12.8753,23.323 -4.5272,5.0778 -23.8819,20.7895 -27.3334,22.1886 -3.9297,1.5929 -28.837,-17.0807 -36.1696,-27.1172 -4.5374,-6.2104 -9.8146,-17.6433 -9.5948,-20.7865 0.052,-0.743 -0.4935,-1.392 -1.212,-1.4423 -0.7185,-0.05 -1.9567,-0.9193 -2.7515,-1.9314 -0.7949,-1.012 -6.0388,-5.4416 -11.6532,-9.8433 -5.6145,-4.4019 -10.184,-8.2213 -10.1545,-8.4876 0.029,-0.2663 5.1425,-2.7897 11.3623,-5.6076 l 11.3086,-5.1233 1.1635,-8.6453 c 1.2389,-9.2061 2.1216,-11.3502 7.9846,-19.3929 16.8403,-23.1015 19.1077,-29.6227 14.5034,-41.7148 -2.0071,-5.2712 -7.9188,-11.2701 -12.21,-12.3899 -1.7594,-0.4591 -3.1557,-1.1123 -3.1028,-1.4514 0.053,-0.3392 2.2276,-1.7854 4.833,-3.2136 17.3658,-9.5207 20.9316,-34.1931 6.4671,-44.7477 -2.3984,-1.75 -5.5419,-3.5456 -6.9854,-3.9902 -3.5842,-1.1037 -11.2102,2.1851 -20.6879,8.922 -4.1256,2.9326 -7.6899,5.1149 -7.9206,4.8496 -0.2306,-0.2654 0.2421,-3.5736 1.0498,-7.3517 1.4625,-6.8381 1.5087,-10.9093 0.2032,-17.9275 -1.3237,-7.1161 -13.8363,-12.3971 -24.4316,-10.3115 -5.4161,1.0661 -12.9477,7.039 -17.2673,13.6938 -2.8368,4.37 -3.2621,5.863 -3.7798,13.2669 l -0.5834,8.3427 -3.7618,-2.0368 c -4.4021,-2.3834 -13.2993,-3.2963 -19.2695,-1.977 -6.8223,1.5075 -13.8601,8.4847 -18.2621,18.1049 -2.0407,4.4598 -4.5325,10.5519 -5.5374,13.5378 -3.4597,10.2809 -8.1511,16.4881 -16.6396,22.0158 l -3.5033,2.2815 0.8684,5.8307 c 0.4776,3.2069 1.4203,9.0537 2.0948,12.9929 0.8868,5.1785 0.9087,7.1399 0.079,7.0819 -0.631,-0.044 -6.4207,-1.9755 -12.866,-4.2919 -15.17985,-5.4555 -17.5891,-6.0456 -20.09486,-4.9218 -4.34063,1.9466 -18.2558,2.9233 -25.62193,1.7983 -7.95762,-1.2152 -24.14032,-7.375 -34.9634,-13.3083 l -6.81514,-3.7361 0.30333,-6.6307 c 1.45397,-31.7845 4.04353,-40.7596 16.1786,-56.0721 4.63346,-5.8467 4.90434,-6.5156 6.68754,-16.5143 1.02213,-5.7313 2.31619,-12.9476 2.87572,-16.0361 l 1.01725,-5.6155 4.14839,3.4876 c 5.5321,4.6511 15.9388,11.7304 17.39319,11.8321 0.64082,0.045 3.3608,-1.0667 6.04455,-2.4698 4.70566,-2.4605 17.13922,-4.4829 19.06164,-3.1006 0.45406,0.3265 7.47782,1.0664 15.60832,1.6442 13.9664,0.9926 15.0774,0.9311 20.1207,-1.1137 2.936,-1.1904 6.9109,-3.7614 8.8331,-5.7133 4.4799,-4.5488 7.7099,-12.5673 7.2309,-17.9506 -0.1963,-2.2054 -0.065,-3.9895 0.2917,-3.9645 0.3567,0.025 2.3125,1.0463 4.3462,2.2698 8.1318,4.8916 22.0279,4.9012 30.6466,0.021 7.9637,-4.5092 12.8324,-14.2777 11.9009,-23.8779 -0.5345,-5.5072 -5.2269,-9.8301 -15.6172,-14.3874 -4.6245,-2.0283 -8.3983,-3.828 -8.3864,-3.9992 0.012,-0.1713 2.8677,-1.4878 6.346,-2.9256 8.1462,-3.3674 16.9899,-10.37 17.3928,-13.772 0.1638,-1.383 0.4172,-3.0554 0.5632,-3.7162 0.5314,-2.4066 -1.6161,-9.9145 -3.9677,-13.8714 -3.4041,-5.7283 -10.0655,-9.4993 -18.906,-10.7027 -7.6367,-1.0394 -13.3369,0.076 -20.012,3.9172 -1.9477,1.1207 -3.816,2.0184 -4.1518,1.9949 -0.3357,-0.024 -0.7187,-2.2913 -0.8509,-5.0398 -0.2379,-4.9416 -3.5274,-13.1355 -6.3183,-15.7381 -0.793,-0.7394 -3.5421,-2.6391 -6.109,-4.2215 -4.4241,-2.7271 -5.1764,-2.8801 -14.4355,-2.9354 -5.3725,-0.032 -13.2721,0.5739 -17.5545,1.3467 -10.39766,1.8763 -20.40526,1.1279 -27.2058,-2.0347 l -5.26894,-2.4503 -4.89082,3.4271 c -2.68986,1.885 -7.34085,5.4198 -10.33549,7.8554 -2.99459,2.4354 -5.57096,4.2411 -5.7252,4.0126 -0.15438,-0.2285 -0.99797,-3.9794 -1.87501,-8.3354 C 22.50297,226.7829 22.57274,226.989 17.23648,220.424 10.48243,212.1147 6.33365,204.3992 4.42058,196.5905 2.48965,188.709 0.49221,172.8829 0.24315,163.493 l -0.18437,-6.9531 5.40778,-2.8338 c 13.4771,-7.0623 24.54559,-11.7776 32.38218,-13.7953 8.79293,-2.2638 20.89292,-2.5376 28.2227,-0.6386 l 5.48405,1.4207 13.79536,-4.9443 c 7.5875,-2.7193 14.5753,-5.1193 15.5287,-5.3333 1.6115,-0.3617 1.625,0.5265 0.1927,12.6354 l -1.5405,13.0242 5.794,4.0989 c 6.7474,4.7735 9.72,9.1323 14.7061,21.5639 7.5226,18.7557 10.0593,22.7706 16.8965,26.7425 4.3176,2.5084 6.6428,3.1984 11.8599,3.5199 5.5557,0.3423 7.2387,0 11.6981,-2.3542 2.8649,-1.5147 5.3983,-2.7407 5.6298,-2.7245 0.2317,0.016 0.2722,2.1598 0.09,4.7638 -0.6808,9.7366 4.6039,20.2383 13.2466,26.3233 4.5693,3.2171 6.0429,3.7347 11.7457,4.1261 7.2066,0.4942 12.2406,-0.8681 16.8091,-4.55 2.9097,-2.3449 2.9156,-2.3683 3.7591,-14.8803 0.4646,-6.8925 1.0011,-12.5207 1.1919,-12.5074 0.191,0.013 3.1462,1.9213 6.5674,4.2399 3.421,2.3185 8.1985,4.8888 10.6164,5.7115 3.9225,1.3348 4.8279,1.3124 8.4033,-0.2073 8.7022,-3.6991 14.3941,-12.5354 14.3582,-22.2901 -0.041,-11.1019 -5.7269,-20.8838 -15.5546,-26.7594 l -4.6599,-2.7859 4.4612,-2.0468 c 6.5109,-2.9873 11.8973,-11.4659 12.6212,-19.8666 0.7679,-8.9119 -2.5549,-15.7645 -17.1029,-35.2722 -5.388,-7.2248 -7.7851,-13.1077 -8.0009,-19.6349 -0.2214,-6.7006 -1.4068,-7.8089 -13.8608,-12.9596 -5.291,-2.1881 -9.5957,-4.3263 -9.566,-4.7513 0.03,-0.425 1.3886,-1.9024 3.0198,-3.2832 18.8532,-15.9581 20.8644,-17.8676 21.6562,-20.5602 1.9872,-6.7573 9.1516,-19.1274 14.2396,-24.5861 5.1126,-5.4852 22.1754,-18.0565 31.0284,-22.8608 l 4.1113,-2.2312 7.8905,5.0743 0,0 z m -14.826,17.3944 c -12.2037,5.6014 -26.1157,17.8591 -22.8964,20.1739 0.8083,0.5812 2.235,0.3931 3.8365,-0.5058 1.4023,-0.7872 5.0495,-2.6339 8.1048,-4.1039 3.0553,-1.47 8.164,-4.1059 11.3526,-5.8577 l 5.7976,-3.1849 5.9807,3.2618 c 3.2893,1.7941 9.4781,5.3041 13.7528,7.8001 8.0421,4.6958 9.9065,5.3446 10.9975,3.8273 1.9141,-2.662 -7.2339,-11.3098 -20.3766,-19.2623 -4.7804,-2.8926 -8.9026,-5.2739 -9.1605,-5.2921 -0.2578,-0.018 -3.5829,1.3966 -7.3889,3.1435 l 0,0 z m -5.4695,34.072 c -6.8002,1.6986 -12.9294,3.576 -13.6204,4.1719 -1.6133,1.3913 -0.4295,8.7191 1.7483,10.8216 0.8263,0.7976 6.3641,3.6836 12.3063,6.4129 l 10.804,4.9627 12.0284,-4.8985 c 6.6156,-2.6942 12.66,-5.4347 13.4321,-6.0901 0.7721,-0.6553 1.5367,-3.0934 1.6993,-5.4178 0.3441,-4.9206 0.6279,-4.7456 -15.9069,-9.8102 -5.5185,-1.6903 -10.0547,-3.111 -10.0803,-3.1571 -0.026,-0.046 -5.6105,1.306 -12.4108,3.0046 z m 23.0113,43.5307 c -6.5179,3.302 -12.0409,5.9903 -12.2732,5.9741 -0.4346,-0.03 -7.5623,-3.796 -16.1857,-8.551 -8.4044,-4.6341 -9.6957,-5.0986 -9.8056,-3.5271 -0.3659,5.2319 6.1077,18.3744 12.7158,25.8157 2.3005,2.5905 6.0783,7.8383 8.3952,11.6618 l 4.2125,6.9519 5.4922,-8.2505 c 3.0206,-4.5379 6.79,-9.4775 8.3764,-10.9771 3.5975,-3.4006 6.9196,-8.7896 9.2295,-14.9715 2.7358,-7.3222 3.4063,-10.0103 2.5125,-10.0728 -0.4504,-0.032 -6.1517,2.6444 -12.6696,5.9465 l 0,0 z m -16.247,48.8864 c -1.7767,3.7678 -5.4501,9.7699 -8.1633,13.3379 -5.9252,7.792 -6.0904,10.0466 -0.9626,13.1313 2.0095,1.2087 5.2986,4.7258 7.3093,7.8156 2.0106,3.0899 3.9319,5.6242 4.2694,5.6318 0.3377,0.01 2.2369,-2.3851 4.2206,-5.3172 2.0322,-3.0035 5.5855,-6.591 8.1391,-8.2172 5.0829,-3.2368 5.5728,-4.5457 2.7821,-7.4316 -2.9875,-3.0894 -9.1753,-13.6116 -11.7655,-20.007 -1.2866,-3.1767 -2.3977,-5.78 -2.4692,-5.785 -0.071,-0.01 -1.5834,3.0737 -3.3599,6.8414 l 0,0 z m 220.4066,11.816 c -0.1929,0.1389 5.2481,3.642 12.0913,7.7846 9.113,5.5165 12.4727,8.0563 12.5562,9.4919 0.063,1.0781 -0.1732,7.0418 -0.5243,13.2528 -0.3512,6.211 -0.2975,11.9246 0.1191,12.697 0.6018,1.1155 0.7852,1.0549 0.8914,-0.2944 0.073,-0.9344 0.4834,-1.6743 0.9107,-1.6445 1.2202,0.085 3.8886,-10.5506 5.2542,-20.942 l 1.245,-9.4746 -5.0589,-2.8856 c -4.676,-2.6672 -10.5337,-5.097 -18.8662,-7.8258 -2.8468,-0.9325 -7.4275,-1.0171 -8.6185,-0.1594 l 0,0 z m -15.7948,14.2906 c 0.027,-0.3912 -1.386,0.9799 -3.1409,3.0469 l -3.1905,3.758 1.2177,9.1369 c 0.6697,5.0253 1.7825,9.5228 2.4729,9.9944 0.6904,0.4716 3.7183,3.0022 6.7287,5.6235 4.5275,3.9423 5.9923,4.7079 8.4747,4.4295 8.6995,-0.9757 9.7319,-3.0255 7.5446,-14.9797 -1.5103,-8.2547 -2.1002,-9.1654 -11.3956,-17.5964 -4.0119,-3.6388 -5.2403,-4.2811 -6.8268,-3.5696 -1.064,0.4772 -1.9122,0.5477 -1.8848,0.1565 z M 37.76054,157.2138 c -4.42335,1.8407 -10.44578,4.9671 -13.38321,6.9476 l -5.34084,3.6009 0.0666,5.4133 c 0.16217,13.1863 2.70042,28.0916 4.61271,27.0869 0.57336,-0.3012 1.35348,0.044 1.73361,0.7677 0.63707,1.2127 2.05576,-25.4463 1.47984,-27.8073 -0.14044,-0.5756 1.41099,-1.9916 3.44764,-3.147 10.85534,-6.1577 21.57377,-13.6227 20.13863,-14.0256 -0.93027,-0.2613 -1.29837,-1.0034 -0.91051,-1.8356 0.87809,-1.8836 -1.64853,-1.2439 -11.84449,2.9991 z m 406.03441,33.2549 c -5.747,6.7536 -9.7577,15.2493 -14.3913,30.4842 -0.5226,1.7183 0.2166,2.1344 6.9113,3.8898 13.0478,3.4214 33.242,3.6796 33.4694,0.4281 0.038,-0.5372 -4.0997,-4.183 -9.194,-8.1018 -5.0942,-3.9187 -9.2351,-7.5138 -9.2018,-7.989 0.1485,-2.1248 -1.566,-20.8244 -1.982,-21.6162 -0.8966,-1.7063 -2.3105,-0.9744 -5.6116,2.9049 l 0,0 z M 57.08405,176.0338 c -8.33727,8.4359 -8.70338,9.1697 -12.16553,24.3845 -1.81723,7.9864 -1.2848,9.0189 5.36787,10.4093 4.47293,0.9348 4.48781,0.9285 13.82128,-5.865 l 9.34357,-6.8008 0.80534,-11.5184 c 0.79852,-11.4183 0.7823,-11.5478 -1.86277,-14.8968 -4.26945,-5.4058 -6.28902,-4.8402 -15.30976,4.2872 l 0,0 z m 37.0594,19.3361 -0.9727,13.9103 -3.9496,2.5824 c -9.9032,6.475 -19.52463,13.2616 -19.60372,13.8279 -0.1643,1.1692 3.21899,2.2128 10.54852,3.2541 6.0397,0.8582 8.9719,0.7062 16.6532,-0.8628 5.1275,-1.0474 12.1424,-2.1369 15.5885,-2.4211 3.4461,-0.2842 6.4752,-0.6989 6.7312,-0.9214 0.256,-0.2226 -0.477,-2.4098 -1.6289,-4.8605 -1.1518,-2.4507 -2.498,-5.3279 -2.9916,-6.3937 -0.4934,-1.0659 -2.5516,-6.2264 -4.5734,-11.4676 -2.6286,-6.8139 -5.0226,-11.0839 -8.401,-14.9842 -2.5986,-3 -5.1079,-5.4814 -5.5762,-5.5142 -0.4684,-0.033 -1.2893,6.2001 -1.8243,13.8508 z m 174.449,17.7414 c -1.3633,2.8571 -4.4034,7.6315 -6.7567,10.6093 l -4.278,5.4144 1.7781,5.0838 c 2.3278,6.6559 9.451,20.124 10.9721,20.7456 1.3146,0.5372 8.8802,-12.555 11.8766,-20.5524 1.8804,-5.0188 1.6255,-6.9746 -1.2699,-9.7405 -1.8372,-1.755 -7.2428,-11.5224 -8.2846,-14.9692 -0.9229,-3.0536 -0.9757,-3.009 -4.0376,3.409 z m 119.0577,19.8088 c -0.6158,0.3514 -1.6064,4.0088 -2.2012,8.1276 -1.0127,7.0141 -0.959,7.4973 0.8491,7.6237 1.0618,0.074 4.0787,1.2428 6.7043,2.5965 4.6429,2.394 4.8137,2.4142 6.2298,0.7371 0.8006,-0.9484 1.5118,-2.5246 1.5802,-3.5027 0.068,-0.978 1.5975,-4.5039 3.3981,-7.8354 l 3.2738,-6.057 -8.3987,-0.9116 c -4.6194,-0.5013 -8.8302,-1.0252 -9.3572,-1.1642 -0.5271,-0.139 -1.4623,0.035 -2.0782,0.386 l 0,0 z m -75.8385,4.1984 c -2.3271,0.6425 -5.4174,1.0853 -6.8672,0.9839 -3.074,-0.2149 -3.1509,-0.095 -10.6818,16.6484 l -5.2759,11.7299 0.7281,6.777 c 0.4005,3.7273 1.0162,6.7971 1.3684,6.8218 0.3522,0.025 3.4055,-0.9364 6.7851,-2.1359 5.9398,-2.1079 6.4333,-2.554 14.7836,-13.3631 7.3376,-9.4983 8.5854,-11.6271 8.2856,-14.1352 -0.194,-1.6239 -0.6328,-3.4116 -0.9751,-3.9723 -0.3424,-0.5608 -1.0388,-3.1351 -1.5479,-5.7206 -0.5091,-2.5855 -1.251,-4.7238 -1.6486,-4.7515 -0.3976,-0.028 -2.627,0.4751 -4.9543,1.1176 l 0,0 z m -166.7963,-8.5292 c -4.5075,0.6023 -9.5752,0.5387 -14.6279,-0.1836 l -7.7312,-1.1052 3.7391,4.0895 c 4.502,4.924 6.4625,8.0421 10.0304,15.9524 3.9229,8.6976 4.2303,8.8621 11.5458,6.1803 3.4076,-1.2491 8.1063,-2.3805 10.4415,-2.514 2.3351,-0.1336 4.4625,-0.4311 4.7274,-0.6614 0.2649,-0.2303 -0.6899,-3.1873 -2.122,-6.571 -1.432,-3.3839 -2.7394,-7.8107 -2.9053,-9.8374 -0.3664,-4.4763 -2.4731,-7.5736 -4.6372,-6.8174 -0.8601,0.3004 -4.6674,0.961 -8.4606,1.4677 l 0,0 z m 79.9946,12.7079 c -2.6565,8.6184 -2.484,9.4807 3.4656,17.3233 3.0104,3.9683 6.649,8.7733 8.0857,10.6777 2.1364,2.8322 10.1356,7.6774 13.0061,7.8781 0.3346,0.023 1.0746,-2.4236 1.6442,-5.4378 1.0118,-5.3531 0.9046,-5.8013 -4.6167,-19.2946 l -5.6526,-13.8143 -5.7636,-1.3257 c -8.2983,-1.909 -8.3564,-1.8862 -10.1687,3.9933 z m 110.0975,24.5357 c -1.4973,1.64 -4.5983,5.8569 -6.8912,9.3709 l -4.1689,6.389 6.7412,-0.2466 c 3.7076,-0.1356 8.718,-0.5953 11.134,-1.0217 4.168,-0.7354 4.5284,-1.0639 7.0396,-6.4173 4.5299,-9.6568 4.7123,-8.8326 -2.1479,-9.7037 -3.3532,-0.4259 -6.7466,-0.9043 -7.5407,-1.0632 -0.7941,-0.1589 -2.6689,1.0528 -4.1661,2.6928 l 0,0 z m -145.7004,-5.8792 -10.0155,-0.1502 3.6069,4.5072 c 1.9839,2.479 4.8216,7.4763 6.306,11.1049 1.7508,4.2795 3.4047,6.828 4.7075,7.2536 4.57,1.4927 24.4067,2.5178 26.5311,1.371 1.0668,-0.5759 0.3789,-2.4163 -3.0843,-8.2531 -2.4514,-4.1317 -6.0968,-9.5396 -8.1007,-12.0177 -3.2527,-4.0222 -3.981,-4.4605 -6.7895,-4.0856 -1.7304,0.2311 -7.653,0.3525 -13.1615,0.2699 l 0,0 z m 141.3768,40.0729 c -12.0232,1.6688 -12.1768,1.7237 -18.6433,6.678 -3.5861,2.7476 -6.5404,5.2849 -6.5651,5.6385 -0.025,0.3535 0.907,1.1603 2.0707,1.7927 1.1636,0.6324 4.0846,2.8836 6.491,5.0028 3.9939,3.5171 4.9455,3.8996 10.9178,4.3881 3.5983,0.2942 10.1815,1.095 14.6293,1.7792 7.9309,1.2201 8.1193,1.1988 9.7643,-1.1029 0.9225,-1.2909 4.0587,-4.5256 6.9695,-7.1883 l 5.2922,-4.8413 -2.2797,-1.7805 c -1.2538,-0.9792 -4.5133,-4.0229 -7.2433,-6.7637 -2.73,-2.7409 -5.9349,-5.0512 -7.122,-5.1343 -1.1872,-0.083 -7.6138,0.6063 -14.2814,1.5317 l 0,0 z m -139.1391,3.1129 c -1.2412,0.8527 -4.0423,3.2763 -6.2246,5.3858 l -3.968,3.8356 4.5496,5.2336 c 5.4775,6.301 6.543,6.4877 23.7362,4.1585 11.3302,-1.535 11.9366,-1.7423 16.3644,-5.5911 l 4.598,-3.9971 -3.7633,-2.7607 c -2.0698,-1.5184 -3.9821,-3.177 -4.2493,-3.6857 -0.2674,-0.5088 -4.738,-1.3021 -9.9347,-1.7631 -5.1967,-0.4608 -9.6299,-1.0464 -9.8515,-1.3013 -1.1015,-1.2672 -9.215,-0.9172 -11.2568,0.4855 l 0,0 z m 132.8172,41.0092 c 1.2331,2.436 9.7891,14.6058 11.2457,15.9956 1.1882,1.1338 2.5684,1.2611 7.182,0.6627 3.141,-0.4072 6.7469,-0.8682 8.013,-1.0243 2.2717,-0.28 2.2814,-0.3199 0.7493,-3.0363 -0.8538,-1.514 -2.4138,-4.8991 -3.4664,-7.5226 l -1.9139,-4.7702 -11.225,-0.7848 c -8.7192,-0.6097 -11.082,-0.5027 -10.5847,0.4799 z m -35.9289,1.3918 c -0.128,1.1988 -0.5023,3.4786 -0.8316,5.066 -0.3294,1.5875 -0.8831,4.2467 -1.2306,5.9093 -0.3475,1.6631 -0.095,3.9162 0.5624,5.0092 0.6569,1.0926 3.1107,6.6005 5.4531,12.2397 4.5097,10.8564 5.7946,12.2087 12.7369,13.4049 1.8566,0.3198 4.852,1.0992 6.6564,1.7318 1.8045,0.6327 3.4125,1.036 3.5734,0.8961 0.6538,-0.5684 4.4265,-13.6996 4.6291,-16.1118 0.2962,-3.5283 -15.257,-25.2635 -18.3095,-25.5869 -1.1539,-0.1224 -4.2272,-1.1817 -6.8294,-2.3541 -6.129,-2.7615 -6.1373,-2.7617 -6.4102,-0.2042 l 0,0 z m -85.854,-3.8667 c -4.7651,0.4353 -9.322,1.2642 -10.1263,1.842 -0.8044,0.5777 -2.0715,2.8123 -2.816,4.9658 -0.7444,2.1534 -2.7971,6.3383 -4.5615,9.2999 -1.7644,2.9617 -3.2185,5.5347 -3.2313,5.7178 -0.065,0.9299 23.0133,0.9932 24.1409,0.066 1.7948,-1.4755 13.3264,-19.4205 13.4297,-20.8991 0.1139,-1.6286 -5.9566,-1.9866 -16.8355,-0.9927 z m 41.6862,6.7723 c -4.528,1.6468 -5.9823,2.8237 -9.1593,7.4119 -2.0772,3 -5.8476,8.2415 -8.3789,11.6478 -2.5312,3.4065 -4.6478,6.8459 -4.7036,7.6434 -0.056,0.7974 0.8392,3.7018 1.9888,6.4541 1.1496,2.7525 2.0412,5.7059 1.9812,6.5632 -0.1596,2.2823 1.4756,2.0467 9.8599,-1.4202 l 7.5383,-3.1173 5.0683,-12.3342 c 5.4218,-13.1939 5.222,-11.7071 3.0863,-22.9655 -0.4231,-2.2295 -0.8484,-2.2227 -7.281,0.1169 l 0,0 z m 150.0941,23.2026 c -1.4785,1.1904 -4.6415,2.5667 -7.0288,3.0586 -5.2396,1.0795 -5.6387,1.5409 -4.4734,5.1715 0.4995,1.5562 0.9976,5.4711 1.1069,8.6998 0.174,5.1404 0.4425,5.8543 2.1596,5.7428 1.0784,-0.07 4.8337,-0.3837 8.3449,-0.6969 3.5113,-0.3132 9.3677,-0.1172 13.0142,0.4356 l 6.63,1.0051 -3.0657,-4.3557 c -6.5583,-9.3179 -9.4381,-14.1775 -10.3951,-17.5417 -1.1721,-4.1199 -2.6262,-4.4711 -6.2926,-1.5191 l 0,0 z m -128.4935,6.9636 c -1.9236,4.0258 -4.1515,9.1259 -4.9511,11.3333 -1.4299,3.9476 -1.3967,4.0919 2.0179,8.7763 1.9095,2.6195 4.3169,6.1243 5.3499,7.7886 l 1.8781,3.0259 3.2201,-4.9602 c 1.7712,-2.7281 4.1426,-6.2886 5.2698,-7.9123 l 2.0496,-2.9521 -3.0582,-7.0063 c -3.256,-7.4597 -7.3121,-15.3455 -7.9146,-15.3877 -0.2004,-0.014 -1.9381,3.2685 -3.8615,7.2945 l 0,0 z m -125.3636,-7.3511 c -0.6859,0.5962 -1.227,0.6683 -1.2025,0.16 0.024,-0.5083 -1.4873,2.7355 -3.3594,7.2085 -1.8722,4.4729 -5.1306,10.5926 -7.2409,13.5993 -2.1104,3.0066 -3.7268,5.5935 -3.5922,5.7485 0.1347,0.1549 2.0039,-0.1003 4.1537,-0.5675 2.1498,-0.4671 8.7189,-0.5448 14.5979,-0.1728 6.7785,0.4289 11.1628,0.2886 11.9835,-0.3835 0.7118,-0.5829 1.4291,-2.9895 1.5941,-5.348 0.1648,-2.3585 1.3516,-6.7679 2.6372,-9.7986 1.2856,-3.0307 2.3435,-5.5972 2.3509,-5.7032 0.01,-0.106 -2.9193,-0.6509 -6.5037,-1.2108 -3.5844,-0.5599 -8.0002,-1.7937 -9.8128,-2.7417 -4.0536,-2.1199 -4.0729,-2.1226 -5.6058,-0.7902 l 0,0 z m 308.039,23.7681 c -3.9443,0.8576 -13.4297,3.3651 -22.8721,6.0466 -0.5827,0.1655 -0.3497,1.9114 0.5619,4.2095 0.8567,2.1595 2.5559,7.9494 3.7759,12.8662 1.22,4.9167 3.5672,11.2489 5.2159,14.0714 3.3515,5.7373 8.1537,11.4043 9.0235,10.6482 0.3132,-0.2723 1.5528,-6.6824 2.7544,-14.2447 l 2.1847,-13.7495 4.0875,-3.1938 c 14.9161,-11.655 18.3013,-14.7709 17.0486,-15.6927 -2.0496,-1.5083 -16.3594,-2.1397 -21.7803,-0.9612 z m 25.9877,24.0394 -7.8953,6.5243 -1.3116,10.025 -1.3116,10.0249 2.9341,3.7532 c 4.2177,5.3952 6.3388,4.9348 15.8644,-3.4431 l 7.9165,-6.9627 1.5663,-7.5255 c 0.8615,-4.139 1.7026,-9.4748 1.8693,-11.8574 0.3455,-4.9419 -1.0583,-6.1466 -7.841,-6.7286 -3.5424,-0.304 -4.6119,0.2574 -11.7911,6.1899 l 0,0 z m 38.9337,16.1433 c 0.8942,16.4122 1.0783,15.6419 -4.6264,19.3583 -2.7821,1.8124 -7.3476,4.333 -10.1457,5.6014 -6.8475,3.104 -12.9874,7.4298 -12.0599,8.4968 0.9172,1.0551 14.1119,-2.1466 21.3351,-5.177 2.8828,-1.2095 6.9708,-3.3753 9.0845,-4.813 3.7212,-2.5311 3.8567,-2.8098 4.2752,-8.7956 0.4325,-6.1856 -1.5053,-16.6982 -5.1777,-28.0875 l -1.751,-5.4303 -0.6939,5.2593 c -0.3817,2.8927 -0.4898,9.0071 -0.2402,13.5876 z M 73.73022,400.054 c -2.60091,0.7296 -4.74247,1.6137 -4.75894,1.9647 -0.0166,0.351 5.32401,3.8749 11.86787,7.8308 l 11.8979,7.1927 0.4354,10.7507 c 0.6635,16.3801 0.8658,17.524 2.8497,16.1154 2.1593,-1.5333 10.2379,-12.4331 11.9145,-16.0754 0.7182,-1.5602 2.2043,-5.5878 3.3025,-8.9502 1.0982,-3.3623 3.3844,-8.5692 5.0804,-11.5709 l 3.0837,-5.4575 -10.7425,-1.1193 C 90.50545,398.8432 78.856,398.6161 73.73022,400.054 l 0,0 z m -30.81001,18.2231 c -1.28428,1.1164 -1.04279,2.8813 1.80323,13.1811 3.06158,11.0797 3.60568,12.2081 7.96448,16.518 9.20407,9.1009 13.94008,13.57 14.41573,13.6033 0.26579,0.018 2.21659,-1.8036 4.33535,-4.0494 l 3.85206,-4.0832 -1.0021,-8.6502 C 72.32741,427.865 73.48628,430.0714 62.33014,422.0276 l -10.01766,-7.2231 -3.95474,1.0918 c -2.17519,0.6005 -4.62199,1.6719 -5.43753,2.3808 l 0,0 z m 225.16664,24.7432 c -0.836,1.33 -3.266,3.6127 -5.3999,5.0727 -2.1338,1.46 -3.9226,3.2688 -3.9752,4.0195 -0.053,0.7508 1.8261,3.81 4.1746,6.7983 2.3485,2.9882 5.1757,7.1571 6.2827,9.2642 l 2.0128,3.831 4.2602,-7.1825 c 2.3431,-3.9504 5.282,-8.1283 6.5309,-9.2843 2.8026,-2.5941 2.3496,-4.3532 -1.716,-6.6647 -1.7253,-0.9811 -4.5747,-3.2081 -6.3318,-4.9491 -1.7572,-1.741 -3.4476,-3.201 -3.7564,-3.2444 -0.309,-0.043 -1.2457,1.0093 -2.0819,2.3393 z M 23.94475,426.9131 c 0.34801,1.1387 -0.0178,1.4488 -1.32951,1.1271 -1.59563,-0.3913 -1.99509,0.5241 -3.37871,7.7429 -1.4176,7.396 -1.65441,16.6956 -0.59534,23.3836 0.39864,2.5179 7.60356,7.5736 11.61892,8.1532 1.03021,0.1487 2.59787,0.9909 3.4835,1.8715 1.45942,1.4512 3.68544,2.3861 13.28871,5.5812 2.87151,0.9554 3.11238,0.8557 3.26669,-1.3519 0.11361,-1.6247 0.53786,-2.1381 1.33282,-1.6129 0.80065,0.5288 0.88462,0.4214 0.26798,-0.3428 -0.49397,-0.6123 -6.09995,-4.2152 -12.45772,-8.0066 -7.54516,-4.4994 -11.76768,-7.615 -12.15878,-8.9715 -0.32962,-1.143 -0.78225,-7.5812 -1.00568,-14.3072 -0.22348,-6.726 -0.79667,-12.8054 -1.27348,-13.5097 -1.18456,-1.7501 -1.63674,-1.6463 -1.05929,0.2431 l 0,0 z m 244.885,67.5615 c -1.6487,2.7528 -8.4281,10.6486 -10.0798,11.7397 -1.414,0.9342 -6.3857,10.1439 -8.3358,15.4414 -1.5692,4.2625 -1.7818,5.7372 -0.9174,6.3588 0.657,0.4724 5.5579,-1.2741 11.7712,-4.1948 l 10.6458,-5.0042 11.6398,4.7341 c 6.4019,2.6038 11.8946,4.752 12.2062,4.7737 1.2741,0.089 0.6581,-3.4869 -1.5044,-8.7331 -1.432,-3.4741 -4.8484,-8.4025 -9.088,-13.1069 -3.7363,-4.1467 -8.1877,-9.2062 -9.8922,-11.2432 -1.7044,-2.037 -3.4417,-3.7277 -3.8605,-3.757 -0.4187,-0.029 -1.5819,1.3169 -2.585,2.9915 l 0,0 z m -5.8091,49.8205 c -7.7086,3.4458 -8.9851,4.3629 -9.5952,6.8934 -0.387,1.6054 -1.027,3.5925 -1.4221,4.4158 -0.3972,0.8277 -0.01,2.5039 0.8749,3.749 2.2402,3.1665 18.6952,7.7348 23.3242,6.4755 7.2508,-1.9725 16.8351,-6.4485 17.3116,-8.0847 0.2762,-0.9489 -0.128,-3.5957 -0.8981,-5.8818 -0.7702,-2.2861 -1.1237,-4.3971 -0.7854,-4.6911 0.3383,-0.2941 -0.2226,-0.5957 -1.2463,-0.6703 -1.0237,-0.075 -5.0662,-1.4118 -8.9834,-2.9716 -3.9172,-1.5597 -7.6996,-2.9198 -8.4054,-3.0223 -0.7059,-0.1026 -5.2845,1.602 -10.1748,3.7881 l 0,0 z m 26.1141,38.0564 c -4.4788,2.6339 -9.8204,5.9516 -11.87,7.3728 l -3.7269,2.5839 -5.9388,-3.5381 c -3.2663,-1.9459 -9.0189,-5.2104 -12.7835,-7.2543 -6.719,-3.6481 -6.847,-3.6772 -6.9694,-1.5845 -0.1571,2.684 8.6178,10.4787 18.7441,16.6503 l 7.2404,4.4127 3.2298,-1.913 c 5.6782,-3.3632 21.6308,-17.8554 21.2014,-19.2604 -0.2243,-0.7341 0.143,-1.8533 0.8165,-2.4872 1.8167,-1.7102 -0.4369,-0.5729 -9.9436,5.0178 l 0,0 z"
     id="path3757"
     inkscape:connector-curvature="0" />
</svg>
