<?xml version="1.0" encoding="UTF-8" standalone="no"?>
<!-- Created with Inkscape (http://www.inkscape.org/) -->

<svg
   xmlns:dc="http://purl.org/dc/elements/1.1/"
   xmlns:cc="http://creativecommons.org/ns#"
   xmlns:rdf="http://www.w3.org/1999/02/22-rdf-syntax-ns#"
   xmlns:svg="http://www.w3.org/2000/svg"
   xmlns="http://www.w3.org/2000/svg"
   xmlns:sodipodi="http://sodipodi.sourceforge.net/DTD/sodipodi-0.dtd"
   xmlns:inkscape="http://www.inkscape.org/namespaces/inkscape"
   id="svg3901"
   version="1.1"
   inkscape:version="0.48.5 r10040"
   width="2550"
   height="2938"
   sodipodi:docname="lily snowflake.png">
  <metadata
     id="metadata3907">
    <rdf:RDF>
      <cc:Work
         rdf:about="">
        <dc:format>image/svg+xml</dc:format>
        <dc:type
           rdf:resource="http://purl.org/dc/dcmitype/StillImage" />
        <dc:title></dc:title>
      </cc:Work>
    </rdf:RDF>
  </metadata>
  <defs
     id="defs3905" />
  <sodipodi:namedview
     pagecolor="#ffffff"
     bordercolor="#666666"
     borderopacity="1"
     objecttolerance="10"
     gridtolerance="10"
     guidetolerance="10"
     inkscape:pageopacity="0"
     inkscape:pageshadow="2"
     inkscape:window-width="1920"
     inkscape:window-height="1178"
     id="namedview3903"
     showgrid="false"
     inkscape:zoom="0.22719837"
     inkscape:cx="1370.0798"
     inkscape:cy="1313.9705"
     inkscape:window-x="-8"
     inkscape:window-y="-8"
     inkscape:window-maximized="1"
     inkscape:current-layer="svg3901" />
  <path
     style="fill:none;stroke:#0000ff;stroke-width:0.08815902;stroke-linecap:butt;stroke-linejoin:miter;stroke-miterlimit:4;stroke-opacity:1;stroke-dasharray:none"
     d="m 1261.3755,1749.8498 c -1.1094,-1.5672 -6.2969,-10.0886 -11.5279,-18.9367 -5.2309,-8.848 -12.0431,-20.0882 -15.1381,-24.9783 -3.0951,-4.8901 -6.2524,-10.3415 -7.0161,-12.1142 -1.6218,-3.7639 -8.7057,-7.5245 -20.3894,-10.8239 -3.9853,-1.1255 -8.8653,-3.1178 -10.8443,-4.4275 -4.67,-3.0904 -6.3597,-2.6794 -17.1732,4.1782 l -8.8159,5.5907 -0.1399,5.1055 c -0.2139,7.8028 -2.9631,9.7462 -9.2144,6.5136 -2.4811,-1.2831 -2.89,-2.0578 -2.89,-5.4754 0,-3.8941 2.6338,-7.6033 5.4611,-7.6908 0.6949,-0.021 1.0281,-4.0151 0.9796,-11.7388 -0.069,-10.9072 -0.2142,-11.7704 -2.1326,-12.647 -1.1324,-0.5174 -4.4963,-2.926 -7.4753,-5.3525 -4.8443,-3.9456 -18.8985,-11.3749 -21.7042,-11.4732 -0.5976,-0.021 -5.3826,2.0729 -10.6333,4.6529 -9.4741,4.6551 -9.5469,4.7181 -9.5506,8.2674 0,3.0583 -0.5086,3.8744 -3.4881,5.6323 -4.3805,2.5846 -4.2887,2.5918 -8.0675,-0.6378 -4.0006,-3.4193 -3.4552,-6.0141 1.8962,-9.0217 2.1454,-1.2058 4.3044,-3.2543 4.798,-4.5524 0.4935,-1.298 1.017,-6.9153 1.1632,-12.483 0.2938,-11.1792 -0.1355,-12.3062 -5.6929,-14.9433 -1.7821,-0.8457 -5.2882,-3.7271 -7.7914,-6.4032 -5.6828,-6.0755 -15.9059,-13.596 -17.5987,-12.9464 -0.6995,0.2684 -3.7133,0.037 -6.6975,-0.515 -8.3177,-1.5376 -28.4793,-2.5634 -49.7944,-2.5335 -13.2011,0.018 -19.0643,-0.2961 -18.6113,-0.9987 0.3638,-0.5642 4.5184,-6.872 9.2324,-14.0173 4.7141,-7.1454 8.5711,-13.4181 8.5711,-13.9394 0,-0.5213 0.3893,-0.9478 0.8653,-0.9478 0.4759,0 1.1243,-0.7714 1.4408,-1.7142 0.3166,-0.9428 1.1394,-2.585 1.8285,-3.6494 4.1416,-6.3972 7.7703,-12.8915 11.8302,-21.1724 4.3348,-8.8417 4.6056,-9.8603 4.6056,-17.3232 0,-4.361 -0.4837,-9.17 -1.0749,-10.6866 -0.5912,-1.5167 -1.2499,-6.4668 -1.4637,-11.0003 -0.2782,-5.8984 -0.8532,-8.756 -2.0217,-10.0471 -2.2236,-2.4571 -17.3288,-10.6067 -19.6593,-10.6067 -1.0331,0 -3.5884,0.8318 -5.6784,1.8484 -5.5104,2.6803 -8.3043,1.2426 -8.3043,-4.2731 0,-3.6954 0.3188,-4.2213 3.4697,-5.7238 3.1912,-1.5218 3.7114,-1.5296 6.4815,-0.097 3.7933,1.9616 4.7875,1.6808 14.4954,-4.0939 5.0684,-3.0148 8.0786,-5.449 8.3145,-6.7232 1.5177,-8.1999 2.1987,-18.0628 1.7784,-25.7553 -0.4784,-8.754 -0.604,-9.1569 -3.664,-11.7546 -5.7484,-4.8799 -7.3804,-6.1178 -8.1122,-6.1535 -0.3979,-0.019 -1.9846,-1.0667 -3.5259,-2.3274 -2.6762,-2.1889 -2.9712,-2.2258 -6.5521,-0.8192 -3.47,1.3631 -3.9917,1.332 -6.9931,-0.4159 -4.8825,-2.8436 -5.059,-10.087 -0.2985,-12.256 2.0471,-0.9327 2.9724,-0.6978 6.2793,1.5938 4.6629,3.2314 6.8887,2.9532 17.1587,-2.1447 9.6095,-4.7701 10.3501,-5.5618 10.3501,-11.063 0,-2.5489 1.0633,-7.8804 2.3629,-11.8476 1.2996,-3.9672 2.6499,-10.1217 3.0007,-13.6767 0.5869,-5.9474 0.4133,-6.8469 -2.1745,-11.2647 -1.5468,-2.6407 -3.5147,-6.5644 -4.3731,-8.7194 -1.7547,-4.4051 -7.9778,-17.7626 -16.4288,-35.2636 -3.1219,-6.465 -5.3802,-12.078 -5.0185,-12.4733 0.3617,-0.3953 10.3403,-1.1696 22.1746,-1.7206 49.2485,-2.293 47.3712,-2.1387 49.6056,-4.0766 1.148,-0.9956 2.3504,-1.8115 2.672,-1.813 0.3216,0 4.4972,-3.7538 9.2789,-8.3384 4.7818,-4.5845 9.7202,-8.5931 10.9741,-8.9078 2.7645,-0.6938 3.6224,-5.196 2.9658,-15.5658 -0.6459,-10.201 -0.8003,-10.5507 -5.8396,-13.2238 -4.0828,-2.1658 -4.5843,-2.7849 -4.3384,-5.3562 0.1944,-2.0329 1.2655,-3.5705 3.5608,-5.1119 l 3.2828,-2.2045 3.687,1.8809 c 2.7315,1.3935 3.847,2.6809 4.3043,4.9676 0.3396,1.6977 0.3754,3.4781 0.08,3.9566 -0.2957,0.4784 1.1388,1.6453 3.1878,2.5931 2.0491,0.9478 3.946,1.971 4.2153,2.2739 0.7293,0.8199 11.8244,5.168 13.1009,5.1342 0.6064,-0.016 3.5269,-1.1398 6.49,-2.4972 2.9631,-1.3574 6.4727,-2.7995 7.7991,-3.2046 1.3264,-0.4051 5.0806,-2.771 8.3427,-5.2576 3.2621,-2.4865 6.9244,-5.1821 8.1385,-5.9902 2.0125,-1.3396 2.2578,-2.4639 2.7786,-12.7341 l 0.5712,-11.2648 -3.5298,-1.8684 c -3.1789,-1.6827 -3.5299,-2.2693 -3.5299,-5.8994 0,-3.6044 0.3639,-4.2269 3.4389,-5.8829 2.9829,-1.6064 3.7623,-1.6789 5.8773,-0.547 2.1691,1.1608 2.4384,1.9341 2.4384,7.0028 0,5.6356 0.045,5.7267 4.163,8.3417 2.2897,1.4541 6.0704,3.8572 8.4016,5.3401 6.6377,4.2225 9.1439,4.4008 15.1,1.0746 2.8326,-1.5819 7.3541,-3.4267 10.0478,-4.0994 8.1808,-2.0432 18.692,-7.8091 20.4668,-11.227 0.8597,-1.6555 3.3315,-5.4344 5.4927,-8.3975 2.1613,-2.9632 5.7565,-8.6935 7.9892,-12.7341 2.2327,-4.0406 4.6193,-8.0078 5.3036,-8.8159 2.6059,-3.0776 15.666,-30.3497 17.5665,-36.6824 1.2866,-4.2868 3.4429,-5.9823 2.706,-2.1276 -0.5694,2.9786 3.5802,16.0328 7.9033,24.863 6.7274,13.7409 14.8096,28.4317 19.8817,36.1381 2.8915,4.3933 5.2572,8.6821 5.2572,9.5307 0,0.8486 1.8734,2.4848 4.1631,3.636 2.2897,1.1512 4.8242,2.6434 5.6324,3.316 0.8081,0.6726 4.7752,2.1997 8.8159,3.3935 7.8634,2.3233 15.6727,6.3279 15.6727,8.0369 0,1.8692 4.8447,-0.079 13.8726,-5.5792 4.8238,-2.9388 9.1857,-5.3432 9.6933,-5.3432 0.8993,0 1.2881,-4.2264 0.9574,-10.4078 -0.1362,-2.5464 0.2669,-3.1692 2.3973,-3.7039 1.4398,-0.3614 3.7194,-0.09 5.2071,0.62 2.2335,1.0659 2.6922,1.9744 2.9413,5.826 0.26,4.0183 0.026,4.6545 -1.9591,5.3289 -1.2398,0.4212 -2.5849,0.6785 -2.9889,0.5717 -0.9498,-0.2508 -0.9853,0.1459 -1.2323,13.769 l -0.2087,11.5142 3.5367,2.1626 c 1.9451,1.1894 5.7406,4.2101 8.4344,6.7127 2.6937,2.5026 6.2201,4.8603 7.8363,5.2393 1.6163,0.3791 6.0755,2.2284 9.9093,4.1097 l 6.9707,3.4205 9.5985,-3.936 c 5.2792,-2.1648 10.0459,-4.3834 10.5927,-4.9302 0.5468,-0.5468 1.2454,-2.8086 1.5524,-5.0262 0.5038,-3.6386 0.9342,-4.1609 4.4116,-5.3534 4.1086,-1.409 4.3148,-1.3613 8.9664,2.0729 2.5033,1.8481 2.9481,2.7527 2.5815,5.2503 -0.425,2.896 -2.3288,4.3525 -8.1576,6.2411 -1.8266,0.5919 -2.6055,4.3956 -3.4766,16.9767 -0.5953,8.5993 -0.5359,8.9767 1.5161,9.628 2.446,0.7764 12.6389,10.4624 15.2391,14.4814 0.9585,1.4816 2.2936,2.6938 2.9667,2.6938 0.6732,0 2.7162,1.3153 4.5402,2.923 3.0369,2.6767 3.9257,2.9243 10.5518,2.9386 3.9796,0.01 11.0323,0.4585 15.6727,0.9997 4.6405,0.5412 16.1511,1.8859 25.5792,2.9881 9.4281,1.1022 17.558,2.4197 18.0664,2.9279 0.5793,0.579 -3.5341,9.8486 -11.0199,24.8336 -6.5693,13.1504 -11.9442,24.172 -11.9442,24.4926 0,0.3205 -1.5747,2.7746 -3.4992,5.4534 -3.3961,4.7271 -3.4862,5.0808 -3.0573,12.0017 0.243,3.9221 1.2137,9.335 2.1569,12.0288 0.9512,2.7163 1.7676,8.0591 1.8329,11.9957 0.078,4.6852 0.5063,7.0992 1.2606,7.1017 0.6286,0 1.2898,0.4025 1.4694,0.89 0.1795,0.4875 4.4912,3.1438 9.5815,5.903 l 9.255,5.0166 4.4894,-2.7908 c 7.0557,-4.3861 10.7437,-2.2542 10.7815,6.2324 0.011,2.4585 -0.6528,3.3753 -3.6599,5.0559 l -3.6733,2.0527 -3.7639,-1.9422 c -3.2501,-1.6772 -3.9854,-1.756 -5.3875,-0.5774 -0.893,0.7507 -5.0238,3.4483 -9.1796,5.9946 -6.4764,3.9682 -7.62,5.0778 -8.0035,7.7658 -0.2462,1.7248 -0.9875,6.0012 -1.6474,9.5031 -1.3565,7.1979 -1.383,8.6776 -0.3818,21.3051 0.3951,4.9834 1.0883,9.0608 1.5404,9.0608 0.4521,0 4.7823,2.6985 9.6227,5.9967 l 8.8007,5.9968 3.1632,-2.0027 c 3.1468,-1.9925 3.1824,-1.993 6.8937,-0.1 3.3823,1.7256 3.7305,2.269 3.7305,5.8225 0,3.2026 -0.4364,4.1181 -2.3864,5.0066 -2.5106,1.1439 -3.0111,1.0141 -8.1914,-2.124 -3.8787,-2.3497 -5.4986,-2.0404 -15.1153,2.8865 -12.0505,6.1737 -11.5296,5.6115 -11.5296,12.444 0,3.3155 -0.8369,8.8296 -1.8598,12.2536 -2.6248,8.7859 -3.5579,21.1477 -1.7538,23.2339 0.7623,0.8815 3.4421,6.1305 5.9552,11.6644 7.6033,16.7429 21.1805,39.6568 29.3822,49.5877 l 3.96,4.7949 -2.9039,-0.5467 c -18.6796,-3.5168 -22.9343,-3.8899 -49.7094,-4.3588 l -28.1942,-0.4939 -3.8649,2.5577 c -2.1257,1.4067 -4.2049,2.5682 -4.6205,2.581 -0.4156,0.013 -3.8228,2.8781 -7.5715,6.3671 -3.7487,3.489 -7.3176,6.3436 -7.9308,6.3436 -0.6131,0 -2.4509,0.6665 -4.0839,1.4812 -3.6181,1.8049 -4.1888,4.1417 -4.1888,17.1511 l 0,9.5715 3.4625,3.0402 c 1.9044,1.672 4.1084,3.0401 4.8978,3.0401 0.9146,0 1.4322,0.977 1.4271,2.6937 -0.01,2.1182 -0.8212,3.1351 -3.814,4.7593 l -3.8058,2.0655 -3.0429,-2.3814 c -2.4596,-1.925 -3.0428,-3.1003 -3.0428,-6.1318 0,-4.1333 -0.6001,-4.6449 -13.5811,-11.5775 l -6.2344,-3.3296 -7.6745,3.0327 c -4.221,1.668 -8.1438,3.0327 -8.7175,3.0327 -0.5736,0 -3.3936,1.8734 -6.2666,4.1631 -2.873,2.2897 -6.5463,4.8754 -8.1629,5.746 -3.3864,1.8236 -4.8228,6.1783 -5.7467,17.4212 -0.5637,6.8596 -0.5283,6.9974 2.4377,9.4932 2.5062,2.1088 3.0096,3.2416 3.0096,6.7723 0,4.107 -0.1347,4.2913 -4.3014,5.8826 -4.0211,1.5357 -4.4643,1.536 -6.8016,0 -2.2808,-1.4945 -2.4499,-2.0626 -1.9274,-6.4745 0.462,-3.901 0.2146,-5.2352 -1.2796,-6.8994 -2.0024,-2.2305 -12.5561,-9.6617 -13.721,-9.6617 -0.3912,0 -1.5261,-0.7374 -2.5221,-1.6387 -1.6976,-1.5364 -2.039,-1.5128 -5.4646,0.377 -3.4605,1.9092 -14.8139,5.1799 -17.9807,5.1799 -0.8072,0 -3.2923,0.8816 -5.5225,1.9591 -2.2301,1.0775 -4.7073,1.9591 -5.5048,1.9591 -0.7974,0 -2.2513,1.214 -3.2308,2.6979 -3.0086,4.5579 -4.2149,6.5466 -4.8992,8.0771 -0.3614,0.8081 -0.9349,1.6897 -1.2746,1.9591 -1.6131,1.2792 -32.5342,44.699 -33.387,46.8823 -0.4172,1.0681 -1.0639,0.7106 -2.5742,-1.4228 l 0,0 z m 7.9108,-30.5215 c 5.5954,-8.7046 12.0365,-19.3289 16.2808,-26.8545 3.5868,-6.3596 2.9733,-5.9358 15.6727,-10.8284 13.5546,-5.222 21.8903,-9.2958 22.1084,-10.8046 0.1363,-0.9428 -0.044,-1.7156 -0.4002,-1.7174 -1.6604,-0.01 -37.406,-6.926 -39.1801,-7.5823 -1.1063,-0.4092 -5.0961,-3.7186 -8.8661,-7.3542 -3.7702,-3.6357 -7.3893,-6.6102 -8.0426,-6.6102 -1.3513,0 -5.4467,3.0033 -11.1682,8.1902 -4.3929,3.9824 -7.6833,5.1053 -17.6318,6.0174 -3.7713,0.3458 -9.2812,1.0044 -12.2443,1.4636 -2.9631,0.4593 -7.928,1.1208 -11.0331,1.47 -3.1051,0.3491 -5.3933,1.0432 -5.0848,1.5422 0.3084,0.4991 0.094,0.9074 -0.4766,0.9074 -2.0253,0 -0.9968,1.7841 1.6564,2.8732 1.4816,0.6082 3.7329,1.7073 5.0029,2.4426 1.27,0.7352 7.6615,3.8834 14.2034,6.9959 l 11.8943,5.6591 10.0706,20.4009 c 6.3716,12.9076 10.6065,20.401 11.5294,20.401 0.8023,0 3.3714,-2.9753 5.7089,-6.6119 l 0,0 z m 42.9523,-75.5218 c 3.7463,-0.9352 19.9482,-10.1599 24.2883,-13.8287 7.3632,-6.2243 15.0685,-14.8613 17.2695,-19.3576 l 2.507,-5.1213 7.1219,0.602 c 6.764,0.5718 19.2922,-0.9373 21.5656,-2.5977 0.5387,-0.3935 2.2866,-1.0289 3.8842,-1.4119 1.5976,-0.383 4.6831,-1.5046 6.8568,-2.4924 2.1737,-0.9878 6.5609,-2.9477 9.7493,-4.3553 5.6696,-2.5031 15.2688,-11.0584 15.2582,-13.5989 0,-0.6418 -1.046,-2.4681 -2.3186,-4.0586 l -2.3138,-2.8917 -2.7118,1.9122 c -6.4144,4.5228 -11.9869,7.1279 -15.4253,7.2109 l -3.6733,0.089 0,-5.3254 c 0,-2.929 0.8683,-8.9608 1.9295,-13.404 1.4149,-5.9241 1.6442,-8.4224 0.8596,-9.3677 -1.8193,-2.1921 -3.4407,-1.4631 -7.4809,3.3637 -4.6794,5.5904 -6.604,9.9297 -7.5366,16.9924 -0.8631,6.5361 -3.386,12.4197 -6.586,15.3589 -2.0859,1.9159 -3.9911,2.3432 -13.5174,3.0316 -12.5072,0.9038 -10.2051,-0.4889 -22.1464,13.3987 l -5.0112,5.828 -5.4896,-0.051 c -4.3257,-0.04 -6.9058,-0.791 -12.1692,-3.5403 -6.0782,-3.175 -7.4727,-3.5052 -15.4902,-3.6674 -7.955,-0.1609 -8.8239,0 -8.9477,1.6425 -0.1337,1.7747 3.5633,4.1556 10.9782,7.0702 3.645,1.4327 13.2349,7.7124 13.1929,8.639 -0.017,0.3753 -1.0676,1.8593 -2.3346,3.2979 -2.4812,2.8171 -7.6154,5.6925 -13.6527,7.6462 -3.5033,1.1337 -3.7316,1.4329 -3.1835,4.1732 0.3247,1.6235 0.5904,3.82 0.5904,4.8809 0,1.7429 0.4962,1.8767 5.1426,1.387 2.8284,-0.298 6.7861,-0.9523 8.7948,-1.4537 l 0,-10e-5 z m -76.4901,-4.4725 c 0.417,-1.5703 1.3132,-3.1981 1.9914,-3.6172 0.8106,-0.501 -0.4336,-1.4521 -3.6318,-2.7761 -2.6756,-1.1077 -5.526,-2.4617 -6.3341,-3.0088 -0.8081,-0.5472 -2.5713,-1.4361 -3.9182,-1.9753 -1.3469,-0.5391 -3.245,-2.3748 -4.2181,-4.0792 -1.7058,-2.9879 -1.7058,-3.1359 0,-4.1355 0.9731,-0.5702 2.6508,-1.5602 3.7283,-2.2 2.7142,-1.6116 10.5657,-5.3653 11.7546,-5.6198 4.8867,-1.0458 8.0812,-3.0487 8.0812,-5.0668 0,-2.7269 -1.9442,-3.327 -10.8377,-3.3448 -4.9929,-0.01 -7.9748,0.5813 -11.8344,2.3468 -12.6558,5.7888 -17.9544,5.7315 -23.3608,-0.2526 -1.8456,-2.043 -4.3433,-5.4716 -5.5503,-7.6192 -2.9739,-5.2914 -4.6606,-6.144 -15.3223,-7.7444 -9.7042,-1.4568 -12.093,-2.4227 -14.1542,-5.7231 -1.7747,-2.8417 -3.8903,-11.1887 -3.9042,-15.4036 -0.01,-1.94 -0.5283,-5.0255 -1.1598,-6.8568 -1.3289,-3.8538 -7.5778,-13.6149 -8.716,-13.6149 -1.8973,0 -3.7573,3.175 -3.3217,5.6702 1.2962,7.4261 2.049,14.7706 1.8285,17.8388 -0.1355,1.8856 -0.2803,4.1406 -0.3217,5.0111 -0.1297,2.7214 -6.988,0.6592 -14.3369,-4.3107 l -6.6585,-4.5031 -2.7639,1.9681 c -2.9513,2.1015 -3.53,4.8733 -1.5394,7.3733 5.1545,6.4735 9.2598,9.4147 21.3996,15.3312 14.7937,7.2099 25.4534,10.1277 33.2311,9.0959 l 4.7618,-0.6317 1.9738,4.4619 c 2.0039,4.5302 7.2968,11.7134 11.9081,16.1608 4.6832,4.5168 9.9235,8.8159 10.746,8.8159 0.4483,0 1.3976,0.5666 2.1096,1.2592 6.436,6.2613 16.3927,10.5298 23.7587,10.1856 3.3664,-0.1573 3.9487,-0.5406 4.6113,-3.0352 l 0,0 z m 53.8723,-6.9199 c 1.4062,-0.5571 1.2072,-1.4529 -1.6082,-7.2378 -3.0845,-6.338 -3.4619,-6.7071 -9.4411,-9.2327 -8.9674,-3.7877 -11.6535,-4.1008 -18.1669,-2.1179 -3.1312,0.9533 -6.1119,2.1049 -6.6237,2.5591 -0.5118,0.4543 -1.724,0.826 -2.6938,0.826 -0.9697,0 -1.7632,0.4495 -1.7632,0.999 0,0.5494 -1.0375,2.6432 -2.3057,4.6528 -1.2682,2.0096 -2.6126,4.6215 -2.9876,5.8043 -0.6027,1.9004 -0.2493,2.2203 3.0404,2.7524 2.0472,0.3312 5.2651,1.0027 7.1507,1.4924 3.6955,0.9596 32.7521,0.5511 35.3991,-0.4976 l 0,0 z m 143.7419,-20.252 c 3.8479,-2.291 9.3192,-5.7592 20.5863,-13.0494 l 7.2468,-4.6889 7.9361,0.6308 c 4.3649,0.3469 14.4329,1.3649 22.3733,2.2622 7.9404,0.8973 14.7055,1.3631 15.0335,1.0351 0.7093,-0.7093 -2.615,-6.6093 -3.7239,-6.6093 -0.4226,0 -0.7683,-0.595 -0.7683,-1.3223 0,-0.7273 -1.3557,-3.1939 -3.0126,-5.4812 -1.657,-2.2873 -5.8899,-8.8136 -9.4065,-14.5029 l -6.3939,-10.344 0.6528,-7.439 c 0.3591,-4.0914 1.2861,-12.7153 2.0599,-19.1642 0.7739,-6.4489 1.4071,-11.7816 1.4071,-11.8504 0,-0.069 -1.2521,-0.1607 -2.7824,-0.2042 -2.2956,-0.065 -3.8063,1.151 -8.6355,6.9527 -3.2192,3.8674 -7.1444,8.7949 -8.7226,10.9499 -4.9542,6.7647 -11.2719,13.0283 -13.7747,13.6564 -1.3242,0.3324 -4.7349,1.475 -7.5791,2.5392 l -5.1715,1.9349 0.7319,5.1381 c 1.4715,10.3314 1.0717,13.248 -2.9667,21.642 -5.3106,11.0381 -12.8107,27.2541 -12.8107,27.6981 0,0.202 0.6612,0.3674 1.4693,0.3674 0.8081,0 1.4693,0.4407 1.4693,0.9795 0,1.4227 0.8188,1.2292 4.7821,-1.1305 l 0,0 z m -322.362,-6.5569 c 0.9788,-0.621 0.2649,-3.5295 -3.1821,-12.964 -2.4442,-6.6898 -4.8684,-13.0449 -5.3871,-14.1224 -0.5188,-1.0775 -1.6813,-4.3015 -2.5835,-7.1643 -1.4377,-4.5621 -1.4858,-6.0749 -0.3895,-12.2443 2.5358,-14.2703 3.2418,-12.4614 -6.3601,-16.2957 -8.9028,-3.5552 -11.9096,-5.8693 -15.9733,-12.2934 -6.14,-9.7064 -18.7685,-26.017 -18.7945,-24.2745 -0.01,0.6565 -0.679,0.94 -1.4872,0.6299 -1.8439,-0.7077 -1.8946,2.5144 -0.356,22.665 l 1.1219,14.6932 -10.6682,15.4593 c -12.1822,17.6535 -16.3381,24.2562 -15.6809,24.9135 0.4528,0.4528 44.9665,0.473 46.5558,0.021 0.4498,-0.1279 4.0234,2.1919 7.9413,5.155 23.3253,17.6409 22.8478,17.3416 25.2434,15.8216 l 0,10e-5 z m 210.7198,-4.4487 c 1.4789,-1.7821 3.7639,-13.035 4.3784,-21.5627 0.2861,-3.9699 1.0179,-7.1318 1.7726,-7.6586 0.7883,-0.5504 -3.0705,-0.6492 -9.9794,-0.2557 -17.0215,0.9695 -26.7004,2.243 -27.6087,3.6325 -1.3173,2.0156 -2.0697,5.6906 -1.3176,6.4359 0.3824,0.379 5.9453,0.6795 12.3619,0.6679 l 11.6666,-0.021 0,9.4998 c 0,8.2238 0.2303,9.5601 1.7143,9.9478 3.4128,0.8919 5.9047,0.6482 7.0119,-0.6858 z m -97.6553,-11.1281 c 0.2796,-9.5233 0.2874,-9.5499 2.7292,-9.3412 1.3469,0.1151 7.0173,0.5149 12.6009,0.8885 l 10.1519,0.6793 -0.6745,-3.3375 c -0.371,-1.8355 -0.8683,-4.0351 -1.1052,-4.8879 -0.4073,-1.4663 -9.9278,-3.1095 -32.1359,-5.5465 l -4.7958,-0.5263 0.7072,10.1787 c 1.5157,21.8175 1.3867,21.4435 7.3983,21.4435 l 4.8435,0 0.2804,-9.5506 0,0 z m 151.5401,-17.2576 c 2.3716,-3.8373 2.594,-6.0738 0.6772,-6.8093 -0.749,-0.2874 -4.2684,-2.6136 -7.8209,-5.1691 l -6.4591,-4.6466 4.734,-5.0055 c 4.6967,-4.966 9.9283,-12.4106 9.9283,-14.1279 0,-0.9276 -1.5793,-1.7312 -6.0391,-3.0727 -2.3975,-0.7212 -3.1573,-0.1437 -9.3057,7.0738 -3.6822,4.3226 -7.5156,8.7993 -8.5186,9.9482 -1.0029,1.1489 -3.4048,4.0044 -5.3374,6.3457 l -3.5138,4.2568 2.3988,1.8443 c 5.4445,4.1861 22.6152,12.4976 26.0728,12.6207 0.6295,0.022 2.0621,-1.4439 3.1835,-3.2584 z m -196.6282,-5.215 c 3.4027,-1.4503 7.7216,-3.6543 9.5976,-4.8978 1.876,-1.2434 4.1641,-2.2608 5.0848,-2.2608 0.9206,0 1.9435,-0.4363 2.2731,-0.9695 0.3295,-0.5333 -4.1238,-7.5765 -9.8962,-15.6516 -9.7288,-13.6097 -10.6806,-14.638 -13.0306,-14.0779 -3.6826,0.8775 -5.9636,2.2029 -5.9636,3.465 0,1.9296 5.059,9.9406 9.0381,14.312 4.6245,5.0804 4.4771,5.3637 -5.6971,10.9477 l -7.2633,3.9863 1.4714,3.5216 c 0.8092,1.9368 1.4714,3.6881 1.4714,3.8917 0,1.3031 7.7162,-0.051 12.9144,-2.2667 z m 243.5396,-10.3162 c 6.2382,-6.3503 7.2568,-7.9521 9.9358,-15.6238 4.511,-12.9184 4.4451,-13.0972 -4.9519,-13.4352 -5.1885,-0.1866 -5.7892,0.048 -11.0098,4.3007 -6.4157,5.2261 -6.8024,5.8357 -8.9428,14.0958 -1.4743,5.6895 -1.4792,6.4914 -0.058,9.4861 0.8538,1.7992 1.9813,3.5364 2.5056,3.8604 0.5244,0.3241 0.9534,1.4448 0.9534,2.4905 0,1.3442 0.6764,1.9013 2.3085,1.9013 1.5704,0 4.5308,-2.2623 9.2593,-7.0758 l 0,0 z m -87.9986,-4.7825 c 1.5935,-3.2896 3.2949,-6.4854 3.7809,-7.1017 0.486,-0.6164 2.322,-3.7655 4.08,-6.998 1.7581,-3.2325 3.9102,-7.1244 4.7826,-8.6487 1.5245,-2.6637 1.4943,-2.8462 -0.7772,-4.694 -1.2998,-1.0574 -3.026,-1.7938 -3.8361,-1.6365 -0.8101,0.1573 -3.4934,2.8394 -5.9629,5.96 -4.2879,5.4187 -10.4893,10.4885 -12.8294,10.4885 -0.6033,0 -2.5001,1.0426 -4.2151,2.3168 -4.3155,3.2064 -11.8065,5.5196 -17.8746,5.5196 -5.0034,0 -5.1112,0.061 -5.5867,3.1835 -0.2667,1.751 -0.4013,3.2826 -0.2993,3.4036 0.1021,0.121 3.2456,0.4683 6.9856,0.7717 8.9436,0.7255 22.3616,2.4887 22.8793,3.0064 0.2254,0.2254 1.6621,0.4098 3.1927,0.4098 2.4374,0 3.1427,-0.7427 5.6802,-5.981 l 0,0 z m -206.6577,4.0526 c 0,-0.5218 0.5732,-0.7288 1.2737,-0.46 0.7387,0.2835 1.9705,-0.8609 2.9326,-2.7245 0.9124,-1.7673 2.1972,-3.9638 2.8552,-4.8811 0.9549,-1.3315 0.842,-3.4058 -0.5601,-10.2852 -1.6969,-8.3258 -1.9478,-8.811 -7.4118,-14.3394 -5.3898,-5.4532 -5.9482,-5.7565 -11.8858,-6.4566 -5.2294,-0.6166 -6.5233,-0.4618 -8.0533,0.9636 -1.7718,1.6507 -1.7267,1.9748 1.6173,11.5987 2.7135,7.8097 4.821,11.7623 9.9795,18.7169 5.7882,7.8036 9.2527,10.7495 9.2527,7.8676 z m 150.1577,-1.6846 c 3.5237,-1.7758 5.018,-4.9863 3.8023,-8.1693 -1.0464,-2.74 -9.6481,-7.8086 -13.2514,-7.8086 -1.7697,0 -7.4552,2.9771 -10.1741,5.3275 -0.129,0.1116 -0.4955,1.5073 -0.8144,3.1016 -0.4591,2.2955 -0.034,3.4446 2.0436,5.522 4.3877,4.3877 12.0369,5.2306 18.394,2.0268 l 0,0 z m -50.7339,-0.848 c 8.0812,-0.344 14.973,-0.7979 15.3149,-1.0088 0.968,-0.5971 1.5913,-6.3149 0.7453,-6.8377 -0.4153,-0.2567 -3.5375,-0.7043 -6.9383,-0.9948 -10.9916,-0.9388 -26.7484,-10.4031 -30.5072,-18.3241 -2.3233,-4.8962 -4.1417,-6.132 -7.3249,-4.978 -3.4449,1.2488 -3.2088,3.0245 1.8383,13.8228 5.373,11.4956 7.4161,16.0641 8.1377,18.1963 0.3853,1.1385 1.2236,1.5954 2.322,1.2657 0.9455,-0.2839 8.331,-0.7975 16.4122,-1.1414 l 0,0 z m 83.7511,-21.6019 c 1.3468,-2.9916 2.7042,-5.6039 3.0163,-5.8051 0.3121,-0.2013 2.6963,0.2748 5.2983,1.0579 6.7086,2.019 7.7368,1.8239 9.2716,-1.7598 0.7499,-1.7509 1.5291,-3.468 1.7316,-3.8158 0.2024,-0.3478 -2.2998,-2.7283 -5.5605,-5.2901 l -5.9285,-4.6578 2.6457,-3.5258 c 1.4552,-1.9392 3.1077,-3.839 3.6723,-4.2218 1.2681,-0.8597 -1.1833,-2.8683 -7.6232,-6.2456 l -4.7411,-2.4865 -5.2893,5.461 c -4.8926,5.0515 -5.7309,5.5214 -11.1778,6.2663 -3.2387,0.4429 -6.1987,1.1155 -6.5778,1.4946 -0.3791,0.3792 -0.8707,3.5376 -1.0924,7.0188 l -0.403,6.3294 5.9914,0 5.9914,0 0,7.2748 c 0,7.8034 0.1793,8.0553 5.8773,8.2577 2.0539,0.073 2.8437,-0.7902 4.8977,-5.3522 l 0,0 z m -72.6084,2.65 c 0.8441,-0.5347 1.5307,-3.417 1.8384,-7.7172 l 0.4911,-6.8639 5.7531,0.5217 5.7531,0.5217 0,-7.2585 0,-7.2585 -6.056,-1.1509 c -4.6915,-0.8916 -6.5415,-1.7698 -8.2105,-3.8974 -1.185,-1.5106 -3.0196,-3.812 -4.0769,-5.1142 l -1.9224,-2.3676 -6.5689,3.074 c -7.1937,3.3664 -7.2565,3.6243 -2.4056,9.8746 0.9972,1.2848 1.8109,2.6072 1.8082,2.9386 0,0.3314 -2.6475,2.3355 -5.8773,4.4534 -3.2298,2.118 -5.8724,4.0702 -5.8724,4.3384 0,0.2682 0.5419,1.9862 1.2042,3.8178 l 1.2043,3.3303 5.7637,-0.3221 5.7638,-0.3221 2.0928,5.1417 c 1.8733,4.6024 2.401,5.1402 5.0314,5.1276 1.6163,-0.01 3.5449,-0.3981 4.2859,-0.8674 l 0,0 z m 217.7503,-10.6508 c 2.1024,-4.2686 2.2735,-5.8084 2.2015,-19.8113 -0.073,-14.2812 -1.3841,-24.3837 -3.513,-27.0792 -0.4871,-0.6168 -0.7796,-1.4983 -0.6501,-1.9591 0.3266,-1.1617 -3.5846,-9.6281 -6.0427,-13.0801 l -2.0297,-2.8505 4.2356,-6.1672 c 6.2138,-9.0475 10.668,-24.9706 12.0021,-42.9056 0.5588,-7.512 0.3595,-9.0335 -2.0257,-15.4685 l -2.6454,-7.1371 -4.5243,0.6561 c -2.4883,0.3608 -4.6365,0.7486 -4.7738,0.8617 -0.1373,0.1131 0.1933,2.5412 0.7346,5.3957 1.2302,6.4867 1.2665,12.4689 0.08,13.2021 -0.4973,0.3074 -1.1915,1.8669 -1.5426,3.4656 l -0.6385,2.9067 -5.0693,-2.5671 c -4.9366,-2.5 -11.3149,-6.8246 -12.5284,-8.4945 -0.5507,-0.7577 -3.3092,-2.5105 -6.5652,-4.1717 -0.7097,-0.362 -1.7101,-0.2384 -2.2232,0.2747 -1.1038,1.1037 2.5593,10.5949 5.1988,13.4704 0.9587,1.0444 1.743,2.1754 1.743,2.5134 0,0.338 1.7007,1.5703 3.7792,2.7385 4.4222,2.4854 11.541,9.916 12.8839,13.4481 0.9103,2.3943 -0.5697,7.595 -5.2246,18.359 -4.229,9.7788 -4.2377,9.6562 1.5679,21.9379 4.9132,10.394 3.8018,14.961 -5.261,21.6186 -8.9786,6.5957 -12.558,10.4469 -15.05,16.1929 -3.0201,6.9638 -3.084,8.2326 -0.4565,9.0665 1.5053,0.4778 3.2295,-0.362 6.6301,-3.2295 4.6149,-3.8913 14.5567,-10.5729 17.296,-11.624 1.0085,-0.387 1.4668,0.064 1.4668,1.4432 0,1.1033 0.5019,2.3162 1.1154,2.6954 1.1301,0.6984 0.6718,15.8435 -0.5764,19.048 -0.4655,1.1952 0.3013,1.5387 3.7708,1.6898 4.2772,0.1861 4.3958,0.1067 6.6346,-4.4389 l 0,0 z m -361.1321,-9.0363 c 0.9231,0 1.1035,-2.1117 0.7342,-8.59 -0.4154,-7.2844 -0.1965,-9.1372 1.44,-12.1906 l 1.9299,-3.6008 5.2948,3.5642 c 2.9122,1.9603 6.3968,4.6204 7.7437,5.9113 7.3737,7.0672 13.6131,8.7462 12.245,3.2952 -0.892,-3.5539 -5.0822,-12.0094 -7.1135,-14.3541 -0.9367,-1.0813 -3.6007,-3.3495 -5.9199,-5.0403 -5.5782,-4.0666 -9.9255,-9.9399 -9.9593,-13.4551 -0.015,-1.5563 1.7801,-6.5985 3.989,-11.2049 4.6151,-9.624 4.6125,-10.6365 -0.06,-22.7517 -2.0665,-5.3586 -2.8119,-8.6442 -2.3792,-10.487 0.8081,-3.4413 5.4292,-8.3173 11.6464,-12.2889 2.6937,-1.7208 5.8717,-4.2308 7.0622,-5.5776 2.6506,-2.9988 8.4889,-13.672 7.8359,-14.325 -1.5387,-1.5386 -5.225,-0.032 -13.9244,5.6915 -13.0759,8.6027 -13.475,8.6959 -14.9486,3.4891 -1.1669,-4.1227 -1.0876,-9.6784 0.2357,-16.523 0.6403,-3.3118 0.5022,-3.5895 -2.0934,-4.2095 -1.5283,-0.3652 -3.5267,-0.8856 -4.4409,-1.1566 -1.2513,-0.371 -2.3407,0.9114 -4.4079,5.1891 -2.5775,5.3335 -2.741,6.4327 -2.6662,17.9262 0.044,6.7344 0.3645,14.6687 0.7125,17.6318 0.9172,7.8082 4.8854,19.7972 7.8308,23.6589 l 2.5454,3.3372 -3.3802,4.2716 c -1.8591,2.3494 -3.3802,5.003 -3.3802,5.8969 0,0.894 -0.3771,2.0441 -0.838,2.5559 -3.0859,3.427 -6.3096,21.1061 -6.4224,35.2214 -0.07,8.6937 0.282,11.6032 1.8151,15.0231 1.7459,3.8948 2.1361,4.1944 4.7753,3.6665 1.5807,-0.3161 3.4247,-0.5748 4.0978,-0.5748 z m 260.8589,-3.5372 c 4.7537,-0.9508 7.0471,-3.736 7.0471,-8.558 0,-7.1867 -3.6165,-9.4772 -10.0075,-6.3385 -2.0023,0.9833 -4.1042,2.6541 -4.6708,3.7128 -1.3803,2.5792 -0.8913,7.9493 0.9168,10.0681 1.6076,1.8838 2.299,1.9986 6.7144,1.1156 z m -161.2668,-3.9612 c 2.3116,-2.0919 2.5823,-13.1553 0.3668,-14.9939 -6.3498,-5.2699 -12.3943,-5.3962 -14.3376,-0.2997 -1.1161,2.9272 -0.335,11.0375 1.063,11.0375 0.4694,0 1.1066,0.7976 1.416,1.7724 1.1074,3.489 8.5932,5.107 11.4918,2.4837 l 0,0 z m 202.2222,-2.0521 c 2.2582,-3.1167 5.4605,-9.894 7.174,-15.183 0.6546,-2.0203 1.334,-3.6733 1.5098,-3.6733 0.4728,0 11.3471,6.2023 14.4642,8.2499 2.647,1.7387 2.7231,1.7297 4.5956,-0.5472 4.396,-5.3452 4.5663,-6.4884 1.4558,-9.7714 -1.5761,-1.6635 -4.8493,-4.3922 -7.2736,-6.0638 -2.4244,-1.6715 -5.0141,-3.6347 -5.755,-4.3627 -2.3074,-2.2674 -9.981,-5.4668 -10.8841,-4.5379 -0.4656,0.4788 -3.3337,6.3806 -6.3735,13.115 -3.0398,6.7343 -6.1583,13.6333 -6.9299,15.3309 -2.0006,4.4016 -1.7641,5.4531 1.7837,7.9332 3.9399,2.7542 3.8792,2.759 6.233,-0.4897 l 0,0 z m -240.8203,-11.5314 c 0.144,-0.096 -1.5568,-4.7592 -3.7795,-10.3619 -2.2227,-5.6028 -5.1472,-13.2724 -6.4989,-17.0436 -1.3517,-3.7713 -2.5882,-7.0024 -2.7478,-7.1804 -0.8959,-0.999 -22.3406,12.9636 -25.1958,16.4048 -1.6512,1.9901 -1.6224,2.2199 0.7469,5.9732 1.3553,2.1469 2.6832,3.9035 2.951,3.9035 0.2677,0 4.1554,-1.9836 8.6392,-4.408 4.4839,-2.4243 8.3968,-4.4079 8.6954,-4.4079 0.2987,0 0.7716,1.2122 1.0509,2.6937 0.7857,4.1673 3.4714,10.8857 6.2401,15.6102 l 2.5131,4.2882 3.5619,-2.6484 c 1.959,-1.4565 3.6796,-2.7271 3.8235,-2.8234 l 0,0 z m 223.1122,-14.9163 c 3.179,-4.7141 7.8873,-11.3166 10.4627,-14.6722 2.5754,-3.3556 4.6826,-6.8012 4.6826,-7.6568 0,-1.5195 -4.6634,-8.4497 -6.1222,-9.0981 -0.404,-0.1796 -0.7346,-0.7393 -0.7346,-1.2439 0,-0.5045 -1.1976,-2.782 -2.6613,-5.061 -1.4636,-2.279 -2.6758,-4.3955 -2.6937,-4.7033 -0.018,-0.3079 -0.7607,-1.288 -1.6508,-2.178 -0.89,-0.89 -2.579,-3.1727 -3.7532,-5.0727 -2.3874,-3.8629 -2.3522,-3.8457 -4.9782,-2.4403 -2.5037,1.3399 -2.3904,3.9374 0.4167,9.5486 3.0834,6.1639 3.8205,12.4001 1.9847,16.7937 -1.1295,2.7034 -1.199,3.9241 -0.3171,5.572 1.5303,2.8593 -0.1307,10.3847 -3.9714,17.993 -1.6204,3.21 -2.9462,6.1876 -2.9462,6.617 0,0.749 4.7938,4.0931 5.9447,4.1469 0.3064,0.014 3.1582,-3.8309 6.3373,-8.5449 l 0,0 z m -204.8086,-0.4022 c 3.2414,-1.4768 3.2066,-4.1484 -0.1401,-10.7821 -2.4051,-4.7674 -2.6322,-6.1888 -2.6024,-16.2905 0.032,-10.8073 0.1169,-11.2285 3.6146,-17.9246 1.9701,-3.7715 3.5819,-7.2057 3.5819,-7.6316 0,-0.426 -1.2036,-1.3229 -2.6748,-1.9931 -2.4613,-1.1215 -2.8717,-0.9857 -5.1426,1.7011 -6.0427,7.1496 -6.9833,8.3488 -7.9175,10.0943 -0.5452,1.0187 -3.1807,4.7812 -5.8566,8.361 l -4.8654,6.5087 2.4535,3.2167 c 1.3494,1.7692 2.4535,3.6869 2.4535,4.2616 0,0.5747 0.4111,1.0449 0.9135,1.0449 0.5024,0 1.2107,0.9364 1.574,2.0808 0.3632,1.1445 2.3071,4.5606 4.3197,7.5915 2.0126,3.0308 4.4001,6.7228 5.3054,8.2044 1.8963,3.1031 1.7145,3.0463 4.9833,1.5569 l 0,0 z m 170.3917,-6.6995 c 0.9687,-2.6938 2.0913,-4.8977 2.4948,-4.8977 0.4034,0 3.7047,1.5766 7.3361,3.5037 3.6313,1.9271 6.7068,3.3597 6.8343,3.1836 0.1275,-0.1762 1.2332,-1.9852 2.4573,-4.0201 l 2.2254,-3.6998 -3.5902,-4.3815 c -1.9747,-2.4097 -4.0016,-4.3814 -4.5043,-4.3814 -1.8442,0 -0.8116,-2.2169 3.4955,-7.5043 l 4.4094,-5.413 -2.0273,-2.847 c -2.5278,-3.5501 -3.5057,-3.545 -10.6385,0.056 l -5.7501,2.9027 -2.1721,-5.3515 c -1.1946,-2.9434 -2.6332,-5.3516 -3.1969,-5.3516 -1.9413,0 -10.5021,6.0839 -10.5021,7.4635 0,0.7601 0.7188,3.9673 1.5973,7.1271 1.5742,5.6622 1.5602,5.8555 -0.9703,13.3817 -1.4121,4.2 -2.4615,7.7157 -2.3319,7.8127 4.0056,2.9965 11.0347,7.315 11.9066,7.315 0.6412,0 1.9584,-2.204 2.927,-4.8977 l 0,0 z m -137.9879,-1.9775 c 6.1976,-3.481 8.2934,-5.0754 8.2934,-6.3093 0,-0.6625 -0.8337,-3.7318 -1.8528,-6.8206 l -1.8527,-5.6161 2.5433,-5.8944 c 2.3101,-5.3539 2.3946,-5.9775 0.9215,-6.8019 -0.8919,-0.4991 -2.1944,-1.4545 -2.8945,-2.123 -2.4322,-2.3228 -6.7205,-4.697 -7.5537,-4.182 -0.461,0.2849 -1.7732,2.5072 -2.916,4.9384 -1.1428,2.4313 -2.4381,4.4205 -2.8784,4.4205 -0.4403,0 -3.3478,-1.3796 -6.461,-3.0658 l -5.6603,-3.0658 -2.9835,2.9835 -2.9836,2.9836 3.5804,4.8775 3.5804,4.8775 -3.4366,4.1133 c -1.8901,2.2623 -3.4366,4.5546 -3.4366,5.094 0,1.4201 3.2283,6.6704 4.1015,6.6704 0.4072,0 3.2322,-1.1021 6.2777,-2.4489 3.0455,-1.3469 6.0566,-2.4489 6.6912,-2.4489 0.6347,0 1.9465,2.204 2.9152,4.8978 0.9686,2.6937 1.9239,4.8977 2.1228,4.8977 0.1989,0 1.9459,-0.8899 3.8823,-1.9775 l 0,0 z m 207.976,-30.7543 c 5.1976,-3.4562 10.651,-7.5458 12.1187,-9.088 l 2.6685,-2.804 -1.9195,-3.1563 c -1.0557,-1.7359 -2.3552,-3.1563 -2.8878,-3.1563 -0.5327,0 -4.511,1.7863 -8.8408,3.9696 -4.3298,2.1832 -8.2763,3.7199 -8.77,3.4147 -0.4937,-0.3051 -1.4196,-2.2016 -2.0577,-4.2144 -1.9594,-6.1811 -7.7658,-15.9039 -9.4977,-15.9039 -0.8817,0 -2.5825,0.92 -3.7794,2.0445 l -2.1764,2.0445 2.7185,6.5265 c 1.4951,3.5896 3.3945,8.0693 4.2209,9.9549 0.8263,1.8856 2.6973,6.4038 4.1578,10.0403 1.4604,3.6366 3.0917,6.612 3.625,6.612 0.5333,0 5.2222,-2.8279 10.4199,-6.2841 l 0,0 z m -270.2098,0.4443 c 0,-0.5181 2.028,-5.2567 4.5067,-10.5301 7.9349,-16.8813 9.2076,-19.7314 9.1743,-20.5452 -0.074,-1.8043 -3.9545,-5.3357 -5.5301,-5.0323 -2.2877,0.4406 -6.5975,6.9033 -9.2069,13.8063 -1.1754,3.1092 -2.4438,5.8427 -2.8186,6.0743 -0.3748,0.2317 -4.0879,-1.7613 -8.2513,-4.4287 -4.1634,-2.6675 -7.9646,-4.85 -8.4471,-4.85 -0.4825,0 -2.0499,1.5374 -3.4831,3.4163 l -2.6057,3.4164 2.8008,3.2081 c 1.5404,1.7644 6.7679,6.1699 11.6167,9.7899 8.1646,6.0955 12.2443,7.9863 12.2443,5.675 l 0,0 z m 220.3589,-23.5259 c 0.9854,-0.5274 2.2788,-2.3563 2.8742,-4.0644 3.0718,-8.8118 -0.9709,-15.1303 -10.8207,-16.9119 -3.2872,-0.5946 -3.7346,-0.387 -5.5206,2.5628 -3.2457,5.3604 -3.4612,7.3288 -1.2927,11.8076 3.0905,6.3828 9.6723,9.3286 14.7598,6.6059 z m -171.042,-3.8745 c 2.4311,-1.0421 4.9361,-2.8587 5.5666,-4.0368 1.7106,-3.1963 1.2489,-10.5187 -0.9141,-14.4984 -1.0451,-1.9228 -1.7673,-2.2058 -4.3235,-1.6946 -9.245,1.849 -14.854,11.6021 -11.1988,19.4727 1.5033,3.2369 4.5839,3.4515 10.8698,0.7571 l 0,0 z m 132.5105,-5.9416 c 1.0584,0 0.05,-2.7487 -2.5707,-7.0081 -3.2387,-5.2634 -3.3957,-5.726 -1.9441,-5.726 1.0564,0 11.7395,-6.856 11.7395,-7.5339 0,-0.2199 -0.6725,-1.7002 -1.4945,-3.2898 -1.6327,-3.1573 -2.6951,-3.3361 -11.9742,-2.0145 l -5.1427,0.7324 -0.015,-3.0079 c -0.01,-1.6543 -0.6177,-4.9915 -1.3545,-7.4158 -1.2314,-4.0522 -1.586,-4.3963 -4.393,-4.2636 -1.6794,0.08 -3.0535,-0.2511 -3.0535,-0.7346 0,-1.6109 -2.7988,-0.9055 -3.3133,0.8351 -0.2786,0.9428 -0.8085,4.9344 -1.1774,8.8701 -0.5318,5.6723 -0.9647,7.0431 -2.0884,6.6119 -0.7796,-0.2992 -2.9242,-0.5439 -4.7658,-0.5439 -2.3232,0 -3.3482,-0.4499 -3.3482,-1.4694 0,-0.8081 -0.4408,-1.4693 -0.9796,-1.4693 -0.579,0 -0.9795,3.532 -0.9795,8.6368 l 0,8.6368 7.5914,1.7498 c 7.1491,1.6478 7.9008,2.0815 12.8984,7.4407 l 5.3069,5.6909 5.3451,-2.3639 c 2.9398,-1.3001 5.5106,-2.3638 5.713,-2.3638 z m -87.0314,-2.7907 c 3.6,-4.2694 4.6311,-4.8771 10.1937,-6.0087 3.4037,-0.6924 6.7396,-1.9452 7.413,-2.784 0.6765,-0.8426 1.2253,-4.1812 1.2262,-7.4601 l 0,-5.9349 -5.7417,0.3249 -5.7417,0.325 -0.4989,-6.9718 c -0.2743,-3.8346 -0.6667,-7.1262 -0.872,-7.3148 -0.2052,-0.1886 -2.2135,-0.6468 -4.4629,-1.0183 l -4.0898,-0.6754 -1.7215,5.4612 -1.7215,5.4612 -6.7279,0 -6.7279,0 -1.4919,3.5707 c -0.8492,2.0324 -1.1075,3.8258 -0.5995,4.163 0.4908,0.3259 3.1682,2.071 5.9498,3.8781 2.7816,1.8071 5.0575,3.4909 5.0575,3.7417 0,0.2508 -1.3462,2.4125 -2.9914,4.8038 -1.6452,2.3913 -2.6902,4.835 -2.3222,5.4304 0.5826,0.9427 9.6944,5.5472 11.2824,5.7013 0.3197,0.031 2.3836,-2.0809 4.5864,-4.6933 l -2e-4,0 z m 252.4812,-14.5962 c -0.3574,-5.7916 -1.061,-12.9253 -1.5636,-15.8527 -1.6466,-9.5897 -1.3617,-10.5916 6.425,-22.5945 13.2956,-20.4945 16.1702,-25.4103 16.1702,-27.652 0,-2.409 -3.6138,-2.7794 -26.091,-2.6744 l -21.1063,0.099 -5.5428,-4.7715 c -3.0486,-2.6244 -9.0692,-7.3892 -13.3792,-10.5886 -4.31,-3.1993 -7.9833,-6.1523 -8.1629,-6.5622 -0.1796,-0.4098 -1.0023,-0.7452 -1.8284,-0.7452 -1.9344,0 -1.6894,0.9864 4.6242,18.6114 7.5989,21.2132 7.5349,20.7885 4.9535,32.8864 -1.2163,5.7001 -2.0616,10.4772 -1.8785,10.6158 0.1832,0.1386 4.5206,1.7385 9.6387,3.5553 10.5512,3.7454 11.434,4.5032 23.1265,19.8538 15.8925,20.8643 15.534,20.7215 14.6146,5.8199 z m -427.9076,-2.9387 c 1.6787,-2.0203 4.0267,-4.7753 5.2177,-6.1221 1.1911,-1.3469 3.7431,-4.4325 5.6712,-6.8568 1.928,-2.4244 5.7358,-6.7401 8.4616,-9.5905 4.3036,-4.5004 5.9877,-5.5007 12.7924,-7.5987 11.1573,-3.44 10.8317,-3.0944 9.3283,-9.9011 -2.683,-12.1475 -2.1589,-16.7579 3.3049,-29.0732 1.2342,-2.7819 2.8053,-6.6009 3.4913,-8.4865 0.686,-1.8856 1.8283,-4.7574 2.5384,-6.3817 3.0484,-6.9725 3.3042,-8.1319 2.0278,-9.1912 -1.2714,-1.0552 -10.7821,4.9557 -24.8779,15.723 l -6.1463,4.6949 -22.5054,-0.6115 c -17.0306,-0.4627 -22.5054,-0.3292 -22.5054,0.5487 0,1.0831 3.7075,8.5651 5.8819,11.8701 0.5317,0.8081 4.3038,7.3435 8.3825,14.5231 l 7.4158,13.0539 -1.0408,4.8532 c -0.7822,3.6474 -3.9871,29.2274 -3.9871,31.8234 0,0.218 0.7868,0.3963 1.7484,0.3963 0.9616,0 3.1219,-1.653 4.8007,-3.6733 l 0,0 z m 377.9538,-0.6852 c -0.9048,-4.2704 -6.9136,-17.9121 -9.9454,-22.579 -8.3599,-12.8683 -11.6209,-17.142 -13.0801,-17.142 -0.3363,0 -1.1854,1.5875 -1.8871,3.5277 -0.7015,1.9403 -2.189,4.4412 -3.3054,5.5576 -1.9074,1.9074 -1.9691,2.5205 -1.0222,10.163 1.1384,9.1886 2.7605,12.1523 10.188,18.6145 4.6329,4.0308 4.7449,4.0676 12.077,3.9676 6.9225,-0.094 7.3733,-0.2307 6.9752,-2.1094 l 0,0 z m -92.6027,-2.0035 c 0.984,-1.1857 0.7854,-2.537 -1.0437,-7.1017 -1.2424,-3.1006 -2.5453,-5.8578 -2.8954,-6.1272 -0.3501,-0.2694 -0.8989,-1.3713 -1.2196,-2.4488 -1.219,-4.0958 -7.2545,-18.1967 -8.1884,-19.1306 -0.6481,-0.648 -6.8894,-0.6541 -18.5463,-0.018 -11.2831,0.6157 -17.6863,0.6204 -17.896,0.013 -0.7529,-2.1798 -2.1224,-0.704 -2.1224,2.2871 0,1.7779 -0.4881,3.7206 -1.0847,4.3172 -1.7236,1.7237 2.2489,3.2724 10.7088,4.175 8.7956,0.9383 14.4682,3.1153 15.3491,5.8905 0.3962,1.2483 1.4808,1.9757 2.9461,1.9757 1.2755,0 3.3396,0.3941 4.5868,0.8757 3.3268,1.2847 9.8853,7.882 12.5513,12.6255 2.4127,4.2928 4.7499,5.202 6.8544,2.6663 l 0,0 z m -225.2912,-2.3879 c 0,-0.5024 0.7714,-1.173 1.7142,-1.4902 0.9429,-0.3172 3.8104,-2.4447 6.3724,-4.7279 4.5389,-4.0448 4.6999,-4.3835 6.2888,-13.2266 1.6216,-9.0249 1.6189,-9.0915 -0.4951,-11.9508 -1.1691,-1.5814 -2.1257,-3.2359 -2.1257,-3.6767 0,-0.4409 -0.9162,-1.586 -2.0359,-2.5448 -2.5868,-2.2148 -3.3468,-1.6282 -10.6903,8.2517 -5.4997,7.3992 -13.4896,22.4072 -14.2957,26.8527 -0.3838,2.1163 -0.035,2.368 3.7488,2.7085 8.3612,0.7523 11.5185,0.6987 11.5185,-0.1959 z m 85.5487,-4.2876 c 3.449,-5.3916 10.1479,-11.4511 12.6596,-11.4511 0.7926,0 2.5374,-0.8624 3.8773,-1.9163 4.008,-3.1527 12.2582,-5.9191 17.7,-5.9351 6.442,-0.019 7.4213,-0.6802 6.833,-4.6136 -0.5485,-3.6671 -0.9336,-3.7751 -16.4714,-4.6175 -5.4159,-0.2936 -11.929,-0.8192 -14.4735,-1.1679 l -4.6263,-0.6341 -1.6781,4.2996 c -0.9229,2.3648 -4.3903,9.7103 -7.7053,16.3233 l -6.0273,12.0236 2.5879,1.4059 c 1.4233,0.7732 2.9049,1.4236 3.2924,1.4451 0.3875,0.022 2.2018,-2.3012 4.0317,-5.1619 l 0,0 z m 168.1534,-2.6298 c 0,-1.9962 -4.3807,-10.2136 -8.2388,-15.4545 l -4.3298,-5.8816 7.9985,-4.5176 c 4.3992,-2.4846 8.4393,-4.6647 8.9781,-4.8445 1.4139,-0.4722 -0.5757,-5.5837 -2.69,-6.9108 -1.3171,-0.8267 -3.2317,-0.529 -8.3261,1.2948 -8.4869,3.0383 -20.8191,8.6451 -20.8191,9.4653 0,0.3482 4.4989,7.1217 9.9976,15.0522 l 9.9976,14.419 3.716,-0.9432 c 2.0438,-0.5188 3.716,-1.2744 3.716,-1.6791 z m -191.2415,-9.0822 c 2.8365,-3.8971 7.5613,-10.1713 10.4996,-13.9425 5.5643,-7.1418 6.1697,-8.3261 4.2561,-8.3261 -0.631,0 -1.8432,-0.6092 -2.6937,-1.3538 -2.0335,-1.78 -17.2587,-8.4701 -21.6039,-9.4929 -3.8457,-0.9052 -6.0811,0.6733 -7.1856,5.0739 -0.5374,2.1413 -0.1163,2.7561 3.0241,4.4152 5.8183,3.0739 12.9542,7.6562 12.9542,8.3185 0,0.3346 -1.0119,1.6602 -2.2486,2.9458 -3.7373,3.8853 -9.1397,12.0094 -9.8391,14.7961 -0.7471,2.9767 1.1002,4.6145 5.2308,4.6377 1.918,0.011 3.5671,-1.5225 7.6061,-7.0719 l 0,0 z m 92.7499,-2.105 c 5.856,-2.4468 7.0178,-7.3571 2.8989,-12.2521 -2.2103,-2.6269 -3.166,-3.0138 -7.4433,-3.0138 -4.257,0 -5.2952,0.4151 -7.8331,3.1319 -2.3459,2.5113 -2.8108,3.706 -2.3463,6.0288 1.3321,6.6606 7.3864,9.1709 14.7238,6.1052 l 0,0 z m 120.3304,-20.4026 -0.6057,-14.7553 4.2184,0.6746 c 4.4161,0.7062 7.814,2.6863 14.0181,8.1692 l 3.7161,3.2842 2.9733,-2.1172 c 3.8562,-2.7458 4.2628,-4.01 2.4301,-7.5541 -2.9773,-5.7575 -9.9554,-11.3724 -21.2786,-17.1218 -14.0177,-7.1176 -24.1837,-9.7859 -35.6194,-9.3493 l -8.2929,0.3167 -2.1038,-5.6324 c -1.157,-3.0978 -2.4907,-5.6324 -2.9638,-5.6324 -0.4731,0 -0.8601,-0.6155 -0.8601,-1.3679 0,-0.7523 -1.5428,-2.7224 -3.4284,-4.378 -1.8856,-1.6556 -3.4284,-3.2632 -3.4284,-3.5725 0,-0.9199 -7.1017,-8.3134 -7.9853,-8.3134 -0.7929,0 -7.9521,-5.0868 -12.3077,-8.745 -3.7711,-3.1673 -10.3721,-5.8568 -15.9875,-6.5139 -5.1703,-0.605 -5.4795,-0.5147 -6.5909,1.9246 -0.6414,1.4076 -1.8368,2.5593 -2.6565,2.5593 -0.8196,0 -1.4903,0.3406 -1.4903,0.7568 0,0.7453 2.0725,1.9142 10.775,6.0777 5.5061,2.6342 6.9412,3.7542 9.0634,7.0729 1.3013,2.035 1.4108,2.8199 0.4763,3.4134 -2.8682,1.8217 -10.5364,5.0081 -17.0345,7.0785 -6.0414,1.9249 -7.0738,2.5899 -7.505,4.8339 -0.2749,1.4311 -0.395,2.7091 -0.2668,2.84 0.5932,0.6056 11.0148,2.2074 14.1759,2.1789 1.9468,-0.018 5.964,-0.9204 8.9271,-2.0061 19.1827,-7.0292 19.2938,-6.9926 31.7591,10.4657 4.6686,6.5387 5.5872,6.9705 19.5458,9.1899 3.7047,0.589 8.1493,1.6616 9.8769,2.3834 4.2982,1.7959 7.2271,8.2669 7.8964,17.4462 0.7135,9.7864 1.074,11.0379 4.902,17.0221 2.2789,3.5625 3.8178,5.0626 4.805,4.6838 1.2324,-0.4729 1.3606,-2.7921 0.8467,-15.3125 l 0,0 z m -242.9712,8.3202 c 3.4378,-3.8571 7.5917,-13.7416 7.5917,-18.0649 0,-6.3205 2.4854,-13.7079 5.6093,-16.6727 2.3059,-2.1883 4.3196,-2.7981 13.313,-4.0314 11.7795,-1.6154 12.7888,-2.1785 17.8576,-9.9633 7.8332,-12.0306 13.3021,-13.6708 26.3474,-7.9015 6.8378,3.024 11.4136,3.7441 18.7786,2.9554 5.9434,-0.6365 6.2531,-0.7983 6.2531,-3.2663 0,-2.2837 -0.7376,-2.877 -6.1222,-4.9249 -8.8576,-3.3686 -18.3664,-8.1127 -18.3664,-9.1634 0,-2.5719 4.486,-6.4829 10.916,-9.5165 3.9631,-1.8698 7.3864,-3.5175 7.6074,-3.6616 0.221,-0.1441 -0.1443,-2.0846 -0.8117,-4.3123 l -1.2135,-4.0503 -5.4667,0.6425 c -3.0067,0.3534 -7.55,1.6889 -10.0962,2.9678 -9.6988,4.8714 -27.2934,18.9167 -33.2837,26.5695 -0.8211,1.0489 -2.4871,4.0237 -3.7023,6.6108 l -2.2094,4.7037 -6.583,-0.1091 c -11.2373,-0.1863 -19.3597,1.7383 -32.0512,7.5948 -15.4338,7.1218 -17.3103,8.3961 -22.7441,15.4446 -0.4207,0.5458 -1.3548,1.7398 -2.0758,2.6533 -1.1414,1.4464 -0.8713,2.1136 2.0899,5.1626 l 3.4007,3.5016 2.8078,-2.3363 c 5.2041,-4.3301 10.684,-7.2765 14.8394,-7.9785 l 4.131,-0.6979 -0.05,7.1878 c -0.028,3.9533 -0.4068,10.2733 -0.8426,14.0446 -0.4357,3.7712 -0.6075,7.1874 -0.3816,7.5915 0.7122,1.2742 2.8721,0.7996 4.4578,-0.9796 l 1e-4,0 z m 173.7062,-28.8966 c -0.3467,-7.6771 -0.6845,-15.0882 -0.7508,-16.469 -0.1078,-2.2481 -0.6935,-2.6184 -5.6029,-3.5426 -3.0154,-0.5677 -5.8131,-0.8445 -6.2172,-0.6152 -0.4041,0.2293 -0.7414,4.4683 -0.7497,9.4199 -0.01,4.9516 -0.3674,9.558 -0.798,10.2365 -0.6044,0.9519 -1.9982,1.0025 -6.1072,0.2216 -2.9282,-0.5565 -8.3339,-1.2135 -12.0127,-1.46 l -6.6886,-0.448 0.3216,5.0175 c 0.2065,3.2226 0.8472,5.2829 1.7909,5.759 0.8081,0.4077 8.7424,1.7143 17.6318,2.9035 8.8893,1.1892 16.3461,2.3361 16.5706,2.5487 0.2245,0.2127 1.0459,0.3867 1.8254,0.3867 1.1997,0 1.3205,-2.1416 0.7868,-13.9586 l 0,0 z m -91.6691,9.8984 c 9.4281,-1.1721 17.4659,-2.6115 17.8617,-3.1985 0.3958,-0.5871 0.7264,-2.6654 0.7346,-4.6183 0.014,-3.1924 -0.2918,-3.6122 -3.0242,-4.1587 -1.6716,-0.3343 -3.3246,-0.433 -3.6733,-0.2194 -0.3488,0.2137 -3.4992,0.6736 -7.0011,1.022 -3.5019,0.3485 -7.2487,0.7227 -8.3261,0.8316 -1.8175,0.1837 -1.9797,-0.4721 -2.2436,-9.0743 -0.181,-5.9019 -0.7151,-9.546 -1.4693,-10.0253 -0.6517,-0.4141 -2.7907,-0.7598 -4.7533,-0.768 -4.3138,-0.018 -4.4178,0.2008 -6.2647,13.1891 -1.7689,12.4397 -1.8412,19.1159 -0.2072,19.1359 0.6734,0.01 8.9383,-0.944 18.3665,-2.1161 l 0,0 z m 45.5488,-42.7814 c 5.2884,-1.5799 6.24,-2.2902 9.4976,-7.0884 5.3545,-7.8869 5.2303,-8.1756 -4.5104,-10.4805 -9.4764,-2.2425 -14.0967,-2.5029 -22.0437,-1.2424 -9.7459,1.5457 -12.8196,2.754 -12.8196,5.0394 0,1.0119 1.2122,4.0504 2.6937,6.7524 2.462,4.4898 3.1995,5.072 8.571,6.7657 7.5258,2.3728 11.3443,2.4249 18.6114,0.2538 z m -0.5937,-39.3378 7.5708,-5.8568 10.7148,-0.9775 c 5.8932,-0.5377 14.4616,-1.4252 19.041,-1.9722 4.5794,-0.5471 8.9873,-1.0047 9.7955,-1.0171 0.864,-0.013 1.0658,-0.3189 0.4897,-0.7421 -0.5387,-0.3958 -0.9795,-1.6012 -0.9795,-2.6787 0,-1.5589 -3.4284,-3.6601 -16.7816,-10.2852 l -16.7817,-8.3262 -2.2483,-4.8977 c -1.2365,-2.6937 -4.0813,-8.8649 -6.3216,-13.7136 -2.2403,-4.8488 -5.5334,-12.0117 -7.3179,-15.9176 -1.7845,-3.906 -3.615,-7.1017 -4.0679,-7.1017 -0.4528,0 -5.5583,9.4771 -11.3457,21.0602 -5.7873,11.5831 -10.8494,21.0602 -11.2492,21.0602 -0.3998,0 -7.9547,3.467 -16.7887,7.7044 -14.2496,6.8352 -16.0485,7.965 -15.9443,10.0136 0.1346,2.6466 -0.059,2.599 23.3716,5.7592 7.9657,1.0744 15.6897,2.6071 17.1644,3.4059 1.4748,0.7989 4.8854,3.4351 7.5791,5.8584 2.6938,2.4233 5.2647,4.4229 5.7132,4.4436 0.4485,0.021 4.2223,-2.5979 8.3863,-5.8191 l 0,0 z"
     id="path3911"
     inkscape:connector-curvature="0" />
</svg>
