<?xml version="1.0" encoding="UTF-8" standalone="no"?>
<!-- Created with Inkscape (http://www.inkscape.org/) -->

<svg
   xmlns:dc="http://purl.org/dc/elements/1.1/"
   xmlns:cc="http://creativecommons.org/ns#"
   xmlns:rdf="http://www.w3.org/1999/02/22-rdf-syntax-ns#"
   xmlns:svg="http://www.w3.org/2000/svg"
   xmlns="http://www.w3.org/2000/svg"
   xmlns:sodipodi="http://sodipodi.sourceforge.net/DTD/sodipodi-0.dtd"
   xmlns:inkscape="http://www.inkscape.org/namespaces/inkscape"
   id="svg3759"
   version="1.1"
   inkscape:version="0.48.5 r10040"
   width="539.99573"
   height="620.19019"
   sodipodi:docname="saltire-B.svg">
  <metadata
     id="metadata3765">
    <rdf:RDF>
      <cc:Work
         rdf:about="">
        <dc:format>image/svg+xml</dc:format>
        <dc:type
           rdf:resource="http://purl.org/dc/dcmitype/StillImage" />
        <dc:title></dc:title>
      </cc:Work>
    </rdf:RDF>
  </metadata>
  <defs
     id="defs3763" />
  <sodipodi:namedview
     pagecolor="#ffffff"
     bordercolor="#666666"
     borderopacity="1"
     objecttolerance="10"
     gridtolerance="10"
     guidetolerance="10"
     inkscape:pageopacity="0"
     inkscape:pageshadow="2"
     inkscape:window-width="1920"
     inkscape:window-height="1178"
     id="namedview3761"
     showgrid="false"
     inkscape:zoom="0.24150101"
     inkscape:cx="-519.4149"
     inkscape:cy="319.70087"
     inkscape:window-x="-8"
     inkscape:window-y="-8"
     inkscape:window-maximized="1"
     inkscape:current-layer="svg3759"
     fit-margin-top="0"
     fit-margin-left="0"
     fit-margin-right="0"
     fit-margin-bottom="0" />
  <path
     style="fill:none;stroke:#0000ff;stroke-width:3.14423037;stroke-linecap:square;stroke-linejoin:bevel;stroke-miterlimit:4;stroke-opacity:1;stroke-dasharray:none"
     d="m 268.95787,1.5898487 c 0.4619,0.2052 5.5506,3.7183 11.3082,7.8069 5.7576,4.0887003 11.5992,8.1380003 12.9813,8.9985003 1.3823,0.8606 2.5483,1.8154 2.5914,2.1218 0.043,0.3065 -0.7148,1.6878 -1.6841,3.0696 -5.6186,8.0094 -8.2959,15.9239 -7.4647,22.0664 0.793,5.8595 5.2075,9.9413 11.4617,10.5979 6.4543,0.6775 11.6174,-0.4487 17.5164,-3.8209 l 5.2306,-2.9901 2.223,1.3974 c 11.7693,7.3986 15.0552,9.5185 17.8809,11.536 l 3.2719,2.3361 -3.5856,5.5267 c -1.9722,3.0396 -4.8338,7.6864 -6.3592,10.3262 -1.5244,2.6405 -3.0179,4.8341 -3.3167,4.8761 -0.2987,0.042 -0.6533,0.7268 -0.7879,1.5219 -0.3023,1.7855 -1.4963,2.0091 -3.4797,0.6519 -4.434,-3.0342 -11.1704,-6.4783 -13.3285,-6.8145 -6.1571,-0.959 -16.1474,1.7077 -21.0527,5.6195 -3.763,3.0008 -3.7121,11.5109 0.1202,20.076301 1.4914,3.3333 9.3463,12.8478 10.094,12.2267 0.2777,-0.2307 0.7758,0.069 1.1068,0.6668 0.545,0.9836 -0.4516,3.4844 -4.2096,10.5626 -0.9068,1.708 -0.8394,1.8267 2.4918,4.3863 l 3.4238,2.6307 -0.6417,6.2445 c -0.3529,3.4345 -0.5358,6.3243 -0.4063,6.4219 0.1294,0.098 4.1265,-0.2251 8.8824,-0.7173 4.7558,-0.492 8.9867,-0.9226 9.4018,-0.9568 0.4829,-0.04 0.8316,1.2839 0.9677,3.6732 0.1448,2.5425 0.6523,4.3552 1.5893,5.6764 l 1.3765,1.9409 -9.0634,1.7801 c -4.9848,0.979 -9.1712,1.9232 -9.3029,2.098 -0.2542,0.3372 3.9595,5.2635 5.3547,6.2603 0.4539,0.3243 1.8614,1.6346 3.1279,2.9119 1.2665,1.2773 2.8057,2.2516 3.4206,2.1652 0.6149,-0.086 0.9677,0.042 0.784,0.2862 -0.5056,0.6709 2.4828,2.829 8.4248,6.0837 5.9929,3.2826 16.8834,9.6558 21.0897,12.3418 1.5214,0.9715 4.6504,2.7478 6.9534,3.9474 2.303,1.1995 4.7179,2.5678 5.3664,3.0406 1.0136,0.7389 12.272,4.4241 15.5589,5.0929 0.9919,0.2019 0.8625,-0.6115 -1.1632,-7.3104 -3.2354,-10.699 -3.327,-9.8245 1.0462,-9.9854 2.6835,-0.099 4.2964,-0.5379 5.7427,-1.5636 1.1062,-0.7845 2.1422,-1.4448 2.3024,-1.4673 0.1601,-0.023 0.7377,1.5633 1.2835,3.5239 1.0655,3.8273 4.686,11.814 5.7559,12.6971 0.7402,0.6111 3.7652,-1.2238 7.3109,-4.4345 l 2.3662,-2.1426 4.1871,1.9176 c 2.3028,1.0547 4.4439,1.786 4.7579,1.6253 0.314,-0.1607 1.8103,-2.3696 3.3252,-4.9085 2.8455,-4.7691 4.7262,-6.183 5.9982,-4.5092 0.4039,0.5314 3.1155,1.5323 6.0259,2.2243 4.6792,1.1125 6.1374,1.133 12.5995,0.1766 6.3807,-0.9443 7.6621,-1.3482 10.1003,-3.1835 4.4052,-3.3159 5.1485,-6.0245 3.9117,-14.2541 -0.8313,-5.5313 -1.441,-7.5573 -3.056,-10.1543 -2.2177,-3.566 -6.6943,-7.3482 -12.2868,-10.3807 -1.9954,-1.0821 -3.6734,-2.2905 -3.7289,-2.6855 -0.128,-0.9101 4.2474,-9.3897 7.9565,-15.4198 1.5619,-2.5392 3.1222,-5.6955 3.4676,-7.014 0.3453,-1.3186 0.9244,-2.439 1.2867,-2.49 0.3624,-0.051 6.163,2.846 12.8902,6.4375 13.5594,7.2391 13.2367,6.8739 12.1963,13.8025 -1.2979,8.6433 5.0932,20.4241 12.0012,22.1218 5.599,1.376 10.4834,-0.6121 15.8362,-6.4462 3.3705,-3.6735 7.4536,-10.3189 7.877,-12.8201 0.3288,-1.9416 1.4549,-1.8234 5.4802,0.5754 2.5793,1.5372 21.4682,10.6669 24.649,11.9138 0.1081,0.042 -0.095,1.1986 -0.4511,2.5695 -0.6394,2.4609 -2.8435,20.7498 -3.1308,25.9774 -0.081,1.4821 -0.291,2.8845 -0.4658,3.1165 -0.1749,0.2319 -2.9637,0.092 -6.1975,-0.3107 -4.6599,-0.5805 -7.0456,-0.4937 -11.4997,0.4182 -14.3583,2.9395 -17.823,12.1266 -9.2558,24.5435 2.3719,3.4378 3.7638,4.6808 6.9538,6.2101 6.0989,2.9237 7.6894,4.2217 7.3755,6.0193 -0.148,0.8479 -0.5341,4.754 -0.858,8.6803 -0.7409,8.9816 -2.0028,18.9794 -2.4027,19.0356 -0.1675,0.024 -1.3198,-0.3136 -2.5607,-0.7492 -1.9367,-0.68 -7.9999,-1.1748 -18.6094,-1.5188 -3.4004,-0.1103 -7.6332,-3.1656 -7.3409,-5.299 0.1136,-0.8295 0.2221,-3.9741 0.241,-6.9879 0.027,-4.3464 -0.2386,-6.0598 -1.2865,-8.2862 -2.9826,-6.3366 -9.6614,-12.9164 -14.9687,-14.747 -2.7374,-0.944 -3.0143,-0.9156 -6.1273,0.6278 -3.8161,1.8922 -9.8653,7.7004 -12.0279,11.5488 -0.8337,1.4836 -2.202,4.609 -3.0406,6.9453 -0.8386,2.3362 -1.7707,4.6462 -2.0714,5.1332 -0.3008,0.487 -0.2977,1.3349 0.01,1.8842 0.6389,1.153 -0.6683,2.5592 -1.4789,1.5908 -0.5058,-0.6044 -8.8671,-0.6647 -10.3389,-0.075 -0.3674,0.1473 -0.839,2.0678 -1.0482,4.2677 -0.443,4.6608 -2.0895,7.0002 -4.8159,6.8426 -1.8155,-0.1051 -6.5744,1.3731 -7.2325,2.2463 -0.1842,0.2445 0.044,0.7959 0.5072,1.2252 0.4632,0.4294 1.9703,2.6788 3.3491,4.9987 1.3788,2.3199 3.5911,5.4 4.9164,6.8448 2.9369,3.2019 2.968,3.3525 0.7561,3.6633 -2.8508,0.4007 -5.5989,2.8047 -6.3101,5.52 -0.3623,1.3834 -0.9596,2.5575 -1.3273,2.6093 -0.3677,0.052 -1.517,-1.1164 -2.5539,-2.5956 -1.0369,-1.4793 -2.2893,-3.0023 -2.7831,-3.3846 -0.4939,-0.3824 -2.2563,-2.4531 -3.9165,-4.6017 -1.6602,-2.1486 -3.2054,-3.8838 -3.4336,-3.8559 -0.2283,0.028 -0.7779,1.4511 -1.2215,3.1628 -2.8578,11.0292 -3.3981,14.08 -3.0173,17.0383 0.2308,1.7927 0.2432,6.1419 0.028,9.6649 -0.2156,3.5229 -0.3832,9.0184 -0.3724,12.2123 0.011,3.1938 -0.168,7.4421 -0.3971,9.4406 -0.4893,4.2668 1.1356,14.6189 3.3617,21.4166 0.8434,2.5757 1.6827,4.6622 1.865,4.6366 0.3785,-0.053 7.3469,-8.0057 10.4003,-11.8691 2.406,-3.0441 3.132,-3.2954 3.4318,-1.1878 0.2937,2.0649 3.1172,5.4363 5.1899,6.1971 1.6264,0.597 1.5914,0.7002 -1.711,5.0482 -4.3582,5.7381 -7.4627,10.6324 -7.3324,11.5595 0.057,0.4036 2.6111,1.7287 5.6763,2.9447 l 5.5732,2.2109 0.8412,4.5208 0.8412,4.5208 3.8631,-0.1254 c 2.1247,-0.069 5.0493,-0.071 6.4991,0 l 2.6359,0.1209 0.4797,3.7366 c 0.2639,2.0552 0.6725,3.9701 0.9081,4.2554 0.2355,0.2853 0.7785,1.665 1.2066,3.0659 0.4281,1.4009 1.7313,3.6722 2.8959,5.0473 1.1646,1.375 2.1449,2.695 2.1783,2.9332 0.1401,0.9966 5.475,5.4979 8.2737,6.981 3.7923,2.0095 6.8287,1.649 11.472,-1.3621 7.6645,-4.9703 11.9762,-11.9764 12.113,-19.6826 0.045,-2.5287 -0.099,-5.903 -0.3207,-7.4983 -0.2214,-1.5953 -0.1268,-3.1294 0.21,-3.4092 0.3367,-0.2797 5.2443,-0.6707 10.9057,-0.8687 5.6613,-0.1981 11.7581,-0.566 13.5482,-0.8176 1.7901,-0.2515 3.4171,-0.3351 3.6154,-0.1856 0.4473,0.3371 1.8367,21.3581 1.6569,25.0698 -0.119,2.4589 -0.4723,2.9204 -3.7868,4.9472 -6.8081,4.1629 -8.1356,5.3795 -10.8771,9.9684 -3.5742,5.9825 -4.2508,10.1595 -2.3709,14.6364 1.45,3.4533 4.8148,6.4456 8.8407,7.862 3.8788,1.3648 10.0769,2.3157 12.6949,1.9478 1.4095,-0.1981 4.041,-0.3652 5.8477,-0.3714 l 3.2848,-0.011 0.7497,8.0876 c 0.4122,4.4482 1.0621,11.163 1.444,14.9217 0.3819,3.7588 0.5518,7.0233 0.3776,7.2545 -0.1742,0.2312 -3.9821,2.1509 -8.462,4.2659 -4.4799,2.115 -10.4544,4.9616 -13.2766,6.3258 l -5.1314,2.4804 -1.6351,-2.3651 c -0.8994,-1.3008 -2.4265,-4.0002 -3.3937,-5.9987 -2.0095,-4.1519 -7.3096,-9.3823 -12.0775,-11.9184 -2.8008,-1.4898 -3.7677,-1.6348 -6.9873,-1.0483 -4.9947,0.91 -8.3894,3.855 -11.2615,9.7697 -2.8364,5.8414 -3.2097,7.6385 -2.8681,13.8097 l 0.2781,5.0239 -4.9956,2.7107 c -19.3374,10.4932 -20.3861,10.8695 -20.8932,7.498 -0.09,-0.6017 -0.3943,-1.2672 -0.6751,-1.4788 -0.2809,-0.2116 -1.2552,-1.7945 -2.1653,-3.5176 -0.9101,-1.7231 -3.2171,-6.0445 -5.1267,-9.6034 -1.9095,-3.5587 -3.5079,-6.726 -3.5517,-7.0383 -0.044,-0.3123 0.5923,-0.8681 1.4139,-1.2351 0.8216,-0.3671 3.9659,-2.2808 6.9874,-4.2527 4.2048,-2.7442 5.9258,-4.3583 7.336,-6.8802 4.6587,-8.3309 5.221,-20.1573 1.1156,-23.4637 -6.7619,-5.4461 -21.1404,-6.8868 -29.6374,-2.9697 l -3.12,1.4382 -2.2345,-3.5958 c -1.229,-1.9778 -2.2688,-3.7897 -2.3107,-4.0266 -0.042,-0.2369 -0.7476,-1.0891 -1.5681,-1.8937 -1.4713,-1.4428 -1.5397,-1.4414 -4.9442,0.099 l -3.4523,1.5615 -3.6425,-2.3166 c -2.0033,-1.2741 -4.4766,-2.9756 -5.4961,-3.781 l -1.8536,-1.4644 -2.1679,4.0432 c -1.1924,2.2238 -2.8663,5.9671 -3.7199,8.3185 -0.8536,2.3514 -1.6854,4.2939 -1.8484,4.3169 -0.1631,0.023 -1.4969,-0.4566 -2.964,-1.0655 -1.8853,-0.7825 -3.5192,-0.9149 -5.5721,-0.4517 l -2.9046,0.6555 2.7751,-8.1514 c 4.1304,-12.1327 4.3699,-11.1143 -2.259,-9.6078 -6.4499,1.4658 -10.6526,3.2146 -15.4125,6.4134 -1.8253,1.2266 -6.0081,3.4273 -9.2951,4.8903 -3.2871,1.4631 -9.0243,4.6954 -12.7494,7.1829 -3.7252,2.4876 -8.4817,5.5042 -10.5701,6.7037 -5.6175,3.2265 -20.484,17.1915 -19.1247,17.965 0.2104,0.1199 4.2864,0.884 9.0577,1.6982 4.7713,0.8142 8.7565,1.5291 8.8561,1.5887 0.099,0.06 -0.2667,1.4074 -0.8139,2.9952 -0.5471,1.5878 -0.8946,3.5994 -0.7722,4.4703 0.2615,1.8611 0.077,1.9145 -4.1169,1.1907 -5.6953,-0.9829 -12.6993,-0.9874 -13.5902,-0.01 -0.5895,0.6476 -0.5019,2.428 0.3298,6.7048 l 1.1324,5.8232 -2.8333,1.7945 c -1.5583,0.987 -3.3852,2.055 -4.0599,2.3735 -0.6746,0.3184 -1.0067,0.9422 -0.738,1.3863 0.2688,0.444 1.9274,3.2119 3.686,6.1507 l 3.1973,5.3433 -3.9675,3.8698 c -4.2578,4.1529 -5.805,6.52 -8.014,12.2611 -4.471,11.62 -3.2019,18.7921 3.9316,22.2186 7.0451,3.384 10.3997,3.9831 17.1944,3.0709 5.8487,-0.7853 6.5484,-1.0482 11.3586,-4.2664 4.898,-3.2769 5.1774,-3.379 6.283,-2.2941 1.1576,1.1357 14.3082,20.3276 14.0932,20.5674 -0.6245,0.6967 -21.1814,14.5363 -21.6999,14.6092 -0.381,0.054 -2.5793,-1.1831 -4.8852,-2.7481 -4.9328,-3.3477 -9.1681,-4.0774 -17.0983,-2.9457 -4.1853,0.5973 -5.711,1.1412 -7.8951,2.8145 -1.4889,1.1407 -2.6828,2.2504 -2.653,2.4658 0.03,0.2153 -0.5967,1.4056 -1.3923,2.645 -1.1711,1.8246 -1.3421,2.9898 -0.8983,6.1237 0.8791,6.2106 2.7655,11.3518 6.2538,17.0468 l 3.2586,5.3201 -1.3532,1.2485 c -1.2437,1.1475 -15.2716,11.3162 -22.4832,16.2979 -1.6785,1.1594 -3.443,2.1593 -3.9212,2.222 -0.4782,0.062 -2.4574,-1.0188 -4.3983,-2.403 -1.9409,-1.3842 -7.911,-5.3835 -13.267,-8.8872 -5.356,-3.5038 -9.9147,-6.5709 -10.1305,-6.8157 -0.2157,-0.2449 1.0305,-2.9601 2.7696,-6.0339 3.57,-6.3103 5.508,-13.2904 5.2257,-18.8216 -0.1697,-3.3256 -0.4809,-4.0618 -2.7882,-6.5979 -3.7963,-4.1728 -8.3335,-5.5622 -15.8902,-4.8662 -5.507,0.5073 -6.3698,0.7852 -11.0048,3.545 l -5.0292,2.9946 -2.7588,-1.6455 c -1.5173,-0.905 -3.8945,-2.2917 -5.2827,-3.0816 -1.3883,-0.7898 -5.287,-3.3263 -8.6639,-5.6365 l -6.1397,-4.2005 1.5074,-2.1775 c 0.8291,-1.1976 3.2657,-5.1234 5.4146,-8.7241 2.1489,-3.6006 4.3841,-7.2486 4.967,-8.1067 0.5828,-0.858 1.4176,-2.2454 1.8549,-3.083 0.7764,-1.4868 0.8663,-1.4727 3.7858,0.594 10.332,7.3138 19.2469,7.9398 30.867,2.1676 5.2257,-2.5958 6.3276,-5.2088 5.2869,-12.5362 -1.3269,-9.3414 -5.0994,-16.4998 -11.3689,-21.5725 -3.4021,-2.7526 -3.4886,-2.9046 -2.6031,-4.5732 0.5037,-0.9493 1.9275,-3.6145 3.1637,-5.9226 l 2.2479,-4.1966 -3.6514,-2.4402 -3.6515,-2.4401 0.7342,-6.4872 c 0.4038,-3.5679 0.5466,-6.6285 0.3173,-6.8013 -0.2292,-0.1727 -4.8377,0.1034 -10.2409,0.6137 -9.1345,0.8628 -9.79,0.8349 -9.3378,-0.3969 0.6438,-1.7539 0.01,-6.0368 -1.1243,-7.588 -0.8489,-1.1618 -0.6279,-1.2819 3.6053,-1.9597 2.4803,-0.397 4.8101,-0.8436 5.1772,-0.9922 0.3672,-0.1486 2.3747,-0.5498 4.4611,-0.8915 3.0325,-0.4967 3.7611,-0.8506 3.6327,-1.7645 -0.2162,-1.5382 -4.2958,-5.6655 -11.4048,-11.5382 -3.2338,-2.6714 -6.5595,-5.6876 -7.3906,-6.7028 -1.6487,-2.0139 -5.5614,-4.1715 -8.4099,-4.6375 -2.0337,-0.3326 -6.355,-2.374 -13.43,-6.3445 -6.3232,-3.5484 -10.3215,-5.1545 -18.2176,-7.3179 -7.8694,-2.1561 -8.6756,-2.1172 -8.3056,0.4001 0.2543,1.7305 2.3241,7.8427 4.2192,12.4604 0.7286,1.7754 0.663,1.8472 -2.0367,2.2266 -2.0013,0.2813 -3.3272,0.9908 -4.6924,2.5112 -1.0466,1.1656 -2.0246,2.0174 -2.1733,1.893 -0.1487,-0.1244 -1.035,-2.1825 -1.9696,-4.5737 -1.5766,-4.0336 -5.5959,-11.4156 -6.6466,-12.2073 -0.2514,-0.1894 -2.875,1.3425 -5.8304,3.4042 l -5.3734,3.7485 -3.1507,-1.4202 c -1.733,-0.7811 -3.4362,-1.3801 -3.7849,-1.3311 -0.6412,0.09 -2.6142,2.989 -5.5166,8.1059 -1.5425,2.7195 -1.6472,2.7782 -3.5968,2.0196 -3.6934,-1.4372 -9.314,-2.4529 -13.1961,-2.3847 -6.7111,0.1178 -15.873005,3.5681 -18.983005,7.1487 -3.4853,4.0129 -1.8704,15.4482 3.3338,23.6078 1.9337,3.0318 3.2748,4.1025 9.018105,7.1996 6.345,3.4216 6.6991,3.7288 5.9495,5.1613 -1.1598,2.2163 -7.2315,14.517 -9.450505,19.1458 -1.2421,2.5909 -2.2001,3.8045 -2.753,3.4878 -0.4665,-0.2671 -5.8832,-2.8669 -12.0374,-5.7773 l -11.1893,-5.2914 -0.4365,-6.5689 c -0.6158,-9.2673 -2.9044,-14.3596 -8.5097,-18.9351 -3.2034,-2.6149 -6.7986,-3.9238 -9.6252,-3.5042 -5.2489,0.779 -13.5889,8.736 -17.326,16.5302 -1.3968,2.9134 -2.8476,5.3403 -3.2239,5.3932 -1.0061,0.1414 -3.0763,-0.6857 -11.6388,-4.6499 -4.2387,-1.9623 -10.24163,-4.6404 -13.3399898,-5.9513 -3.47764,-1.4714 -5.70523,-2.8388 -5.82115,-3.5734 -0.10329,-0.6544 0.0722,-3.6955 0.39004,-6.7578 0.60566,-5.8362 1.79246,-19.6322 2.02916,-23.5879 0.16311,-2.726 0.89928,-2.9401 8.3699398,-2.4335 4.3157,0.2926 5.6703,0.1081 10.2571,-1.397 5.2944,-1.7374 10.0256,-4.4193 11.1248,-6.3062 0.3225,-0.5536 0.9319,-2.5645 1.3542,-4.4686 0.6576,-2.9649 0.5761,-4.0079 -0.567,-7.2619 -2.4231,-6.898 -5.1016,-10.2135 -11.4228,-14.1398 l -5.7657,-3.5813 0.099,-6.118 c 0.055,-3.3649 0.2379,-8.3601 0.4072,-11.1004 0.1694,-2.7403 0.3319,-6.1852 0.3612,-7.6554 0.029,-1.4702 0.3191,-2.5563 0.644,-2.4136 0.3249,0.1428 6.4264,0.401 13.559,0.5739 7.1326,0.1729 13.0979,0.412 13.2561,0.5312 0.1582,0.1192 0.2785,2.5674 0.2672,5.4404 -0.011,2.873 0.1951,6.8012 0.4575,8.7296 1.2868,9.4205 14.9893,21.2766 21.6198,18.7065 3.3213,-1.2875 8.5527,-5.8188 11.7673,-10.1927 3.3074,-4.5002 6.9498,-13.3092 6.5829,-15.9203 -0.2054,-1.4612 0,-1.5299 6.566,-2.2308 l 6.777705,-0.7232 0.135,-3.7353 0.135,-3.7353 4.2493,-1.9963 c 2.3371,-1.098 4.624,-2.049 5.082,-2.1134 0.4581,-0.064 1.3029,-0.58 1.8775,-1.1458 0.9679,-0.9532 0.8647,-1.3409 -1.4031,-5.2712 -1.3462,-2.3332 -2.7101,-4.3641 -3.0308,-4.5131 -0.3207,-0.1489 -1.7633,-1.9307 -3.2059,-3.9593 l -2.6227,-3.6885 1.6843,-0.2367 c 2.2665,-0.3186 5.3065,-2.5521 5.9833,-4.3959 0.303,-0.8256 0.8347,-1.3764 1.1816,-1.224 0.3469,0.1524 3.0196,3.1195 5.9393,6.5937 2.9197,3.4741 5.7066,6.2606 6.1931,6.1923 0.4864,-0.068 1.0052,-0.8557 1.1528,-1.7496 0.1477,-0.8939 0.8537,-3.6126 1.569,-6.0416 2.3002,-7.8116 2.8213,-20.1151 1.8035,-42.5886 -0.66,-14.5745 -1.0755,-18.0252 -2.9238,-24.2845 -2.1934,-7.4279 -2.7039,-7.5226 -7.5725,-1.4053 -1.9125,2.4032 -4.189,5.2005 -5.0588,6.2163 l -1.5814,1.8468 -1.7644,-2.2148 c -0.9703,-1.2181 -2.818,-2.5847 -4.1058,-3.0368 l -2.3416,-0.8221 3.1891,-4.1036 c 5.2148,-6.7102 7.4852,-10.9369 6.5416,-12.1784 -0.4472,-0.5887 -3.1907,-2.0446 -6.0966,-3.2356 l -5.2834,-2.1654 -0.3574,-4.2689 -0.3573,-4.2689 -3.181205,-0.043 c -1.7496,-0.024 -4.6194,-0.036 -6.3772,-0.027 l -3.196,0.016 -1.6732,-5.9304 c -3.5903,-12.7257 -14.4175,-23.8418 -22.0218,-22.6093 -5.6233,0.9113 -15.2368,10.3509 -17.3211,17.0077 -0.428,1.3669 -0.7044,5.7127 -0.6143,9.6574 l 0.1638,7.1722 -4.2458,0.1888 c -2.3351,0.104 -6.4488,0.3282 -9.1413,0.4987 -2.6926,0.1704 -6.8946,0.4095 -9.338,0.5314 l -4.4423,0.2216 -0.5799,-7.4407 c -0.7616,-9.7723 -0.9749,-19.2742 -0.4462,-19.8738 0.2323,-0.2634 2.3429,-1.4981 4.6904,-2.7437 3.1191,-1.6551 5.0914,-3.3531 7.3269,-6.308 5.2857,-6.9868 6.4889,-13.3133 3.6129,-18.9978 -2.859,-5.6509 -11.6129,-8.987 -23.42083,-8.9255 l -6.6068498,0.034 -0.0738,-3.3942 c -0.0407,-1.8669 -0.48752,-9.1431 -0.99305,-16.1693 l -0.91932,-12.7751 6.64485,-3.2122 c 3.6547098,-1.7668 10.1610998,-5.0025 14.4586998,-7.1905 4.2976,-2.188 8.0869,-3.752 8.4206,-3.4755 0.3337,0.2765 1.5498,2.2644 2.7024,4.4176 2.9319,5.4773 9.1058,12.1881 13.2771,14.4318 8.3138,4.4719 17.2255,-0.8481 21.5122,-12.842 1.2062,-3.3752 1.4295,-5.2301 0.9986,-8.2961 -0.3052,-2.172 -0.2328,-4.4872 0.159,-5.1447 0.6276,-1.0512 5.7512,-3.9184 19.7506,-11.0522 2.1523,-1.0968 3.9797,-1.9325 4.0609,-1.8572 0.081,0.075 1.2941,2.5158 2.6954,5.4234 1.4012,2.9077 3.900405,7.7953 5.553705,10.8616 1.6534,3.0663 3.2283,6.0476 3.5,6.6252 0.3835,0.815 -0.8783,1.764 -5.636605,4.2393 -5.279,2.7461 -6.5204,3.7431 -8.9367,7.1768 -3.2441,4.6101 -4.5088,8.1194 -5.2116,14.4611 -0.895,8.0762 1.2773,11.5111 9.0555,14.3182 7.124205,2.571 11.210305,2.8797 19.161505,1.447 3.8557,-0.6947 7.4278,-1.4632 7.938,-1.7077 0.7776,-0.3727 4.1321,4.4135 7.3576,10.4979 0.1511,0.285 1.5658,-0.1519 3.1437,-0.971 4.6641,-2.4211 5.6407,-2.27 10.6569,1.6497 2.5255,1.9735 4.937,3.5397 5.3587,3.4804 0.7277,-0.1023 4.3766,-7.056 6.8954,-13.1404 0.6397,-1.5452 1.2857,-2.8267 1.4358,-2.8478 0.1501,-0.021 1.3796,0.44 2.7324,1.0245 1.3528,0.5846 3.316,0.9437 4.3627,0.7981 1.0468,-0.1447 1.9258,-0.1041 1.9534,0.093 0.027,0.1967 -1.1824,4.0128 -2.6889,8.4804 -1.5065,4.4676 -2.689,8.4796 -2.6277,8.9157 0.2074,1.4758 17.4459,-3.5853 23.3011,-6.8411 1.0389,-0.5777 2.9763,-1.3833 4.3052,-1.7904 1.3289,-0.4071 5.6018,-3.0184 9.4955,-5.8029 3.8937,-2.7846 8.271,-5.6213 9.7274,-6.3038 6.2408,-2.9243 17.1867,-11.4894 21.9271,-17.1576 l 3.3188,-3.9684 -1.9284,-0.4387 c -1.0607,-0.2413 -4.8008,-0.8862 -8.3115,-1.4331 -3.5106,-0.5469 -6.6326,-1.0973 -6.9377,-1.2231 -0.3051,-0.1258 0.01,-1.2704 0.7009,-2.5435 0.8534,-1.5734 1.1185,-3.291 0.8274,-5.3622 -0.3354,-2.3862 -0.1936,-3.0114 0.6534,-2.8813 2.5527,0.392 7.7851,0.8422 11.0704,0.9525 1.9496,0.065 4.2743,0.2275 5.1661,0.3599 1.5424,0.2292 1.5954,0.056 1.0888,-3.5487 -0.2929,-2.0844 -0.5374,-5.1879 -0.5432,-6.8968 -0.01,-2.8285 0.2693,-3.3194 3.1113,-5.4746 3.4162,-2.5908 3.509,-2.9286 1.6291,-5.9323 -3.5656,-5.6971 -4.6808,-8.3763 -3.7934,-9.1134 0.4765,-0.3958 1.1077,-0.6136 1.4026,-0.4841 0.2949,0.1296 2.3789,-2.1688 4.6311,-5.1073 5.2867,-6.8979 7.4682,-13.3366 6.9982,-20.654501 -0.384,-5.9779 -1.2455,-7.3147 -6.36,-9.8679 -4.7391,-2.3658 -11.3686,-3.4299 -16.7003,-2.6806 -3.7147,0.5221 -5.5507,1.268 -10.4321,4.2385 l -5.924,3.6049 -3.1689,-4.9729 c -1.7429,-2.7351 -4.5419,-7.0572 -6.2199,-9.6045 -1.6781,-2.5474 -3.0982,-4.9673 -3.1559,-5.3776 -0.058,-0.4103 -0.3799,-0.7073 -0.716,-0.66 -0.3362,0.047 -0.8495,-0.4853 -1.1409,-1.1831 -0.4466,-1.07 1.221,-2.4807 10.6379,-8.9985 12.2208,-8.4586 11.0108,-8.1079 16.2004,-4.6956 3.7458,2.463 7.2576,3.583 12.0571,3.8454 6.4563,0.3531 11.4523,-1.1472 14.2445,-4.2774 1.2195,-1.3671 2.3221,-2.5777 2.45,-2.6902 0.1281,-0.1124 0.4038,-2.0688 0.6127,-4.3474 0.546,-5.9555 -1.4809,-12.9939 -5.7125,-19.8363 -1.8258,-2.9524 -3.0914,-5.6372 -2.8125,-5.9662 0.279,-0.3289 4.2583,-3.2775 8.843,-6.5524 4.5847,-3.2749 10.3574,-7.4478003 12.8284,-9.2732003 2.471,-1.8253 4.8706,-3.1508 5.3325,-2.9457 l 0,0 z m -8.4186,57.3688003 c -10.1404,6.5769 -7.8045,22.6497 3.7887,26.0689 8.8185,2.6007 18.3451,-3.6347 18.953,-12.4052 0.894,-12.8968 -11.9893,-20.6374 -22.7417,-13.6637 l 0,0 z m 5.4878,74.293301 c -1.6735,1.3297 -5.871,4.3297 -9.3277,6.6668 -6.8787,4.6508 -7.1154,5.0774 -5.944,10.7153 l 0.681,3.2775 4.3852,1.0795 c 5.5892,1.3757 7.7077,2.1284 7.798,2.7702 0.04,0.2812 -0.7375,1.2099 -1.7266,2.0638 -6.994,6.0373 -10.7352,9.5797 -10.5769,10.0146 0.1015,0.2789 0.014,1.1236 -0.1946,1.877 -0.6315,2.2816 3.6129,24.3953 6.1507,32.0457 3.4252,10.3256 9.959,19.762 13.3529,19.2851 1.796,-0.2525 6.7036,-5.6176 8.8044,-9.6254 3.4506,-6.5825 6.8577,-20.4462 8.8172,-35.8777 0.3752,-2.9554 0.5923,-6.0024 0.4825,-6.7709 -0.1105,-0.7683 -3.0975,-3.9523 -6.6391,-7.0752 -3.5416,-3.1228 -6.4795,-5.9645 -6.5287,-6.3147 -0.049,-0.3502 1.3857,-0.8718 3.1886,-1.1592 1.803,-0.2874 4.8059,-0.9476 6.6733,-1.4671 3.0489,-0.8482 3.3704,-1.1209 3.1521,-2.6743 -0.1338,-0.9514 -0.094,-2.0683 0.088,-2.4819 0.1819,-0.4136 0.3701,-1.8689 0.4181,-3.2339 0.083,-2.3738 -0.1336,-2.6181 -4.9879,-5.6137 -2.7914,-1.7227 -7.0759,-4.6925 -9.5212,-6.5998 -2.4454,-1.9072 -4.6838,-3.4343 -4.9741,-3.3935 -0.2905,0.041 -1.8974,1.1621 -3.5709,2.4918 l 0,0 z m -211.174805,47.7114 c -5.3872,3.5316 -7.6476,8.3414 -6.7895,14.4468 1.1764,8.3705 8.2219,13.5659 16.6838,12.3027 5.3079,-0.7923 8.8622,-3.4993 11.0035,-8.3803 1.3905,-3.1696 1.53,-4.3776 0.9667,-8.3696 -0.5724,-4.0557 -0.985,-5.0189 -3.1569,-7.3699 -2.9232,-3.1643 -9.2396,-5.6414 -13.0077,-5.1013 -1.3583,0.1945 -3.9233,1.3069 -5.6999,2.4716 z m 178.684705,-0.4552 c -6.4765,5.4479 -13.2303,11.5264 -15.059,13.5533 -1.3174,1.4602 -2.501,1.9515 -5.8278,2.419 -3.2788,0.4608 -4.7976,1.0798 -7.0764,2.8841 -1.5958,1.2636 -3.0092,2.7641 -3.1408,3.3344 -0.1316,0.5703 -0.7499,1.1156 -1.374,1.2118 -0.624,0.096 -2.4072,0.9828 -3.9624,1.97 -1.5553,0.9872 -4.5483,2.2096 -6.6513,2.7162 -3.6742,0.8853 -20.2082,6.8504 -22.4848,8.1119 -0.6064,0.3361 -1.0824,0.7552 -1.0576,0.9313 0.2689,1.9136 13.2063,12.6014 19.5788,16.1745 9.2651,5.1949 12.7401,5.956 19.6762,4.3095 l 5.0297,-1.1939 0.7399,1.894 c 1.9906,5.0954 13.4302,18.8882 18.9173,22.8088 3.2484,2.3209 8.6453,3.893 11.8239,3.4442 0.5969,-0.084 1.765,-1.895 2.5959,-4.0238 2.8352,-7.2639 0.2256,-19.1912 -6.9779,-31.892 -1.4831,-2.6152 -2.772,-5.2917 -2.864,-5.9477 -0.092,-0.6561 1.2024,-2.754 2.8765,-4.6619 3.667,-4.1791 4.434,-6.1878 4.954,-12.9741 0.6936,-9.0515 -2.5943,-29.2026 -4.6948,-28.774 -0.4485,0.092 -2.7081,1.7585 -5.0214,3.7044 l 0,0 z m 66.3105,-1.1359 c -2.8745,8.3346 -3.7235,25.8426 -1.5639,32.2504 0.4506,1.337 2.4308,4.0374 4.4004,6.0009 l 3.5812,3.5699 -2.8888,5.7079 c -5.6409,11.1459 -9.1592,23.0613 -8.4014,28.4532 0.1942,1.3814 0.8829,3.6647 1.5304,5.074 1.1195,2.4363 1.3165,2.5419 4.0062,2.148 3.3599,-0.492 8.9432,-3.6309 12.8272,-7.2112 3.0268,-2.7901 11.3494,-13.2496 14.2486,-17.9072 l 1.7954,-2.8844 4.6474,1.4491 c 5.4942,1.7132 8.438,1.4408 14.8368,-1.3727 5.304,-2.3322 16.0828,-9.7322 20.0955,-13.7961 l 2.706,-2.7406 -4.0018,-1.8327 c -2.2009,-1.008 -7.4539,-3.0341 -11.6733,-4.5025 -4.2193,-1.4683 -8.261,-3.116 -8.9815,-3.6615 -0.7205,-0.5455 -4.7351,-2.7709 -8.9215,-4.9454 -10.0842,-5.2381 -16.7473,-9.6815 -23.3922,-15.5998 -5.1288,-4.5679 -13.2574,-11.1901 -13.6652,-11.1328 -0.1004,0.014 -0.6339,1.3342 -1.1855,2.9335 z m -171.5887,34.4075 c -1.9718,1.1569 -6.4559,3.3662 -9.9646,4.9096 l -6.3795,2.8061 0.8687,9.5134 c 0.4778,5.2323 0.8998,10.9378 0.9378,12.6787 0.066,3.0099 0.2037,3.2332 2.8076,4.5445 1.5061,0.7585 3.2193,1.7084 3.8071,2.1109 2.0666,1.4152 2.6575,1.0188 8.5085,-5.7086 5.2542,-6.0411 4.8293,-6.2717 6.2715,3.4022 0.7031,4.7163 1.5371,9.0421 1.8534,9.6129 0.8638,1.5587 6.4503,4.0764 17.9985,8.1116 17.399,6.0796 26.4041,7.2934 34.8274,4.6942 2.3582,-0.7277 4.4201,-1.4988 4.582,-1.7137 0.1619,-0.2148 -0.4038,-2.7657 -1.2573,-5.6685 -2.9718,-10.1083 -9.3376,-17.4144 -27.1931,-31.2101 -10.3782,-8.0185 -9.4879,-7.8594 -19.9653,-3.567 -3.7802,1.5488 -7.0853,2.656 -7.3446,2.4605 -0.2593,-0.1954 0.5608,-3.5141 1.8225,-7.3749 1.2616,-3.8609 2.2512,-7.324 2.1989,-7.696 -0.052,-0.372 -1.7158,-1.4772 -3.6967,-2.4561 -1.9809,-0.9789 -3.7462,-2.0279 -3.923,-2.331 -0.3725,-0.639 -1.7898,-0.035 -6.7598,2.8813 l 0,0 z m 341.737,-31.1904 c -1.3915,1.0215 -3.2872,3.3387 -4.2126,5.1494 -1.4705,2.8769 -1.6003,3.8805 -1.0296,7.9583 0.5589,3.9927 1.0258,5.1154 3.2361,7.7789 3.4038,4.1017 7.5665,5.7241 12.8872,5.0227 8.4823,-1.1181 13.8229,-8.0543 12.6465,-16.4248 -1.588,-11.2987 -14.1552,-16.3649 -23.5276,-9.4845 z m -71.4647,34.2677 c -1.2189,0.9359 -1.2239,1.3765 -0.068,5.995 0.6864,2.7417 1.5205,5.6611 1.8535,6.4874 0.333,0.8263 0.4312,1.527 0.2181,1.5569 -0.3515,0.049 -6.1918,-2.0666 -14.1786,-5.1372 -3.4573,-1.3291 -2.8974,-1.5733 -11.6682,5.0891 -12.4013,9.4202 -15.472,12.0369 -18.8065,16.0255 -0.8272,0.9894 -1.7265,1.8302 -1.9985,1.8684 -1.6766,0.2357 -8.1495,12.5121 -8.5432,16.2032 -0.1756,1.6458 0.1581,1.9881 2.8395,2.9128 1.6711,0.5764 5.5078,1.1233 8.526,1.2154 6.6506,0.2029 17.5963,-2.2846 31.231,-7.0976 4.7815,-1.6878 9.6134,-3.1061 10.7377,-3.1518 2.2643,-0.092 1.8896,0.8801 4.5177,-11.7199 0.7505,-3.5982 1.5691,-6.8418 1.8192,-7.208 0.2501,-0.3663 1.8651,0.9943 3.5888,3.0235 1.7238,2.0292 3.8486,4.2783 4.7217,4.9979 1.5014,1.2373 1.7327,1.2329 4.2621,-0.08 1.471,-0.7636 3.2402,-1.2926 3.9316,-1.1755 1.0578,0.179 1.325,-0.6675 1.6859,-5.3423 0.4369,-5.6583 1.36,-14.388 1.8066,-17.0842 0.2057,-1.2424 -0.5138,-1.8261 -4.296,-3.4851 -2.4988,-1.0961 -4.9945,-2.3206 -5.5462,-2.7212 -0.5517,-0.4006 -2.9959,-1.7495 -5.4314,-2.9977 l -4.4283,-2.2693 -2.7297,1.5424 c -1.5013,0.8483 -3.3217,1.9968 -4.0452,2.5524 l -10e-5,0 z m -259.6397,70.5112 c 2.6544,15.408 2.6935,15.8675 1.6155,18.9932 -1.2524,3.6313 -0.7753,9.2499 1.0485,12.3461 0.9625,1.6339 1.034,2.8656 0.4583,7.8935 -0.3752,3.2766 -0.8845,6.3109 -1.1317,6.7428 -0.5238,0.9149 -2.7575,14.2083 -2.9516,17.5661 -0.1281,2.2149 -0.058,2.2769 2.2022,1.954 6.9362,-0.9907 15.3068,-4.6704 24.6449,-10.834 5.5606,-3.6704 7.1722,-5.7874 8.8112,-11.5745 l 1.1233,-3.9663 14.9154,-2.0963 c 13.0922,-1.8399 15.1038,-2.2736 16.4561,-3.5475 0.8473,-0.7981 2.038,-1.5211 2.6459,-1.6066 1.4814,-0.2082 6.2312,-5.6544 6.0508,-6.9379 -0.2047,-1.457 -2.7479,-4.9127 -4.6999,-6.3861 -3.1004,-2.3406 -9.8421,-4.4439 -17.4235,-5.4359 -10.5064,-1.3748 -14.103,-1.6947 -16.0223,-1.4249 -1.5192,0.2135 -1.786,-0.1756 -3.1995,-4.6658 -1.958,-6.2194 -2.8452,-7.4434 -8.1058,-11.1823 -7.2475,-5.1512 -24.2224,-12.2242 -28.1872,-11.745 -0.8183,0.099 -0.5433,2.5989 1.7494,15.9074 l 0,0 z m 117.0765,-19.1271 c -2.3618,7.484 -3.5817,8.3413 -13.2605,9.3186 -4.2091,0.4251 -8.1869,0.6285 -8.8397,0.4523 -1.0222,-0.2761 -1.1236,0.451 -0.731,5.2403 0.6292,7.6744 -0.01,8.779 -6.9842,12.0785 l -5.6221,2.6595 2.3965,2.0625 c 1.3181,1.1344 2.7064,2.8863 3.0852,3.8932 0.3788,1.0068 1.1213,2.8811 1.65,4.165 2.1321,5.1778 1.279,10.0487 -1.9892,11.3571 -0.9222,0.3692 -2.5378,1.5357 -3.5901,2.5922 -1.0524,1.0566 -2.2991,1.9753 -2.7706,2.0415 -1.2166,0.171 -0.3546,1.5741 1.3606,2.2147 2.855,1.0661 9.7657,4.3134 11.3368,5.3269 1.5887,1.025 1.5998,1.089 1.2528,7.2528 -0.4134,7.3442 0.09,8.2449 3.9246,7.0291 4.0082,-1.2707 7.8403,-0.4135 11.4788,2.568 3.0041,2.4615 3.5238,3.3547 5.1555,8.8601 0.4224,1.4256 2.9398,0.6472 7.1963,-2.2253 7.6377,-5.1542 6.2831,-5.0939 13.1016,-0.5837 3.3437,2.2118 6.2759,3.9982 6.5159,3.9699 0.24,-0.028 0.6727,-1.1167 0.9616,-2.4185 1.4432,-6.5027 2.191,-8.2534 4.4587,-10.4372 2.1528,-2.073 3.0392,-2.4351 7.4932,-3.0611 2.7783,-0.3905 6.6931,-0.5921 8.6996,-0.448 2.0064,0.1439 3.7392,0.1386 3.8505,-0.012 0.1114,-0.1505 0.063,-2.6356 -0.1064,-5.5222 -0.1699,-2.8867 -0.2198,-5.7851 -0.11,-6.441 0.1183,-0.7131 2.2926,-2.2688 5.4079,-3.8694 2.8656,-1.4723 5.3161,-3.1363 5.4457,-3.6979 0.1296,-0.5616 -1.6067,-2.8552 -3.8584,-5.097 -2.7355,-2.7235 -4.188,-4.7443 -4.3771,-6.0901 -0.3774,-2.6856 2.9134,-8.4492 6.8355,-11.9718 1.698,-1.525 3.074,-2.8669 3.0578,-2.9819 -0.016,-0.1151 -1.4737,-0.8846 -3.2391,-1.7101 -1.7653,-0.8255 -4.8653,-2.4165 -6.8889,-3.5355 l -3.6791,-2.0346 -0.02,-3.5252 c -0.011,-1.9388 0.1595,-4.0265 0.3785,-4.6394 0.2189,-0.6129 0.4119,-2.6121 0.4287,-4.4427 l 0.031,-3.3284 -2.2253,0.9908 c -1.2239,0.545 -4.287,1.2807 -6.8069,1.6348 -7.2805,1.0233 -10.0792,-1.2185 -11.8333,-9.4787 l -1.0609,-4.9953 -6.0059,4.0481 c -3.3033,2.2265 -6.2506,4.0824 -6.5496,4.1245 -0.299,0.042 -1.4005,-0.5176 -2.4479,-1.2436 -5.3018,-3.6748 -8.8164,-5.6364 -9.7895,-5.4639 -0.6432,0.114 -1.7432,2.2905 -2.7164,5.3743 z m 128.4192,7.2423 c -5.2688,2.1579 -10.8726,5.5356 -15.3138,9.2305 -1.5362,1.2781 -2.5632,3.2849 -3.8042,7.4335 -0.935,3.1255 -1.7929,5.8205 -1.9065,5.9887 -0.1136,0.1683 -0.7869,-0.052 -1.4962,-0.4902 -0.9993,-0.6169 -4.2674,-0.379 -14.5094,1.0566 -12.1078,1.6973 -13.5215,2.0283 -16.8073,3.9387 -1.9732,1.1472 -4.4658,3.1807 -5.5391,4.5189 l -1.9515,2.433 1.9495,2.573 c 2.7555,3.6369 7.1928,6.0723 13.9535,7.6586 7.9279,1.8601 12.0134,2.3939 18.7855,2.4545 l 5.7471,0.051 0.9531,3.4967 c 2.0529,7.5311 6.5529,11.9715 17.4871,17.255 6.7879,3.2801 15.4743,6.0244 18.0744,5.7102 1.155,-0.1394 -2.0891,-16.6002 -4.4866,-22.7652 -0.5251,-1.3502 -0.3696,-2.1496 0.6354,-3.2644 4.4809,-4.9714 4.8027,-13.6297 0.7003,-18.8451 -2.7554,-3.5028 -2.7407,-5.0274 0.1732,-17.8463 1.2757,-5.6123 2.3675,-11.3435 2.4262,-12.736 l 0.1068,-2.5319 -4.8496,1.218 c -2.6673,0.6699 -7.3149,2.2277 -10.3279,3.4618 l 0,0 z m -214.3986,79.5835 c -3.9387,0.9684 -10.6913,3.0087 -15.0059,4.5341 -12.9554,4.5803 -17.5406,7.3481 -17.8013,10.7457 -0.084,1.0964 -0.4154,2.2115 -0.7362,2.4779 -0.3208,0.2665 -0.5137,0.979 -0.4288,1.5834 0.2374,1.6894 -1.5861,9.6028 -2.2338,9.6938 -0.3154,0.044 -2.1342,-1.642 -4.042,-3.7474 -4.8111,-5.3096 -6.1902,-6.2668 -7.5653,-5.2505 -0.6134,0.4533 -2.364,1.5568 -3.8901,2.4523 -2.2428,1.3158 -2.8396,2.1182 -3.1125,4.1835 -0.1857,1.4055 -0.2517,3.1791 -0.1467,3.9415 0.1047,0.7623 -0.1757,4.6119 -0.6237,8.5546 -0.448,3.9428 -0.8618,7.8104 -0.9195,8.5946 -0.084,1.136 0.6588,1.6579 3.6504,2.5669 2.0654,0.6275 7.0172,2.7154 11.004,4.6399 5.3787,2.5962 7.6062,3.3301 8.6341,2.8447 3.2192,-1.5204 4.3294,-2.2977 4.2355,-2.9657 -0.055,-0.3899 0.523,-0.7966 1.2841,-0.9035 1.7121,-0.2407 1.4955,-2.502 -0.9189,-9.5956 -1.6658,-4.8941 -1.6661,-4.9033 -0.1256,-4.6646 0.849,0.1316 2.5563,0.6673 3.794,1.1905 5.8557,2.4754 9.719,3.5559 11.7119,3.2758 1.4512,-0.2039 4.2238,-2 8.3049,-5.3798 13.6655,-11.3173 19.8246,-17.656 24.4004,-25.1116 2.5362,-4.1324 4.9263,-10.7761 4.6314,-12.8741 -0.1864,-1.3269 -9.416,-3.0539 -14.4928,-2.7118 -1.3455,0.091 -5.6689,0.9571 -9.6076,1.9254 l 0,0 z m 59.4233,7.6081 c -4.23,3.4594 -11.955,12.9699 -15.8376,19.4982 l -2.5916,4.3577 -5.1,-1.0153 c -3.9634,-0.7889 -5.8008,-0.8108 -8.2452,-0.098 -6.2561,1.8237 -16.8897,8.4978 -22.4258,14.0752 -6.2203,6.2666 -6.2132,6.2567 -5.1829,7.1945 0.5236,0.4766 5.8687,2.4731 11.8781,4.4368 15.0085,4.9042 14.4523,4.6509 16.3013,7.425 3.0615,4.5936 7.2993,6.959 12.8639,7.1802 2.0444,0.081 3.5816,0.9641 7.2889,4.1865 6.3087,5.4835 18.7167,15.1666 19.3249,15.0811 0.8942,-0.1257 2.9909,-9.0704 3.5807,-15.2765 0.3201,-3.3678 0.2646,-9.5863 -0.1233,-13.8189 -0.7844,-8.5587 -1.3617,-9.8535 -6.5502,-14.6917 -2.2671,-2.1141 -2.6094,-2.7411 -1.9674,-3.6042 1.6182,-2.1756 5.3054,-10.3846 7.5524,-16.8143 3.3078,-9.4656 3.956,-16.7548 1.8328,-20.6142 -1.7226,-3.1311 -6.9939,-2.0859 -12.599,2.4981 l 0,0 z m 64.8464,-5.1837 c -0.7028,1.7481 -1.3694,4.3025 -1.4813,5.6765 -0.4643,5.701 3.0336,17.2148 8.148,26.8201 1.3199,2.4789 2.6589,5.0492 2.9754,5.7118 0.4213,0.8816 -0.4779,2.5215 -3.3534,6.116 -3.8009,4.7512 -3.9449,5.0976 -4.4153,10.6243 -0.7491,8.7996 2.8883,32.4038 4.9486,32.1142 1.1109,-0.1561 11.2087,-8.5296 12.6732,-10.5091 0.8083,-1.0923 2.1342,-2.9044 2.9467,-4.0266 2.6843,-3.7081 8.0321,-7.1335 12.0093,-7.6925 6.2381,-0.8767 7.9015,-1.8016 11.2631,-6.2627 3.403,-4.5159 4.165,-4.9119 24.9867,-12.985 3.4086,-1.3215 6.3173,-2.6758 6.4639,-3.0093 0.427,-0.972 -8.8045,-9.3469 -13.8213,-12.5389 -11.0367,-7.0221 -15.305,-8.1975 -24.0352,-6.619 l -4.0008,0.7234 -5.6567,-7.884 c -8.8634,-12.3531 -15.4662,-17.8872 -22.7903,-19.1021 -4.9629,-0.8231 -5.4714,-0.6124 -6.8606,2.8429 l 0,0 z m 53.7469,-6.5834 c -1.7146,0.6007 -2.0538,1.0705 -1.8423,2.552 0.4873,3.4152 5.2868,12.5559 7.7385,14.7382 0.4502,0.4008 1.9603,2.0492 3.3557,3.6632 4.7955,5.5467 20.4556,17.9469 24.7582,19.6042 2.7918,1.0755 2.8039,1.074 8.3217,-1.0339 6.9048,-2.6376 10.5785,-3.8135 10.636,-3.4043 0.024,0.1738 -0.6875,3.0152 -1.5821,6.3143 -0.8946,3.2991 -1.5609,6.4657 -1.4806,7.0369 0.1653,1.1765 2.5855,2.8781 5.8271,4.0971 2.1172,0.7962 2.5102,0.6645 11.5288,-3.8641 l 9.3369,-4.6884 -0.9731,-10.4232 c -1.0897,-11.6715 -1.1917,-11.8821 -6.7474,-13.9277 -2.5771,-0.9489 -2.6041,-0.9434 -4.6663,0.9621 -1.1408,1.0541 -3.0977,3.1132 -4.3485,4.5758 -1.2508,1.4626 -2.5396,2.6965 -2.8641,2.7421 -0.6278,0.088 -2.4463,-6.8538 -3.2979,-12.5898 -0.2823,-1.9007 -0.9622,-3.898 -1.5109,-4.4386 -1.9826,-1.953 -18.3103,-8.0624 -30.6971,-11.486 -7.6102,-2.1033 -16.2249,-2.2757 -21.4926,-0.4299 l 0,0 z m -291.508405,70.1891 c -4.4622,3.1006 -6.6079,8.208 -5.8158,13.8439 1.1713,8.3338 8.2256,13.5653 16.6054,12.3145 11.6507,-1.739 16.4482,-14.6682 8.8401,-23.8235 -4.9183,-5.9186 -13.0758,-6.8889 -19.6297,-2.3349 z m 207.715005,-21.7727 c -7.0318,6.8535 -11.2115,19.4949 -13.8051,41.7529 -0.6866,5.892 -0.7212,8.7454 -0.1219,10.0316 0.4607,0.9886 3.8171,4.1141 7.4588,6.9455 3.6416,2.8314 6.5048,5.3025 6.3625,5.4913 -0.1423,0.1888 -3.4576,1.1311 -7.3674,2.0941 -3.9097,0.9629 -7.3634,2.0857 -7.6747,2.495 -0.3114,0.4094 -0.3921,2.7433 -0.1796,5.1866 l 0.3865,4.4423 4.7095,2.779 c 2.5902,1.5284 7.1219,4.5831 10.0705,6.7882 2.9486,2.205 5.7639,3.9526 6.2562,3.8834 0.4923,-0.069 3.1994,-1.9703 6.0156,-4.2247 2.8162,-2.2544 7.0854,-5.2654 9.487,-6.6911 2.4017,-1.4258 4.597,-2.9919 4.8783,-3.4802 0.2818,-0.4882 0.5408,-2.8931 0.5766,-5.3439 0.076,-5.1852 0.8215,-4.636 -9.0069,-6.6345 -3.6953,-0.7514 -6.7319,-1.559 -6.748,-1.7947 -0.016,-0.2357 2.6826,-2.556 5.9972,-5.1562 3.3146,-2.6003 6.439,-5.5795 6.9432,-6.6205 0.7775,-1.6054 0.646,-3.7297 -0.8658,-13.99 -3.0228,-20.5163 -7.5139,-32.2522 -14.6436,-38.267 -1.912,-1.613 -3.9912,-2.8525 -4.6206,-2.7544 -0.6294,0.098 -2.4782,1.4783 -4.1083,3.0673 l 0,0 z m 204.097,14.2672 c -8.1766,5.7989 -7.8223,19.8465 0.6175,24.4773 4.3034,2.3612 6.0871,2.7288 10.2262,2.1073 9.4789,-1.4234 14.9719,-11.554 11.1412,-20.5475 -1.515,-3.5571 -6.384,-7.625 -10.0711,-8.4142 -3.4771,-0.7443 -9.0922,0.376 -11.9138,2.3771 l 0,0 z m -206.8848,123.7774 c -3.3487,2.5883 -5.5653,7.6974 -5.361,12.3566 0.203,4.6263 3.7693,10.0074 7.9555,12.0037 5.7536,2.7438 13.4614,1.5018 17.3151,-2.79 5.4789,-6.1017 6.0931,-13.4701 1.5614,-18.7303 -3.4408,-3.9938 -6.0022,-5.5484 -9.9217,-6.0215 -4.3216,-0.5217 -8.1075,0.5212 -11.5493,3.1815 l 0,0 z"
     id="path4283"
     inkscape:connector-curvature="0" />
</svg>
