<?xml version="1.0" encoding="UTF-8" standalone="no"?>
<!-- Created with Inkscape (http://www.inkscape.org/) -->

<svg
   xmlns:dc="http://purl.org/dc/elements/1.1/"
   xmlns:cc="http://creativecommons.org/ns#"
   xmlns:rdf="http://www.w3.org/1999/02/22-rdf-syntax-ns#"
   xmlns:svg="http://www.w3.org/2000/svg"
   xmlns="http://www.w3.org/2000/svg"
   xmlns:sodipodi="http://sodipodi.sourceforge.net/DTD/sodipodi-0.dtd"
   xmlns:inkscape="http://www.inkscape.org/namespaces/inkscape"
   id="svg3939"
   version="1.1"
   inkscape:version="0.48.5 r10040"
   width="2550"
   height="2946"
   sodipodi:docname="spindly flake.png">
  <metadata
     id="metadata3945">
    <rdf:RDF>
      <cc:Work
         rdf:about="">
        <dc:format>image/svg+xml</dc:format>
        <dc:type
           rdf:resource="http://purl.org/dc/dcmitype/StillImage" />
        <dc:title></dc:title>
      </cc:Work>
    </rdf:RDF>
  </metadata>
  <defs
     id="defs3943" />
  <sodipodi:namedview
     pagecolor="#ffffff"
     bordercolor="#666666"
     borderopacity="1"
     objecttolerance="10"
     gridtolerance="10"
     guidetolerance="10"
     inkscape:pageopacity="0"
     inkscape:pageshadow="2"
     inkscape:window-width="1920"
     inkscape:window-height="1178"
     id="namedview3941"
     showgrid="false"
     inkscape:zoom="0.32043449"
     inkscape:cx="775.52651"
     inkscape:cy="1653.7578"
     inkscape:window-x="-8"
     inkscape:window-y="-8"
     inkscape:window-maximized="1"
     inkscape:current-layer="svg3939" />
  <path
     style="fill:none;stroke:#0000ff;stroke-width:0.08810814;stroke-linecap:butt;stroke-linejoin:miter;stroke-miterlimit:4;stroke-opacity:1;stroke-dasharray:none"
     d="m 1560.6318,1616.1895 c -12.2717,4.1142 -14.5548,5.6407 -14.5548,9.7311 0,4.7063 -1.0859,9.3101 -2.1958,9.3101 -0.5347,0 -2.4571,-1.3038 -4.2721,-2.8974 -3.1721,-2.7851 -3.4425,-2.8463 -6.9821,-1.5793 -2.0252,0.725 -4.8571,1.8626 -6.2932,2.5281 -2.3574,1.0925 -3.1858,0.8608 -8.5278,-2.3842 -6.7282,-4.0872 -6.0927,-4.2293 -16.1578,3.6122 -2.629,2.0482 -4.8943,3.5989 -5.0339,3.446 -0.1396,-0.1528 0.1129,-2.4806 0.5611,-5.1728 1.7901,-10.7529 1.8015,-10.7267 -6.8296,-15.7417 -7.3628,-4.2781 -7.7931,-4.7184 -8.3831,-8.5791 -2.2356,-14.6267 -3.7518,-22.8708 -4.4482,-24.1861 -0.4415,-0.8337 -5.4464,-4.2479 -11.1221,-7.5871 -10.722,-6.3081 -12.2985,-6.7103 -21.4097,-5.4615 -4.0001,0.5483 -4.4912,0.9007 -4.8721,3.4956 -0.2329,1.5871 1.041,10.2337 2.831,19.2145 1.7899,8.9809 3.2601,17.2532 3.267,18.3829 0.01,1.4421 1.1737,2.5776 3.9104,3.8117 3.2414,1.4617 3.9978,2.3524 4.4909,5.2883 0.3261,1.9419 0.7744,4.2069 0.9962,5.0334 0.2342,0.873 -1.7503,3.5883 -4.7357,6.4798 l -5.1388,4.9772 -6.982,-1.0155 -6.9819,-1.0155 -1.9947,-7.8879 -1.9947,-7.888 3.9247,-4.2578 c 2.8728,-3.1166 3.7826,-4.8286 3.3944,-6.3873 -0.2917,-1.1711 -0.818,-4.1118 -1.1694,-6.5348 -0.9402,-6.4824 -6.1627,-27.3422 -7.5541,-30.1724 -0.6604,-1.3435 -2.0562,-2.924 -3.1016,-3.5121 -1.0454,-0.5881 -4.1292,-2.4381 -6.8529,-4.1112 -10.964,-6.7349 -9.9614,-6.6136 -19.1931,-2.3211 -8.3616,3.8878 -9.6923,3.858 -9.729,-0.2179 -0.01,-0.9158 -0.4865,-3.864 -1.0629,-6.5515 l -1.048,-4.8865 -14.4593,-9.3569 c -7.9525,-5.1463 -14.9405,-9.3569 -15.5287,-9.3569 -1.6827,0 -2.0491,2.3334 -3.1469,20.0407 l -1.03,16.6143 6.2548,6.2547 6.2548,6.2548 -7.8164,4.0529 c -5.1101,2.6497 -8.1218,4.8519 -8.6986,6.3607 -0.4853,1.2694 -1.1604,6.851 -1.5001,12.4038 l -0.6177,10.0958 5.7731,6.084 c 3.1752,3.3462 9.5821,9.5113 14.2375,13.7003 l 8.4644,7.6163 6.0396,-1.5214 6.0397,-1.5214 6.1549,6.1422 6.1549,6.1422 -2.9942,7.5411 -2.9941,7.5411 -7.1996,1.2793 -7.1996,1.2792 -3.9301,-3.8124 c -3.4943,-3.3896 -3.8702,-4.1964 -3.3895,-7.2742 0.5905,-3.7813 -0.9516,-5.7033 -13.0972,-16.325 -2.9481,-2.5782 -8.3273,-7.4411 -11.9537,-10.8063 -3.6265,-3.3653 -6.7543,-6.1187 -6.9508,-6.1187 -0.1965,0 -2.5616,2.7534 -5.2558,6.1187 -4.794,5.9882 -4.9243,6.3273 -6.1127,15.9084 -0.6678,5.3844 -1.434,10.9785 -1.7025,12.4315 -0.5161,2.792 0.4847,4.123 13.6756,18.1884 5.5578,5.9264 5.7428,6.2929 5.1882,10.2793 -0.3162,2.2736 -0.8567,6.4089 -1.201,9.1895 l -0.626,5.0556 7.4469,4.2447 c 4.0958,2.3345 7.4516,4.5045 7.4573,4.8221 0.01,0.3176 -3.174,1.1465 -7.066,1.8421 -11.8533,2.1182 -12.2363,2.3584 -13.0339,8.1714 -1.0353,7.5446 -1.4661,8.2023 -7.3121,11.1626 l -5.3734,2.7209 -0.2915,6.1186 c -0.1603,3.3653 -0.6008,6.1134 -0.979,6.1069 -0.3781,-0.01 -2.6113,-1.1116 -4.9626,-2.4557 l -4.2751,-2.4439 -6.9832,3.5413 c -3.8407,1.9478 -7.4268,3.899 -7.969,4.3361 -0.5647,0.4553 -3.4921,-0.9972 -6.8528,-3.4001 l 2e-4,-10e-5 c -7.4821,-5.3499 -9.2882,-5.8773 -13.7465,-4.0144 -5.477,2.2884 -5.6598,2.1318 -4.9398,-4.2325 l 0.6499,-5.7442 -5.8992,-3.8009 -5.8993,-3.8009 -0.01,-5.9228 c 0,-3.2576 -0.474,-6.3883 -1.0428,-6.9571 -0.5689,-0.5689 -5.1204,-2.3045 -10.1144,-3.857 l -9.0801,-2.8227 7.9117,-3.5724 7.9117,-3.5723 0.2785,-9.8609 0.2786,-9.8608 8.5323,-7.2667 c 14.2594,-12.1445 13.2908,-10.2216 12.5006,-24.8173 l -0.6783,-12.5351 -4.0846,-6.1186 c -2.2465,-3.3652 -4.5286,-6.1181 -5.0714,-6.1174 -0.5427,0 -2.3083,1.1513 -3.9236,2.5569 -1.6153,1.4057 -4.4789,3.7155 -6.3634,5.1329 -1.8845,1.4174 -3.6467,2.8144 -3.9159,3.1045 -0.2693,0.2901 -2.9125,2.2587 -5.8739,4.3748 -2.9614,2.1162 -7.4718,5.5804 -10.0231,7.6985 -4.2456,3.5245 -4.6013,4.1499 -4.1961,7.3784 0.3984,3.1747 0.02,3.8943 -3.783,7.1927 l -4.2258,3.6652 -6.9075,-2.0767 -6.9076,-2.0766 -2.4661,-7.4517 c -1.3564,-4.0985 -2.3879,-7.4696 -2.2923,-7.4914 0.096,-0.022 3.0931,-2.5493 6.6611,-5.6165 l 6.4872,-5.5767 6.0667,2.0488 6.0668,2.0488 2.6202,-2.4042 c 1.4411,-1.3223 5.4837,-4.5474 8.9836,-7.1669 3.4998,-2.6195 9.3599,-7.6307 13.0223,-11.1359 l 6.659,-6.3733 -0.175,-10.1939 c -0.096,-5.6066 -0.3676,-10.9089 -0.603,-11.7828 -0.2354,-0.8739 -3.7079,-3.8447 -7.7167,-6.6019 l -7.2887,-5.013 5.6381,-4.7652 c 3.101,-2.6209 6.1748,-5.4312 6.8308,-6.2453 1.2647,-1.5695 1.8564,-35.2548 0.6192,-35.2548 -0.3496,0 -7.3614,3.3963 -15.5819,7.5473 l -14.9463,7.5472 -2.1668,7.3822 c -1.1917,4.0602 -2.31,7.5459 -2.485,7.7459 -0.175,0.2 -3.8829,-1.7262 -8.2399,-4.2804 l -7.9216,-4.6442 -7.5415,3.4134 c -13.8895,6.2866 -13.9116,6.306 -16.4921,14.4719 -1.272,4.0251 -3.4242,12.2679 -4.7829,18.3175 -1.3586,6.0496 -2.715,11.6374 -3.0143,12.4172 -0.319,0.8313 1.1467,3.2522 3.5426,5.8515 l 4.0867,4.4335 -1.4904,4.6868 c -0.8198,2.5778 -1.7594,6.0397 -2.0881,7.6932 -0.5756,2.8948 -0.8598,3.0447 -7.6561,4.0387 l -7.0583,1.0323 -5.2637,-5.1523 -5.2637,-5.1524 1.1726,-4.8876 c 1.0174,-4.2413 1.6557,-5.1055 4.8267,-6.5354 l 3.6542,-1.6479 2.2213,-10.9514 c 1.2217,-6.0234 3.0545,-15.07 4.0728,-20.1036 1.0183,-5.0336 2.0966,-9.9245 2.3963,-10.8687 0.4733,-1.4911 -0.5832,-1.8749 -8.0412,-2.9211 l -8.5861,-1.2044 -6.8529,3.1215 c -3.769,1.7168 -8.7434,3.975 -11.054,5.0184 -4.8042,2.1693 -4.9374,2.4345 -9.4163,18.7503 -2.7853,10.1462 -3.5048,11.7275 -5.9027,12.9715 -1.5018,0.7791 -3.3726,1.4167 -4.1572,1.4167 -0.7845,0 -2.0873,0.6608 -2.8949,1.4684 -0.8077,0.8077 -2.2962,1.4685 -3.3079,1.4685 -2.9441,0 -3.7211,2.7604 -3.1509,11.1938 l 0.5339,7.8963 -7.0205,-6.6081 c -3.8613,-3.6345 -7.4431,-6.6081 -7.9595,-6.6081 -0.5164,0 -3.3609,1.1878 -6.3211,2.6397 l -5.3822,2.6397 -6.3375,-3.2833 -6.3376,-3.2833 -3.2701,2.4943 c -4.3885,3.3472 -6.6191,1.9056 -6.6191,-4.278 0,-3.9782 -0.3171,-4.5291 -3.971,-6.8983 -2.184,-1.4162 -6.4233,-3.5702 -9.4206,-4.7867 l -5.4496,-2.2118 0.6425,-7.4246 c 0.3533,-4.0835 0.8965,-8.8535 1.207,-10.6 0.4783,-2.6898 0.099,-3.584 -2.4801,-5.8471 -4.1858,-3.673 -4.1319,-7.2777 0.137,-9.1566 2.9503,-1.2986 3.2529,-1.8767 4.1606,-7.9484 0.9036,-6.0437 1.2651,-6.741 4.6937,-9.0556 2.043,-1.3791 4.0816,-2.5076 4.5302,-2.5076 0.4486,0 1.3318,-0.6219 1.9627,-1.382 0.8813,-1.062 0.7964,-3.3859 -0.3665,-10.0345 -0.8324,-4.7589 -1.5149,-8.9878 -1.5166,-9.3977 0,-0.4098 3.032,1.4625 6.7417,4.1607 3.7097,2.6982 7.0019,4.9058 7.316,4.9058 0.3141,0 3.9006,-2.0547 7.9699,-4.566 l 7.3988,-4.5661 13.6938,4.6396 13.6939,4.6395 4.1424,-2.3771 c 18.1594,-10.421 17.022,-9.4791 20.8036,-17.2265 1.9382,-3.9706 3.3199,-7.7511 3.0705,-8.4011 -0.2494,-0.65 -4.1303,-2.5506 -8.6241,-4.2235 -4.4938,-1.673 -13.2368,-5.1087 -19.4289,-7.635 l -11.2582,-4.5933 -3.6185,1.9755 -3.6186,1.9755 -4.7594,-2.2051 c -4.4973,-2.0836 -4.8238,-2.4955 -5.9256,-7.4769 -0.6414,-2.8995 -1.2767,-5.9574 -1.4118,-6.7954 -0.1351,-0.8379 1.957,-3.9643 4.6492,-6.9476 l 4.8949,-5.424 7.7382,2.5422 7.7383,2.5422 1.3951,4.8948 c 0.7673,2.6922 1.9107,5.4006 2.541,6.0187 2.6785,2.6266 28.4432,12.0181 34.8754,12.7124 4.0184,0.4337 5.2591,0 12.7721,-4.5076 4.5767,-2.7433 8.8062,-5.6285 9.3989,-6.4114 0.5927,-0.7828 1.3549,-5.018 1.6937,-9.4115 0.3388,-4.3934 0.7759,-8.1479 0.9713,-8.3433 0.1954,-0.1954 3.7241,0.7444 7.8415,2.0884 l 7.4862,2.4438 6.618,-3.6067 c 3.6399,-1.9836 8.8207,-4.869 11.5129,-6.4119 2.6922,-1.5429 6.1064,-3.3147 7.5871,-3.9372 1.4807,-0.6226 2.6917,-1.3658 2.6912,-1.6516 -5e-4,-0.2858 -2.2476,-1.8412 -4.9934,-3.4565 -2.7458,-1.6154 -5.719,-3.3821 -6.6071,-3.9262 -0.8881,-0.544 -4.8574,-2.936 -8.8206,-5.3155 l -7.2058,-4.3263 -6.4999,1.766 c -3.5749,0.9713 -7.2537,1.9784 -8.175,2.2381 -1.4814,0.4174 -1.7077,-0.5868 -1.9579,-8.6878 l -0.2829,-9.1598 -9.2963,-6.1186 c -5.2245,-3.4387 -10.37,-6.1135 -11.7477,-6.107 -3.6742,0.017 -11.4785,2.2757 -25.4378,7.3607 l -12.5452,4.5698 -1.2427,5.6016 -1.2427,5.6015 -8.2272,2.5075 c -5.9695,1.8194 -8.4601,2.2032 -9.0759,1.3989 -0.4668,-0.6098 -2.7128,-3.2209 -4.991,-5.8025 l -4.1421,-4.6939 1.6334,-5.182 c 0.8985,-2.85 1.6335,-5.8916 1.6335,-6.7591 0,-1.0494 1.766,-2.1338 5.2784,-3.241 5.1589,-1.6262 5.3549,-1.6165 8.6603,0.4264 l 3.382,2.0901 12.143,-4.4781 c 6.6786,-2.463 15.447,-5.5981 19.4853,-6.9669 4.0383,-1.3689 7.7375,-2.8487 8.2204,-3.2887 1.2769,-1.163 -4.4318,-15.5236 -6.6586,-16.7502 -1.0255,-0.5648 -5.5107,-3.6183 -9.9671,-6.7854 -4.4563,-3.1672 -8.8986,-5.7584 -9.8716,-5.7584 -0.973,0 -7.5405,1.5914 -14.5944,3.5364 l -12.8253,3.5364 -7.0141,-5.0049 c -3.8578,-2.7527 -7.4669,-5.0049 -8.0203,-5.0049 -0.5534,0 -3.9421,1.9696 -7.5305,4.3769 -3.5884,2.4072 -6.6223,4.2789 -6.7419,4.1593 -0.1196,-0.1196 0.4022,-2.6065 1.1596,-5.5264 0.7574,-2.9199 1.6334,-7.3247 1.9466,-9.7885 l 0.5694,-4.4795 -4.9637,-3.3349 c -3.9197,-2.6334 -4.9638,-3.8918 -4.9638,-5.982 0,-1.4559 -0.2747,-4.6509 -0.6103,-7.1001 -0.5321,-3.8815 -1.066,-4.6832 -4.1607,-6.2475 -6.3168,-3.1929 -6.328,-3.2413 -1.5846,-6.8632 4.936,-3.7689 5.0176,-4.2296 3.5689,-20.1395 l -0.6893,-7.571 6.3881,-2.5554 c 3.5135,-1.4054 8.6768,-3.6749 11.4739,-5.0434 4.9966,-2.4444 5.0973,-2.5802 5.742,-7.74 0.3609,-2.8885 0.9358,-5.2396 1.2776,-5.2247 0.3418,0.015 2.3519,1.3366 4.467,2.937 4.6568,3.5235 5.4968,3.5546 12.1657,0.4501 l 5.2424,-2.4405 5.7511,3.0652 c 6.6708,3.5556 6.4134,3.6376 15.9546,-5.0826 l 5.6517,-5.1653 -0.5241,3.3492 c -0.2883,1.8421 -0.7911,5.8542 -1.1174,8.9159 l -0.5933,5.5667 7.847,4.5261 c 8.2458,4.7562 8.4506,5.0326 9.9071,13.3704 1.3828,7.9167 3.7422,18.3681 4.379,19.3986 0.3112,0.5035 5.0685,3.4159 10.5718,6.4719 9.9748,5.5391 10.0301,5.5559 17.7702,5.3799 4.2704,-0.097 8.1725,-0.4289 8.6715,-0.7373 0.499,-0.3083 0.6256,-2.3226 0.2812,-4.4761 -0.3444,-2.1536 -1.5068,-11.8772 -2.5832,-21.6081 -1.0764,-9.7309 -2.0536,-17.7677 -2.1716,-17.8594 -0.1179,-0.092 -1.536,-0.8449 -3.1513,-1.6735 -2.4303,-1.2467 -3.1071,-2.3961 -3.9228,-6.6621 l -0.9858,-5.1555 5.1152,-4.8378 5.1153,-4.8378 6.6393,1.2645 c 3.6517,0.6954 7.1084,1.6133 7.6817,2.0397 0.5733,0.4265 1.6251,4.3636 2.3373,8.7493 l 1.295,7.9739 -4.3483,3.7168 -4.3484,3.7168 1.2011,11.2047 c 1.2519,11.6788 2.5819,19.8304 4.2404,25.9897 0.8458,3.1413 2.0903,4.3109 9.2889,8.7302 4.5718,2.8066 9.3262,5.3574 10.5655,5.6685 1.4575,0.3658 4.9726,-0.6738 9.9536,-2.9437 4.2352,-1.93 7.8406,-3.3689 8.0121,-3.1975 0.1714,0.1714 0.897,3.8212 1.6123,8.1107 l 1.3007,7.799 13.188,8.5012 c 7.2534,4.6757 13.6976,8.5304 14.3204,8.5661 1.0833,0.062 1.3633,-2.6334 2.7148,-26.1331 l 0.4088,-7.1079 -5.4352,-5.2645 c -2.9893,-2.8955 -5.1545,-5.7187 -4.8114,-6.2738 0.343,-0.555 3.416,-2.5707 6.8288,-4.4793 3.4129,-1.9085 6.6586,-4.0368 7.2128,-4.7295 0.5542,-0.6927 1.3084,-6.3918 1.6762,-12.6648 l 0.6685,-11.4053 -5.6873,-6.1309 c -3.1281,-3.372 -9.6522,-9.6017 -14.4982,-13.8437 -8.5744,-7.5058 -8.9159,-7.6955 -12.7267,-7.0693 -2.1538,0.3539 -4.5937,0.9985 -5.422,1.4324 -1.1031,0.5778 -3.1357,-0.8599 -7.5952,-5.3718 l -6.0891,-6.1608 2.6829,-6.7959 2.6828,-6.7959 5.6042,-1.6517 c 7.5538,-2.2262 8.5222,-2.0941 12.8824,1.7575 3.4697,3.0648 3.7174,3.6219 3.1385,7.0568 -0.6129,3.6362 -0.463,3.8759 6.0053,9.6032 3.6487,3.2306 10.9043,9.7286 16.1238,14.4399 5.2194,4.7114 9.8529,8.5357 10.2967,8.4986 0.4437,-0.037 2.8958,-2.8824 5.4491,-6.3227 l 4.6423,-6.2551 0.9785,-11.0542 c 0.5381,-6.0799 0.9822,-11.7934 0.9868,-12.6967 0,-0.9033 -4.5581,-6.3437 -10.1394,-12.0896 l -10.1477,-10.4472 0.8481,-8.3678 c 0.5305,-5.2336 0.4952,-8.7931 -0.094,-9.5033 -0.5183,-0.6245 -3.9476,-2.6525 -7.6207,-4.5065 l -6.6783,-3.3711 9.3332,-2.9623 c 8.8809,-2.8187 9.3454,-3.1034 9.5856,-5.8739 0.9116,-10.5178 0.9615,-10.6232 6.6287,-14.0129 5.0289,-3.0079 5.3561,-3.4374 5.3561,-7.0302 0,-5.1001 2.6158,-6.6935 7.322,-4.4603 1.7893,0.8491 3.6808,1.5438 4.2034,1.5438 0.5226,0 4.3351,-2.2097 8.4723,-4.9105 l 7.522,-4.9105 5.7043,4.3894 c 8.2131,6.3198 9.9009,6.9413 13.6229,5.0166 1.7519,-0.9059 4.0609,-1.3344 5.3915,-1.0004 2.093,0.5253 2.2804,1.0004 1.8613,4.7187 -0.4571,4.0552 -0.3607,4.2141 5.0235,8.2792 l 5.4895,4.1446 0,6.3065 c 0,7.2349 0.016,7.2496 12.0168,11.269 l 6.6324,2.2213 -7.1219,3.244 -7.1219,3.2439 -0.278,9.7413 -0.278,9.7412 -4.6169,3.7519 c -2.5393,2.0635 -7.3148,6.3996 -10.6122,9.6357 l -5.9954,5.8839 0.4926,12.2372 c 0.5241,13.0202 1.3118,15.4079 7.5897,23.006 2.9981,3.6286 2.0194,4.1537 21.8933,-11.7477 14.5637,-11.6527 14.6851,-11.7825 14.9915,-16.0342 0.2623,-3.6394 0.9,-4.7707 4.2248,-7.4947 l 3.9159,-3.2083 6.7665,2.1232 6.7665,2.1232 2.296,6.8065 2.296,6.8064 -2.6991,2.3925 c -1.4845,1.3158 -4.2474,3.8521 -6.1398,5.6362 l -3.4406,3.2438 -4.7916,-1.4421 c -6.2947,-1.8944 -6.4443,-1.8754 -9.8647,1.2547 -1.6153,1.4782 -4.6991,4.0008 -6.8528,5.6057 -2.1538,1.6049 -7.5504,6.4015 -11.9925,10.659 l -8.0766,7.7409 0.021,11.8575 0.021,11.8576 3.8067,2.6922 c 2.0937,1.4807 4.1768,2.7041 4.6292,2.7185 0.4525,0.014 2.2929,1.2461 4.0899,2.7369 l 3.2674,2.7106 -5.4701,5.0449 -5.47,5.045 0,17.1821 c 0,11.5215 0.3441,17.1821 1.0446,17.1821 0.9195,0 17.3306,-8.3907 26.1507,-13.3705 3.2735,-1.8482 5.3147,-6.4791 6.7286,-15.2653 l 0.5908,-3.6718 8.4929,4.4779 8.4928,4.478 9.9646,-4.9807 c 7.0823,-3.54 10.3587,-5.7554 11.3269,-7.6589 1.643,-3.23 3.7411,-11.622 6.6188,-26.4734 l 2.1447,-11.0683 -4.2023,-4.2818 -4.2023,-4.2818 1.6048,-6.3886 c 0.8826,-3.5138 1.6048,-7.2623 1.6048,-8.3302 0,-1.5743 0.8795,-2.0617 4.6501,-2.5773 2.5576,-0.3497 6.1085,-1.0093 7.891,-1.4658 2.9948,-0.7671 3.5149,-0.5254 6.8528,3.1838 1.9867,2.2077 4.2258,4.6341 4.9759,5.392 1.1254,1.1371 1.1598,2.2897 0.1967,6.5934 -0.9775,4.3676 -1.6429,5.4124 -4.0935,6.4274 -1.6094,0.6667 -3.3455,1.9957 -3.8581,2.9533 -0.5125,0.9576 -2.0217,7.8357 -3.3538,15.2846 -1.332,7.449 -3.0336,16.4071 -3.7813,19.9069 -0.9055,4.2387 -1.0271,6.5793 -0.3641,7.01 0.5475,0.3556 4.3373,0.942 8.4218,1.3032 7.3115,0.6465 7.5767,0.5886 17.127,-3.7438 5.3352,-2.4202 10.4473,-5.0399 11.3601,-5.8215 0.9129,-0.7816 2.6085,-5.1149 3.768,-9.6295 5.0066,-19.4924 4.0458,-17.8912 13.3861,-22.3091 l 8.2868,-3.9196 0,-8.5274 0,-8.5274 6.7576,6.524 c 3.7168,3.5882 7.1863,6.524 7.71,6.524 0.5238,0 3.4561,-1.1073 6.5162,-2.4606 l 5.5638,-2.4606 5.7036,3.3428 5.7036,3.3428 4.9729,-2.8402 c 2.7351,-1.5621 5.2088,-2.8401 5.4971,-2.8401 0.2883,0 0.5241,2.3299 0.5241,5.1775 l 0,5.1776 5.1397,3.0769 c 2.8268,1.6924 6.8495,3.8771 8.9393,4.8549 l 3.7997,1.7778 -0.6359,9.8357 -0.6359,9.8356 4.6522,3.2792 4.6522,3.2791 -5.1238,2.5088 -5.1238,2.5087 0,7.069 0,7.069 -5.7485,3.492 -5.7484,3.492 0.8311,4.166 c 0.4571,2.2913 1.469,6.8056 2.2485,10.0318 0.7796,3.2262 1.2581,6.0251 1.0633,6.2199 -0.1948,0.1948 -3.6579,-1.9297 -7.6957,-4.721 l -7.3416,-5.0753 -6.1812,4.1718 c -3.3997,2.2944 -6.3281,4.5327 -6.5076,4.9739 -0.5207,1.2801 -6.6449,0.9291 -10.6674,-0.6114 -2.03,-0.7775 -6.851,-2.3279 -10.7133,-3.4455 -3.8623,-1.1176 -7.1716,-2.4796 -7.354,-3.0268 -0.1824,-0.5472 -5.3926,2.345 -11.5782,6.4271 -10.8698,7.1732 -11.352,7.6418 -14.3904,13.9854 -1.729,3.6098 -3.1608,6.834 -3.1817,7.1646 -0.021,0.3307 2.0546,1.3584 4.6122,2.2838 2.5576,0.9254 10.1569,3.7994 16.8874,6.3867 19.4677,7.4835 19.334,7.4535 22.0134,4.9363 2.1318,-2.0027 2.6483,-2.0707 7.7246,-1.0169 l 5.4401,1.1294 2.2984,7.5244 2.2985,7.5245 -4.2238,4.8781 c -2.3231,2.6829 -4.2238,5.6566 -4.2238,6.6081 0,2.1077 0.5961,2.1354 -6.3145,-0.2935 -3.1664,-1.1128 -6.7537,-1.7733 -7.9718,-1.4675 -2.8069,0.7044 -5.2687,-1.6551 -5.3678,-5.145 -0.041,-1.4422 -0.6291,-4.1586 -1.3069,-6.0364 -1.3807,-3.8246 -3.1375,-4.649 -24.0721,-11.2964 -6.192,-1.9662 -11.9484,-3.9295 -12.792,-4.3629 -1.0529,-0.541 -3.6615,0.5576 -8.3213,3.5047 -3.7332,2.3611 -8.1775,5.0192 -9.8762,5.907 -3.015,1.5758 -3.105,1.8212 -3.7765,10.3057 -0.4998,6.3146 -0.3586,9.0882 0.5163,10.1423 1.7526,2.1119 0.2817,1.8737 -9.785,-1.5845 l -8.8362,-3.0355 -14.9264,8.5206 c -8.2095,4.6863 -15.5147,9.0793 -16.2338,9.7621 -1.6004,1.5199 -0.9459,2.0066 17.7057,13.1677 l 13.4615,8.0552 7.3418,-2.3808 7.3419,-2.3809 0,5.596 c 0,3.0778 0.27,7.5297 0.6,9.8933 0.5807,4.1585 0.9,4.4948 9.8885,10.4159 5.1087,3.3652 10.3805,6.1186 11.7152,6.1186 1.3346,0 9.6841,-2.423 18.5543,-5.3844 8.8703,-2.9614 16.5761,-5.3844 17.1242,-5.3844 1.4167,0 3.7925,-2.5583 3.799,-4.0907 0,-0.7115 0.4566,-2.9182 1.0081,-4.9039 0.9239,-3.3264 1.4428,-3.7327 6.6027,-5.1699 3.0799,-0.8579 6.5084,-1.9395 7.6188,-2.4037 1.7132,-0.7162 2.7273,0.041 6.6963,5.0013 l 4.6773,5.8452 -1.7076,6.3082 c -1.6281,6.0149 -1.9169,6.4017 -6.2067,8.3164 l -4.4992,2.0082 -4.0438,-2.1896 -4.0438,-2.1895 -18.4727,6.6395 c -26.0289,9.3554 -25.6911,9.2022 -23.6428,10.7183 0.9255,0.6851 2.967,4.1079 4.5367,7.6063 2.7558,6.1422 3.2195,6.6016 13.4914,13.3661 9.7492,6.4203 15.0429,8.5475 15.0429,6.0448 0,-0.5385 0.691,-0.979 1.5357,-0.979 0.8446,0 6.1894,-1.5409 11.8772,-3.4242 l 10.3416,-3.4242 7.1795,4.8927 c 6.5949,4.4942 11.4913,6.115 12.3042,4.0728 0.4515,-1.1341 8.8704,-7.1157 9.3459,-6.6401 0.2121,0.212 -0.291,4.2613 -1.1178,8.9983 -0.8268,4.737 -1.4011,8.6984 -1.2761,8.8032 0.125,0.1046 2.7327,1.7814 5.795,3.726 5.0733,3.2217 5.6252,3.9191 6.2153,7.8536 0.3561,2.3748 0.3469,5.2648 -0.02,6.4222 -0.578,1.8211 0,2.3874 4.3087,4.2069 2.7371,1.1564 4.9766,2.4321 4.9766,2.8349 0,0.4028 -2.4237,2.3412 -5.3862,4.3075 -2.9623,1.9664 -5.5462,3.8622 -5.7418,4.213 -0.3657,0.6559 0.9725,14.175 1.7785,18.9992 l 0.8148,4.8771 z m -5.8576,-28.0505 c -0.08,-6.1296 -0.6045,-12.152 -1.1655,-13.3833 -0.8616,-1.891 -8.995,-8.2942 -23.6444,-18.6146 -3.0886,-2.1758 -3.2741,-2.1921 -6.5047,-0.5692 -1.8291,0.9188 -3.9864,1.972 -4.794,2.3405 -0.9543,0.4354 -1.6674,2.6915 -2.0365,6.4431 -0.4874,4.9537 -0.2103,6.4678 1.9524,10.668 1.3862,2.6922 2.6698,5.2256 2.8525,5.6298 0.1827,0.4042 -0.4756,0.4774 -1.4629,0.1628 -1.3998,-0.4462 -1.2862,-0.1231 0.5162,1.4678 l 2.3111,2.0399 -8.185,0.019 c -7.3683,0.017 -8.6473,0.3089 -12.8177,2.9279 l -4.6327,2.9092 0.5552,4.6593 c 0.3053,2.5625 0.7091,5.1706 0.8973,5.7956 0.1881,0.6251 4.2257,3.0961 8.9724,5.4913 4.7466,2.3951 10.7884,5.5181 13.4262,6.9401 5.9299,3.1966 8.342,3.23 14.6858,0.2032 9.2855,-4.4304 18.4237,-8.3866 19.5592,-8.3363 -0.1024,-1.0855 -0.405,-10.6642 -0.4849,-16.7937 z m -245.0168,140.6445 c 12.2237,-5.9887 12.2297,-5.9964 14.1467,-18.1714 0.6358,-4.0383 1.7485,-10.2037 2.4727,-13.701 l 1.3166,-6.3587 -3.5894,-3.6759 c -1.9742,-2.0217 -4.1755,-3.6758 -4.8917,-3.6758 -3.3584,0 -10.9857,5.1168 -14.5035,9.7297 -2.0784,2.7252 -4.0662,4.955 -4.4174,4.955 -0.3513,0 -2.245,-2.6025 -4.2083,-5.7832 -3.8114,-6.175 -10.9657,-11.4562 -14.1129,-10.4179 -0.9272,0.3059 -3.1949,1.889 -5.0393,3.5179 l -3.3534,2.9616 1.1507,8.6429 c 0.6329,4.7536 1.1572,11.2362 1.1651,14.4058 0.01,3.1697 0.5587,6.8215 1.2238,8.1154 0.9767,1.8999 19.4808,14.7445 21.281,14.7721 0.2707,0 5.3824,-2.3882 11.3593,-5.3165 z m 5.0206,-96.7185 c 14.7615,-14.7196 14.7578,-14.6297 1.1055,-27.2846 -5.4578,-5.0591 -10.1936,-9.2989 -10.524,-9.4217 -0.3304,-0.1228 -5.2264,3.5026 -10.88,8.0565 -5.6536,4.5539 -10.6097,8.2889 -11.0135,8.2999 -0.4038,0.011 -0.7342,1.6087 -0.7342,3.5504 0,3.7767 0.7918,4.9785 12.9926,19.7204 3.6764,4.4422 6.986,8.0766 7.3546,8.0766 0.3686,0 5.6332,-4.9489 11.699,-10.9975 z m 16.8258,-38.9982 c 1.0196,-4.7543 0.91,-5.2781 -2.6111,-12.4766 -2.0214,-4.1327 -3.8187,-7.8364 -3.9939,-8.2304 -0.1753,-0.394 1.6045,-1.6508 3.9551,-2.7928 l 4.2737,-2.0763 1.1838,-7.4403 c 1.2933,-8.1288 1.2349,-8.2971 -5.9926,-17.2597 l -2.309,-2.8634 -9.0499,2.5116 -9.0498,2.5115 -8.908,-3.4755 -8.908,-3.4755 -5.1996,5.5862 c -4.7584,5.1122 -5.1988,5.977 -5.1889,10.1907 0.022,9.2574 0.9116,11.7898 4.9389,14.0532 l 3.7111,2.0858 -4.8647,7.8436 c -3.8606,6.2246 -4.7413,8.4056 -4.2668,10.5663 0.3289,1.4975 0.6359,4.0532 0.6821,5.6794 0.07,2.4567 0.3626,2.8076 1.7313,2.0751 1.8716,-1.0016 6.9244,-5.9349 17.8633,-17.4407 7.1354,-7.5052 7.6317,-7.8431 8.6703,-5.9024 2.6059,4.8691 19.9734,25.2929 21.508,25.2929 0.4182,0 1.2393,-2.2332 1.8247,-4.9627 z m -34.1874,-0.9112 c 0,-0.5384 -0.4405,-0.979 -0.9789,-0.979 -0.5385,0 -0.979,0.4406 -0.979,0.979 0,0.5385 0.4405,0.979 0.979,0.979 0.5384,0 0.9789,-0.4405 0.9789,-0.979 z m -203.7917,-2.8287 c 3.5901,-1.5558 9.5395,-3.8309 13.221,-5.0559 7.0338,-2.3404 7.6924,-3.0715 8.9881,-9.9784 0.5998,-3.1971 0.3624,-3.5879 -4.2278,-6.9574 -3.9361,-2.8894 -5.7249,-3.57 -9.3823,-3.57 -2.4855,0 -4.519,-0.3578 -4.519,-0.7951 0,-0.4373 0.8811,-2.6187 1.9579,-4.8476 2.2947,-4.7495 2.6793,-14.0775 0.6497,-15.7619 -0.7195,-0.5971 -3.1708,-1.7429 -5.4474,-2.5461 l -4.1393,-1.4604 -7.7755,5.6079 c -4.2766,3.0844 -9.5416,6.8202 -11.7001,8.3019 -6.3089,4.3306 -7.3833,6.9533 -7.6541,18.6853 l -0.2365,10.2476 5.1801,2.9767 c 2.8491,1.6372 6.6975,4.1029 8.5521,5.4794 4.4124,3.275 8.4051,3.1963 16.5331,-0.326 z m 363.5056,-30.9543 c 14.341,-1.5068 20.4183,-2.3967 20.4183,-2.9898 0,-0.183 -2.4229,-6.906 -5.3843,-14.94 -2.9614,-8.034 -5.3844,-15.2738 -5.3844,-16.0884 0,-0.8146 -1.0859,-2.1926 -2.413,-3.0622 -2.5004,-1.6383 -8.3558,-2.1861 -8.3558,-0.7817 0,0.4396 -4.8502,2.5044 -10.7782,4.5884 l -10.7782,3.789 0.5698,4.9567 c 0.3133,2.7261 0.9482,7.9729 1.4108,11.6595 0.4626,3.6866 0.6113,7.3015 0.3306,8.0331 -0.5194,1.3535 3.7152,6.3121 5.3904,6.3121 0.5054,0 7.2437,-0.6645 14.974,-1.4767 z m -36.8644,-7.5789 c -1.5793,-9.4837 -5.3472,-27.3279 -6.9338,-32.8375 -0.3554,-1.2344 -0.2596,-2.1545 0.2131,-2.0446 0.4726,0.1099 2.0994,-0.3119 3.6152,-0.9373 1.5158,-0.6253 3.2392,-1.137 3.8299,-1.137 0.5907,0 3.3154,-0.6539 6.0549,-1.4532 2.7395,-0.7992 8.7152,-2.37 13.2793,-3.4906 10.6941,-2.6257 11.7573,-3.4746 8.1537,-6.5096 -6.5583,-5.5232 -7.0297,-5.6778 -16.2898,-5.3419 l -8.7636,0.3179 0.5421,-4.0416 c 0.3365,-2.5087 0.1111,-4.3935 -0.5943,-4.9695 -0.6249,-0.5103 -3.4818,-2.7298 -6.3486,-4.9321 l -5.2123,-4.0041 -4.8233,1.1571 c -2.6528,0.6364 -6.3192,1.1571 -8.1475,1.1571 l -3.3243,0 -1.7347,10.4299 -1.7348,10.43 -8.2437,5.7271 c -7.0674,4.9099 -8.1489,6.0269 -7.5793,7.828 0.3655,1.1555 1.3999,4.7441 2.2989,7.9748 1.6278,5.8498 1.6632,5.8889 8.6596,9.5596 7.019,3.6827 7.028,3.6844 10.5031,2.0273 1.9129,-0.9122 3.6692,-1.4673 3.903,-1.2335 0.2338,0.2337 1.9939,3.6987 3.9114,7.6998 3.2608,6.8041 3.8199,7.4187 8.6428,9.5009 6.6721,2.8804 6.747,2.8697 6.123,-0.877 z m -242.4965,-5.4776 c 1.4914,-0.9463 8.323,-28.6935 7.2881,-29.601 -0.3922,-0.3439 -6.3806,-2.6545 -13.3075,-5.1345 -14.6836,-5.2573 -16.5183,-5.0262 -19.3789,2.4414 -6.58,17.1765 -8.6599,23.0491 -8.6573,24.4441 0,1.2387 3.0543,2.3785 13.4639,5.0284 13.9835,3.5597 18.4614,4.1733 20.5917,2.8216 z m 26.4294,-5.8339 c 3.3911,-1.3431 5.0894,-3.0181 8.8994,-8.7765 l 4.7086,-7.1166 2.5133,1.9769 c 3.1195,2.4539 4.5356,2.4224 12.3985,-0.2748 l 6.2781,-2.1536 3.226,-7.5859 3.2261,-7.5859 -7.834,-7.5883 -7.834,-7.5883 -1.6809,-9.7898 c -0.9246,-5.3844 -1.9966,-10.2824 -2.3825,-10.8845 -0.3858,-0.602 -2.9758,-1.3964 -5.7556,-1.7651 -2.7798,-0.3688 -6.2154,-0.9027 -7.6348,-1.1866 -2.0183,-0.4036 -3.8552,0.4746 -8.4288,4.0297 -5.7548,4.4733 -5.8428,4.6151 -5.5152,8.8894 l 0.3329,4.3435 -9.7149,0 c -9.5934,0 -9.7618,0.041 -13.4723,3.2482 -2.1212,1.8336 -3.4634,3.7241 -3.082,4.3412 0.3716,0.6012 2.9803,1.7306 5.7971,2.5097 7.6663,2.1206 27.1339,6.6642 29.2299,6.8221 1.009,0.076 1.8346,0.2565 1.8346,0.4011 0,0.1446 -1.9364,5.2272 -4.303,11.2947 -10.8946,27.9302 -10.9115,28.442 -0.8065,24.4394 z m 121.0498,-35.6795 c -0.3197,-2.2883 -0.9857,-6.5544 -1.48,-9.4801 -0.4943,-2.9257 -0.8987,-5.6268 -0.8987,-6.0024 0,-0.3756 1.9015,-1.1617 4.2254,-1.7469 2.324,-0.5852 5.0355,-1.9591 6.0256,-3.0532 0.9901,-1.094 2.3183,-1.9891 2.9515,-1.9891 0.6332,0 4.3688,3.3182 8.3013,7.3738 3.9325,4.0556 7.3716,7.1522 7.6425,6.8813 0.2708,-0.2709 -1.4268,-5.1809 -3.7726,-10.9113 l -4.2651,-10.4187 2.2809,-1.847 c 1.702,-1.3781 3.9306,-1.8613 8.7805,-1.9033 3.5749,-0.031 8.2619,-0.3844 10.4156,-0.7852 l 3.9159,-0.7288 -3.9159,-1.2573 c -2.1537,-0.6916 -6.8664,-2.3812 -10.4726,-3.7548 -6.4789,-2.4677 -6.5489,-2.5335 -5.896,-5.5445 0.7922,-3.6539 0.7154,-7.2146 -0.215,-9.9686 -0.6261,-1.8529 0.2077,-2.3004 9.7386,-5.2268 5.7328,-1.7603 10.1329,-3.4916 9.7779,-3.8475 -0.3549,-0.3558 -5.5654,-0.8672 -11.5789,-1.1364 -10.3078,-0.4615 -10.9509,-0.6115 -11.2371,-2.6211 -0.1669,-1.1724 -0.9284,-2.6503 -1.6922,-3.2842 -1.1692,-0.9703 -0.6004,-2.6149 3.5972,-10.4015 2.7423,-5.0869 4.7231,-9.5119 4.4017,-9.8333 -0.3214,-0.3213 -3.8971,2.1559 -7.9459,5.505 l -7.3616,6.0893 -2.5775,-2.0274 c -1.4176,-1.1151 -3.0687,-2.0342 -3.6691,-2.0424 -3.3631,-0.046 -3.5549,-1.4677 -1.5036,-11.1429 2.9054,-13.7035 2.1959,-13.6098 -6.9472,0.9172 -4.1278,6.5585 -4.5839,6.9649 -6.8529,6.1056 -1.3368,-0.5063 -4.2804,-0.6757 -6.5411,-0.3763 l -4.1104,0.5442 -5.1052,-8.5404 c -6.0012,-10.0395 -5.6163,-9.5041 -6.3231,-8.7972 -0.3075,0.3075 0.063,4.8113 0.8234,10.0085 l 1.3825,9.4495 -2.7594,0.5518 c -1.5177,0.3036 -3.2638,1.1597 -3.8803,1.9024 -1.8285,2.2033 -2.9935,1.6162 -10.1548,-5.1172 -3.7545,-3.5301 -6.9794,-5.959 -7.1666,-5.3975 -0.1871,0.5615 1.4325,4.9581 3.5994,9.7703 3.4744,7.7163 3.8004,9.0491 2.7611,11.2883 -1.1618,2.5032 -1.3281,2.5392 -11.784,2.5467 -7.1517,0 -10.4909,0.3518 -10.2534,1.0643 0.1937,0.5811 4.3509,2.4181 9.2382,4.0823 l 8.8861,3.0257 -0.2671,4.9583 -0.2672,4.9584 -9.6237,3.1702 c -5.2931,1.7437 -9.8441,3.241 -10.1133,3.3275 -1.211,0.3886 9.8819,1.6918 15.1742,1.7826 7.0857,0.1216 7.872,0.5657 8.791,4.9657 0.3936,1.8845 1.7383,4.5278 2.9883,5.8739 l 2.2726,2.4474 -5.3106,8.8108 c -6.0088,9.9691 -6.7229,12.5114 -2.6227,9.3378 14.1346,-10.9407 14.3157,-11.0405 16.0882,-8.8607 0.9066,1.1148 2.9992,2.4979 4.6502,3.0734 3.5299,1.2306 3.5248,1.179 1.0439,10.6448 -1.0585,4.0382 -1.9161,8.2234 -1.906,9.3002 0.016,1.7026 0.3381,1.5749 2.4692,-0.9789 1.3479,-1.6154 4.1631,-5.5269 6.2561,-8.6924 3.386,-5.1213 4.1964,-5.7791 7.355,-5.9709 3.0863,-0.1873 3.7482,0.1807 5.0696,2.8185 3.3235,6.6346 8.6179,15.2712 9.3615,15.2712 0.4329,0 0.5255,-1.8723 0.2057,-4.1607 z m 92.6301,-78.2663 5.8261,-4.1086 0,-5.2572 0,-5.2572 9.6496,0.2385 9.6497,0.2384 3.9739,-3.3363 c 2.1856,-1.8349 3.8127,-3.5971 3.6156,-3.9159 -0.8893,-1.4391 -28.2857,-7.8014 -33.5314,-7.7871 -2.9866,0.01 -3.1359,-0.1412 -2.0916,-2.0924 1.9241,-3.5951 11.6711,-31.38 11.6711,-33.2696 0,-1.291 -2.9146,-1.0235 -7.3096,0.6707 -3.2163,1.2399 -4.8117,2.8884 -8.6022,8.8886 l -4.6536,7.3663 -3.2938,-2.0357 c -4.1607,-2.5714 -4.5977,-2.5555 -12.4753,0.4547 l -6.5171,2.4903 -2.6684,7.5163 -2.6683,7.5163 7.5571,7.2455 7.5571,7.2454 1.5365,8.9356 c 0.845,4.9146 1.61,9.0507 1.7001,9.1913 0.1341,0.2094 11.6884,2.6506 14.4664,3.0565 0.4302,0.063 3.4038,-1.7346 6.6081,-3.9944 z m -193.1839,-4.3236 c 2.3981,-0.6519 2.4011,-0.6591 4.695,-11.3106 1.7469,-8.1118 0.815,-6.9795 14.975,-18.1959 1.4018,-1.1104 1.3338,-1.9013 -0.7153,-8.3213 -1.2454,-3.9019 -2.6518,-7.5783 -3.1255,-8.1699 -0.4736,-0.5915 -3.758,-2.3067 -7.2986,-3.8115 l -6.4375,-2.736 -3.7776,2.1231 -3.7775,2.1231 -4.2384,-7.6119 c -3.5549,-6.3842 -4.9472,-7.9606 -8.6334,-9.7742 -6.3186,-3.1087 -7.0514,-2.9426 -6.3001,1.4281 0.3471,2.0192 1.5015,6.5347 2.5654,10.0346 3.302,10.8625 5.7009,20.749 5.2225,21.523 -0.2517,0.4072 -2.5594,0.9751 -5.1282,1.2619 -12.626,1.4097 -29.6345,5.2401 -29.6345,6.6739 0,0.4171 1.9177,2.3298 4.2615,4.2504 4.0994,3.3592 4.5602,3.492 12.1173,3.492 8.8208,0 10.6762,1.0743 9.7126,5.6235 -0.4953,2.3383 0.1742,3.3895 5.0244,7.8889 l 5.5959,5.1911 6.3634,-0.5462 c 3.4998,-0.3004 7.34,-0.8116 8.5336,-1.1361 z m 241.5186,-28.912 c 2.4726,-1.1266 2.5991,-1.3988 9.9437,-21.3945 1.2855,-3.4999 2.6004,-7.6964 2.9219,-9.3257 0.582,-2.9493 0.5574,-2.9681 -5.6125,-4.2882 -3.4084,-0.7293 -10.6978,-2.3672 -16.1986,-3.6399 -10.5547,-2.442 -14.376,-2.0702 -15.3544,1.4939 -1.521,5.5408 -5.5687,26.7579 -5.2737,27.643 0.326,0.9779 23.1512,10.2317 25.9333,10.5139 0.6478,0.066 2.2859,-0.3854 3.6403,-1.0025 z m -291.1708,-11.7268 c 6.7313,-2.2208 12.5618,-4.3282 12.9568,-4.683 0.395,-0.3547 -0.1557,-5.8358 -1.2237,-12.1801 -1.068,-6.3443 -1.9419,-12.5772 -1.9419,-13.8509 0,-1.4282 -1.0684,-3.0767 -2.7874,-4.3007 l -2.7874,-1.9848 -14.4395,2.4076 c -7.9417,1.3242 -15.5332,2.4077 -16.8699,2.4077 -2.2305,0 -2.3739,0.2617 -1.7427,3.1816 1.726,7.9841 9.636,30.6589 11.0781,31.7563 2.5023,1.9041 4.6493,1.5712 17.7576,-2.7537 z m 162.4786,-19.7017 c 2.7227,-3.3649 4.7684,-6.5923 4.546,-7.1718 -0.2223,-0.5795 -0.7187,-3.9894 -1.1029,-7.5776 -0.6473,-6.0442 -0.9423,-6.6745 -4.0122,-8.5717 -1.8224,-1.1263 -3.3134,-2.2457 -3.3134,-2.4875 0,-0.2418 1.7702,-3.5636 3.9338,-7.3818 3.5496,-6.2639 3.8736,-7.3963 3.3169,-11.5923 -1.1175,-8.4247 -1.4583,-8.3335 -12.7762,3.4203 -5.7033,5.9228 -11.4689,12.1975 -12.8125,13.9438 l -2.4429,3.1751 -2.9826,-4.154 c -1.6404,-2.2848 -3.2492,-4.3744 -3.5752,-4.6436 -0.3259,-0.2692 -4.2743,-4.8035 -8.7742,-10.0761 -4.4998,-5.2726 -8.6781,-9.4225 -9.285,-9.2221 -0.607,0.2005 -1.7186,2.6442 -2.4702,5.4304 l -1.3665,5.0659 4.0861,7.8302 4.0862,7.8301 -3.4439,1.6423 c -3.7498,1.7881 -3.7902,1.8679 -5.4996,10.8661 -1.1426,6.0146 -1.1091,6.2309 1.5153,9.7897 1.4761,2.0016 3.4086,4.848 4.2943,6.3253 1.9934,3.3245 3.0225,3.3325 13.7993,0.1065 l 8.6588,-2.592 8.6663,2.9923 c 4.7665,1.6458 9.4173,3.0325 10.3351,3.0815 0.9317,0.05 3.8555,-2.6134 6.6192,-6.029 z m 203.1716,-5.2426 c 3.7691,-3.0117 7.9542,-6.0552 9.3003,-6.7632 1.3461,-0.708 3.8792,-2.6991 5.6291,-4.4246 l 3.1817,-3.1373 0,-13.4574 0,-13.4575 -8.0328,-4.7822 c -4.418,-2.6303 -9.447,-5.6542 -11.1754,-6.7199 -3.7571,-2.3164 -4.796,-2.0802 -22.2973,5.0705 -12.2739,5.0149 -12.508,5.2288 -13.7147,12.5308 -0.6303,3.8145 -0.5345,3.9864 3.7004,6.6406 3.2704,2.0497 6.3709,2.9574 12.5147,3.6637 4.492,0.5165 8.5032,0.9424 8.9138,0.9465 0.4106,0 -0.8009,3.0802 -2.6922,6.8358 -2.861,5.6813 -3.4387,7.8793 -3.4387,13.0834 l 0,6.255 3.6712,1.5061 c 5.802,2.3805 7.1652,2.0226 14.4399,-3.7903 z m -442.4973,-5.7229 c 2.5949,-0.7809 5.0811,-1.9924 5.525,-2.6922 0.4439,-0.6997 0.8138,-3.5983 0.822,-6.4412 0.012,-4.2429 -0.7743,-6.6777 -4.3904,-13.59 -2.423,-4.6316 -4.4054,-8.5185 -4.4054,-8.6376 0,-0.1191 4.7086,-0.2641 10.4635,-0.3222 8.8918,-0.09 11.0976,-0.4419 14.6847,-2.3449 3.9047,-2.0714 4.2202,-2.5331 4.2078,-6.1569 -0.026,-7.7294 -0.2302,-7.9371 -14.4553,-14.7288 -7.2816,-3.4765 -14.384,-6.3347 -15.7832,-6.3516 -1.3991,-0.017 -8.1063,2.7017 -14.9048,6.0412 l -12.3609,6.0717 0.2067,14.7622 c 0.1398,9.9827 0.6115,15.3961 1.4571,16.7201 0.6877,1.0769 4.1747,4.0469 7.7488,6.6 3.5741,2.5532 8.4808,6.3891 10.9038,8.5243 2.423,2.1353 4.6658,3.9011 4.984,3.9241 0.3183,0.023 2.7018,-0.5972 5.2966,-1.3782 z m 226.0937,-48.9975 c 8.8599,-7.5238 9.2251,-7.9923 9.286,-11.9109 0.035,-2.2435 -0.2718,-4.226 -0.6816,-4.4055 -0.4098,-0.1794 -4.1008,-4.3028 -8.2022,-9.1631 -11.1357,-13.1961 -9.0145,-13.1127 -20.8647,-0.8198 -13.617,14.1259 -13.6205,14.2303 -0.8635,26.1146 5.0927,4.7444 9.8994,8.489 10.6815,8.3213 0.7821,-0.1676 5.5721,-3.8291 10.6445,-8.1366 z m 10.127,-80.5237 4.2039,-3.6685 -1.0058,-5.1865 c -0.5532,-2.8525 -1.2977,-9.3396 -1.6545,-14.4157 -0.7009,-9.9716 -2.5383,-14.523 -6.4822,-16.057 -1.2113,-0.4711 -3.8388,-1.9782 -5.839,-3.3491 -7.0775,-4.8509 -7.1071,-4.8548 -12.3547,-1.6259 -2.6449,1.6274 -6.0761,3.4144 -7.6249,3.971 -4.5944,1.6512 -6.3311,5.1077 -7.7624,15.4487 -0.7207,5.2067 -1.7353,11.8897 -2.2547,14.8511 -0.8956,5.1057 -0.8097,5.528 1.6598,8.1608 1.4323,1.5271 3.3429,3.1773 4.2456,3.6672 2.3623,1.2819 10.4454,-2.4233 13.6573,-6.2605 l 2.6117,-3.1201 1.7725,3.079 c 1.4186,2.4641 9.3924,7.7983 12.134,8.1171 0.2692,0.031 2.3812,-1.5939 4.6934,-3.6116 z"
     id="path3951"
     inkscape:connector-curvature="0"
     sodipodi:nodetypes="sscssssssssscsscscsscscccccscssssscscssscccssscsscccccccccssssssscssscscssscscscssccsscccssscccccsccscsscsssscccscscccssscscscscsscscscssscscssscccsscsssscsssssssscssscccsssscssssssssscssscccssssscccsssscccssscsscscssccscscssscscscccssscsssscssccssscsssssscsssssscssscsscsscsscsssssssscsscccssscccssssscscscscssssscssssscccssssscscscscscscssssssscssssscsscccccsscssssscccccsscsssscccssscccsssscccssscccsssssssscsssssssscccssscccssscsscccccccccccsscscsssccsscsssscccsssscsssssssscssscccsssssscsssscsscccssssssscsscscsscssscscssssssssccsccscscssscscsscssssscscsccccscssscssssccscscsscccccssscsscssssccsscsscsssssssscssscsscccsssssscsscscccsccssssscscscsscccscsscssscccssscscccscsscccccsssssscsssscsscccsssssscscssscssssscsssscscsssssscsssccsscssccscccscscscssssscsssssccccccccsscsssscsssccccscscccssssscccssssssssssscsscssssssscsssssscssssccccssssssscssssscccssssscscccsssccssssssscsscsscsssssssssscscssccccscsssccccc" />
</svg>
